G04*
G04 #@! TF.GenerationSoftware,Altium Limited,Altium Designer,24.4.1 (13)*
G04*
G04 Layer_Color=16711935*
%FSLAX25Y25*%
%MOIN*%
G70*
G04*
G04 #@! TF.SameCoordinates,DC8B15D0-1A9E-40AA-8D40-3FFBE4892BC6*
G04*
G04*
G04 #@! TF.FilePolarity,Positive*
G04*
G01*
G75*
%ADD18C,0.00787*%
D18*
X112345Y206553D02*
X111348Y206528D01*
X110353Y206452D01*
X109364Y206326D01*
X108382Y206150D01*
X107411Y205925D01*
X106452Y205650D01*
X105508Y205328D01*
X104582Y204958D01*
X103675Y204541D01*
X102791Y204080D01*
X101932Y203574D01*
X101099Y203025D01*
X100295Y202434D01*
X99522Y201804D01*
X98782Y201135D01*
X98077Y200430D01*
X97408Y199690D01*
X96778Y198917D01*
X96188Y198113D01*
X95639Y197281D01*
X95133Y196421D01*
X94671Y195537D01*
X94255Y194631D01*
X93885Y193705D01*
X93562Y192761D01*
X93288Y191802D01*
X93063Y190831D01*
X92887Y189849D01*
X92761Y188859D01*
X92685Y187865D01*
X92660Y186868D01*
X450927Y186868D02*
X450902Y187865D01*
X450826Y188859D01*
X450700Y189849D01*
X450524Y190831D01*
X450299Y191802D01*
X450025Y192761D01*
X449702Y193705D01*
X449332Y194631D01*
X448916Y195537D01*
X448454Y196421D01*
X447948Y197281D01*
X447399Y198113D01*
X446809Y198917D01*
X446178Y199690D01*
X445510Y200430D01*
X444805Y201135D01*
X444065Y201804D01*
X443292Y202434D01*
X442488Y203025D01*
X441655Y203574D01*
X440796Y204080D01*
X439912Y204541D01*
X439005Y204958D01*
X438079Y205328D01*
X437135Y205650D01*
X436176Y205925D01*
X435205Y206150D01*
X434223Y206326D01*
X433234Y206452D01*
X432239Y206528D01*
X431242Y206553D01*
X431242Y84506D02*
X432239Y84531D01*
X433234Y84607D01*
X434223Y84733D01*
X435205Y84909D01*
X436176Y85134D01*
X437135Y85409D01*
X438079Y85731D01*
X439005Y86101D01*
X439912Y86518D01*
X440796Y86979D01*
X441655Y87485D01*
X442488Y88034D01*
X443292Y88624D01*
X444065Y89255D01*
X444805Y89923D01*
X445510Y90628D01*
X446178Y91369D01*
X446809Y92141D01*
X447399Y92945D01*
X447948Y93778D01*
X448454Y94638D01*
X448916Y95522D01*
X449332Y96428D01*
X449702Y97354D01*
X450025Y98298D01*
X450299Y99257D01*
X450524Y100228D01*
X450700Y101210D01*
X450826Y102199D01*
X450902Y103194D01*
X450927Y104191D01*
X92660D02*
X92685Y103194D01*
X92761Y102199D01*
X92887Y101210D01*
X93063Y100228D01*
X93288Y99257D01*
X93562Y98298D01*
X93885Y97354D01*
X94255Y96428D01*
X94671Y95522D01*
X95133Y94638D01*
X95639Y93778D01*
X96188Y92945D01*
X96778Y92141D01*
X97408Y91369D01*
X98077Y90628D01*
X98782Y89923D01*
X99522Y89255D01*
X100295Y88624D01*
X101099Y88034D01*
X101932Y87485D01*
X102791Y86979D01*
X103675Y86518D01*
X104582Y86101D01*
X105508Y85731D01*
X106452Y85409D01*
X107411Y85134D01*
X108382Y84909D01*
X109364Y84733D01*
X110353Y84607D01*
X111348Y84531D01*
X112345Y84506D01*
X112345Y206553D02*
X431242D01*
X450927Y104191D02*
Y186868D01*
X112345Y84506D02*
X431242D01*
X92660Y104191D02*
Y186868D01*
M02*
