G04*
G04 #@! TF.GenerationSoftware,Altium Limited,Altium Designer,24.4.1 (13)*
G04*
G04 Layer_Color=65535*
%FSLAX25Y25*%
%MOIN*%
G70*
G04*
G04 #@! TF.SameCoordinates,DC8B15D0-1A9E-40AA-8D40-3FFBE4892BC6*
G04*
G04*
G04 #@! TF.FilePolarity,Positive*
G04*
G01*
G75*
%ADD10C,0.01000*%
%ADD11C,0.00591*%
D10*
X114961Y120866D02*
Y162205D01*
Y120866D02*
X429921D01*
X114961Y162205D02*
X429921D01*
Y120866D02*
Y162205D01*
D11*
X359121Y96790D02*
Y95478D01*
Y96134D01*
X362401D01*
X363057Y95478D01*
Y94822D01*
X362401Y94166D01*
X359121Y98102D02*
X363057D01*
Y100069D01*
X362401Y100725D01*
X359777D01*
X359121Y100069D01*
Y98102D01*
X363713Y102037D02*
Y104661D01*
X359121Y105973D02*
X361745D01*
X363057Y107285D01*
X361745Y108597D01*
X359121D01*
X359777Y112533D02*
X359121Y111877D01*
Y110565D01*
X359777Y109909D01*
X362401D01*
X363057Y110565D01*
Y111877D01*
X362401Y112533D01*
X359777Y116468D02*
X359121Y115813D01*
Y114501D01*
X359777Y113845D01*
X362401D01*
X363057Y114501D01*
Y115813D01*
X362401Y116468D01*
X181448Y106629D02*
Y107941D01*
Y107285D01*
X185383D01*
Y106629D01*
Y107941D01*
Y109909D02*
X181448D01*
X185383Y112533D01*
X181448D01*
X182104Y113845D02*
X181448Y114501D01*
Y115813D01*
X182104Y116468D01*
X182759D01*
X183415Y115813D01*
Y115156D01*
Y115813D01*
X184071Y116468D01*
X184727D01*
X185383Y115813D01*
Y114501D01*
X184727Y113845D01*
X299460Y105973D02*
X302083D01*
X303395Y107285D01*
X302083Y108597D01*
X299460D01*
X300115Y112533D02*
X299460Y111877D01*
Y110565D01*
X300115Y109909D01*
X302739D01*
X303395Y110565D01*
Y111877D01*
X302739Y112533D01*
X300115Y116468D02*
X299460Y115813D01*
Y114501D01*
X300115Y113845D01*
X302739D01*
X303395Y114501D01*
Y115813D01*
X302739Y116468D01*
X201116Y106629D02*
Y107941D01*
Y107285D01*
X205052D01*
Y106629D01*
Y107941D01*
Y109909D02*
X201116D01*
X205052Y112533D01*
X201116D01*
X205052Y115813D02*
X201116D01*
X203084Y113845D01*
Y116468D01*
X142110Y107941D02*
Y109253D01*
Y108597D01*
X146046D01*
Y107941D01*
Y109253D01*
Y111221D02*
X142110D01*
X146046Y113845D01*
X142110D01*
X146046Y115156D02*
Y116468D01*
Y115813D01*
X142110D01*
X142766Y115156D01*
X123098Y108597D02*
X122442Y107941D01*
Y106629D01*
X123098Y105973D01*
X125721D01*
X126377Y106629D01*
Y107941D01*
X125721Y108597D01*
X124409D01*
Y107285D01*
X126377Y109909D02*
X122442D01*
X126377Y112533D01*
X122442D01*
Y113845D02*
X126377D01*
Y115813D01*
X125721Y116468D01*
X123098D01*
X122442Y115813D01*
Y113845D01*
X240454Y106629D02*
Y107941D01*
Y107285D01*
X244389D01*
Y106629D01*
Y107941D01*
Y109909D02*
X240454D01*
X244389Y112533D01*
X240454D01*
Y116468D02*
X241109Y115156D01*
X242421Y113845D01*
X243733D01*
X244389Y114501D01*
Y115813D01*
X243733Y116468D01*
X243077D01*
X242421Y115813D01*
Y113845D01*
X220785Y106629D02*
Y107941D01*
Y107285D01*
X224721D01*
Y106629D01*
Y107941D01*
Y109909D02*
X220785D01*
X224721Y112533D01*
X220785D01*
Y116468D02*
Y113845D01*
X222753D01*
X222097Y115156D01*
Y115813D01*
X222753Y116468D01*
X224065D01*
X224721Y115813D01*
Y114501D01*
X224065Y113845D01*
X161779Y106629D02*
Y107941D01*
Y107285D01*
X165715D01*
Y106629D01*
Y107941D01*
Y109909D02*
X161779D01*
X165715Y112533D01*
X161779D01*
X165715Y116468D02*
Y113845D01*
X163091Y116468D01*
X162435D01*
X161779Y115813D01*
Y114501D01*
X162435Y113845D01*
X279791Y106629D02*
Y107941D01*
Y107285D01*
X283727D01*
Y106629D01*
Y107941D01*
Y109909D02*
X279791D01*
X283727Y112533D01*
X279791D01*
X280447Y113845D02*
X279791Y114501D01*
Y115813D01*
X280447Y116468D01*
X281103D01*
X281759Y115813D01*
X282415Y116468D01*
X283071D01*
X283727Y115813D01*
Y114501D01*
X283071Y113845D01*
X282415D01*
X281759Y114501D01*
X281103Y113845D01*
X280447D01*
X281759Y114501D02*
Y115813D01*
X319784Y108597D02*
X319128Y107941D01*
Y106629D01*
X319784Y105973D01*
X322408D01*
X323064Y106629D01*
Y107941D01*
X322408Y108597D01*
X321096D01*
Y107285D01*
X323064Y109909D02*
X319128D01*
X323064Y112533D01*
X319128D01*
Y113845D02*
X323064D01*
Y115813D01*
X322408Y116468D01*
X319784D01*
X319128Y115813D01*
Y113845D01*
X260122Y106629D02*
Y107941D01*
Y107285D01*
X264058D01*
Y106629D01*
Y107941D01*
Y109909D02*
X260122D01*
X264058Y112533D01*
X260122D01*
Y113845D02*
Y116468D01*
X260778D01*
X263402Y113845D01*
X264058D01*
X338797Y105973D02*
X341421D01*
X342733Y107285D01*
X341421Y108597D01*
X338797D01*
X339453Y112533D02*
X338797Y111877D01*
Y110565D01*
X339453Y109909D01*
X342077D01*
X342733Y110565D01*
Y111877D01*
X342077Y112533D01*
X339453Y116468D02*
X338797Y115813D01*
Y114501D01*
X339453Y113845D01*
X342077D01*
X342733Y114501D01*
Y115813D01*
X342077Y116468D01*
M02*
