M48
;Layer_Color=9474304
;FILE_FORMAT=2:4
INCH,TZ
;TYPE=PLATED
T01F00S00C0.0400
T02F00S00C0.0492
%
T01
X38567Y18898
X39567
X40567
X21598
X20598
X19598
X18598
X17598
X16598
X15598
X14598
X13598
X12598
T02
X12480Y13032
X14449
X16417
X18386
X20354
X22323
X24291
X26260
X28228
X30197
X32165
X34134
X36102
X38071
X40039
X42008
M30
