M48
;Layer_Color=9474304
;FILE_FORMAT=2:4
INCH,TZ
;TYPE=PLATED
T01F00S00C0.0280
T02F00S00C0.0402
T03F00S00C0.0492
%
T01
X45276Y38189
T02
X21685Y9874
Y10874
X22685
Y11874
Y12874
X21685
Y13874
Y14874
X22685
Y13874
X21685Y11874
X22685Y9874
X39685Y11874
X40685
Y12874
X39685
Y13874
X40685
Y14874
X39685
Y15874
X40685
Y16874
Y17874
Y18874
X39685
Y19874
Y20874
X40685
Y21874
Y22874
Y23874
Y24874
Y25874
Y26874
Y27874
X39685
Y26874
Y25874
Y24874
Y23874
Y22874
Y21874
X40685Y19874
X39685Y17874
Y16874
Y29291
X40685
Y30291
X39685
X22685Y29882
Y28882
Y27882
X21685
Y28882
Y29882
Y30882
X22685
Y25874
X21685
Y24874
Y23874
Y22874
Y21874
Y20874
Y19874
Y18874
Y17874
X22685
Y16874
Y15874
X21685
Y16874
X22685Y18874
Y19874
Y20874
Y21874
Y22874
Y23874
Y24874
Y31882
Y32882
Y33882
Y34882
X21685
Y35882
Y36882
X22685
Y37882
Y38882
Y39882
Y40882
Y41882
Y42882
Y43882
X21685
Y42882
Y41882
Y40882
Y39882
Y38882
Y37882
X22685Y35882
X21685Y33882
Y32882
Y31882
X39685Y32291
X40685
Y33291
Y34291
Y35291
Y36291
X39685
Y37291
Y38291
X40685
Y39291
Y40291
Y41291
Y42291
Y43291
Y44291
Y45291
X39685
Y44291
Y43291
Y42291
Y41291
Y40291
Y39291
X40685Y37291
X39685Y35291
Y34291
Y33291
Y31291
X40685
T03
X25984Y4724
Y6693
Y8661
Y10630
Y12598
Y14567
X33465
Y12598
Y10630
Y8661
Y6693
Y4724
X44094
Y6693
Y8661
Y10630
Y12598
Y14567
Y16535
Y18504
Y20472
Y22441
Y24409
Y26378
Y28346
Y30315
X33465
Y28346
Y26378
Y24409
Y22441
Y20472
Y18504
Y16535
X25984
Y18504
Y20472
Y22441
Y24409
Y26378
Y28346
Y30315
X12992Y29528
Y27559
Y25591
Y23622
Y21654
Y19685
Y31496
Y33465
Y35433
Y37402
Y39370
Y41339
Y43307
Y45276
X25984
Y43307
Y41339
Y39370
Y34252
Y32283
X33465
Y34252
X33465Y39370
Y41339
Y43307
Y45276
X44094
Y43307
Y41339
Y39370
X44094Y34252
Y32283
X44094Y47244
Y49213
Y51181
Y53150
Y55118
Y57087
Y59055
Y61024
X33465
Y59055
Y57087
Y55118
Y53150
Y51181
Y49213
Y47244
X25984
Y49213
Y51181
Y53150
Y55118
Y57087
Y59055
Y61024
X12992Y49213
Y47244
X25984Y62992
Y64961
Y66929
Y68898
X33465
Y66929
Y64961
Y62992
X44094
Y64961
Y66929
Y68898
M30
