G04*
G04 #@! TF.GenerationSoftware,Altium Limited,Altium Designer,24.4.1 (13)*
G04*
G04 Layer_Physical_Order=2*
G04 Layer_Color=16711680*
%FSLAX25Y25*%
%MOIN*%
G70*
G04*
G04 #@! TF.SameCoordinates,F4A71C90-CAAB-4947-AAB5-C65089E2A4D9*
G04*
G04*
G04 #@! TF.FilePolarity,Positive*
G04*
G01*
G75*
%ADD11C,0.01000*%
%ADD15C,0.06299*%
%ADD16C,0.07677*%
%ADD17C,0.05000*%
G36*
X118110Y711394D02*
Y711394D01*
X118111Y711394D01*
X472099D01*
X472441Y711394D01*
Y711394D01*
X472790Y711392D01*
X475780Y711262D01*
X476331Y711218D01*
X479498Y710801D01*
X479862Y710744D01*
X483341Y709972D01*
X486845Y708868D01*
X490240Y707462D01*
X493499Y705765D01*
X496504Y703851D01*
X496803Y703633D01*
X499337Y701689D01*
X499757Y701330D01*
X501999Y699276D01*
X502426Y698849D01*
X504479Y696608D01*
X504839Y696187D01*
X506783Y693653D01*
X507000Y693355D01*
X508915Y690349D01*
X510611Y687090D01*
X512017Y683696D01*
X513122Y680192D01*
X513893Y676713D01*
X513951Y676348D01*
X514368Y673181D01*
X514411Y672630D01*
X514542Y669640D01*
X514544Y669291D01*
X514544Y669291D01*
Y55118D01*
X514544Y55118D01*
Y54729D01*
X514398Y51764D01*
X514322Y50990D01*
X513886Y48054D01*
X513735Y47291D01*
X513013Y44411D01*
X512788Y43667D01*
X511787Y40872D01*
X511490Y40154D01*
X510220Y37470D01*
X509854Y36784D01*
X508328Y34237D01*
X507896Y33591D01*
X506127Y31206D01*
X505634Y30606D01*
X503640Y28406D01*
X503090Y27856D01*
X500890Y25862D01*
X500290Y25369D01*
X497905Y23600D01*
X497259Y23168D01*
X494712Y21642D01*
X494027Y21276D01*
X491342Y20006D01*
X490625Y19709D01*
X487829Y18708D01*
X487085Y18483D01*
X484205Y17761D01*
X483443Y17610D01*
X480506Y17174D01*
X479732Y17098D01*
X476766Y16952D01*
X476378D01*
X476378Y16952D01*
X122047D01*
X122047Y16952D01*
X121745D01*
X118708Y17085D01*
X118157Y17128D01*
X114990Y17545D01*
X114626Y17603D01*
X111147Y18374D01*
X107643Y19479D01*
X104248Y20885D01*
X100989Y22581D01*
X97984Y24496D01*
X97686Y24713D01*
X95151Y26658D01*
X94731Y27016D01*
X92489Y29070D01*
X92063Y29497D01*
X90008Y31739D01*
X89650Y32159D01*
X87705Y34694D01*
X87488Y34992D01*
X85574Y37997D01*
X83877Y41256D01*
X82471Y44651D01*
X81366Y48155D01*
X80595Y51634D01*
X80537Y51998D01*
X80120Y55165D01*
X80077Y55716D01*
X79946Y58706D01*
X79944Y59055D01*
D01*
X79944Y59401D01*
Y673228D01*
X79944Y673229D01*
Y673617D01*
X80090Y676583D01*
X80166Y677356D01*
X80602Y680293D01*
X80753Y681055D01*
X81475Y683935D01*
X81700Y684679D01*
X82701Y687475D01*
X82998Y688193D01*
X84268Y690877D01*
X84634Y691562D01*
X86161Y694109D01*
X86592Y694755D01*
X88361Y697140D01*
X88854Y697741D01*
X90848Y699941D01*
X91398Y700491D01*
X93598Y702485D01*
X94198Y702977D01*
X96583Y704746D01*
X97229Y705178D01*
X99776Y706705D01*
X100462Y707071D01*
X103146Y708340D01*
X103864Y708638D01*
X106659Y709638D01*
X107403Y709864D01*
X110283Y710585D01*
X111046Y710737D01*
X113982Y711172D01*
X114756Y711248D01*
X117723Y711394D01*
X117760D01*
X118110Y711394D01*
D02*
G37*
%LPC*%
G36*
X260842Y693718D02*
Y689976D01*
X264584D01*
X264351Y690844D01*
X263714Y691947D01*
X262813Y692848D01*
X261710Y693485D01*
X260842Y693718D01*
D02*
G37*
G36*
X258842Y693718D02*
X257975Y693485D01*
X256872Y692848D01*
X255971Y691947D01*
X255334Y690844D01*
X255101Y689976D01*
X258842D01*
Y693718D01*
D02*
G37*
G36*
X441554Y693602D02*
X440336D01*
X439159Y693287D01*
X438104Y692678D01*
X437243Y691817D01*
X436634Y690762D01*
X436319Y689585D01*
Y688367D01*
X436634Y687191D01*
X437243Y686136D01*
X438104Y685275D01*
X439159Y684666D01*
X440336Y684350D01*
X441554D01*
X442730Y684666D01*
X443785Y685275D01*
X444647Y686136D01*
X445256Y687191D01*
X445571Y688367D01*
Y689585D01*
X445256Y690762D01*
X444647Y691817D01*
X443785Y692678D01*
X442730Y693287D01*
X441554Y693602D01*
D02*
G37*
G36*
X335255D02*
X334037D01*
X332860Y693287D01*
X331805Y692678D01*
X330944Y691817D01*
X330335Y690762D01*
X330020Y689585D01*
Y688367D01*
X330335Y687191D01*
X330944Y686136D01*
X331805Y685275D01*
X332860Y684666D01*
X334037Y684350D01*
X335255D01*
X336431Y684666D01*
X337486Y685275D01*
X338347Y686136D01*
X338956Y687191D01*
X339272Y688367D01*
Y689585D01*
X338956Y690762D01*
X338347Y691817D01*
X337486Y692678D01*
X336431Y693287D01*
X335255Y693602D01*
D02*
G37*
G36*
X258842Y687976D02*
X255101D01*
X255334Y687109D01*
X255971Y686005D01*
X256872Y685105D01*
X257975Y684468D01*
X258842Y684235D01*
Y687976D01*
D02*
G37*
G36*
X264584D02*
X260842D01*
Y684235D01*
X261710Y684468D01*
X262813Y685105D01*
X263714Y686005D01*
X264351Y687109D01*
X264584Y687976D01*
D02*
G37*
G36*
X441554Y673917D02*
X440336D01*
X439159Y673602D01*
X438104Y672993D01*
X437243Y672132D01*
X436634Y671077D01*
X436319Y669900D01*
Y668682D01*
X436634Y667506D01*
X437243Y666451D01*
X438104Y665590D01*
X439159Y664981D01*
X440336Y664665D01*
X441554D01*
X442730Y664981D01*
X443785Y665590D01*
X444647Y666451D01*
X445256Y667506D01*
X445571Y668682D01*
Y669900D01*
X445256Y671077D01*
X444647Y672132D01*
X443785Y672993D01*
X442730Y673602D01*
X441554Y673917D01*
D02*
G37*
G36*
X335255D02*
X334037D01*
X332860Y673602D01*
X331805Y672993D01*
X330944Y672132D01*
X330335Y671077D01*
X330020Y669900D01*
Y668682D01*
X330335Y667506D01*
X330944Y666451D01*
X331805Y665590D01*
X332860Y664981D01*
X334037Y664665D01*
X335255D01*
X336431Y664981D01*
X337486Y665590D01*
X338347Y666451D01*
X338956Y667506D01*
X339272Y668682D01*
Y669900D01*
X338956Y671077D01*
X338347Y672132D01*
X337486Y672993D01*
X336431Y673602D01*
X335255Y673917D01*
D02*
G37*
G36*
X260452D02*
X259233D01*
X258057Y673602D01*
X257002Y672993D01*
X256141Y672132D01*
X255532Y671077D01*
X255217Y669900D01*
Y668682D01*
X255532Y667506D01*
X256141Y666451D01*
X257002Y665590D01*
X258057Y664981D01*
X259233Y664665D01*
X260452D01*
X261628Y664981D01*
X262683Y665590D01*
X263544Y666451D01*
X264153Y667506D01*
X264469Y668682D01*
Y669900D01*
X264153Y671077D01*
X263544Y672132D01*
X262683Y672993D01*
X261628Y673602D01*
X260452Y673917D01*
D02*
G37*
G36*
X441554Y654232D02*
X440336D01*
X439159Y653917D01*
X438104Y653308D01*
X437243Y652447D01*
X436634Y651392D01*
X436319Y650215D01*
Y648997D01*
X436634Y647821D01*
X437243Y646766D01*
X438104Y645905D01*
X439159Y645296D01*
X440336Y644980D01*
X441554D01*
X442730Y645296D01*
X443785Y645905D01*
X444647Y646766D01*
X445256Y647821D01*
X445571Y648997D01*
Y650215D01*
X445256Y651392D01*
X444647Y652447D01*
X443785Y653308D01*
X442730Y653917D01*
X441554Y654232D01*
D02*
G37*
G36*
X335255D02*
X334037D01*
X332860Y653917D01*
X331805Y653308D01*
X330944Y652447D01*
X330335Y651392D01*
X330020Y650215D01*
Y648997D01*
X330335Y647821D01*
X330944Y646766D01*
X331805Y645905D01*
X332860Y645296D01*
X334037Y644980D01*
X335255D01*
X336431Y645296D01*
X337486Y645905D01*
X338347Y646766D01*
X338956Y647821D01*
X339272Y648997D01*
Y650215D01*
X338956Y651392D01*
X338347Y652447D01*
X337486Y653308D01*
X336431Y653917D01*
X335255Y654232D01*
D02*
G37*
G36*
X260452D02*
X259233D01*
X258057Y653917D01*
X257002Y653308D01*
X256141Y652447D01*
X255532Y651392D01*
X255217Y650215D01*
Y648997D01*
X255532Y647821D01*
X256141Y646766D01*
X257002Y645905D01*
X258057Y645296D01*
X259233Y644980D01*
X260452D01*
X261628Y645296D01*
X262683Y645905D01*
X263544Y646766D01*
X264153Y647821D01*
X264469Y648997D01*
Y650215D01*
X264153Y651392D01*
X263544Y652447D01*
X262683Y653308D01*
X261628Y653917D01*
X260452Y654232D01*
D02*
G37*
G36*
X441554Y634547D02*
X440336D01*
X439159Y634232D01*
X438104Y633623D01*
X437243Y632762D01*
X436634Y631707D01*
X436319Y630530D01*
Y629312D01*
X436634Y628136D01*
X437243Y627081D01*
X438104Y626220D01*
X439159Y625610D01*
X440336Y625295D01*
X441554D01*
X442730Y625610D01*
X443785Y626220D01*
X444647Y627081D01*
X445256Y628136D01*
X445571Y629312D01*
Y630530D01*
X445256Y631707D01*
X444647Y632762D01*
X443785Y633623D01*
X442730Y634232D01*
X441554Y634547D01*
D02*
G37*
G36*
X335255D02*
X334037D01*
X332860Y634232D01*
X331805Y633623D01*
X330944Y632762D01*
X330335Y631707D01*
X330020Y630530D01*
Y629312D01*
X330335Y628136D01*
X330944Y627081D01*
X331805Y626220D01*
X332860Y625610D01*
X334037Y625295D01*
X335255D01*
X336431Y625610D01*
X337486Y626220D01*
X338347Y627081D01*
X338956Y628136D01*
X339272Y629312D01*
Y630530D01*
X338956Y631707D01*
X338347Y632762D01*
X337486Y633623D01*
X336431Y634232D01*
X335255Y634547D01*
D02*
G37*
G36*
X260452D02*
X259233D01*
X258057Y634232D01*
X257002Y633623D01*
X256141Y632762D01*
X255532Y631707D01*
X255217Y630530D01*
Y629312D01*
X255532Y628136D01*
X255777Y627712D01*
X186867Y558802D01*
X186583Y558376D01*
X186483Y557874D01*
Y149606D01*
X186583Y149104D01*
X186867Y148678D01*
X197733Y137812D01*
X198159Y137528D01*
X198661Y137427D01*
X213126D01*
X213182Y137221D01*
X213700Y136323D01*
X214433Y135590D01*
X215331Y135072D01*
X216332Y134803D01*
X217369D01*
X218370Y135072D01*
X219268Y135590D01*
X220001Y136323D01*
X220519Y137221D01*
X220787Y138222D01*
Y139259D01*
X220519Y140260D01*
X220001Y141157D01*
X219268Y141891D01*
X218370Y142409D01*
X217369Y142677D01*
X216332D01*
X215331Y142409D01*
X214433Y141891D01*
X213700Y141157D01*
X213182Y140260D01*
X213126Y140053D01*
X199205D01*
X189108Y150150D01*
Y557330D01*
X257633Y625855D01*
X258057Y625610D01*
X259233Y625295D01*
X260452D01*
X261628Y625610D01*
X262683Y626220D01*
X263544Y627081D01*
X264153Y628136D01*
X264469Y629312D01*
Y630530D01*
X264153Y631707D01*
X263544Y632762D01*
X262683Y633623D01*
X261628Y634232D01*
X260452Y634547D01*
D02*
G37*
G36*
X441554Y614862D02*
X440336D01*
X439159Y614547D01*
X438104Y613938D01*
X437243Y613077D01*
X436634Y612022D01*
X436319Y610845D01*
Y609627D01*
X436634Y608451D01*
X437243Y607396D01*
X438104Y606534D01*
X439159Y605926D01*
X440336Y605610D01*
X441554D01*
X442730Y605926D01*
X443785Y606534D01*
X444647Y607396D01*
X445256Y608451D01*
X445571Y609627D01*
Y610845D01*
X445256Y612022D01*
X444647Y613077D01*
X443785Y613938D01*
X442730Y614547D01*
X441554Y614862D01*
D02*
G37*
G36*
X335255D02*
X334037D01*
X332860Y614547D01*
X331805Y613938D01*
X330944Y613077D01*
X330335Y612022D01*
X330020Y610845D01*
Y609627D01*
X330335Y608451D01*
X330944Y607396D01*
X331805Y606534D01*
X332860Y605926D01*
X334037Y605610D01*
X335255D01*
X336431Y605926D01*
X337486Y606534D01*
X338347Y607396D01*
X338956Y608451D01*
X339272Y609627D01*
Y610845D01*
X338956Y612022D01*
X338347Y613077D01*
X337486Y613938D01*
X336431Y614547D01*
X335255Y614862D01*
D02*
G37*
G36*
X260452D02*
X259233D01*
X258057Y614547D01*
X257002Y613938D01*
X256141Y613077D01*
X255532Y612022D01*
X255217Y610845D01*
Y609627D01*
X255532Y608451D01*
X255777Y608027D01*
X191198Y543448D01*
X190913Y543022D01*
X190813Y542520D01*
Y170866D01*
X190913Y170364D01*
X191198Y169938D01*
X203324Y157812D01*
X203750Y157527D01*
X204252Y157428D01*
X213126D01*
X213182Y157221D01*
X213700Y156323D01*
X214433Y155590D01*
X215331Y155071D01*
X216332Y154803D01*
X217369D01*
X218370Y155071D01*
X219268Y155590D01*
X220001Y156323D01*
X220519Y157221D01*
X220787Y158222D01*
Y159258D01*
X220519Y160260D01*
X220001Y161158D01*
X219268Y161891D01*
X218370Y162409D01*
X217369Y162677D01*
X216332D01*
X215331Y162409D01*
X214433Y161891D01*
X213700Y161158D01*
X213182Y160260D01*
X213126Y160053D01*
X204796D01*
X193439Y171410D01*
Y541976D01*
X257633Y606170D01*
X258057Y605926D01*
X259233Y605610D01*
X260452D01*
X261628Y605926D01*
X262683Y606534D01*
X263544Y607396D01*
X264153Y608451D01*
X264469Y609627D01*
Y610845D01*
X264153Y612022D01*
X263544Y613077D01*
X262683Y613938D01*
X261628Y614547D01*
X260452Y614862D01*
D02*
G37*
G36*
X441554Y595177D02*
X440336D01*
X439159Y594862D01*
X438104Y594253D01*
X437243Y593392D01*
X436634Y592337D01*
X436319Y591160D01*
Y589942D01*
X436634Y588766D01*
X437243Y587711D01*
X438104Y586849D01*
X439159Y586240D01*
X440336Y585925D01*
X441554D01*
X442730Y586240D01*
X443785Y586849D01*
X444647Y587711D01*
X445256Y588766D01*
X445571Y589942D01*
Y591160D01*
X445256Y592337D01*
X444647Y593392D01*
X443785Y594253D01*
X442730Y594862D01*
X441554Y595177D01*
D02*
G37*
G36*
X335255D02*
X334037D01*
X332860Y594862D01*
X331805Y594253D01*
X330944Y593392D01*
X330335Y592337D01*
X330020Y591160D01*
Y589942D01*
X330335Y588766D01*
X330944Y587711D01*
X331805Y586849D01*
X332860Y586240D01*
X334037Y585925D01*
X335255D01*
X336431Y586240D01*
X337486Y586849D01*
X338347Y587711D01*
X338956Y588766D01*
X339272Y589942D01*
Y591160D01*
X338956Y592337D01*
X338347Y593392D01*
X337486Y594253D01*
X336431Y594862D01*
X335255Y595177D01*
D02*
G37*
G36*
X260452D02*
X259233D01*
X258057Y594862D01*
X257002Y594253D01*
X256141Y593392D01*
X255532Y592337D01*
X255217Y591160D01*
Y589942D01*
X255532Y588766D01*
X255777Y588342D01*
X195549Y528114D01*
X195264Y527688D01*
X195165Y527186D01*
Y177539D01*
X195264Y177036D01*
X195549Y176610D01*
X204347Y167812D01*
X204773Y167527D01*
X205276Y167428D01*
X213126D01*
X213182Y167221D01*
X213700Y166323D01*
X214433Y165590D01*
X215331Y165071D01*
X216332Y164803D01*
X217369D01*
X218370Y165071D01*
X219268Y165590D01*
X220001Y166323D01*
X220519Y167221D01*
X220787Y168222D01*
Y169258D01*
X220519Y170260D01*
X220001Y171158D01*
X219268Y171891D01*
X218370Y172409D01*
X217369Y172677D01*
X216332D01*
X215331Y172409D01*
X214433Y171891D01*
X213700Y171158D01*
X213182Y170260D01*
X213126Y170053D01*
X205819D01*
X197790Y178082D01*
Y526642D01*
X257633Y586485D01*
X258057Y586240D01*
X259233Y585925D01*
X260452D01*
X261628Y586240D01*
X262683Y586849D01*
X263544Y587711D01*
X264153Y588766D01*
X264469Y589942D01*
Y591160D01*
X264153Y592337D01*
X263544Y593392D01*
X262683Y594253D01*
X261628Y594862D01*
X260452Y595177D01*
D02*
G37*
G36*
X441554Y575492D02*
X440336D01*
X439159Y575177D01*
X438104Y574568D01*
X437243Y573707D01*
X436634Y572652D01*
X436319Y571475D01*
Y570257D01*
X436634Y569081D01*
X437243Y568026D01*
X438104Y567165D01*
X439159Y566556D01*
X440336Y566240D01*
X441554D01*
X442730Y566556D01*
X443785Y567165D01*
X444647Y568026D01*
X445256Y569081D01*
X445571Y570257D01*
Y571475D01*
X445256Y572652D01*
X444647Y573707D01*
X443785Y574568D01*
X442730Y575177D01*
X441554Y575492D01*
D02*
G37*
G36*
X260452D02*
X259233D01*
X258057Y575177D01*
X257002Y574568D01*
X256141Y573707D01*
X255532Y572652D01*
X255217Y571475D01*
Y570257D01*
X255532Y569081D01*
X255777Y568657D01*
X199859Y512739D01*
X199575Y512313D01*
X199475Y511811D01*
Y178740D01*
X199575Y178238D01*
X199859Y177812D01*
X200285Y177527D01*
X200787Y177427D01*
X213126D01*
X213182Y177221D01*
X213700Y176323D01*
X214433Y175590D01*
X215331Y175072D01*
X216332Y174803D01*
X217369D01*
X218370Y175072D01*
X219268Y175590D01*
X220001Y176323D01*
X220519Y177221D01*
X220787Y178222D01*
Y179259D01*
X220519Y180260D01*
X220001Y181158D01*
X219268Y181891D01*
X218370Y182409D01*
X217369Y182677D01*
X216332D01*
X215331Y182409D01*
X214433Y181891D01*
X213700Y181158D01*
X213182Y180260D01*
X213126Y180053D01*
X202100D01*
Y193974D01*
X202450Y194119D01*
X208757Y187812D01*
X209183Y187528D01*
X209685Y187427D01*
X213126D01*
X213182Y187221D01*
X213700Y186323D01*
X214433Y185590D01*
X215331Y185072D01*
X216332Y184803D01*
X217369D01*
X218370Y185072D01*
X219268Y185590D01*
X220001Y186323D01*
X220519Y187221D01*
X220787Y188222D01*
Y189259D01*
X220519Y190260D01*
X220001Y191157D01*
X219268Y191891D01*
X218370Y192409D01*
X217369Y192677D01*
X216332D01*
X215331Y192409D01*
X214433Y191891D01*
X213700Y191157D01*
X213182Y190260D01*
X213126Y190053D01*
X210229D01*
X204462Y195819D01*
Y510378D01*
X243953Y549869D01*
X255405D01*
X255532Y549396D01*
X256141Y548341D01*
X257002Y547479D01*
X258057Y546871D01*
X259233Y546555D01*
X260452D01*
X261628Y546871D01*
X262683Y547479D01*
X263544Y548341D01*
X264153Y549396D01*
X264469Y550572D01*
Y551790D01*
X264153Y552967D01*
X263544Y554022D01*
X262683Y554883D01*
X261628Y555492D01*
X260452Y555807D01*
X259233D01*
X258057Y555492D01*
X257002Y554883D01*
X256141Y554022D01*
X255532Y552967D01*
X255405Y552494D01*
X243822D01*
X243676Y552844D01*
X257633Y566800D01*
X258057Y566556D01*
X259233Y566240D01*
X260452D01*
X261628Y566556D01*
X262683Y567165D01*
X263544Y568026D01*
X264153Y569081D01*
X264469Y570257D01*
Y571475D01*
X264153Y572652D01*
X263544Y573707D01*
X262683Y574568D01*
X261628Y575177D01*
X260452Y575492D01*
D02*
G37*
G36*
X441554Y555807D02*
X440336D01*
X439159Y555492D01*
X438104Y554883D01*
X437243Y554022D01*
X436634Y552967D01*
X436319Y551790D01*
Y550572D01*
X436634Y549396D01*
X437243Y548341D01*
X438104Y547479D01*
X439159Y546871D01*
X440336Y546555D01*
X441554D01*
X442730Y546871D01*
X443785Y547479D01*
X444647Y548341D01*
X445256Y549396D01*
X445571Y550572D01*
Y551790D01*
X445256Y552967D01*
X444647Y554022D01*
X443785Y554883D01*
X442730Y555492D01*
X441554Y555807D01*
D02*
G37*
G36*
Y536122D02*
X440336D01*
X439159Y535807D01*
X438104Y535198D01*
X437243Y534336D01*
X436634Y533282D01*
X436319Y532105D01*
Y530887D01*
X436634Y529710D01*
X437243Y528656D01*
X438104Y527794D01*
X439159Y527185D01*
X440336Y526870D01*
X441554D01*
X442730Y527185D01*
X443785Y527794D01*
X444647Y528656D01*
X445256Y529710D01*
X445571Y530887D01*
Y532105D01*
X445256Y533282D01*
X444647Y534336D01*
X443785Y535198D01*
X442730Y535807D01*
X441554Y536122D01*
D02*
G37*
G36*
X260452D02*
X259233D01*
X258057Y535807D01*
X257002Y535198D01*
X256141Y534336D01*
X255532Y533282D01*
X255217Y532105D01*
Y530887D01*
X255532Y529710D01*
X256141Y528656D01*
X257002Y527794D01*
X258057Y527185D01*
X259233Y526870D01*
X260452D01*
X261628Y527185D01*
X262683Y527794D01*
X263544Y528656D01*
X264153Y529710D01*
X264469Y530887D01*
Y532105D01*
X264153Y533282D01*
X263544Y534336D01*
X262683Y535198D01*
X261628Y535807D01*
X260452Y536122D01*
D02*
G37*
G36*
X335255Y575492D02*
X334037D01*
X332860Y575177D01*
X331805Y574568D01*
X330944Y573707D01*
X330335Y572652D01*
X330020Y571475D01*
Y570257D01*
X330335Y569081D01*
X330944Y568026D01*
X331805Y567165D01*
X332860Y566556D01*
X334037Y566240D01*
X335255D01*
X336431Y566556D01*
X336855Y566800D01*
X366866Y536789D01*
Y521312D01*
X366516Y521167D01*
X338712Y548972D01*
X338956Y549396D01*
X339272Y550572D01*
Y551790D01*
X338956Y552967D01*
X338347Y554022D01*
X337486Y554883D01*
X336431Y555492D01*
X335255Y555807D01*
X334037D01*
X332860Y555492D01*
X331805Y554883D01*
X330944Y554022D01*
X330335Y552967D01*
X330020Y551790D01*
Y550572D01*
X330335Y549396D01*
X330944Y548341D01*
X331805Y547479D01*
X332860Y546871D01*
X334037Y546555D01*
X335255D01*
X336431Y546871D01*
X336855Y547115D01*
X364567Y519403D01*
Y403884D01*
X364667Y403382D01*
X364952Y402956D01*
X393289Y374619D01*
X393182Y374433D01*
X392913Y373432D01*
Y372395D01*
X393182Y371394D01*
X393700Y370496D01*
X394433Y369763D01*
X395331Y369245D01*
X396332Y368976D01*
X397369D01*
X398370Y369245D01*
X399268Y369763D01*
X400001Y370496D01*
X400519Y371394D01*
X400787Y372395D01*
Y373432D01*
X400519Y374433D01*
X400001Y375331D01*
X399268Y376064D01*
X398370Y376582D01*
X397369Y376850D01*
X396332D01*
X395331Y376582D01*
X395145Y376475D01*
X367193Y404428D01*
Y410220D01*
X367543Y410365D01*
X393289Y384619D01*
X393182Y384433D01*
X392913Y383432D01*
Y382395D01*
X393182Y381394D01*
X393700Y380496D01*
X394433Y379763D01*
X395331Y379245D01*
X396332Y378976D01*
X397369D01*
X398370Y379245D01*
X399268Y379763D01*
X400001Y380496D01*
X400519Y381394D01*
X400787Y382395D01*
Y383432D01*
X400519Y384433D01*
X400001Y385331D01*
X399268Y386064D01*
X398370Y386582D01*
X397369Y386850D01*
X396332D01*
X395331Y386582D01*
X395145Y386475D01*
X369492Y412128D01*
Y537333D01*
X369392Y537835D01*
X369107Y538261D01*
X338712Y568657D01*
X338956Y569081D01*
X339272Y570257D01*
Y571475D01*
X338956Y572652D01*
X338347Y573707D01*
X337486Y574568D01*
X336431Y575177D01*
X335255Y575492D01*
D02*
G37*
G36*
X441554Y516437D02*
X440336D01*
X439159Y516122D01*
X438104Y515513D01*
X437243Y514651D01*
X436634Y513597D01*
X436319Y512420D01*
Y511202D01*
X436634Y510025D01*
X437243Y508971D01*
X438104Y508109D01*
X439159Y507500D01*
X440336Y507185D01*
X441554D01*
X442730Y507500D01*
X443785Y508109D01*
X444647Y508971D01*
X445256Y510025D01*
X445571Y511202D01*
Y512420D01*
X445256Y513597D01*
X444647Y514651D01*
X443785Y515513D01*
X442730Y516122D01*
X441554Y516437D01*
D02*
G37*
G36*
X335255D02*
X334037D01*
X332860Y516122D01*
X331805Y515513D01*
X330944Y514651D01*
X330335Y513597D01*
X330020Y512420D01*
Y511202D01*
X330335Y510025D01*
X330944Y508971D01*
X331805Y508109D01*
X332860Y507500D01*
X334037Y507185D01*
X335255D01*
X336431Y507500D01*
X337486Y508109D01*
X338347Y508971D01*
X338956Y510025D01*
X339272Y511202D01*
Y512420D01*
X338956Y513597D01*
X338347Y514651D01*
X337486Y515513D01*
X336431Y516122D01*
X335255Y516437D01*
D02*
G37*
G36*
X260452D02*
X259233D01*
X258057Y516122D01*
X257002Y515513D01*
X256141Y514651D01*
X255532Y513597D01*
X255217Y512420D01*
Y511202D01*
X255532Y510025D01*
X256141Y508971D01*
X257002Y508109D01*
X258057Y507500D01*
X259233Y507185D01*
X260452D01*
X261628Y507500D01*
X262683Y508109D01*
X263544Y508971D01*
X264153Y510025D01*
X264469Y511202D01*
Y512420D01*
X264153Y513597D01*
X263544Y514651D01*
X262683Y515513D01*
X261628Y516122D01*
X260452Y516437D01*
D02*
G37*
G36*
X130921Y496867D02*
Y493126D01*
X134663D01*
X134430Y493994D01*
X133793Y495097D01*
X132892Y495998D01*
X131789Y496635D01*
X130921Y496867D01*
D02*
G37*
G36*
X128921D02*
X128054Y496635D01*
X126951Y495998D01*
X126050Y495097D01*
X125413Y493994D01*
X125180Y493126D01*
X128921D01*
Y496867D01*
D02*
G37*
G36*
X441554Y496752D02*
X440336D01*
X439159Y496437D01*
X438104Y495828D01*
X437243Y494966D01*
X436634Y493912D01*
X436319Y492735D01*
Y491517D01*
X436634Y490340D01*
X436879Y489916D01*
X418239Y471277D01*
X417955Y470851D01*
X417855Y470349D01*
Y355774D01*
X408556Y346475D01*
X408370Y346582D01*
X407369Y346850D01*
X406332D01*
X405331Y346582D01*
X404433Y346064D01*
X403700Y345331D01*
X403182Y344433D01*
X402913Y343432D01*
Y342395D01*
X403182Y341394D01*
X403700Y340496D01*
X404433Y339763D01*
X405331Y339245D01*
X406332Y338976D01*
X407369D01*
X408370Y339245D01*
X409268Y339763D01*
X410001Y340496D01*
X410519Y341394D01*
X410787Y342395D01*
Y343432D01*
X410519Y344433D01*
X410412Y344619D01*
X419804Y354011D01*
X420154Y353866D01*
Y348073D01*
X408556Y336475D01*
X408370Y336582D01*
X407369Y336850D01*
X406332D01*
X405331Y336582D01*
X404433Y336064D01*
X403700Y335331D01*
X403182Y334433D01*
X402913Y333432D01*
Y332395D01*
X403182Y331394D01*
X403700Y330496D01*
X404433Y329763D01*
X405331Y329245D01*
X406332Y328976D01*
X407369D01*
X408370Y329245D01*
X409268Y329763D01*
X410001Y330496D01*
X410519Y331394D01*
X410787Y332395D01*
Y333432D01*
X410519Y334433D01*
X410412Y334619D01*
X422103Y346310D01*
X422453Y346165D01*
Y340372D01*
X408556Y326475D01*
X408370Y326582D01*
X407369Y326850D01*
X406332D01*
X405331Y326582D01*
X404433Y326064D01*
X403700Y325331D01*
X403182Y324433D01*
X402913Y323432D01*
Y322395D01*
X403182Y321394D01*
X403700Y320496D01*
X404433Y319763D01*
X405331Y319245D01*
X406332Y318976D01*
X407369D01*
X408370Y319245D01*
X409268Y319763D01*
X410001Y320496D01*
X410519Y321394D01*
X410787Y322395D01*
Y323432D01*
X410519Y324433D01*
X410412Y324619D01*
X424694Y338901D01*
X424978Y339327D01*
X425078Y339829D01*
Y435033D01*
X438735Y448690D01*
X439159Y448445D01*
X440336Y448130D01*
X441554D01*
X442730Y448445D01*
X443785Y449054D01*
X444647Y449916D01*
X445256Y450970D01*
X445571Y452147D01*
Y453365D01*
X445256Y454542D01*
X444647Y455596D01*
X443785Y456458D01*
X442730Y457067D01*
X441554Y457382D01*
X440336D01*
X439159Y457067D01*
X438104Y456458D01*
X437243Y455596D01*
X436634Y454542D01*
X436319Y453365D01*
Y452147D01*
X436634Y450970D01*
X436879Y450546D01*
X423129Y436797D01*
X422779Y436942D01*
Y452419D01*
X438735Y468375D01*
X439159Y468130D01*
X440336Y467815D01*
X441554D01*
X442730Y468130D01*
X443785Y468739D01*
X444647Y469601D01*
X445256Y470655D01*
X445571Y471832D01*
Y473050D01*
X445256Y474227D01*
X444647Y475281D01*
X443785Y476143D01*
X442730Y476752D01*
X441554Y477067D01*
X440336D01*
X439159Y476752D01*
X438104Y476143D01*
X437243Y475281D01*
X436634Y474227D01*
X436319Y473050D01*
Y471832D01*
X436634Y470655D01*
X436879Y470231D01*
X420830Y454182D01*
X420480Y454327D01*
Y469805D01*
X438735Y488060D01*
X439159Y487815D01*
X440336Y487500D01*
X441554D01*
X442730Y487815D01*
X443785Y488424D01*
X444647Y489286D01*
X445256Y490340D01*
X445571Y491517D01*
Y492735D01*
X445256Y493912D01*
X444647Y494966D01*
X443785Y495828D01*
X442730Y496437D01*
X441554Y496752D01*
D02*
G37*
G36*
X335255D02*
X334037D01*
X332860Y496437D01*
X331805Y495828D01*
X330944Y494966D01*
X330335Y493912D01*
X330020Y492735D01*
Y491517D01*
X330335Y490340D01*
X330944Y489286D01*
X331805Y488424D01*
X332860Y487815D01*
X334037Y487500D01*
X335255D01*
X336431Y487815D01*
X337486Y488424D01*
X338347Y489286D01*
X338956Y490340D01*
X339272Y491517D01*
Y492735D01*
X338956Y493912D01*
X338347Y494966D01*
X337486Y495828D01*
X336431Y496437D01*
X335255Y496752D01*
D02*
G37*
G36*
X260452D02*
X259233D01*
X258057Y496437D01*
X257002Y495828D01*
X256141Y494966D01*
X255532Y493912D01*
X255217Y492735D01*
Y491517D01*
X255532Y490340D01*
X256141Y489286D01*
X257002Y488424D01*
X258057Y487815D01*
X259233Y487500D01*
X260452D01*
X261628Y487815D01*
X262683Y488424D01*
X263544Y489286D01*
X264153Y490340D01*
X264469Y491517D01*
Y492735D01*
X264153Y493912D01*
X263544Y494966D01*
X262683Y495828D01*
X261628Y496437D01*
X260452Y496752D01*
D02*
G37*
G36*
X134663Y491126D02*
X130921D01*
Y487385D01*
X131789Y487617D01*
X132892Y488254D01*
X133793Y489155D01*
X134430Y490258D01*
X134663Y491126D01*
D02*
G37*
G36*
X128921D02*
X125180D01*
X125413Y490258D01*
X126050Y489155D01*
X126951Y488254D01*
X128054Y487617D01*
X128921Y487385D01*
Y491126D01*
D02*
G37*
G36*
X130921Y477182D02*
Y473441D01*
X134663D01*
X134430Y474309D01*
X133793Y475412D01*
X132892Y476313D01*
X131789Y476950D01*
X130921Y477182D01*
D02*
G37*
G36*
X128921D02*
X128054Y476950D01*
X126951Y476313D01*
X126050Y475412D01*
X125413Y474309D01*
X125180Y473441D01*
X128921D01*
Y477182D01*
D02*
G37*
G36*
X335255Y477067D02*
X334037D01*
X332860Y476752D01*
X331805Y476143D01*
X330944Y475281D01*
X330335Y474227D01*
X330020Y473050D01*
Y471832D01*
X330335Y470655D01*
X330944Y469601D01*
X331805Y468739D01*
X332860Y468130D01*
X334037Y467815D01*
X335255D01*
X336431Y468130D01*
X337486Y468739D01*
X338347Y469601D01*
X338956Y470655D01*
X339272Y471832D01*
Y473050D01*
X338956Y474227D01*
X338347Y475281D01*
X337486Y476143D01*
X336431Y476752D01*
X335255Y477067D01*
D02*
G37*
G36*
X260452D02*
X259233D01*
X258057Y476752D01*
X257002Y476143D01*
X256141Y475281D01*
X255532Y474227D01*
X255217Y473050D01*
Y471832D01*
X255532Y470655D01*
X255777Y470231D01*
X238442Y452897D01*
X238157Y452471D01*
X238057Y451968D01*
Y321016D01*
X237173Y320132D01*
X230575D01*
X230519Y320339D01*
X230001Y321236D01*
X229268Y321969D01*
X228370Y322488D01*
X227369Y322756D01*
X226332D01*
X225331Y322488D01*
X224433Y321969D01*
X223700Y321236D01*
X223182Y320339D01*
X222913Y319337D01*
Y318301D01*
X223182Y317299D01*
X223700Y316402D01*
X224433Y315669D01*
X225331Y315150D01*
X226332Y314882D01*
X227369D01*
X228370Y315150D01*
X229268Y315669D01*
X230001Y316402D01*
X230519Y317299D01*
X230575Y317506D01*
X237717D01*
X238219Y317606D01*
X238645Y317891D01*
X240298Y319544D01*
X240463Y319791D01*
X240813Y319685D01*
Y314323D01*
X236622Y310132D01*
X230575D01*
X230519Y310339D01*
X230001Y311236D01*
X229268Y311969D01*
X228370Y312488D01*
X227369Y312756D01*
X226332D01*
X225331Y312488D01*
X224433Y311969D01*
X223700Y311236D01*
X223182Y310339D01*
X222913Y309337D01*
Y308301D01*
X223182Y307299D01*
X223700Y306402D01*
X224433Y305669D01*
X225331Y305150D01*
X226332Y304882D01*
X227369D01*
X228370Y305150D01*
X229268Y305669D01*
X230001Y306402D01*
X230519Y307299D01*
X230575Y307506D01*
X237165D01*
X237668Y307606D01*
X238094Y307891D01*
X243054Y312851D01*
X243339Y313277D01*
X243439Y313779D01*
Y434496D01*
X257633Y448690D01*
X258057Y448445D01*
X259233Y448130D01*
X260452D01*
X261628Y448445D01*
X262683Y449054D01*
X263544Y449916D01*
X264153Y450970D01*
X264469Y452147D01*
Y453365D01*
X264153Y454542D01*
X263544Y455596D01*
X262683Y456458D01*
X261628Y457067D01*
X260452Y457382D01*
X259233D01*
X258057Y457067D01*
X257002Y456458D01*
X256141Y455596D01*
X255532Y454542D01*
X255217Y453365D01*
Y452147D01*
X255532Y450970D01*
X255777Y450546D01*
X241198Y435968D01*
X241033Y435720D01*
X240683Y435827D01*
Y451425D01*
X257633Y468375D01*
X258057Y468130D01*
X259233Y467815D01*
X260452D01*
X261628Y468130D01*
X262683Y468739D01*
X263544Y469601D01*
X264153Y470655D01*
X264469Y471832D01*
Y473050D01*
X264153Y474227D01*
X263544Y475281D01*
X262683Y476143D01*
X261628Y476752D01*
X260452Y477067D01*
D02*
G37*
G36*
X134663Y471441D02*
X130921D01*
Y467700D01*
X131789Y467932D01*
X132892Y468569D01*
X133793Y469470D01*
X134430Y470573D01*
X134663Y471441D01*
D02*
G37*
G36*
X128921D02*
X125180D01*
X125413Y470573D01*
X126050Y469470D01*
X126951Y468569D01*
X128054Y467932D01*
X128921Y467700D01*
Y471441D01*
D02*
G37*
G36*
X130921Y457497D02*
Y453756D01*
X134663D01*
X134430Y454624D01*
X133793Y455727D01*
X132892Y456628D01*
X131789Y457265D01*
X130921Y457497D01*
D02*
G37*
G36*
X128921D02*
X128054Y457265D01*
X126951Y456628D01*
X126050Y455727D01*
X125413Y454624D01*
X125180Y453756D01*
X128921D01*
Y457497D01*
D02*
G37*
G36*
X407369Y456850D02*
X406332D01*
X405331Y456582D01*
X404433Y456064D01*
X403700Y455331D01*
X403182Y454433D01*
X402913Y453432D01*
Y452395D01*
X403182Y451394D01*
X403700Y450496D01*
X404433Y449763D01*
X405331Y449245D01*
X406332Y448976D01*
X407369D01*
X408370Y449245D01*
X409268Y449763D01*
X410001Y450496D01*
X410519Y451394D01*
X410787Y452395D01*
Y453432D01*
X410519Y454433D01*
X410001Y455331D01*
X409268Y456064D01*
X408370Y456582D01*
X407369Y456850D01*
D02*
G37*
G36*
X397369D02*
X396332D01*
X395331Y456582D01*
X394433Y456064D01*
X393700Y455331D01*
X393182Y454433D01*
X392913Y453432D01*
Y452395D01*
X393182Y451394D01*
X393700Y450496D01*
X394433Y449763D01*
X395331Y449245D01*
X396332Y448976D01*
X397369D01*
X398370Y449245D01*
X399268Y449763D01*
X400001Y450496D01*
X400519Y451394D01*
X400787Y452395D01*
Y453432D01*
X400519Y454433D01*
X400001Y455331D01*
X399268Y456064D01*
X398370Y456582D01*
X397369Y456850D01*
D02*
G37*
G36*
X335255Y457382D02*
X334037D01*
X332860Y457067D01*
X331805Y456458D01*
X330944Y455596D01*
X330335Y454542D01*
X330020Y453365D01*
Y452147D01*
X330335Y450970D01*
X330944Y449916D01*
X331805Y449054D01*
X332860Y448445D01*
X334037Y448130D01*
X335255D01*
X336431Y448445D01*
X337486Y449054D01*
X338347Y449916D01*
X338956Y450970D01*
X339272Y452147D01*
Y453365D01*
X338956Y454542D01*
X338347Y455596D01*
X337486Y456458D01*
X336431Y457067D01*
X335255Y457382D01*
D02*
G37*
G36*
X134663Y451756D02*
X130921D01*
Y448015D01*
X131789Y448247D01*
X132892Y448884D01*
X133793Y449785D01*
X134430Y450888D01*
X134663Y451756D01*
D02*
G37*
G36*
X128921D02*
X125180D01*
X125413Y450888D01*
X126050Y449785D01*
X126951Y448884D01*
X128054Y448247D01*
X128921Y448015D01*
Y451756D01*
D02*
G37*
G36*
X407369Y446850D02*
X406332D01*
X405331Y446582D01*
X404433Y446064D01*
X403700Y445331D01*
X403182Y444433D01*
X402913Y443432D01*
Y442395D01*
X403182Y441394D01*
X403700Y440496D01*
X404433Y439763D01*
X405331Y439245D01*
X406332Y438976D01*
X407369D01*
X408370Y439245D01*
X409268Y439763D01*
X410001Y440496D01*
X410519Y441394D01*
X410787Y442395D01*
Y443432D01*
X410519Y444433D01*
X410001Y445331D01*
X409268Y446064D01*
X408370Y446582D01*
X407369Y446850D01*
D02*
G37*
G36*
X397369D02*
X396332D01*
X395331Y446582D01*
X394433Y446064D01*
X393700Y445331D01*
X393182Y444433D01*
X392913Y443432D01*
Y442395D01*
X393182Y441394D01*
X393700Y440496D01*
X394433Y439763D01*
X395331Y439245D01*
X396332Y438976D01*
X397369D01*
X398370Y439245D01*
X399268Y439763D01*
X400001Y440496D01*
X400519Y441394D01*
X400787Y442395D01*
Y443432D01*
X400519Y444433D01*
X400001Y445331D01*
X399268Y446064D01*
X398370Y446582D01*
X397369Y446850D01*
D02*
G37*
G36*
X227369Y442756D02*
X226332D01*
X225331Y442488D01*
X224433Y441969D01*
X223700Y441236D01*
X223182Y440339D01*
X222913Y439337D01*
Y438301D01*
X223182Y437299D01*
X223700Y436402D01*
X224433Y435669D01*
X225331Y435150D01*
X226332Y434882D01*
X227369D01*
X228370Y435150D01*
X229268Y435669D01*
X230001Y436402D01*
X230519Y437299D01*
X230787Y438301D01*
Y439337D01*
X230519Y440339D01*
X230001Y441236D01*
X229268Y441969D01*
X228370Y442488D01*
X227369Y442756D01*
D02*
G37*
G36*
X217369D02*
X216332D01*
X215331Y442488D01*
X214433Y441969D01*
X213700Y441236D01*
X213182Y440339D01*
X212913Y439337D01*
Y438301D01*
X213182Y437299D01*
X213700Y436402D01*
X214433Y435669D01*
X215331Y435150D01*
X216332Y434882D01*
X217369D01*
X218370Y435150D01*
X219268Y435669D01*
X220001Y436402D01*
X220519Y437299D01*
X220787Y438301D01*
Y439337D01*
X220519Y440339D01*
X220001Y441236D01*
X219268Y441969D01*
X218370Y442488D01*
X217369Y442756D01*
D02*
G37*
G36*
X130921Y437812D02*
Y434071D01*
X134663D01*
X134430Y434938D01*
X133793Y436042D01*
X132892Y436943D01*
X131789Y437580D01*
X130921Y437812D01*
D02*
G37*
G36*
X128921D02*
X128054Y437580D01*
X126951Y436943D01*
X126050Y436042D01*
X125413Y434938D01*
X125180Y434071D01*
X128921D01*
Y437812D01*
D02*
G37*
G36*
X407369Y436850D02*
X406332D01*
X405331Y436582D01*
X404433Y436064D01*
X403700Y435331D01*
X403182Y434433D01*
X402913Y433432D01*
Y432395D01*
X403182Y431394D01*
X403700Y430496D01*
X404433Y429763D01*
X405331Y429245D01*
X406332Y428976D01*
X407369D01*
X408370Y429245D01*
X409268Y429763D01*
X410001Y430496D01*
X410519Y431394D01*
X410787Y432395D01*
Y433432D01*
X410519Y434433D01*
X410001Y435331D01*
X409268Y436064D01*
X408370Y436582D01*
X407369Y436850D01*
D02*
G37*
G36*
X397369D02*
X396332D01*
X395331Y436582D01*
X394433Y436064D01*
X393700Y435331D01*
X393182Y434433D01*
X392913Y433432D01*
Y432395D01*
X393182Y431394D01*
X393700Y430496D01*
X394433Y429763D01*
X395331Y429245D01*
X396332Y428976D01*
X397369D01*
X398370Y429245D01*
X399268Y429763D01*
X400001Y430496D01*
X400519Y431394D01*
X400787Y432395D01*
Y433432D01*
X400519Y434433D01*
X400001Y435331D01*
X399268Y436064D01*
X398370Y436582D01*
X397369Y436850D01*
D02*
G37*
G36*
X441554Y437697D02*
X440336D01*
X439159Y437382D01*
X438104Y436772D01*
X437243Y435911D01*
X436634Y434856D01*
X436319Y433680D01*
Y432462D01*
X436634Y431285D01*
X436879Y430861D01*
X426237Y420220D01*
X425953Y419794D01*
X425853Y419291D01*
Y333772D01*
X408556Y316475D01*
X408370Y316582D01*
X407369Y316850D01*
X406332D01*
X405331Y316582D01*
X404433Y316064D01*
X403700Y315331D01*
X403182Y314433D01*
X402913Y313432D01*
Y312395D01*
X403182Y311394D01*
X403700Y310496D01*
X404433Y309763D01*
X405331Y309245D01*
X406332Y308976D01*
X407369D01*
X408370Y309245D01*
X409268Y309763D01*
X410001Y310496D01*
X410519Y311394D01*
X410787Y312395D01*
Y313432D01*
X410519Y314433D01*
X410412Y314619D01*
X428093Y332300D01*
X428378Y332726D01*
X428478Y333228D01*
Y418748D01*
X438735Y429005D01*
X439159Y428760D01*
X440336Y428445D01*
X441554D01*
X442730Y428760D01*
X443785Y429369D01*
X444647Y430230D01*
X445256Y431285D01*
X445571Y432462D01*
Y433680D01*
X445256Y434856D01*
X444647Y435911D01*
X443785Y436772D01*
X442730Y437382D01*
X441554Y437697D01*
D02*
G37*
G36*
X335255D02*
X334037D01*
X332860Y437382D01*
X331805Y436772D01*
X330944Y435911D01*
X330335Y434856D01*
X330020Y433680D01*
Y432462D01*
X330335Y431285D01*
X330944Y430230D01*
X331805Y429369D01*
X332860Y428760D01*
X334037Y428445D01*
X335255D01*
X336431Y428760D01*
X337486Y429369D01*
X338347Y430230D01*
X338956Y431285D01*
X339272Y432462D01*
Y433680D01*
X338956Y434856D01*
X338347Y435911D01*
X337486Y436772D01*
X336431Y437382D01*
X335255Y437697D01*
D02*
G37*
G36*
X260452D02*
X259233D01*
X258057Y437382D01*
X257002Y436772D01*
X256141Y435911D01*
X255532Y434856D01*
X255217Y433680D01*
Y432462D01*
X255532Y431285D01*
X255777Y430861D01*
X244347Y419432D01*
X244063Y419006D01*
X243963Y418504D01*
Y304874D01*
X239220Y300132D01*
X230575D01*
X230519Y300339D01*
X230001Y301236D01*
X229268Y301969D01*
X228370Y302488D01*
X227369Y302756D01*
X226332D01*
X225331Y302488D01*
X224433Y301969D01*
X223700Y301236D01*
X223182Y300339D01*
X222913Y299337D01*
Y298301D01*
X223182Y297299D01*
X223700Y296402D01*
X224433Y295669D01*
X225331Y295150D01*
X226332Y294882D01*
X227369D01*
X228370Y295150D01*
X229268Y295669D01*
X230001Y296402D01*
X230519Y297299D01*
X230575Y297506D01*
X239764D01*
X240266Y297606D01*
X240692Y297891D01*
X246204Y303403D01*
X246369Y303650D01*
X246719Y303543D01*
Y298575D01*
X238275Y290132D01*
X230575D01*
X230519Y290339D01*
X230001Y291236D01*
X229268Y291969D01*
X228370Y292488D01*
X227369Y292756D01*
X226332D01*
X225331Y292488D01*
X224433Y291969D01*
X223700Y291236D01*
X223182Y290339D01*
X222913Y289337D01*
Y288301D01*
X223182Y287299D01*
X223700Y286402D01*
X224433Y285669D01*
X225331Y285150D01*
X226332Y284882D01*
X227369D01*
X228370Y285150D01*
X229268Y285669D01*
X230001Y286402D01*
X230519Y287299D01*
X230575Y287506D01*
X238819D01*
X239321Y287606D01*
X239747Y287891D01*
X248960Y297103D01*
X249244Y297529D01*
X249344Y298031D01*
Y401031D01*
X257633Y409320D01*
X258057Y409075D01*
X259233Y408760D01*
X260452D01*
X261628Y409075D01*
X262683Y409684D01*
X263544Y410545D01*
X264153Y411600D01*
X264469Y412777D01*
Y413995D01*
X264153Y415171D01*
X263544Y416226D01*
X262683Y417088D01*
X261628Y417697D01*
X260452Y418012D01*
X259233D01*
X258057Y417697D01*
X257002Y417088D01*
X256141Y416226D01*
X255532Y415171D01*
X255217Y413995D01*
Y412777D01*
X255532Y411600D01*
X255777Y411176D01*
X247103Y402503D01*
X246938Y402256D01*
X246588Y402362D01*
Y417960D01*
X257633Y429005D01*
X258057Y428760D01*
X259233Y428445D01*
X260452D01*
X261628Y428760D01*
X262683Y429369D01*
X263544Y430230D01*
X264153Y431285D01*
X264469Y432462D01*
Y433680D01*
X264153Y434856D01*
X263544Y435911D01*
X262683Y436772D01*
X261628Y437382D01*
X260452Y437697D01*
D02*
G37*
G36*
X134663Y432071D02*
X130921D01*
Y428330D01*
X131789Y428562D01*
X132892Y429199D01*
X133793Y430100D01*
X134430Y431203D01*
X134663Y432071D01*
D02*
G37*
G36*
X128921D02*
X125180D01*
X125413Y431203D01*
X126050Y430100D01*
X126951Y429199D01*
X128054Y428562D01*
X128921Y428330D01*
Y432071D01*
D02*
G37*
G36*
X227369Y432756D02*
X226332D01*
X225331Y432488D01*
X224433Y431969D01*
X223700Y431236D01*
X223182Y430339D01*
X222913Y429337D01*
Y428301D01*
X223182Y427299D01*
X223700Y426402D01*
X224433Y425669D01*
X225331Y425150D01*
X226332Y424882D01*
X227369D01*
X228370Y425150D01*
X229268Y425669D01*
X230001Y426402D01*
X230519Y427299D01*
X230787Y428301D01*
Y429337D01*
X230519Y430339D01*
X230001Y431236D01*
X229268Y431969D01*
X228370Y432488D01*
X227369Y432756D01*
D02*
G37*
G36*
X217369D02*
X216332D01*
X215331Y432488D01*
X214433Y431969D01*
X213700Y431236D01*
X213182Y430339D01*
X212913Y429337D01*
Y428301D01*
X213182Y427299D01*
X213700Y426402D01*
X214433Y425669D01*
X215331Y425150D01*
X216332Y424882D01*
X217369D01*
X218370Y425150D01*
X219268Y425669D01*
X220001Y426402D01*
X220519Y427299D01*
X220787Y428301D01*
Y429337D01*
X220519Y430339D01*
X220001Y431236D01*
X219268Y431969D01*
X218370Y432488D01*
X217369Y432756D01*
D02*
G37*
G36*
X407369Y426850D02*
X406332D01*
X405331Y426582D01*
X404433Y426064D01*
X403700Y425331D01*
X403182Y424433D01*
X402913Y423432D01*
Y422395D01*
X403182Y421394D01*
X403700Y420496D01*
X404433Y419763D01*
X405331Y419245D01*
X406332Y418976D01*
X407369D01*
X408370Y419245D01*
X409268Y419763D01*
X410001Y420496D01*
X410519Y421394D01*
X410787Y422395D01*
Y423432D01*
X410519Y424433D01*
X410001Y425331D01*
X409268Y426064D01*
X408370Y426582D01*
X407369Y426850D01*
D02*
G37*
G36*
X397369D02*
X396332D01*
X395331Y426582D01*
X394433Y426064D01*
X393700Y425331D01*
X393182Y424433D01*
X392913Y423432D01*
Y422395D01*
X393182Y421394D01*
X393700Y420496D01*
X394433Y419763D01*
X395331Y419245D01*
X396332Y418976D01*
X397369D01*
X398370Y419245D01*
X399268Y419763D01*
X400001Y420496D01*
X400519Y421394D01*
X400787Y422395D01*
Y423432D01*
X400519Y424433D01*
X400001Y425331D01*
X399268Y426064D01*
X398370Y426582D01*
X397369Y426850D01*
D02*
G37*
G36*
X227369Y422756D02*
X226332D01*
X225331Y422488D01*
X224433Y421969D01*
X223700Y421236D01*
X223182Y420339D01*
X222913Y419337D01*
Y418301D01*
X223182Y417299D01*
X223700Y416402D01*
X224433Y415669D01*
X225331Y415150D01*
X226332Y414882D01*
X227369D01*
X228370Y415150D01*
X229268Y415669D01*
X230001Y416402D01*
X230519Y417299D01*
X230787Y418301D01*
Y419337D01*
X230519Y420339D01*
X230001Y421236D01*
X229268Y421969D01*
X228370Y422488D01*
X227369Y422756D01*
D02*
G37*
G36*
X217369D02*
X216332D01*
X215331Y422488D01*
X214433Y421969D01*
X213700Y421236D01*
X213182Y420339D01*
X212913Y419337D01*
Y418301D01*
X213182Y417299D01*
X213700Y416402D01*
X214433Y415669D01*
X215331Y415150D01*
X216332Y414882D01*
X217369D01*
X218370Y415150D01*
X219268Y415669D01*
X220001Y416402D01*
X220519Y417299D01*
X220787Y418301D01*
Y419337D01*
X220519Y420339D01*
X220001Y421236D01*
X219268Y421969D01*
X218370Y422488D01*
X217369Y422756D01*
D02*
G37*
G36*
X130921Y418127D02*
Y414386D01*
X134663D01*
X134430Y415253D01*
X133793Y416357D01*
X132892Y417258D01*
X131789Y417895D01*
X130921Y418127D01*
D02*
G37*
G36*
X128921D02*
X128054Y417895D01*
X126951Y417258D01*
X126050Y416357D01*
X125413Y415253D01*
X125180Y414386D01*
X128921D01*
Y418127D01*
D02*
G37*
G36*
X407369Y416850D02*
X406332D01*
X405331Y416582D01*
X404433Y416064D01*
X403700Y415331D01*
X403182Y414433D01*
X402913Y413432D01*
Y412395D01*
X403182Y411394D01*
X403700Y410496D01*
X404433Y409763D01*
X405331Y409245D01*
X406332Y408976D01*
X407369D01*
X408370Y409245D01*
X409268Y409763D01*
X410001Y410496D01*
X410519Y411394D01*
X410787Y412395D01*
Y413432D01*
X410519Y414433D01*
X410001Y415331D01*
X409268Y416064D01*
X408370Y416582D01*
X407369Y416850D01*
D02*
G37*
G36*
X397369D02*
X396332D01*
X395331Y416582D01*
X394433Y416064D01*
X393700Y415331D01*
X393182Y414433D01*
X392913Y413432D01*
Y412395D01*
X393182Y411394D01*
X393700Y410496D01*
X394433Y409763D01*
X395331Y409245D01*
X396332Y408976D01*
X397369D01*
X398370Y409245D01*
X399268Y409763D01*
X400001Y410496D01*
X400519Y411394D01*
X400787Y412395D01*
Y413432D01*
X400519Y414433D01*
X400001Y415331D01*
X399268Y416064D01*
X398370Y416582D01*
X397369Y416850D01*
D02*
G37*
G36*
X441554Y418012D02*
X440336D01*
X439159Y417697D01*
X438104Y417088D01*
X437243Y416226D01*
X436634Y415171D01*
X436319Y413995D01*
Y412777D01*
X436634Y411600D01*
X436879Y411176D01*
X430174Y404471D01*
X429890Y404046D01*
X429790Y403543D01*
Y327709D01*
X408556Y306475D01*
X408370Y306582D01*
X407369Y306850D01*
X406332D01*
X405331Y306582D01*
X404433Y306064D01*
X403700Y305331D01*
X403182Y304433D01*
X402913Y303432D01*
Y302395D01*
X403182Y301394D01*
X403700Y300496D01*
X404433Y299763D01*
X405331Y299245D01*
X406332Y298976D01*
X407369D01*
X408370Y299245D01*
X409268Y299763D01*
X410001Y300496D01*
X410519Y301394D01*
X410787Y302395D01*
Y303432D01*
X410519Y304433D01*
X410412Y304619D01*
X432030Y326237D01*
X432196Y326484D01*
X432546Y326378D01*
Y320465D01*
X408556Y296475D01*
X408370Y296582D01*
X407369Y296850D01*
X406332D01*
X405331Y296582D01*
X404433Y296064D01*
X403700Y295331D01*
X403182Y294433D01*
X402913Y293432D01*
Y292395D01*
X403182Y291394D01*
X403700Y290496D01*
X404433Y289763D01*
X405331Y289245D01*
X406004Y289064D01*
X405958Y288714D01*
X405512D01*
X405010Y288614D01*
X404584Y288330D01*
X398556Y282302D01*
X398370Y282409D01*
X397369Y282677D01*
X396332D01*
X395331Y282409D01*
X394433Y281891D01*
X393700Y281157D01*
X393182Y280260D01*
X392913Y279258D01*
Y278222D01*
X393182Y277221D01*
X393700Y276323D01*
X394433Y275590D01*
X395331Y275072D01*
X395538Y275016D01*
Y272464D01*
X395331Y272409D01*
X394433Y271890D01*
X393700Y271158D01*
X393182Y270260D01*
X392913Y269258D01*
Y268222D01*
X393182Y267221D01*
X393700Y266323D01*
X394433Y265590D01*
X395331Y265072D01*
X396332Y264803D01*
X397369D01*
X398370Y265072D01*
X399268Y265590D01*
X400001Y266323D01*
X400519Y267221D01*
X400787Y268222D01*
Y269258D01*
X400519Y270260D01*
X400001Y271158D01*
X399268Y271890D01*
X398370Y272409D01*
X398163Y272464D01*
Y275016D01*
X398370Y275072D01*
X399268Y275590D01*
X400001Y276323D01*
X400519Y277221D01*
X400787Y278222D01*
Y279258D01*
X400519Y280260D01*
X400412Y280445D01*
X406055Y286089D01*
X421260D01*
X421762Y286189D01*
X422188Y286473D01*
X429678Y293963D01*
X452170D01*
X452672Y294063D01*
X453098Y294347D01*
X453684Y294933D01*
X453969Y295359D01*
X454069Y295861D01*
Y378852D01*
X454774Y379259D01*
X455386Y379871D01*
X455819Y380621D01*
X456043Y381457D01*
Y382323D01*
X455819Y383159D01*
X455386Y383908D01*
X454774Y384520D01*
X454025Y384953D01*
X453189Y385177D01*
X452323D01*
X451487Y384953D01*
X450737Y384520D01*
X450125Y383908D01*
X449692Y383159D01*
X449469Y382323D01*
Y381457D01*
X449692Y380621D01*
X450125Y379871D01*
X450737Y379259D01*
X451443Y378852D01*
Y296588D01*
X429134D01*
X428631Y296488D01*
X428206Y296204D01*
X420716Y288714D01*
X407743D01*
X407696Y289064D01*
X408370Y289245D01*
X409268Y289763D01*
X410001Y290496D01*
X410519Y291394D01*
X410787Y292395D01*
Y293432D01*
X410519Y294433D01*
X410412Y294619D01*
X434786Y318993D01*
X435071Y319419D01*
X435171Y319921D01*
Y386071D01*
X438735Y389635D01*
X439159Y389390D01*
X440336Y389075D01*
X441554D01*
X442730Y389390D01*
X443785Y389999D01*
X444647Y390860D01*
X445256Y391915D01*
X445571Y393092D01*
Y394310D01*
X445256Y395486D01*
X444647Y396541D01*
X443785Y397403D01*
X442730Y398011D01*
X441554Y398327D01*
X440336D01*
X439159Y398011D01*
X438104Y397403D01*
X437243Y396541D01*
X436634Y395486D01*
X436319Y394310D01*
Y393092D01*
X436634Y391915D01*
X436879Y391491D01*
X432930Y387542D01*
X432765Y387295D01*
X432415Y387402D01*
Y403000D01*
X438735Y409320D01*
X439159Y409075D01*
X440336Y408760D01*
X441554D01*
X442730Y409075D01*
X443785Y409684D01*
X444647Y410545D01*
X445256Y411600D01*
X445571Y412777D01*
Y413995D01*
X445256Y415171D01*
X444647Y416226D01*
X443785Y417088D01*
X442730Y417697D01*
X441554Y418012D01*
D02*
G37*
G36*
X335255D02*
X334037D01*
X332860Y417697D01*
X331805Y417088D01*
X330944Y416226D01*
X330335Y415171D01*
X330020Y413995D01*
Y412777D01*
X330335Y411600D01*
X330944Y410545D01*
X331805Y409684D01*
X332860Y409075D01*
X334037Y408760D01*
X335255D01*
X336431Y409075D01*
X337486Y409684D01*
X338347Y410545D01*
X338956Y411600D01*
X339272Y412777D01*
Y413995D01*
X338956Y415171D01*
X338347Y416226D01*
X337486Y417088D01*
X336431Y417697D01*
X335255Y418012D01*
D02*
G37*
G36*
X134663Y412386D02*
X130921D01*
Y408644D01*
X131789Y408877D01*
X132892Y409514D01*
X133793Y410415D01*
X134430Y411518D01*
X134663Y412386D01*
D02*
G37*
G36*
X128921D02*
X125180D01*
X125413Y411518D01*
X126050Y410415D01*
X126951Y409514D01*
X128054Y408877D01*
X128921Y408644D01*
Y412386D01*
D02*
G37*
G36*
X227369Y412756D02*
X226332D01*
X225331Y412488D01*
X224433Y411969D01*
X223700Y411236D01*
X223182Y410339D01*
X222913Y409337D01*
Y408301D01*
X223182Y407299D01*
X223700Y406402D01*
X224433Y405669D01*
X225331Y405150D01*
X226332Y404882D01*
X227369D01*
X228370Y405150D01*
X229268Y405669D01*
X230001Y406402D01*
X230519Y407299D01*
X230787Y408301D01*
Y409337D01*
X230519Y410339D01*
X230001Y411236D01*
X229268Y411969D01*
X228370Y412488D01*
X227369Y412756D01*
D02*
G37*
G36*
X217369D02*
X216332D01*
X215331Y412488D01*
X214433Y411969D01*
X213700Y411236D01*
X213182Y410339D01*
X212913Y409337D01*
Y408301D01*
X213182Y407299D01*
X213700Y406402D01*
X214433Y405669D01*
X215331Y405150D01*
X216332Y404882D01*
X217369D01*
X218370Y405150D01*
X219268Y405669D01*
X220001Y406402D01*
X220519Y407299D01*
X220787Y408301D01*
Y409337D01*
X220519Y410339D01*
X220001Y411236D01*
X219268Y411969D01*
X218370Y412488D01*
X217369Y412756D01*
D02*
G37*
G36*
X407369Y406850D02*
X406332D01*
X405331Y406582D01*
X404433Y406064D01*
X403700Y405331D01*
X403182Y404433D01*
X402913Y403432D01*
Y402395D01*
X403182Y401394D01*
X403700Y400496D01*
X404433Y399763D01*
X405331Y399245D01*
X406332Y398976D01*
X407369D01*
X408370Y399245D01*
X409268Y399763D01*
X410001Y400496D01*
X410519Y401394D01*
X410787Y402395D01*
Y403432D01*
X410519Y404433D01*
X410001Y405331D01*
X409268Y406064D01*
X408370Y406582D01*
X407369Y406850D01*
D02*
G37*
G36*
X397369D02*
X396332D01*
X395331Y406582D01*
X394433Y406064D01*
X393700Y405331D01*
X393182Y404433D01*
X392913Y403432D01*
Y402395D01*
X393182Y401394D01*
X393700Y400496D01*
X394433Y399763D01*
X395331Y399245D01*
X396332Y398976D01*
X397369D01*
X398370Y399245D01*
X399268Y399763D01*
X400001Y400496D01*
X400519Y401394D01*
X400787Y402395D01*
Y403432D01*
X400519Y404433D01*
X400001Y405331D01*
X399268Y406064D01*
X398370Y406582D01*
X397369Y406850D01*
D02*
G37*
G36*
X227369Y402756D02*
X226332D01*
X225331Y402488D01*
X224433Y401969D01*
X223700Y401236D01*
X223182Y400339D01*
X222913Y399337D01*
Y398301D01*
X223182Y397299D01*
X223700Y396402D01*
X224433Y395669D01*
X225331Y395150D01*
X226332Y394882D01*
X227369D01*
X228370Y395150D01*
X229268Y395669D01*
X230001Y396402D01*
X230519Y397299D01*
X230787Y398301D01*
Y399337D01*
X230519Y400339D01*
X230001Y401236D01*
X229268Y401969D01*
X228370Y402488D01*
X227369Y402756D01*
D02*
G37*
G36*
X217369D02*
X216332D01*
X215331Y402488D01*
X214433Y401969D01*
X213700Y401236D01*
X213182Y400339D01*
X212913Y399337D01*
Y398301D01*
X213182Y397299D01*
X213700Y396402D01*
X214433Y395669D01*
X215331Y395150D01*
X216332Y394882D01*
X217369D01*
X218370Y395150D01*
X219268Y395669D01*
X220001Y396402D01*
X220519Y397299D01*
X220787Y398301D01*
Y399337D01*
X220519Y400339D01*
X220001Y401236D01*
X219268Y401969D01*
X218370Y402488D01*
X217369Y402756D01*
D02*
G37*
G36*
X130921Y398442D02*
Y394701D01*
X134663D01*
X134430Y395568D01*
X133793Y396672D01*
X132892Y397573D01*
X131789Y398210D01*
X130921Y398442D01*
D02*
G37*
G36*
X128921D02*
X128054Y398210D01*
X126951Y397573D01*
X126050Y396672D01*
X125413Y395568D01*
X125180Y394701D01*
X128921D01*
Y398442D01*
D02*
G37*
G36*
X335255Y398327D02*
X334037D01*
X332860Y398011D01*
X331805Y397403D01*
X330944Y396541D01*
X330335Y395486D01*
X330020Y394310D01*
Y393092D01*
X330335Y391915D01*
X330944Y390860D01*
X331805Y389999D01*
X332860Y389390D01*
X334037Y389075D01*
X335255D01*
X336431Y389390D01*
X337486Y389999D01*
X338347Y390860D01*
X338956Y391915D01*
X339272Y393092D01*
Y394310D01*
X338956Y395486D01*
X338347Y396541D01*
X337486Y397403D01*
X336431Y398011D01*
X335255Y398327D01*
D02*
G37*
G36*
X260452D02*
X259233D01*
X258057Y398011D01*
X257002Y397403D01*
X256141Y396541D01*
X255532Y395486D01*
X255217Y394310D01*
Y393092D01*
X255532Y391915D01*
X255777Y391491D01*
X250253Y385967D01*
X249968Y385542D01*
X249868Y385039D01*
Y289914D01*
X240086Y280132D01*
X230575D01*
X230519Y280339D01*
X230001Y281236D01*
X229268Y281969D01*
X228370Y282488D01*
X227369Y282756D01*
X226332D01*
X225331Y282488D01*
X224433Y281969D01*
X223700Y281236D01*
X223182Y280339D01*
X222913Y279337D01*
Y278301D01*
X223182Y277299D01*
X223700Y276402D01*
X224433Y275669D01*
X225331Y275150D01*
X226332Y274882D01*
X227369D01*
X228370Y275150D01*
X229268Y275669D01*
X230001Y276402D01*
X230519Y277299D01*
X230575Y277506D01*
X240630D01*
X241132Y277606D01*
X241558Y277891D01*
X252109Y288442D01*
X252394Y288868D01*
X252494Y289370D01*
Y384496D01*
X257633Y389635D01*
X258057Y389390D01*
X259233Y389075D01*
X260452D01*
X261628Y389390D01*
X262683Y389999D01*
X263544Y390860D01*
X264153Y391915D01*
X264469Y393092D01*
Y394310D01*
X264153Y395486D01*
X263544Y396541D01*
X262683Y397403D01*
X261628Y398011D01*
X260452Y398327D01*
D02*
G37*
G36*
X407369Y396850D02*
X406332D01*
X405331Y396582D01*
X404433Y396064D01*
X403700Y395331D01*
X403182Y394433D01*
X402913Y393432D01*
Y392395D01*
X403182Y391394D01*
X403700Y390496D01*
X404433Y389763D01*
X405331Y389245D01*
X406332Y388976D01*
X407369D01*
X408370Y389245D01*
X409268Y389763D01*
X410001Y390496D01*
X410519Y391394D01*
X410787Y392395D01*
Y393432D01*
X410519Y394433D01*
X410001Y395331D01*
X409268Y396064D01*
X408370Y396582D01*
X407369Y396850D01*
D02*
G37*
G36*
X397369D02*
X396332D01*
X395331Y396582D01*
X394433Y396064D01*
X393700Y395331D01*
X393182Y394433D01*
X392913Y393432D01*
Y392395D01*
X393182Y391394D01*
X393700Y390496D01*
X394433Y389763D01*
X395331Y389245D01*
X396332Y388976D01*
X397369D01*
X398370Y389245D01*
X399268Y389763D01*
X400001Y390496D01*
X400519Y391394D01*
X400787Y392395D01*
Y393432D01*
X400519Y394433D01*
X400001Y395331D01*
X399268Y396064D01*
X398370Y396582D01*
X397369Y396850D01*
D02*
G37*
G36*
X134663Y392701D02*
X130921D01*
Y388960D01*
X131789Y389192D01*
X132892Y389829D01*
X133793Y390730D01*
X134430Y391833D01*
X134663Y392701D01*
D02*
G37*
G36*
X128921D02*
X125180D01*
X125413Y391833D01*
X126050Y390730D01*
X126951Y389829D01*
X128054Y389192D01*
X128921Y388960D01*
Y392701D01*
D02*
G37*
G36*
X227369Y392756D02*
X226332D01*
X225331Y392488D01*
X224433Y391969D01*
X223700Y391236D01*
X223182Y390339D01*
X222913Y389337D01*
Y388301D01*
X223182Y387299D01*
X223700Y386402D01*
X224433Y385669D01*
X225331Y385150D01*
X226332Y384882D01*
X227369D01*
X228370Y385150D01*
X229268Y385669D01*
X230001Y386402D01*
X230519Y387299D01*
X230787Y388301D01*
Y389337D01*
X230519Y390339D01*
X230001Y391236D01*
X229268Y391969D01*
X228370Y392488D01*
X227369Y392756D01*
D02*
G37*
G36*
X217369D02*
X216332D01*
X215331Y392488D01*
X214433Y391969D01*
X213700Y391236D01*
X213182Y390339D01*
X212913Y389337D01*
Y388301D01*
X213182Y387299D01*
X213700Y386402D01*
X214433Y385669D01*
X215331Y385150D01*
X216332Y384882D01*
X217369D01*
X218370Y385150D01*
X219268Y385669D01*
X220001Y386402D01*
X220519Y387299D01*
X220787Y388301D01*
Y389337D01*
X220519Y390339D01*
X220001Y391236D01*
X219268Y391969D01*
X218370Y392488D01*
X217369Y392756D01*
D02*
G37*
G36*
X407369Y386850D02*
X406332D01*
X405331Y386582D01*
X404433Y386064D01*
X403700Y385331D01*
X403182Y384433D01*
X402913Y383432D01*
Y382395D01*
X403182Y381394D01*
X403700Y380496D01*
X404433Y379763D01*
X405331Y379245D01*
X406332Y378976D01*
X407369D01*
X408370Y379245D01*
X409268Y379763D01*
X410001Y380496D01*
X410519Y381394D01*
X410787Y382395D01*
Y383432D01*
X410519Y384433D01*
X410001Y385331D01*
X409268Y386064D01*
X408370Y386582D01*
X407369Y386850D01*
D02*
G37*
G36*
X130921Y378757D02*
Y375016D01*
X134663D01*
X134430Y375883D01*
X133793Y376987D01*
X132892Y377888D01*
X131789Y378525D01*
X130921Y378757D01*
D02*
G37*
G36*
X128921D02*
X128054Y378525D01*
X126951Y377888D01*
X126050Y376987D01*
X125413Y375883D01*
X125180Y375016D01*
X128921D01*
Y378757D01*
D02*
G37*
G36*
X227369Y382756D02*
X226332D01*
X225331Y382488D01*
X224433Y381969D01*
X223700Y381236D01*
X223182Y380339D01*
X222913Y379337D01*
Y378301D01*
X223182Y377299D01*
X223700Y376402D01*
X224433Y375669D01*
X225331Y375150D01*
X226332Y374882D01*
X227369D01*
X228370Y375150D01*
X229268Y375669D01*
X230001Y376402D01*
X230519Y377299D01*
X230787Y378301D01*
Y379337D01*
X230519Y380339D01*
X230001Y381236D01*
X229268Y381969D01*
X228370Y382488D01*
X227369Y382756D01*
D02*
G37*
G36*
X217369D02*
X216332D01*
X215331Y382488D01*
X214433Y381969D01*
X213700Y381236D01*
X213182Y380339D01*
X212913Y379337D01*
Y378301D01*
X213182Y377299D01*
X213700Y376402D01*
X214433Y375669D01*
X215331Y375150D01*
X216332Y374882D01*
X217369D01*
X218370Y375150D01*
X219268Y375669D01*
X220001Y376402D01*
X220519Y377299D01*
X220787Y378301D01*
Y379337D01*
X220519Y380339D01*
X220001Y381236D01*
X219268Y381969D01*
X218370Y382488D01*
X217369Y382756D01*
D02*
G37*
G36*
X134663Y373016D02*
X130921D01*
Y369274D01*
X131789Y369507D01*
X132892Y370144D01*
X133793Y371045D01*
X134430Y372148D01*
X134663Y373016D01*
D02*
G37*
G36*
X128921D02*
X125180D01*
X125413Y372148D01*
X126050Y371045D01*
X126951Y370144D01*
X128054Y369507D01*
X128921Y369274D01*
Y373016D01*
D02*
G37*
G36*
X407369Y376850D02*
X406332D01*
X405331Y376582D01*
X404433Y376064D01*
X403700Y375331D01*
X403182Y374433D01*
X402913Y373432D01*
Y372395D01*
X403182Y371394D01*
X403700Y370496D01*
X404433Y369763D01*
X405331Y369245D01*
X406332Y368976D01*
X407369D01*
X408370Y369245D01*
X409268Y369763D01*
X410001Y370496D01*
X410519Y371394D01*
X410787Y372395D01*
Y373432D01*
X410519Y374433D01*
X410001Y375331D01*
X409268Y376064D01*
X408370Y376582D01*
X407369Y376850D01*
D02*
G37*
G36*
X227369Y372756D02*
X226332D01*
X225331Y372488D01*
X224433Y371969D01*
X223700Y371236D01*
X223182Y370339D01*
X222913Y369337D01*
Y368301D01*
X223182Y367299D01*
X223700Y366402D01*
X224433Y365669D01*
X225331Y365150D01*
X226332Y364882D01*
X227369D01*
X228370Y365150D01*
X229268Y365669D01*
X230001Y366402D01*
X230519Y367299D01*
X230787Y368301D01*
Y369337D01*
X230519Y370339D01*
X230001Y371236D01*
X229268Y371969D01*
X228370Y372488D01*
X227369Y372756D01*
D02*
G37*
G36*
X217369D02*
X216332D01*
X215331Y372488D01*
X214433Y371969D01*
X213700Y371236D01*
X213182Y370339D01*
X212913Y369337D01*
Y368301D01*
X213182Y367299D01*
X213700Y366402D01*
X214433Y365669D01*
X215331Y365150D01*
X216332Y364882D01*
X217369D01*
X218370Y365150D01*
X219268Y365669D01*
X220001Y366402D01*
X220519Y367299D01*
X220787Y368301D01*
Y369337D01*
X220519Y370339D01*
X220001Y371236D01*
X219268Y371969D01*
X218370Y372488D01*
X217369Y372756D01*
D02*
G37*
G36*
X407369Y366850D02*
X406332D01*
X405331Y366582D01*
X404433Y366064D01*
X403700Y365331D01*
X403182Y364433D01*
X402913Y363432D01*
Y362395D01*
X403182Y361394D01*
X403700Y360496D01*
X404433Y359763D01*
X405331Y359245D01*
X406332Y358976D01*
X407369D01*
X408370Y359245D01*
X409268Y359763D01*
X410001Y360496D01*
X410519Y361394D01*
X410787Y362395D01*
Y363432D01*
X410519Y364433D01*
X410001Y365331D01*
X409268Y366064D01*
X408370Y366582D01*
X407369Y366850D01*
D02*
G37*
G36*
X335255Y536122D02*
X334037D01*
X332860Y535807D01*
X331805Y535198D01*
X330944Y534336D01*
X330335Y533282D01*
X330020Y532105D01*
Y530887D01*
X330335Y529710D01*
X330944Y528656D01*
X331805Y527794D01*
X332860Y527185D01*
X334037Y526870D01*
X335255D01*
X336431Y527185D01*
X336855Y527430D01*
X355774Y508511D01*
Y402677D01*
X355874Y402175D01*
X356158Y401749D01*
X393289Y364619D01*
X393182Y364433D01*
X392913Y363432D01*
Y362395D01*
X393182Y361394D01*
X393700Y360496D01*
X394433Y359763D01*
X395331Y359245D01*
X396332Y358976D01*
X397369D01*
X398370Y359245D01*
X399268Y359763D01*
X400001Y360496D01*
X400519Y361394D01*
X400787Y362395D01*
Y363432D01*
X400519Y364433D01*
X400001Y365331D01*
X399268Y366064D01*
X398370Y366582D01*
X397369Y366850D01*
X396332D01*
X395331Y366582D01*
X395145Y366475D01*
X358399Y403221D01*
Y509055D01*
X358299Y509557D01*
X358015Y509983D01*
X338712Y529286D01*
X338956Y529710D01*
X339272Y530887D01*
Y532105D01*
X338956Y533282D01*
X338347Y534336D01*
X337486Y535198D01*
X336431Y535807D01*
X335255Y536122D01*
D02*
G37*
G36*
X227369Y362756D02*
X226332D01*
X225331Y362488D01*
X224433Y361969D01*
X223700Y361236D01*
X223182Y360339D01*
X222913Y359337D01*
Y358301D01*
X223182Y357299D01*
X223700Y356402D01*
X224433Y355669D01*
X225331Y355150D01*
X226332Y354882D01*
X227369D01*
X228370Y355150D01*
X229268Y355669D01*
X230001Y356402D01*
X230519Y357299D01*
X230787Y358301D01*
Y359337D01*
X230519Y360339D01*
X230001Y361236D01*
X229268Y361969D01*
X228370Y362488D01*
X227369Y362756D01*
D02*
G37*
G36*
X217369D02*
X216332D01*
X215331Y362488D01*
X214433Y361969D01*
X213700Y361236D01*
X213182Y360339D01*
X212913Y359337D01*
Y358301D01*
X213182Y357299D01*
X213700Y356402D01*
X214433Y355669D01*
X215331Y355150D01*
X216332Y354882D01*
X217369D01*
X218370Y355150D01*
X219268Y355669D01*
X220001Y356402D01*
X220519Y357299D01*
X220787Y358301D01*
Y359337D01*
X220519Y360339D01*
X220001Y361236D01*
X219268Y361969D01*
X218370Y362488D01*
X217369Y362756D01*
D02*
G37*
G36*
X407850Y356941D02*
Y353913D01*
X410878D01*
X410717Y354515D01*
X410171Y355461D01*
X409398Y356234D01*
X408452Y356780D01*
X407850Y356941D01*
D02*
G37*
G36*
X405850D02*
X405249Y356780D01*
X404303Y356234D01*
X403530Y355461D01*
X402984Y354515D01*
X402822Y353913D01*
X405850D01*
Y356941D01*
D02*
G37*
G36*
X130531Y358957D02*
X129312D01*
X128136Y358642D01*
X127081Y358032D01*
X126220Y357171D01*
X125611Y356116D01*
X125295Y354940D01*
Y353722D01*
X125611Y352545D01*
X126220Y351490D01*
X127081Y350629D01*
X128136Y350020D01*
X129312Y349705D01*
X130531D01*
X131707Y350020D01*
X132762Y350629D01*
X133623Y351490D01*
X134232Y352545D01*
X134547Y353722D01*
Y354940D01*
X134232Y356116D01*
X133623Y357171D01*
X132762Y358032D01*
X131707Y358642D01*
X130531Y358957D01*
D02*
G37*
G36*
X397369Y356850D02*
X396332D01*
X395331Y356582D01*
X394433Y356064D01*
X393700Y355331D01*
X393182Y354433D01*
X392913Y353432D01*
Y352395D01*
X393182Y351394D01*
X393700Y350496D01*
X394433Y349763D01*
X395331Y349245D01*
X396332Y348976D01*
X397369D01*
X398370Y349245D01*
X399268Y349763D01*
X400001Y350496D01*
X400519Y351394D01*
X400787Y352395D01*
Y353432D01*
X400519Y354433D01*
X400001Y355331D01*
X399268Y356064D01*
X398370Y356582D01*
X397369Y356850D01*
D02*
G37*
G36*
X410878Y351913D02*
X407850D01*
Y348885D01*
X408452Y349047D01*
X409398Y349593D01*
X410171Y350365D01*
X410717Y351312D01*
X410878Y351913D01*
D02*
G37*
G36*
X405850D02*
X402822D01*
X402984Y351312D01*
X403530Y350365D01*
X404303Y349593D01*
X405249Y349047D01*
X405850Y348885D01*
Y351913D01*
D02*
G37*
G36*
X227369Y352756D02*
X226332D01*
X225331Y352488D01*
X224433Y351969D01*
X223700Y351236D01*
X223182Y350339D01*
X222913Y349337D01*
Y348301D01*
X223182Y347299D01*
X223700Y346402D01*
X224433Y345669D01*
X225331Y345150D01*
X226332Y344882D01*
X227369D01*
X228370Y345150D01*
X229268Y345669D01*
X230001Y346402D01*
X230519Y347299D01*
X230787Y348301D01*
Y349337D01*
X230519Y350339D01*
X230001Y351236D01*
X229268Y351969D01*
X228370Y352488D01*
X227369Y352756D01*
D02*
G37*
G36*
X217369D02*
X216332D01*
X215331Y352488D01*
X214433Y351969D01*
X213700Y351236D01*
X213182Y350339D01*
X212913Y349337D01*
Y348301D01*
X213182Y347299D01*
X213700Y346402D01*
X214433Y345669D01*
X215331Y345150D01*
X216332Y344882D01*
X217369D01*
X218370Y345150D01*
X219268Y345669D01*
X220001Y346402D01*
X220519Y347299D01*
X220787Y348301D01*
Y349337D01*
X220519Y350339D01*
X220001Y351236D01*
X219268Y351969D01*
X218370Y352488D01*
X217369Y352756D01*
D02*
G37*
G36*
X397369Y346850D02*
X396332D01*
X395331Y346582D01*
X394433Y346064D01*
X393700Y345331D01*
X393182Y344433D01*
X392913Y343432D01*
Y342395D01*
X393182Y341394D01*
X393700Y340496D01*
X394433Y339763D01*
X395331Y339245D01*
X396332Y338976D01*
X397369D01*
X398370Y339245D01*
X399268Y339763D01*
X400001Y340496D01*
X400519Y341394D01*
X400787Y342395D01*
Y343432D01*
X400519Y344433D01*
X400001Y345331D01*
X399268Y346064D01*
X398370Y346582D01*
X397369Y346850D01*
D02*
G37*
G36*
X441554Y347146D02*
X440336D01*
X439159Y346830D01*
X438104Y346221D01*
X437243Y345360D01*
X436634Y344305D01*
X436319Y343129D01*
Y341911D01*
X436634Y340734D01*
X437243Y339679D01*
X438104Y338818D01*
X439159Y338209D01*
X440336Y337894D01*
X441554D01*
X442730Y338209D01*
X443785Y338818D01*
X444647Y339679D01*
X445256Y340734D01*
X445571Y341911D01*
Y343129D01*
X445256Y344305D01*
X444647Y345360D01*
X443785Y346221D01*
X442730Y346830D01*
X441554Y347146D01*
D02*
G37*
G36*
X335255D02*
X334037D01*
X332860Y346830D01*
X331805Y346221D01*
X330944Y345360D01*
X330335Y344305D01*
X330020Y343129D01*
Y341911D01*
X330335Y340734D01*
X330944Y339679D01*
X331805Y338818D01*
X332860Y338209D01*
X334037Y337894D01*
X335255D01*
X336431Y338209D01*
X337486Y338818D01*
X338347Y339679D01*
X338956Y340734D01*
X339272Y341911D01*
Y343129D01*
X338956Y344305D01*
X338347Y345360D01*
X337486Y346221D01*
X336431Y346830D01*
X335255Y347146D01*
D02*
G37*
G36*
X260452D02*
X259233D01*
X258057Y346830D01*
X257002Y346221D01*
X256141Y345360D01*
X255532Y344305D01*
X255217Y343129D01*
Y341911D01*
X255532Y340734D01*
X256141Y339679D01*
X257002Y338818D01*
X258057Y338209D01*
X259233Y337894D01*
X260452D01*
X261628Y338209D01*
X262683Y338818D01*
X263544Y339679D01*
X264153Y340734D01*
X264469Y341911D01*
Y343129D01*
X264153Y344305D01*
X263544Y345360D01*
X262683Y346221D01*
X261628Y346830D01*
X260452Y347146D01*
D02*
G37*
G36*
X227369Y342756D02*
X226332D01*
X225331Y342488D01*
X224433Y341969D01*
X223700Y341236D01*
X223182Y340339D01*
X222913Y339337D01*
Y338301D01*
X223182Y337299D01*
X223700Y336402D01*
X224433Y335669D01*
X225331Y335150D01*
X226332Y334882D01*
X227369D01*
X228370Y335150D01*
X229268Y335669D01*
X230001Y336402D01*
X230519Y337299D01*
X230787Y338301D01*
Y339337D01*
X230519Y340339D01*
X230001Y341236D01*
X229268Y341969D01*
X228370Y342488D01*
X227369Y342756D01*
D02*
G37*
G36*
X217369D02*
X216332D01*
X215331Y342488D01*
X214433Y341969D01*
X213700Y341236D01*
X213182Y340339D01*
X212913Y339337D01*
Y338301D01*
X213182Y337299D01*
X213700Y336402D01*
X214433Y335669D01*
X215331Y335150D01*
X216332Y334882D01*
X217369D01*
X218370Y335150D01*
X219268Y335669D01*
X220001Y336402D01*
X220519Y337299D01*
X220787Y338301D01*
Y339337D01*
X220519Y340339D01*
X220001Y341236D01*
X219268Y341969D01*
X218370Y342488D01*
X217369Y342756D01*
D02*
G37*
G36*
X130531Y339272D02*
X129312D01*
X128136Y338956D01*
X127081Y338347D01*
X126220Y337486D01*
X125611Y336431D01*
X125295Y335255D01*
Y334037D01*
X125611Y332860D01*
X126220Y331805D01*
X127081Y330944D01*
X128136Y330335D01*
X129312Y330020D01*
X130531D01*
X131707Y330335D01*
X132762Y330944D01*
X133623Y331805D01*
X134232Y332860D01*
X134547Y334037D01*
Y335255D01*
X134232Y336431D01*
X133623Y337486D01*
X132762Y338347D01*
X131707Y338956D01*
X130531Y339272D01*
D02*
G37*
G36*
X397369Y336850D02*
X396332D01*
X395331Y336582D01*
X394433Y336064D01*
X393700Y335331D01*
X393182Y334433D01*
X392913Y333432D01*
Y332395D01*
X393182Y331394D01*
X393700Y330496D01*
X394433Y329763D01*
X395331Y329245D01*
X396332Y328976D01*
X397369D01*
X398370Y329245D01*
X399268Y329763D01*
X400001Y330496D01*
X400519Y331394D01*
X400787Y332395D01*
Y333432D01*
X400519Y334433D01*
X400001Y335331D01*
X399268Y336064D01*
X398370Y336582D01*
X397369Y336850D01*
D02*
G37*
G36*
X227369Y332756D02*
X226332D01*
X225331Y332488D01*
X224433Y331969D01*
X223700Y331236D01*
X223182Y330339D01*
X222913Y329337D01*
Y328301D01*
X223182Y327299D01*
X223700Y326402D01*
X224433Y325669D01*
X225331Y325150D01*
X226332Y324882D01*
X227369D01*
X228370Y325150D01*
X229268Y325669D01*
X230001Y326402D01*
X230519Y327299D01*
X230787Y328301D01*
Y329337D01*
X230519Y330339D01*
X230001Y331236D01*
X229268Y331969D01*
X228370Y332488D01*
X227369Y332756D01*
D02*
G37*
G36*
X217369D02*
X216332D01*
X215331Y332488D01*
X214433Y331969D01*
X213700Y331236D01*
X213182Y330339D01*
X212913Y329337D01*
Y328301D01*
X213182Y327299D01*
X213700Y326402D01*
X214433Y325669D01*
X215331Y325150D01*
X216332Y324882D01*
X217369D01*
X218370Y325150D01*
X219268Y325669D01*
X220001Y326402D01*
X220519Y327299D01*
X220787Y328301D01*
Y329337D01*
X220519Y330339D01*
X220001Y331236D01*
X219268Y331969D01*
X218370Y332488D01*
X217369Y332756D01*
D02*
G37*
G36*
X397369Y326850D02*
X396332D01*
X395331Y326582D01*
X394433Y326064D01*
X393700Y325331D01*
X393182Y324433D01*
X392913Y323432D01*
Y322395D01*
X393182Y321394D01*
X393700Y320496D01*
X394433Y319763D01*
X395331Y319245D01*
X396332Y318976D01*
X397369D01*
X398370Y319245D01*
X399268Y319763D01*
X400001Y320496D01*
X400519Y321394D01*
X400787Y322395D01*
Y323432D01*
X400519Y324433D01*
X400001Y325331D01*
X399268Y326064D01*
X398370Y326582D01*
X397369Y326850D01*
D02*
G37*
G36*
X441554Y327461D02*
X440336D01*
X439159Y327145D01*
X438104Y326536D01*
X437243Y325675D01*
X436634Y324620D01*
X436319Y323444D01*
Y322226D01*
X436634Y321049D01*
X437243Y319994D01*
X438104Y319133D01*
X439159Y318524D01*
X440336Y318209D01*
X441554D01*
X442730Y318524D01*
X443785Y319133D01*
X444647Y319994D01*
X445256Y321049D01*
X445571Y322226D01*
Y323444D01*
X445256Y324620D01*
X444647Y325675D01*
X443785Y326536D01*
X442730Y327145D01*
X441554Y327461D01*
D02*
G37*
G36*
X335255D02*
X334037D01*
X332860Y327145D01*
X331805Y326536D01*
X330944Y325675D01*
X330335Y324620D01*
X330020Y323444D01*
Y322226D01*
X330335Y321049D01*
X330944Y319994D01*
X331805Y319133D01*
X332860Y318524D01*
X334037Y318209D01*
X335255D01*
X336431Y318524D01*
X337486Y319133D01*
X338347Y319994D01*
X338956Y321049D01*
X339272Y322226D01*
Y323444D01*
X338956Y324620D01*
X338347Y325675D01*
X337486Y326536D01*
X336431Y327145D01*
X335255Y327461D01*
D02*
G37*
G36*
X260452D02*
X259233D01*
X258057Y327145D01*
X257002Y326536D01*
X256141Y325675D01*
X255532Y324620D01*
X255217Y323444D01*
Y322226D01*
X255532Y321049D01*
X256141Y319994D01*
X257002Y319133D01*
X258057Y318524D01*
X259233Y318209D01*
X260452D01*
X261628Y318524D01*
X262683Y319133D01*
X263544Y319994D01*
X264153Y321049D01*
X264469Y322226D01*
Y323444D01*
X264153Y324620D01*
X263544Y325675D01*
X262683Y326536D01*
X261628Y327145D01*
X260452Y327461D01*
D02*
G37*
G36*
X217369Y322756D02*
X216332D01*
X215331Y322488D01*
X214433Y321969D01*
X213700Y321236D01*
X213182Y320339D01*
X212913Y319337D01*
Y318301D01*
X213182Y317299D01*
X213700Y316402D01*
X214433Y315669D01*
X215331Y315150D01*
X216332Y314882D01*
X217369D01*
X218370Y315150D01*
X219268Y315669D01*
X220001Y316402D01*
X220519Y317299D01*
X220787Y318301D01*
Y319337D01*
X220519Y320339D01*
X220001Y321236D01*
X219268Y321969D01*
X218370Y322488D01*
X217369Y322756D01*
D02*
G37*
G36*
X130531Y319587D02*
X129312D01*
X128136Y319271D01*
X127081Y318662D01*
X126220Y317801D01*
X125611Y316746D01*
X125295Y315570D01*
Y314352D01*
X125611Y313175D01*
X126220Y312120D01*
X127081Y311259D01*
X128136Y310650D01*
X129312Y310335D01*
X130531D01*
X131707Y310650D01*
X132762Y311259D01*
X133623Y312120D01*
X134232Y313175D01*
X134547Y314352D01*
Y315570D01*
X134232Y316746D01*
X133623Y317801D01*
X132762Y318662D01*
X131707Y319271D01*
X130531Y319587D01*
D02*
G37*
G36*
X397369Y316850D02*
X396332D01*
X395331Y316582D01*
X394433Y316064D01*
X393700Y315331D01*
X393182Y314433D01*
X392913Y313432D01*
Y312395D01*
X393182Y311394D01*
X393700Y310496D01*
X394433Y309763D01*
X395331Y309245D01*
X396332Y308976D01*
X397369D01*
X398370Y309245D01*
X399268Y309763D01*
X400001Y310496D01*
X400519Y311394D01*
X400787Y312395D01*
Y313432D01*
X400519Y314433D01*
X400001Y315331D01*
X399268Y316064D01*
X398370Y316582D01*
X397369Y316850D01*
D02*
G37*
G36*
X217369Y312756D02*
X216332D01*
X215331Y312488D01*
X214433Y311969D01*
X213700Y311236D01*
X213182Y310339D01*
X212913Y309337D01*
Y308301D01*
X213182Y307299D01*
X213700Y306402D01*
X214433Y305669D01*
X215331Y305150D01*
X216332Y304882D01*
X217369D01*
X218370Y305150D01*
X219268Y305669D01*
X220001Y306402D01*
X220519Y307299D01*
X220787Y308301D01*
Y309337D01*
X220519Y310339D01*
X220001Y311236D01*
X219268Y311969D01*
X218370Y312488D01*
X217369Y312756D01*
D02*
G37*
G36*
X217850Y302847D02*
Y299819D01*
X220878D01*
X220717Y300421D01*
X220171Y301367D01*
X219398Y302139D01*
X218452Y302686D01*
X217850Y302847D01*
D02*
G37*
G36*
X215850D02*
X215249Y302686D01*
X214302Y302139D01*
X213530Y301367D01*
X212984Y300421D01*
X212822Y299819D01*
X215850D01*
Y302847D01*
D02*
G37*
G36*
X397369Y306850D02*
X396332D01*
X395331Y306582D01*
X394433Y306064D01*
X393700Y305331D01*
X393182Y304433D01*
X392913Y303432D01*
Y302395D01*
X393182Y301394D01*
X393700Y300496D01*
X394433Y299763D01*
X395331Y299245D01*
X396332Y298976D01*
X397369D01*
X398370Y299245D01*
X399268Y299763D01*
X400001Y300496D01*
X400519Y301394D01*
X400787Y302395D01*
Y303432D01*
X400519Y304433D01*
X400001Y305331D01*
X399268Y306064D01*
X398370Y306582D01*
X397369Y306850D01*
D02*
G37*
G36*
X441554Y307776D02*
X440336D01*
X439159Y307460D01*
X438104Y306851D01*
X437243Y305990D01*
X436634Y304935D01*
X436319Y303759D01*
Y302541D01*
X436634Y301364D01*
X437243Y300309D01*
X438104Y299448D01*
X439159Y298839D01*
X440336Y298524D01*
X441554D01*
X442730Y298839D01*
X443785Y299448D01*
X444647Y300309D01*
X445256Y301364D01*
X445571Y302541D01*
Y303759D01*
X445256Y304935D01*
X444647Y305990D01*
X443785Y306851D01*
X442730Y307460D01*
X441554Y307776D01*
D02*
G37*
G36*
X335255D02*
X334037D01*
X332860Y307460D01*
X331805Y306851D01*
X330944Y305990D01*
X330335Y304935D01*
X330020Y303759D01*
Y302541D01*
X330335Y301364D01*
X330944Y300309D01*
X331805Y299448D01*
X332860Y298839D01*
X334037Y298524D01*
X335255D01*
X336431Y298839D01*
X337486Y299448D01*
X338347Y300309D01*
X338956Y301364D01*
X339272Y302541D01*
Y303759D01*
X338956Y304935D01*
X338347Y305990D01*
X337486Y306851D01*
X336431Y307460D01*
X335255Y307776D01*
D02*
G37*
G36*
X260452D02*
X259233D01*
X258057Y307460D01*
X257002Y306851D01*
X256141Y305990D01*
X255532Y304935D01*
X255217Y303759D01*
Y302541D01*
X255532Y301364D01*
X256141Y300309D01*
X257002Y299448D01*
X258057Y298839D01*
X259233Y298524D01*
X260452D01*
X261628Y298839D01*
X262683Y299448D01*
X263544Y300309D01*
X264153Y301364D01*
X264469Y302541D01*
Y303759D01*
X264153Y304935D01*
X263544Y305990D01*
X262683Y306851D01*
X261628Y307460D01*
X260452Y307776D01*
D02*
G37*
G36*
X220878Y297819D02*
X217850D01*
Y294791D01*
X218452Y294952D01*
X219398Y295498D01*
X220171Y296271D01*
X220717Y297217D01*
X220878Y297819D01*
D02*
G37*
G36*
X215850D02*
X212822D01*
X212984Y297217D01*
X213530Y296271D01*
X214302Y295498D01*
X215249Y294952D01*
X215850Y294791D01*
Y297819D01*
D02*
G37*
G36*
X130531Y299902D02*
X129312D01*
X128136Y299586D01*
X127081Y298977D01*
X126220Y298116D01*
X125611Y297061D01*
X125295Y295885D01*
Y294667D01*
X125611Y293490D01*
X126220Y292435D01*
X127081Y291574D01*
X128136Y290965D01*
X129312Y290650D01*
X130531D01*
X131707Y290965D01*
X132762Y291574D01*
X133623Y292435D01*
X134232Y293490D01*
X134547Y294667D01*
Y295885D01*
X134232Y297061D01*
X133623Y298116D01*
X132762Y298977D01*
X131707Y299586D01*
X130531Y299902D01*
D02*
G37*
G36*
X217850Y292847D02*
Y289819D01*
X220878D01*
X220717Y290421D01*
X220171Y291367D01*
X219398Y292140D01*
X218452Y292686D01*
X217850Y292847D01*
D02*
G37*
G36*
X215850D02*
X215249Y292686D01*
X214302Y292140D01*
X213530Y291367D01*
X212984Y290421D01*
X212822Y289819D01*
X215850D01*
Y292847D01*
D02*
G37*
G36*
X397369Y296850D02*
X396332D01*
X395331Y296582D01*
X394433Y296064D01*
X393700Y295331D01*
X393182Y294433D01*
X392913Y293432D01*
Y292395D01*
X393182Y291394D01*
X393700Y290496D01*
X394433Y289763D01*
X395331Y289245D01*
X396332Y288976D01*
X397369D01*
X398370Y289245D01*
X399268Y289763D01*
X400001Y290496D01*
X400519Y291394D01*
X400787Y292395D01*
Y293432D01*
X400519Y294433D01*
X400001Y295331D01*
X399268Y296064D01*
X398370Y296582D01*
X397369Y296850D01*
D02*
G37*
G36*
X220878Y287819D02*
X217850D01*
Y284791D01*
X218452Y284952D01*
X219398Y285498D01*
X220171Y286271D01*
X220717Y287217D01*
X220878Y287819D01*
D02*
G37*
G36*
X215850D02*
X212822D01*
X212984Y287217D01*
X213530Y286271D01*
X214302Y285498D01*
X215249Y284952D01*
X215850Y284791D01*
Y287819D01*
D02*
G37*
G36*
X441554Y288091D02*
X440336D01*
X439159Y287775D01*
X438104Y287166D01*
X437243Y286305D01*
X436634Y285250D01*
X436319Y284074D01*
Y282856D01*
X436634Y281679D01*
X437243Y280624D01*
X438104Y279763D01*
X439159Y279154D01*
X440336Y278839D01*
X441554D01*
X442730Y279154D01*
X443785Y279763D01*
X444647Y280624D01*
X445256Y281679D01*
X445571Y282856D01*
Y284074D01*
X445256Y285250D01*
X444647Y286305D01*
X443785Y287166D01*
X442730Y287775D01*
X441554Y288091D01*
D02*
G37*
G36*
X335255D02*
X334037D01*
X332860Y287775D01*
X331805Y287166D01*
X330944Y286305D01*
X330335Y285250D01*
X330020Y284074D01*
Y282856D01*
X330335Y281679D01*
X330944Y280624D01*
X331805Y279763D01*
X332860Y279154D01*
X334037Y278839D01*
X335255D01*
X336431Y279154D01*
X337486Y279763D01*
X338347Y280624D01*
X338956Y281679D01*
X339272Y282856D01*
Y284074D01*
X338956Y285250D01*
X338347Y286305D01*
X337486Y287166D01*
X336431Y287775D01*
X335255Y288091D01*
D02*
G37*
G36*
X260452D02*
X259233D01*
X258057Y287775D01*
X257002Y287166D01*
X256141Y286305D01*
X255532Y285250D01*
X255217Y284074D01*
Y282856D01*
X255532Y281679D01*
X256141Y280624D01*
X257002Y279763D01*
X258057Y279154D01*
X259233Y278839D01*
X260452D01*
X261628Y279154D01*
X262683Y279763D01*
X263544Y280624D01*
X264153Y281679D01*
X264469Y282856D01*
Y284074D01*
X264153Y285250D01*
X263544Y286305D01*
X262683Y287166D01*
X261628Y287775D01*
X260452Y288091D01*
D02*
G37*
G36*
X217369Y282756D02*
X216332D01*
X215331Y282488D01*
X214433Y281969D01*
X213700Y281236D01*
X213182Y280339D01*
X212913Y279337D01*
Y278301D01*
X213182Y277299D01*
X213700Y276402D01*
X214433Y275669D01*
X215331Y275150D01*
X216332Y274882D01*
X217369D01*
X218370Y275150D01*
X219268Y275669D01*
X220001Y276402D01*
X220519Y277299D01*
X220787Y278301D01*
Y279337D01*
X220519Y280339D01*
X220001Y281236D01*
X219268Y281969D01*
X218370Y282488D01*
X217369Y282756D01*
D02*
G37*
G36*
X407369Y282677D02*
X406332D01*
X405331Y282409D01*
X404433Y281891D01*
X403700Y281157D01*
X403182Y280260D01*
X402913Y279258D01*
Y278222D01*
X403182Y277221D01*
X403700Y276323D01*
X404433Y275590D01*
X405331Y275072D01*
X406332Y274803D01*
X407369D01*
X408370Y275072D01*
X409268Y275590D01*
X410001Y276323D01*
X410519Y277221D01*
X410787Y278222D01*
Y279258D01*
X410519Y280260D01*
X410001Y281157D01*
X409268Y281891D01*
X408370Y282409D01*
X407369Y282677D01*
D02*
G37*
G36*
X130531Y280217D02*
X129312D01*
X128136Y279901D01*
X127081Y279292D01*
X126220Y278431D01*
X125611Y277376D01*
X125295Y276200D01*
Y274982D01*
X125611Y273805D01*
X126220Y272750D01*
X127081Y271889D01*
X128136Y271280D01*
X129312Y270965D01*
X130531D01*
X131707Y271280D01*
X132762Y271889D01*
X133623Y272750D01*
X134232Y273805D01*
X134547Y274982D01*
Y276200D01*
X134232Y277376D01*
X133623Y278431D01*
X132762Y279292D01*
X131707Y279901D01*
X130531Y280217D01*
D02*
G37*
G36*
X407369Y272677D02*
X406332D01*
X405331Y272409D01*
X404433Y271890D01*
X403700Y271158D01*
X403182Y270260D01*
X402913Y269258D01*
Y268222D01*
X403182Y267221D01*
X403700Y266323D01*
X404433Y265590D01*
X405331Y265072D01*
X406332Y264803D01*
X407369D01*
X408370Y265072D01*
X409268Y265590D01*
X410001Y266323D01*
X410519Y267221D01*
X410787Y268222D01*
Y269258D01*
X410519Y270260D01*
X410001Y271158D01*
X409268Y271890D01*
X408370Y272409D01*
X407369Y272677D01*
D02*
G37*
G36*
X397850Y262768D02*
Y259740D01*
X400878D01*
X400717Y260342D01*
X400171Y261288D01*
X399398Y262061D01*
X398452Y262607D01*
X397850Y262768D01*
D02*
G37*
G36*
X395850D02*
X395249Y262607D01*
X394303Y262061D01*
X393530Y261288D01*
X392984Y260342D01*
X392822Y259740D01*
X395850D01*
Y262768D01*
D02*
G37*
G36*
X441554Y268405D02*
X440336D01*
X439159Y268090D01*
X438104Y267481D01*
X437243Y266620D01*
X436634Y265565D01*
X436319Y264388D01*
Y263170D01*
X436634Y261994D01*
X437243Y260939D01*
X438104Y260078D01*
X439159Y259469D01*
X440336Y259154D01*
X441554D01*
X442730Y259469D01*
X443785Y260078D01*
X444647Y260939D01*
X445256Y261994D01*
X445571Y263170D01*
Y264388D01*
X445256Y265565D01*
X444647Y266620D01*
X443785Y267481D01*
X442730Y268090D01*
X441554Y268405D01*
D02*
G37*
G36*
X335255D02*
X334037D01*
X332860Y268090D01*
X331805Y267481D01*
X330944Y266620D01*
X330335Y265565D01*
X330020Y264388D01*
Y263170D01*
X330335Y261994D01*
X330944Y260939D01*
X331805Y260078D01*
X332860Y259469D01*
X334037Y259154D01*
X335255D01*
X336431Y259469D01*
X337486Y260078D01*
X338347Y260939D01*
X338956Y261994D01*
X339272Y263170D01*
Y264388D01*
X338956Y265565D01*
X338347Y266620D01*
X337486Y267481D01*
X336431Y268090D01*
X335255Y268405D01*
D02*
G37*
G36*
X260452D02*
X259233D01*
X258057Y268090D01*
X257002Y267481D01*
X256141Y266620D01*
X255532Y265565D01*
X255217Y264388D01*
Y263170D01*
X255532Y261994D01*
X256141Y260939D01*
X257002Y260078D01*
X258057Y259469D01*
X259233Y259154D01*
X260452D01*
X261628Y259469D01*
X262683Y260078D01*
X263544Y260939D01*
X264153Y261994D01*
X264469Y263170D01*
Y264388D01*
X264153Y265565D01*
X263544Y266620D01*
X262683Y267481D01*
X261628Y268090D01*
X260452Y268405D01*
D02*
G37*
G36*
X407369Y262677D02*
X406332D01*
X405331Y262409D01*
X404433Y261891D01*
X403700Y261157D01*
X403182Y260260D01*
X402913Y259259D01*
Y258222D01*
X403182Y257221D01*
X403700Y256323D01*
X404433Y255590D01*
X405331Y255071D01*
X406332Y254803D01*
X407369D01*
X408370Y255071D01*
X409268Y255590D01*
X410001Y256323D01*
X410519Y257221D01*
X410787Y258222D01*
Y259259D01*
X410519Y260260D01*
X410001Y261157D01*
X409268Y261891D01*
X408370Y262409D01*
X407369Y262677D01*
D02*
G37*
G36*
X227369D02*
X226332D01*
X225331Y262409D01*
X224433Y261891D01*
X223700Y261157D01*
X223182Y260260D01*
X222913Y259259D01*
Y258222D01*
X223182Y257221D01*
X223700Y256323D01*
X224433Y255590D01*
X225331Y255071D01*
X226332Y254803D01*
X227369D01*
X228370Y255071D01*
X229268Y255590D01*
X230001Y256323D01*
X230519Y257221D01*
X230787Y258222D01*
Y259259D01*
X230519Y260260D01*
X230001Y261157D01*
X229268Y261891D01*
X228370Y262409D01*
X227369Y262677D01*
D02*
G37*
G36*
X217369D02*
X216332D01*
X215331Y262409D01*
X214433Y261891D01*
X213700Y261157D01*
X213182Y260260D01*
X212913Y259259D01*
Y258222D01*
X213182Y257221D01*
X213700Y256323D01*
X214433Y255590D01*
X215331Y255071D01*
X216332Y254803D01*
X217369D01*
X218370Y255071D01*
X219268Y255590D01*
X220001Y256323D01*
X220519Y257221D01*
X220787Y258222D01*
Y259259D01*
X220519Y260260D01*
X220001Y261157D01*
X219268Y261891D01*
X218370Y262409D01*
X217369Y262677D01*
D02*
G37*
G36*
X400878Y257740D02*
X397850D01*
Y254712D01*
X398452Y254873D01*
X399398Y255420D01*
X400171Y256192D01*
X400717Y257138D01*
X400878Y257740D01*
D02*
G37*
G36*
X395850D02*
X392822D01*
X392984Y257138D01*
X393530Y256192D01*
X394303Y255420D01*
X395249Y254873D01*
X395850Y254712D01*
Y257740D01*
D02*
G37*
G36*
X130531Y260532D02*
X129312D01*
X128136Y260216D01*
X127081Y259607D01*
X126220Y258746D01*
X125611Y257691D01*
X125295Y256515D01*
Y255297D01*
X125611Y254120D01*
X126220Y253065D01*
X127081Y252204D01*
X128136Y251595D01*
X129312Y251280D01*
X130531D01*
X131707Y251595D01*
X132762Y252204D01*
X133623Y253065D01*
X134232Y254120D01*
X134547Y255297D01*
Y256515D01*
X134232Y257691D01*
X133623Y258746D01*
X132762Y259607D01*
X131707Y260216D01*
X130531Y260532D01*
D02*
G37*
G36*
X407369Y252677D02*
X406332D01*
X405331Y252409D01*
X404433Y251890D01*
X403700Y251157D01*
X403182Y250260D01*
X402913Y249258D01*
Y248222D01*
X403182Y247221D01*
X403700Y246323D01*
X404433Y245590D01*
X405331Y245072D01*
X406332Y244803D01*
X407369D01*
X408370Y245072D01*
X409268Y245590D01*
X410001Y246323D01*
X410519Y247221D01*
X410787Y248222D01*
Y249258D01*
X410519Y250260D01*
X410001Y251157D01*
X409268Y251890D01*
X408370Y252409D01*
X407369Y252677D01*
D02*
G37*
G36*
X397369D02*
X396332D01*
X395331Y252409D01*
X394433Y251890D01*
X393700Y251157D01*
X393182Y250260D01*
X392913Y249258D01*
Y248222D01*
X393182Y247221D01*
X393700Y246323D01*
X394433Y245590D01*
X395331Y245072D01*
X396332Y244803D01*
X397369D01*
X398370Y245072D01*
X399268Y245590D01*
X400001Y246323D01*
X400519Y247221D01*
X400787Y248222D01*
Y249258D01*
X400519Y250260D01*
X400001Y251157D01*
X399268Y251890D01*
X398370Y252409D01*
X397369Y252677D01*
D02*
G37*
G36*
X227369D02*
X226332D01*
X225331Y252409D01*
X224433Y251890D01*
X223700Y251157D01*
X223182Y250260D01*
X222913Y249258D01*
Y248222D01*
X223182Y247221D01*
X223700Y246323D01*
X224433Y245590D01*
X225331Y245072D01*
X226332Y244803D01*
X227369D01*
X228370Y245072D01*
X229268Y245590D01*
X230001Y246323D01*
X230519Y247221D01*
X230787Y248222D01*
Y249258D01*
X230519Y250260D01*
X230001Y251157D01*
X229268Y251890D01*
X228370Y252409D01*
X227369Y252677D01*
D02*
G37*
G36*
X217369D02*
X216332D01*
X215331Y252409D01*
X214433Y251890D01*
X213700Y251157D01*
X213182Y250260D01*
X212913Y249258D01*
Y248222D01*
X213182Y247221D01*
X213700Y246323D01*
X214433Y245590D01*
X215331Y245072D01*
X216332Y244803D01*
X217369D01*
X218370Y245072D01*
X219268Y245590D01*
X220001Y246323D01*
X220519Y247221D01*
X220787Y248222D01*
Y249258D01*
X220519Y250260D01*
X220001Y251157D01*
X219268Y251890D01*
X218370Y252409D01*
X217369Y252677D01*
D02*
G37*
G36*
X441554Y248720D02*
X440336D01*
X439159Y248405D01*
X438104Y247796D01*
X437243Y246935D01*
X436634Y245880D01*
X436319Y244704D01*
Y243485D01*
X436634Y242309D01*
X437243Y241254D01*
X438104Y240393D01*
X439159Y239784D01*
X440336Y239468D01*
X441554D01*
X442730Y239784D01*
X443785Y240393D01*
X444647Y241254D01*
X445256Y242309D01*
X445571Y243485D01*
Y244704D01*
X445256Y245880D01*
X444647Y246935D01*
X443785Y247796D01*
X442730Y248405D01*
X441554Y248720D01*
D02*
G37*
G36*
X335255D02*
X334037D01*
X332860Y248405D01*
X331805Y247796D01*
X330944Y246935D01*
X330335Y245880D01*
X330020Y244704D01*
Y243485D01*
X330335Y242309D01*
X330944Y241254D01*
X331805Y240393D01*
X332860Y239784D01*
X334037Y239468D01*
X335255D01*
X336431Y239784D01*
X337486Y240393D01*
X338347Y241254D01*
X338956Y242309D01*
X339272Y243485D01*
Y244704D01*
X338956Y245880D01*
X338347Y246935D01*
X337486Y247796D01*
X336431Y248405D01*
X335255Y248720D01*
D02*
G37*
G36*
X260452D02*
X259233D01*
X258057Y248405D01*
X257002Y247796D01*
X256141Y246935D01*
X255532Y245880D01*
X255217Y244704D01*
Y243485D01*
X255532Y242309D01*
X256141Y241254D01*
X257002Y240393D01*
X258057Y239784D01*
X259233Y239468D01*
X260452D01*
X261628Y239784D01*
X262683Y240393D01*
X263544Y241254D01*
X264153Y242309D01*
X264469Y243485D01*
Y244704D01*
X264153Y245880D01*
X263544Y246935D01*
X262683Y247796D01*
X261628Y248405D01*
X260452Y248720D01*
D02*
G37*
G36*
X407369Y242677D02*
X406332D01*
X405331Y242409D01*
X404433Y241891D01*
X403700Y241158D01*
X403182Y240260D01*
X402913Y239259D01*
Y238222D01*
X403182Y237221D01*
X403700Y236323D01*
X404433Y235590D01*
X405331Y235071D01*
X406332Y234803D01*
X407369D01*
X408370Y235071D01*
X409268Y235590D01*
X410001Y236323D01*
X410519Y237221D01*
X410787Y238222D01*
Y239259D01*
X410519Y240260D01*
X410001Y241158D01*
X409268Y241891D01*
X408370Y242409D01*
X407369Y242677D01*
D02*
G37*
G36*
X397369D02*
X396332D01*
X395331Y242409D01*
X394433Y241891D01*
X393700Y241158D01*
X393182Y240260D01*
X392913Y239259D01*
Y238222D01*
X393182Y237221D01*
X393700Y236323D01*
X394433Y235590D01*
X395331Y235071D01*
X396332Y234803D01*
X397369D01*
X398370Y235071D01*
X399268Y235590D01*
X400001Y236323D01*
X400519Y237221D01*
X400787Y238222D01*
Y239259D01*
X400519Y240260D01*
X400001Y241158D01*
X399268Y241891D01*
X398370Y242409D01*
X397369Y242677D01*
D02*
G37*
G36*
X227369D02*
X226332D01*
X225331Y242409D01*
X224433Y241891D01*
X223700Y241158D01*
X223182Y240260D01*
X222913Y239259D01*
Y238222D01*
X223182Y237221D01*
X223700Y236323D01*
X224433Y235590D01*
X225331Y235071D01*
X226332Y234803D01*
X227369D01*
X228370Y235071D01*
X229268Y235590D01*
X230001Y236323D01*
X230519Y237221D01*
X230787Y238222D01*
Y239259D01*
X230519Y240260D01*
X230001Y241158D01*
X229268Y241891D01*
X228370Y242409D01*
X227369Y242677D01*
D02*
G37*
G36*
X217369D02*
X216332D01*
X215331Y242409D01*
X214433Y241891D01*
X213700Y241158D01*
X213182Y240260D01*
X212913Y239259D01*
Y238222D01*
X213182Y237221D01*
X213700Y236323D01*
X214433Y235590D01*
X215331Y235071D01*
X216332Y234803D01*
X217369D01*
X218370Y235071D01*
X219268Y235590D01*
X220001Y236323D01*
X220519Y237221D01*
X220787Y238222D01*
Y239259D01*
X220519Y240260D01*
X220001Y241158D01*
X219268Y241891D01*
X218370Y242409D01*
X217369Y242677D01*
D02*
G37*
G36*
X130531Y240846D02*
X129312D01*
X128136Y240531D01*
X127081Y239922D01*
X126220Y239061D01*
X125611Y238006D01*
X125295Y236829D01*
Y235611D01*
X125611Y234435D01*
X126220Y233380D01*
X127081Y232519D01*
X128136Y231910D01*
X129312Y231594D01*
X130531D01*
X131707Y231910D01*
X132762Y232519D01*
X133623Y233380D01*
X134232Y234435D01*
X134547Y235611D01*
Y236829D01*
X134232Y238006D01*
X133623Y239061D01*
X132762Y239922D01*
X131707Y240531D01*
X130531Y240846D01*
D02*
G37*
G36*
X407369Y232677D02*
X406332D01*
X405331Y232409D01*
X404433Y231891D01*
X403700Y231157D01*
X403182Y230260D01*
X402913Y229258D01*
Y228222D01*
X403182Y227221D01*
X403700Y226323D01*
X404433Y225590D01*
X405331Y225072D01*
X406332Y224803D01*
X407369D01*
X408370Y225072D01*
X409268Y225590D01*
X410001Y226323D01*
X410519Y227221D01*
X410787Y228222D01*
Y229258D01*
X410519Y230260D01*
X410001Y231157D01*
X409268Y231891D01*
X408370Y232409D01*
X407369Y232677D01*
D02*
G37*
G36*
X397369D02*
X396332D01*
X395331Y232409D01*
X394433Y231891D01*
X393700Y231157D01*
X393182Y230260D01*
X392913Y229258D01*
Y228222D01*
X393182Y227221D01*
X393700Y226323D01*
X394433Y225590D01*
X395331Y225072D01*
X396332Y224803D01*
X397369D01*
X398370Y225072D01*
X399268Y225590D01*
X400001Y226323D01*
X400519Y227221D01*
X400787Y228222D01*
Y229258D01*
X400519Y230260D01*
X400001Y231157D01*
X399268Y231891D01*
X398370Y232409D01*
X397369Y232677D01*
D02*
G37*
G36*
X227369D02*
X226332D01*
X225331Y232409D01*
X224433Y231891D01*
X223700Y231157D01*
X223182Y230260D01*
X222913Y229258D01*
Y228222D01*
X223182Y227221D01*
X223700Y226323D01*
X224433Y225590D01*
X225331Y225072D01*
X226332Y224803D01*
X227369D01*
X228370Y225072D01*
X229268Y225590D01*
X230001Y226323D01*
X230519Y227221D01*
X230787Y228222D01*
Y229258D01*
X230519Y230260D01*
X230001Y231157D01*
X229268Y231891D01*
X228370Y232409D01*
X227369Y232677D01*
D02*
G37*
G36*
X217369D02*
X216332D01*
X215331Y232409D01*
X214433Y231891D01*
X213700Y231157D01*
X213182Y230260D01*
X212913Y229258D01*
Y228222D01*
X213182Y227221D01*
X213700Y226323D01*
X214433Y225590D01*
X215331Y225072D01*
X216332Y224803D01*
X217369D01*
X218370Y225072D01*
X219268Y225590D01*
X220001Y226323D01*
X220519Y227221D01*
X220787Y228222D01*
Y229258D01*
X220519Y230260D01*
X220001Y231157D01*
X219268Y231891D01*
X218370Y232409D01*
X217369Y232677D01*
D02*
G37*
G36*
X441554Y229035D02*
X440336D01*
X439159Y228720D01*
X438104Y228111D01*
X437243Y227250D01*
X436634Y226195D01*
X436319Y225018D01*
Y223800D01*
X436634Y222624D01*
X437243Y221569D01*
X438104Y220708D01*
X439159Y220099D01*
X440336Y219783D01*
X441554D01*
X442730Y220099D01*
X443785Y220708D01*
X444647Y221569D01*
X445256Y222624D01*
X445571Y223800D01*
Y225018D01*
X445256Y226195D01*
X444647Y227250D01*
X443785Y228111D01*
X442730Y228720D01*
X441554Y229035D01*
D02*
G37*
G36*
X335255D02*
X334037D01*
X332860Y228720D01*
X331805Y228111D01*
X330944Y227250D01*
X330335Y226195D01*
X330020Y225018D01*
Y223800D01*
X330335Y222624D01*
X330944Y221569D01*
X331805Y220708D01*
X332860Y220099D01*
X334037Y219783D01*
X335255D01*
X336431Y220099D01*
X337486Y220708D01*
X338347Y221569D01*
X338956Y222624D01*
X339272Y223800D01*
Y225018D01*
X338956Y226195D01*
X338347Y227250D01*
X337486Y228111D01*
X336431Y228720D01*
X335255Y229035D01*
D02*
G37*
G36*
X260452D02*
X259233D01*
X258057Y228720D01*
X257002Y228111D01*
X256141Y227250D01*
X255532Y226195D01*
X255217Y225018D01*
Y223800D01*
X255532Y222624D01*
X256141Y221569D01*
X257002Y220708D01*
X258057Y220099D01*
X259233Y219783D01*
X260452D01*
X261628Y220099D01*
X262683Y220708D01*
X263544Y221569D01*
X264153Y222624D01*
X264469Y223800D01*
Y225018D01*
X264153Y226195D01*
X263544Y227250D01*
X262683Y228111D01*
X261628Y228720D01*
X260452Y229035D01*
D02*
G37*
G36*
X407369Y222677D02*
X406332D01*
X405331Y222409D01*
X404433Y221890D01*
X403700Y221158D01*
X403182Y220260D01*
X402913Y219258D01*
Y218222D01*
X403182Y217221D01*
X403700Y216323D01*
X404433Y215590D01*
X405331Y215072D01*
X406332Y214803D01*
X407369D01*
X408370Y215072D01*
X409268Y215590D01*
X410001Y216323D01*
X410519Y217221D01*
X410787Y218222D01*
Y219258D01*
X410519Y220260D01*
X410001Y221158D01*
X409268Y221890D01*
X408370Y222409D01*
X407369Y222677D01*
D02*
G37*
G36*
X397369D02*
X396332D01*
X395331Y222409D01*
X394433Y221890D01*
X393700Y221158D01*
X393182Y220260D01*
X392913Y219258D01*
Y218222D01*
X393182Y217221D01*
X393700Y216323D01*
X394433Y215590D01*
X395331Y215072D01*
X396332Y214803D01*
X397369D01*
X398370Y215072D01*
X399268Y215590D01*
X400001Y216323D01*
X400519Y217221D01*
X400787Y218222D01*
Y219258D01*
X400519Y220260D01*
X400001Y221158D01*
X399268Y221890D01*
X398370Y222409D01*
X397369Y222677D01*
D02*
G37*
G36*
X227369D02*
X226332D01*
X225331Y222409D01*
X224433Y221890D01*
X223700Y221158D01*
X223182Y220260D01*
X222913Y219258D01*
Y218222D01*
X223182Y217221D01*
X223700Y216323D01*
X224433Y215590D01*
X225331Y215072D01*
X226332Y214803D01*
X227369D01*
X228370Y215072D01*
X229268Y215590D01*
X230001Y216323D01*
X230519Y217221D01*
X230787Y218222D01*
Y219258D01*
X230519Y220260D01*
X230001Y221158D01*
X229268Y221890D01*
X228370Y222409D01*
X227369Y222677D01*
D02*
G37*
G36*
X217369D02*
X216332D01*
X215331Y222409D01*
X214433Y221890D01*
X213700Y221158D01*
X213182Y220260D01*
X212913Y219258D01*
Y218222D01*
X213182Y217221D01*
X213700Y216323D01*
X214433Y215590D01*
X215331Y215072D01*
X216332Y214803D01*
X217369D01*
X218370Y215072D01*
X219268Y215590D01*
X220001Y216323D01*
X220519Y217221D01*
X220787Y218222D01*
Y219258D01*
X220519Y220260D01*
X220001Y221158D01*
X219268Y221890D01*
X218370Y222409D01*
X217369Y222677D01*
D02*
G37*
G36*
X130531Y221161D02*
X129312D01*
X128136Y220846D01*
X127081Y220237D01*
X126220Y219376D01*
X125611Y218321D01*
X125295Y217144D01*
Y215926D01*
X125611Y214750D01*
X126220Y213695D01*
X127081Y212834D01*
X128136Y212225D01*
X129312Y211909D01*
X130531D01*
X131707Y212225D01*
X132762Y212834D01*
X133623Y213695D01*
X134232Y214750D01*
X134547Y215926D01*
Y217144D01*
X134232Y218321D01*
X133623Y219376D01*
X132762Y220237D01*
X131707Y220846D01*
X130531Y221161D01*
D02*
G37*
G36*
X227850Y212768D02*
Y209740D01*
X230878D01*
X230717Y210342D01*
X230171Y211288D01*
X229398Y212061D01*
X228452Y212607D01*
X227850Y212768D01*
D02*
G37*
G36*
X225850D02*
X225249Y212607D01*
X224303Y212061D01*
X223530Y211288D01*
X222984Y210342D01*
X222822Y209740D01*
X225850D01*
Y212768D01*
D02*
G37*
G36*
X407369Y212677D02*
X406332D01*
X405331Y212409D01*
X404433Y211891D01*
X403700Y211157D01*
X403182Y210260D01*
X402913Y209259D01*
Y208222D01*
X403182Y207221D01*
X403700Y206323D01*
X404433Y205590D01*
X405331Y205071D01*
X406332Y204803D01*
X407369D01*
X408370Y205071D01*
X409268Y205590D01*
X410001Y206323D01*
X410519Y207221D01*
X410787Y208222D01*
Y209259D01*
X410519Y210260D01*
X410001Y211157D01*
X409268Y211891D01*
X408370Y212409D01*
X407369Y212677D01*
D02*
G37*
G36*
X397369D02*
X396332D01*
X395331Y212409D01*
X394433Y211891D01*
X393700Y211157D01*
X393182Y210260D01*
X392913Y209259D01*
Y208222D01*
X393182Y207221D01*
X393700Y206323D01*
X394433Y205590D01*
X395331Y205071D01*
X396332Y204803D01*
X397369D01*
X398370Y205071D01*
X399268Y205590D01*
X400001Y206323D01*
X400519Y207221D01*
X400787Y208222D01*
Y209259D01*
X400519Y210260D01*
X400001Y211157D01*
X399268Y211891D01*
X398370Y212409D01*
X397369Y212677D01*
D02*
G37*
G36*
X217369D02*
X216332D01*
X215331Y212409D01*
X214433Y211891D01*
X213700Y211157D01*
X213182Y210260D01*
X212913Y209259D01*
Y208222D01*
X213182Y207221D01*
X213700Y206323D01*
X214433Y205590D01*
X215331Y205071D01*
X216332Y204803D01*
X217369D01*
X218370Y205071D01*
X219268Y205590D01*
X220001Y206323D01*
X220519Y207221D01*
X220787Y208222D01*
Y209259D01*
X220519Y210260D01*
X220001Y211157D01*
X219268Y211891D01*
X218370Y212409D01*
X217369Y212677D01*
D02*
G37*
G36*
X230878Y207740D02*
X227850D01*
Y204712D01*
X228452Y204873D01*
X229398Y205420D01*
X230171Y206192D01*
X230717Y207138D01*
X230878Y207740D01*
D02*
G37*
G36*
X225850D02*
X222822D01*
X222984Y207138D01*
X223530Y206192D01*
X224303Y205420D01*
X225249Y204873D01*
X225850Y204712D01*
Y207740D01*
D02*
G37*
G36*
X441554Y209350D02*
X440336D01*
X439159Y209035D01*
X438104Y208426D01*
X437243Y207565D01*
X436634Y206510D01*
X436319Y205333D01*
Y204115D01*
X436634Y202939D01*
X437243Y201884D01*
X438104Y201023D01*
X439159Y200414D01*
X440336Y200098D01*
X441554D01*
X442730Y200414D01*
X443785Y201023D01*
X444647Y201884D01*
X445256Y202939D01*
X445571Y204115D01*
Y205333D01*
X445256Y206510D01*
X444647Y207565D01*
X443785Y208426D01*
X442730Y209035D01*
X441554Y209350D01*
D02*
G37*
G36*
X335255D02*
X334037D01*
X332860Y209035D01*
X331805Y208426D01*
X330944Y207565D01*
X330335Y206510D01*
X330020Y205333D01*
Y204115D01*
X330335Y202939D01*
X330944Y201884D01*
X331805Y201023D01*
X332860Y200414D01*
X334037Y200098D01*
X335255D01*
X336431Y200414D01*
X337486Y201023D01*
X338347Y201884D01*
X338956Y202939D01*
X339272Y204115D01*
Y205333D01*
X338956Y206510D01*
X338347Y207565D01*
X337486Y208426D01*
X336431Y209035D01*
X335255Y209350D01*
D02*
G37*
G36*
X260452D02*
X259233D01*
X258057Y209035D01*
X257002Y208426D01*
X256141Y207565D01*
X255532Y206510D01*
X255217Y205333D01*
Y204115D01*
X255532Y202939D01*
X256141Y201884D01*
X257002Y201023D01*
X258057Y200414D01*
X259233Y200098D01*
X260452D01*
X261628Y200414D01*
X262683Y201023D01*
X263544Y201884D01*
X264153Y202939D01*
X264469Y204115D01*
Y205333D01*
X264153Y206510D01*
X263544Y207565D01*
X262683Y208426D01*
X261628Y209035D01*
X260452Y209350D01*
D02*
G37*
G36*
X397850Y202768D02*
Y199740D01*
X400878D01*
X400717Y200342D01*
X400171Y201288D01*
X399398Y202061D01*
X398452Y202607D01*
X397850Y202768D01*
D02*
G37*
G36*
X395850D02*
X395249Y202607D01*
X394303Y202061D01*
X393530Y201288D01*
X392984Y200342D01*
X392822Y199740D01*
X395850D01*
Y202768D01*
D02*
G37*
G36*
X407369Y202677D02*
X406332D01*
X405331Y202409D01*
X404433Y201891D01*
X403700Y201157D01*
X403182Y200260D01*
X402913Y199258D01*
Y198222D01*
X403182Y197221D01*
X403700Y196323D01*
X404433Y195590D01*
X405331Y195071D01*
X406332Y194803D01*
X407369D01*
X408370Y195071D01*
X409268Y195590D01*
X410001Y196323D01*
X410519Y197221D01*
X410787Y198222D01*
Y199258D01*
X410519Y200260D01*
X410001Y201157D01*
X409268Y201891D01*
X408370Y202409D01*
X407369Y202677D01*
D02*
G37*
G36*
X227369D02*
X226332D01*
X225331Y202409D01*
X224433Y201891D01*
X223700Y201157D01*
X223182Y200260D01*
X222913Y199258D01*
Y198222D01*
X223182Y197221D01*
X223700Y196323D01*
X224433Y195590D01*
X225331Y195071D01*
X226332Y194803D01*
X227369D01*
X228370Y195071D01*
X229268Y195590D01*
X230001Y196323D01*
X230519Y197221D01*
X230787Y198222D01*
Y199258D01*
X230519Y200260D01*
X230001Y201157D01*
X229268Y201891D01*
X228370Y202409D01*
X227369Y202677D01*
D02*
G37*
G36*
X217369D02*
X216332D01*
X215331Y202409D01*
X214433Y201891D01*
X213700Y201157D01*
X213182Y200260D01*
X212913Y199258D01*
Y198222D01*
X213182Y197221D01*
X213700Y196323D01*
X214433Y195590D01*
X215331Y195071D01*
X216332Y194803D01*
X217369D01*
X218370Y195071D01*
X219268Y195590D01*
X220001Y196323D01*
X220519Y197221D01*
X220787Y198222D01*
Y199258D01*
X220519Y200260D01*
X220001Y201157D01*
X219268Y201891D01*
X218370Y202409D01*
X217369Y202677D01*
D02*
G37*
G36*
X400878Y197740D02*
X397850D01*
Y194712D01*
X398452Y194873D01*
X399398Y195420D01*
X400171Y196192D01*
X400717Y197139D01*
X400878Y197740D01*
D02*
G37*
G36*
X395850D02*
X392822D01*
X392984Y197139D01*
X393530Y196192D01*
X394303Y195420D01*
X395249Y194873D01*
X395850Y194712D01*
Y197740D01*
D02*
G37*
G36*
X130531Y201476D02*
X129312D01*
X128136Y201161D01*
X127081Y200552D01*
X126220Y199691D01*
X125611Y198636D01*
X125295Y197459D01*
Y196241D01*
X125611Y195065D01*
X126220Y194010D01*
X127081Y193149D01*
X128136Y192540D01*
X129312Y192224D01*
X130531D01*
X131707Y192540D01*
X132762Y193149D01*
X133623Y194010D01*
X134232Y195065D01*
X134547Y196241D01*
Y197459D01*
X134232Y198636D01*
X133623Y199691D01*
X132762Y200552D01*
X131707Y201161D01*
X130531Y201476D01*
D02*
G37*
G36*
X407369Y192677D02*
X406332D01*
X405331Y192409D01*
X404433Y191891D01*
X403700Y191157D01*
X403182Y190260D01*
X402913Y189259D01*
Y188222D01*
X403182Y187221D01*
X403700Y186323D01*
X404433Y185590D01*
X405331Y185072D01*
X406332Y184803D01*
X407369D01*
X408370Y185072D01*
X409268Y185590D01*
X410001Y186323D01*
X410519Y187221D01*
X410787Y188222D01*
Y189259D01*
X410519Y190260D01*
X410001Y191157D01*
X409268Y191891D01*
X408370Y192409D01*
X407369Y192677D01*
D02*
G37*
G36*
X397369D02*
X396332D01*
X395331Y192409D01*
X394433Y191891D01*
X393700Y191157D01*
X393182Y190260D01*
X392913Y189259D01*
Y188222D01*
X393182Y187221D01*
X393700Y186323D01*
X394433Y185590D01*
X395331Y185072D01*
X396332Y184803D01*
X397369D01*
X398370Y185072D01*
X399268Y185590D01*
X400001Y186323D01*
X400519Y187221D01*
X400787Y188222D01*
Y189259D01*
X400519Y190260D01*
X400001Y191157D01*
X399268Y191891D01*
X398370Y192409D01*
X397369Y192677D01*
D02*
G37*
G36*
X227369D02*
X226332D01*
X225331Y192409D01*
X224433Y191891D01*
X223700Y191157D01*
X223182Y190260D01*
X222913Y189259D01*
Y188222D01*
X223182Y187221D01*
X223700Y186323D01*
X224433Y185590D01*
X225331Y185072D01*
X226332Y184803D01*
X227369D01*
X228370Y185072D01*
X229268Y185590D01*
X230001Y186323D01*
X230519Y187221D01*
X230787Y188222D01*
Y189259D01*
X230519Y190260D01*
X230001Y191157D01*
X229268Y191891D01*
X228370Y192409D01*
X227369Y192677D01*
D02*
G37*
G36*
X441554Y189665D02*
X440336D01*
X439159Y189350D01*
X438104Y188741D01*
X437243Y187880D01*
X436634Y186825D01*
X436319Y185649D01*
Y184430D01*
X436634Y183254D01*
X437243Y182199D01*
X438104Y181338D01*
X439159Y180729D01*
X440336Y180413D01*
X441554D01*
X442730Y180729D01*
X443785Y181338D01*
X444647Y182199D01*
X445256Y183254D01*
X445571Y184430D01*
Y185649D01*
X445256Y186825D01*
X444647Y187880D01*
X443785Y188741D01*
X442730Y189350D01*
X441554Y189665D01*
D02*
G37*
G36*
X335255D02*
X334037D01*
X332860Y189350D01*
X331805Y188741D01*
X330944Y187880D01*
X330335Y186825D01*
X330020Y185649D01*
Y184430D01*
X330335Y183254D01*
X330944Y182199D01*
X331805Y181338D01*
X332860Y180729D01*
X334037Y180413D01*
X335255D01*
X336431Y180729D01*
X337486Y181338D01*
X338347Y182199D01*
X338956Y183254D01*
X339272Y184430D01*
Y185649D01*
X338956Y186825D01*
X338347Y187880D01*
X337486Y188741D01*
X336431Y189350D01*
X335255Y189665D01*
D02*
G37*
G36*
X260452D02*
X259233D01*
X258057Y189350D01*
X257002Y188741D01*
X256141Y187880D01*
X255532Y186825D01*
X255217Y185649D01*
Y184430D01*
X255532Y183254D01*
X256141Y182199D01*
X257002Y181338D01*
X258057Y180729D01*
X259233Y180413D01*
X260452D01*
X261628Y180729D01*
X262683Y181338D01*
X263544Y182199D01*
X264153Y183254D01*
X264469Y184430D01*
Y185649D01*
X264153Y186825D01*
X263544Y187880D01*
X262683Y188741D01*
X261628Y189350D01*
X260452Y189665D01*
D02*
G37*
G36*
X407850Y182768D02*
Y179740D01*
X410878D01*
X410717Y180342D01*
X410171Y181288D01*
X409398Y182061D01*
X408452Y182607D01*
X407850Y182768D01*
D02*
G37*
G36*
X405850D02*
X405249Y182607D01*
X404303Y182061D01*
X403530Y181288D01*
X402984Y180342D01*
X402822Y179740D01*
X405850D01*
Y182768D01*
D02*
G37*
G36*
X397369Y182677D02*
X396332D01*
X395331Y182409D01*
X394433Y181891D01*
X393700Y181158D01*
X393182Y180260D01*
X392913Y179259D01*
Y178222D01*
X393182Y177221D01*
X393700Y176323D01*
X394433Y175590D01*
X395331Y175072D01*
X396332Y174803D01*
X397369D01*
X398370Y175072D01*
X399268Y175590D01*
X400001Y176323D01*
X400519Y177221D01*
X400787Y178222D01*
Y179259D01*
X400519Y180260D01*
X400001Y181158D01*
X399268Y181891D01*
X398370Y182409D01*
X397369Y182677D01*
D02*
G37*
G36*
X227369D02*
X226332D01*
X225331Y182409D01*
X224433Y181891D01*
X223700Y181158D01*
X223182Y180260D01*
X222913Y179259D01*
Y178222D01*
X223182Y177221D01*
X223700Y176323D01*
X224433Y175590D01*
X225331Y175072D01*
X226332Y174803D01*
X227369D01*
X228370Y175072D01*
X229268Y175590D01*
X230001Y176323D01*
X230519Y177221D01*
X230787Y178222D01*
Y179259D01*
X230519Y180260D01*
X230001Y181158D01*
X229268Y181891D01*
X228370Y182409D01*
X227369Y182677D01*
D02*
G37*
G36*
X410878Y177740D02*
X407850D01*
Y174712D01*
X408452Y174873D01*
X409398Y175420D01*
X410171Y176192D01*
X410717Y177138D01*
X410878Y177740D01*
D02*
G37*
G36*
X405850D02*
X402822D01*
X402984Y177138D01*
X403530Y176192D01*
X404303Y175420D01*
X405249Y174873D01*
X405850Y174712D01*
Y177740D01*
D02*
G37*
G36*
X407369Y172677D02*
X406332D01*
X405331Y172409D01*
X404433Y171891D01*
X403700Y171158D01*
X403182Y170260D01*
X402913Y169258D01*
Y168222D01*
X403182Y167221D01*
X403700Y166323D01*
X404433Y165590D01*
X405331Y165071D01*
X406332Y164803D01*
X407369D01*
X408370Y165071D01*
X409268Y165590D01*
X410001Y166323D01*
X410519Y167221D01*
X410787Y168222D01*
Y169258D01*
X410519Y170260D01*
X410001Y171158D01*
X409268Y171891D01*
X408370Y172409D01*
X407369Y172677D01*
D02*
G37*
G36*
X397369D02*
X396332D01*
X395331Y172409D01*
X394433Y171891D01*
X393700Y171158D01*
X393182Y170260D01*
X392913Y169258D01*
Y168222D01*
X393182Y167221D01*
X393700Y166323D01*
X394433Y165590D01*
X395331Y165071D01*
X396332Y164803D01*
X397369D01*
X398370Y165071D01*
X399268Y165590D01*
X400001Y166323D01*
X400519Y167221D01*
X400787Y168222D01*
Y169258D01*
X400519Y170260D01*
X400001Y171158D01*
X399268Y171891D01*
X398370Y172409D01*
X397369Y172677D01*
D02*
G37*
G36*
X227369D02*
X226332D01*
X225331Y172409D01*
X224433Y171891D01*
X223700Y171158D01*
X223182Y170260D01*
X222913Y169258D01*
Y168222D01*
X223182Y167221D01*
X223700Y166323D01*
X224433Y165590D01*
X225331Y165071D01*
X226332Y164803D01*
X227369D01*
X228370Y165071D01*
X229268Y165590D01*
X230001Y166323D01*
X230519Y167221D01*
X230787Y168222D01*
Y169258D01*
X230519Y170260D01*
X230001Y171158D01*
X229268Y171891D01*
X228370Y172409D01*
X227369Y172677D01*
D02*
G37*
G36*
X441554Y169980D02*
X440336D01*
X439159Y169665D01*
X438104Y169056D01*
X437243Y168195D01*
X436634Y167140D01*
X436319Y165963D01*
Y164745D01*
X436634Y163569D01*
X437243Y162514D01*
X438104Y161653D01*
X439159Y161044D01*
X440336Y160728D01*
X441554D01*
X442730Y161044D01*
X443785Y161653D01*
X444647Y162514D01*
X445256Y163569D01*
X445571Y164745D01*
Y165963D01*
X445256Y167140D01*
X444647Y168195D01*
X443785Y169056D01*
X442730Y169665D01*
X441554Y169980D01*
D02*
G37*
G36*
X335255D02*
X334037D01*
X332860Y169665D01*
X331805Y169056D01*
X330944Y168195D01*
X330335Y167140D01*
X330020Y165963D01*
Y164745D01*
X330335Y163569D01*
X330944Y162514D01*
X331805Y161653D01*
X332860Y161044D01*
X334037Y160728D01*
X335255D01*
X336431Y161044D01*
X337486Y161653D01*
X338347Y162514D01*
X338956Y163569D01*
X339272Y164745D01*
Y165963D01*
X338956Y167140D01*
X338347Y168195D01*
X337486Y169056D01*
X336431Y169665D01*
X335255Y169980D01*
D02*
G37*
G36*
X260452D02*
X259233D01*
X258057Y169665D01*
X257002Y169056D01*
X256141Y168195D01*
X255532Y167140D01*
X255217Y165963D01*
Y164745D01*
X255532Y163569D01*
X256141Y162514D01*
X257002Y161653D01*
X258057Y161044D01*
X259233Y160728D01*
X260452D01*
X261628Y161044D01*
X262683Y161653D01*
X263544Y162514D01*
X264153Y163569D01*
X264469Y164745D01*
Y165963D01*
X264153Y167140D01*
X263544Y168195D01*
X262683Y169056D01*
X261628Y169665D01*
X260452Y169980D01*
D02*
G37*
G36*
X407369Y162677D02*
X406332D01*
X405331Y162409D01*
X404433Y161891D01*
X403700Y161158D01*
X403182Y160260D01*
X402913Y159258D01*
Y158222D01*
X403182Y157221D01*
X403700Y156323D01*
X404433Y155590D01*
X405331Y155071D01*
X406332Y154803D01*
X407369D01*
X408370Y155071D01*
X409268Y155590D01*
X410001Y156323D01*
X410519Y157221D01*
X410787Y158222D01*
Y159258D01*
X410519Y160260D01*
X410001Y161158D01*
X409268Y161891D01*
X408370Y162409D01*
X407369Y162677D01*
D02*
G37*
G36*
X397369D02*
X396332D01*
X395331Y162409D01*
X394433Y161891D01*
X393700Y161158D01*
X393182Y160260D01*
X392913Y159258D01*
Y158222D01*
X393182Y157221D01*
X393700Y156323D01*
X394433Y155590D01*
X395331Y155071D01*
X396332Y154803D01*
X397369D01*
X398370Y155071D01*
X399268Y155590D01*
X400001Y156323D01*
X400519Y157221D01*
X400787Y158222D01*
Y159258D01*
X400519Y160260D01*
X400001Y161158D01*
X399268Y161891D01*
X398370Y162409D01*
X397369Y162677D01*
D02*
G37*
G36*
X227369D02*
X226332D01*
X225331Y162409D01*
X224433Y161891D01*
X223700Y161158D01*
X223182Y160260D01*
X222913Y159258D01*
Y158222D01*
X223182Y157221D01*
X223700Y156323D01*
X224433Y155590D01*
X225331Y155071D01*
X226332Y154803D01*
X227369D01*
X228370Y155071D01*
X229268Y155590D01*
X230001Y156323D01*
X230519Y157221D01*
X230787Y158222D01*
Y159258D01*
X230519Y160260D01*
X230001Y161158D01*
X229268Y161891D01*
X228370Y162409D01*
X227369Y162677D01*
D02*
G37*
G36*
X397850Y152768D02*
Y149740D01*
X400878D01*
X400717Y150342D01*
X400171Y151288D01*
X399398Y152061D01*
X398452Y152607D01*
X397850Y152768D01*
D02*
G37*
G36*
X395850D02*
X395249Y152607D01*
X394303Y152061D01*
X393530Y151288D01*
X392984Y150342D01*
X392822Y149740D01*
X395850D01*
Y152768D01*
D02*
G37*
G36*
X217850D02*
Y149740D01*
X220878D01*
X220717Y150342D01*
X220171Y151288D01*
X219398Y152061D01*
X218452Y152607D01*
X217850Y152768D01*
D02*
G37*
G36*
X215850D02*
X215249Y152607D01*
X214302Y152061D01*
X213530Y151288D01*
X212984Y150342D01*
X212822Y149740D01*
X215850D01*
Y152768D01*
D02*
G37*
G36*
X407369Y152677D02*
X406332D01*
X405331Y152409D01*
X404433Y151891D01*
X403700Y151157D01*
X403182Y150260D01*
X402913Y149258D01*
Y148222D01*
X403182Y147221D01*
X403700Y146323D01*
X404433Y145590D01*
X405331Y145071D01*
X406332Y144803D01*
X407369D01*
X408370Y145071D01*
X409268Y145590D01*
X410001Y146323D01*
X410519Y147221D01*
X410787Y148222D01*
Y149258D01*
X410519Y150260D01*
X410001Y151157D01*
X409268Y151891D01*
X408370Y152409D01*
X407369Y152677D01*
D02*
G37*
G36*
X227369D02*
X226332D01*
X225331Y152409D01*
X224433Y151891D01*
X223700Y151157D01*
X223182Y150260D01*
X222913Y149258D01*
Y148222D01*
X223182Y147221D01*
X223700Y146323D01*
X224433Y145590D01*
X225331Y145071D01*
X226332Y144803D01*
X227369D01*
X228370Y145071D01*
X229268Y145590D01*
X230001Y146323D01*
X230519Y147221D01*
X230787Y148222D01*
Y149258D01*
X230519Y150260D01*
X230001Y151157D01*
X229268Y151891D01*
X228370Y152409D01*
X227369Y152677D01*
D02*
G37*
G36*
X400878Y147740D02*
X397850D01*
Y144712D01*
X398452Y144873D01*
X399398Y145420D01*
X400171Y146192D01*
X400717Y147139D01*
X400878Y147740D01*
D02*
G37*
G36*
X395850D02*
X392822D01*
X392984Y147139D01*
X393530Y146192D01*
X394303Y145420D01*
X395249Y144873D01*
X395850Y144712D01*
Y147740D01*
D02*
G37*
G36*
X220878D02*
X217850D01*
Y144712D01*
X218452Y144873D01*
X219398Y145420D01*
X220171Y146192D01*
X220717Y147139D01*
X220878Y147740D01*
D02*
G37*
G36*
X215850D02*
X212822D01*
X212984Y147139D01*
X213530Y146192D01*
X214302Y145420D01*
X215249Y144873D01*
X215850Y144712D01*
Y147740D01*
D02*
G37*
G36*
X441554Y150295D02*
X440336D01*
X439159Y149980D01*
X438104Y149371D01*
X437243Y148510D01*
X436634Y147455D01*
X436319Y146278D01*
Y145060D01*
X436634Y143884D01*
X437243Y142829D01*
X438104Y141967D01*
X439159Y141358D01*
X440336Y141043D01*
X441554D01*
X442730Y141358D01*
X443785Y141967D01*
X444647Y142829D01*
X445256Y143884D01*
X445571Y145060D01*
Y146278D01*
X445256Y147455D01*
X444647Y148510D01*
X443785Y149371D01*
X442730Y149980D01*
X441554Y150295D01*
D02*
G37*
G36*
X335255D02*
X334037D01*
X332860Y149980D01*
X331805Y149371D01*
X330944Y148510D01*
X330335Y147455D01*
X330020Y146278D01*
Y145060D01*
X330335Y143884D01*
X330944Y142829D01*
X331805Y141967D01*
X332860Y141358D01*
X334037Y141043D01*
X335255D01*
X336431Y141358D01*
X337486Y141967D01*
X338347Y142829D01*
X338956Y143884D01*
X339272Y145060D01*
Y146278D01*
X338956Y147455D01*
X338347Y148510D01*
X337486Y149371D01*
X336431Y149980D01*
X335255Y150295D01*
D02*
G37*
G36*
X260452D02*
X259233D01*
X258057Y149980D01*
X257002Y149371D01*
X256141Y148510D01*
X255532Y147455D01*
X255217Y146278D01*
Y145060D01*
X255532Y143884D01*
X256141Y142829D01*
X257002Y141967D01*
X258057Y141358D01*
X259233Y141043D01*
X260452D01*
X261628Y141358D01*
X262683Y141967D01*
X263544Y142829D01*
X264153Y143884D01*
X264469Y145060D01*
Y146278D01*
X264153Y147455D01*
X263544Y148510D01*
X262683Y149371D01*
X261628Y149980D01*
X260452Y150295D01*
D02*
G37*
G36*
X407369Y142677D02*
X406332D01*
X405331Y142409D01*
X404433Y141891D01*
X403700Y141157D01*
X403182Y140260D01*
X402913Y139259D01*
Y138222D01*
X403182Y137221D01*
X403700Y136323D01*
X404433Y135590D01*
X405331Y135072D01*
X406332Y134803D01*
X407369D01*
X408370Y135072D01*
X409268Y135590D01*
X410001Y136323D01*
X410519Y137221D01*
X410787Y138222D01*
Y139259D01*
X410519Y140260D01*
X410001Y141157D01*
X409268Y141891D01*
X408370Y142409D01*
X407369Y142677D01*
D02*
G37*
G36*
X397369D02*
X396332D01*
X395331Y142409D01*
X394433Y141891D01*
X393700Y141157D01*
X393182Y140260D01*
X392913Y139259D01*
Y138222D01*
X393182Y137221D01*
X393700Y136323D01*
X394433Y135590D01*
X395331Y135072D01*
X396332Y134803D01*
X397369D01*
X398370Y135072D01*
X399268Y135590D01*
X400001Y136323D01*
X400519Y137221D01*
X400787Y138222D01*
Y139259D01*
X400519Y140260D01*
X400001Y141157D01*
X399268Y141891D01*
X398370Y142409D01*
X397369Y142677D01*
D02*
G37*
G36*
X227369D02*
X226332D01*
X225331Y142409D01*
X224433Y141891D01*
X223700Y141157D01*
X223182Y140260D01*
X222913Y139259D01*
Y138222D01*
X223182Y137221D01*
X223700Y136323D01*
X224433Y135590D01*
X225331Y135072D01*
X226332Y134803D01*
X227369D01*
X228370Y135072D01*
X229268Y135590D01*
X230001Y136323D01*
X230519Y137221D01*
X230787Y138222D01*
Y139259D01*
X230519Y140260D01*
X230001Y141157D01*
X229268Y141891D01*
X228370Y142409D01*
X227369Y142677D01*
D02*
G37*
G36*
X407369Y132677D02*
X406332D01*
X405331Y132409D01*
X404433Y131891D01*
X403700Y131158D01*
X403182Y130260D01*
X402913Y129259D01*
Y128222D01*
X403182Y127221D01*
X403700Y126323D01*
X404433Y125590D01*
X405331Y125072D01*
X406332Y124803D01*
X407369D01*
X408370Y125072D01*
X409268Y125590D01*
X410001Y126323D01*
X410519Y127221D01*
X410787Y128222D01*
Y129259D01*
X410519Y130260D01*
X410001Y131158D01*
X409268Y131891D01*
X408370Y132409D01*
X407369Y132677D01*
D02*
G37*
G36*
X397369D02*
X396332D01*
X395331Y132409D01*
X394433Y131891D01*
X393700Y131158D01*
X393182Y130260D01*
X392913Y129259D01*
Y128222D01*
X393182Y127221D01*
X393700Y126323D01*
X394433Y125590D01*
X395331Y125072D01*
X396332Y124803D01*
X397369D01*
X398370Y125072D01*
X399268Y125590D01*
X400001Y126323D01*
X400519Y127221D01*
X400787Y128222D01*
Y129259D01*
X400519Y130260D01*
X400001Y131158D01*
X399268Y131891D01*
X398370Y132409D01*
X397369Y132677D01*
D02*
G37*
G36*
X227369D02*
X226332D01*
X225331Y132409D01*
X224433Y131891D01*
X223700Y131158D01*
X223182Y130260D01*
X222913Y129259D01*
Y128222D01*
X223182Y127221D01*
X223700Y126323D01*
X224433Y125590D01*
X225331Y125072D01*
X226332Y124803D01*
X227369D01*
X228370Y125072D01*
X229268Y125590D01*
X230001Y126323D01*
X230519Y127221D01*
X230787Y128222D01*
Y129259D01*
X230519Y130260D01*
X230001Y131158D01*
X229268Y131891D01*
X228370Y132409D01*
X227369Y132677D01*
D02*
G37*
G36*
X217369D02*
X216332D01*
X215331Y132409D01*
X214433Y131891D01*
X213700Y131158D01*
X213182Y130260D01*
X212913Y129259D01*
Y128222D01*
X213182Y127221D01*
X213700Y126323D01*
X214433Y125590D01*
X215331Y125072D01*
X216332Y124803D01*
X217369D01*
X218370Y125072D01*
X219268Y125590D01*
X220001Y126323D01*
X220519Y127221D01*
X220787Y128222D01*
Y129259D01*
X220519Y130260D01*
X220001Y131158D01*
X219268Y131891D01*
X218370Y132409D01*
X217369Y132677D01*
D02*
G37*
G36*
X441554Y130610D02*
X440336D01*
X439159Y130295D01*
X438104Y129686D01*
X437243Y128825D01*
X436634Y127770D01*
X436319Y126593D01*
Y125375D01*
X436634Y124199D01*
X437243Y123144D01*
X438104Y122283D01*
X439159Y121674D01*
X440336Y121358D01*
X441554D01*
X442730Y121674D01*
X443785Y122283D01*
X444647Y123144D01*
X445256Y124199D01*
X445571Y125375D01*
Y126593D01*
X445256Y127770D01*
X444647Y128825D01*
X443785Y129686D01*
X442730Y130295D01*
X441554Y130610D01*
D02*
G37*
G36*
X335255D02*
X334037D01*
X332860Y130295D01*
X331805Y129686D01*
X330944Y128825D01*
X330335Y127770D01*
X330020Y126593D01*
Y125375D01*
X330335Y124199D01*
X330944Y123144D01*
X331805Y122283D01*
X332860Y121674D01*
X334037Y121358D01*
X335255D01*
X336431Y121674D01*
X337486Y122283D01*
X338347Y123144D01*
X338956Y124199D01*
X339272Y125375D01*
Y126593D01*
X338956Y127770D01*
X338347Y128825D01*
X337486Y129686D01*
X336431Y130295D01*
X335255Y130610D01*
D02*
G37*
G36*
X260452D02*
X259233D01*
X258057Y130295D01*
X257002Y129686D01*
X256141Y128825D01*
X255532Y127770D01*
X255217Y126593D01*
Y125375D01*
X255532Y124199D01*
X256141Y123144D01*
X257002Y122283D01*
X258057Y121674D01*
X259233Y121358D01*
X260452D01*
X261628Y121674D01*
X262683Y122283D01*
X263544Y123144D01*
X264153Y124199D01*
X264469Y125375D01*
Y126593D01*
X264153Y127770D01*
X263544Y128825D01*
X262683Y129686D01*
X261628Y130295D01*
X260452Y130610D01*
D02*
G37*
G36*
X407369Y122677D02*
X406332D01*
X405331Y122409D01*
X404433Y121891D01*
X403700Y121158D01*
X403182Y120260D01*
X402913Y119258D01*
Y118222D01*
X403182Y117221D01*
X403700Y116323D01*
X404433Y115590D01*
X405331Y115071D01*
X406332Y114803D01*
X407369D01*
X408370Y115071D01*
X409268Y115590D01*
X410001Y116323D01*
X410519Y117221D01*
X410787Y118222D01*
Y119258D01*
X410519Y120260D01*
X410001Y121158D01*
X409268Y121891D01*
X408370Y122409D01*
X407369Y122677D01*
D02*
G37*
G36*
X397369D02*
X396332D01*
X395331Y122409D01*
X394433Y121891D01*
X393700Y121158D01*
X393182Y120260D01*
X392913Y119258D01*
Y118222D01*
X393182Y117221D01*
X393700Y116323D01*
X394433Y115590D01*
X395331Y115071D01*
X396332Y114803D01*
X397369D01*
X398370Y115071D01*
X399268Y115590D01*
X400001Y116323D01*
X400519Y117221D01*
X400787Y118222D01*
Y119258D01*
X400519Y120260D01*
X400001Y121158D01*
X399268Y121891D01*
X398370Y122409D01*
X397369Y122677D01*
D02*
G37*
G36*
X227369D02*
X226332D01*
X225331Y122409D01*
X224433Y121891D01*
X223700Y121158D01*
X223182Y120260D01*
X222913Y119258D01*
Y118222D01*
X223182Y117221D01*
X223700Y116323D01*
X224433Y115590D01*
X225331Y115071D01*
X226332Y114803D01*
X227369D01*
X228370Y115071D01*
X229268Y115590D01*
X230001Y116323D01*
X230519Y117221D01*
X230787Y118222D01*
Y119258D01*
X230519Y120260D01*
X230001Y121158D01*
X229268Y121891D01*
X228370Y122409D01*
X227369Y122677D01*
D02*
G37*
G36*
X217369D02*
X216332D01*
X215331Y122409D01*
X214433Y121891D01*
X213700Y121158D01*
X213182Y120260D01*
X212913Y119258D01*
Y118222D01*
X213182Y117221D01*
X213700Y116323D01*
X214433Y115590D01*
X215331Y115071D01*
X216332Y114803D01*
X217369D01*
X218370Y115071D01*
X219268Y115590D01*
X220001Y116323D01*
X220519Y117221D01*
X220787Y118222D01*
Y119258D01*
X220519Y120260D01*
X220001Y121158D01*
X219268Y121891D01*
X218370Y122409D01*
X217369Y122677D01*
D02*
G37*
G36*
X227369Y112677D02*
X226332D01*
X225331Y112409D01*
X224433Y111891D01*
X223700Y111158D01*
X223182Y110260D01*
X222913Y109258D01*
Y108222D01*
X223182Y107221D01*
X223700Y106323D01*
X224433Y105590D01*
X225331Y105071D01*
X226332Y104803D01*
X227369D01*
X228370Y105071D01*
X229268Y105590D01*
X230001Y106323D01*
X230519Y107221D01*
X230787Y108222D01*
Y109258D01*
X230519Y110260D01*
X230001Y111158D01*
X229268Y111891D01*
X228370Y112409D01*
X227369Y112677D01*
D02*
G37*
G36*
X217369D02*
X216332D01*
X215331Y112409D01*
X214433Y111891D01*
X213700Y111158D01*
X213182Y110260D01*
X212913Y109258D01*
Y108222D01*
X213182Y107221D01*
X213700Y106323D01*
X214433Y105590D01*
X215331Y105071D01*
X216332Y104803D01*
X217369D01*
X218370Y105071D01*
X219268Y105590D01*
X220001Y106323D01*
X220519Y107221D01*
X220787Y108222D01*
Y109258D01*
X220519Y110260D01*
X220001Y111158D01*
X219268Y111891D01*
X218370Y112409D01*
X217369Y112677D01*
D02*
G37*
G36*
X441554Y110925D02*
X440336D01*
X439159Y110610D01*
X438104Y110001D01*
X437243Y109140D01*
X436634Y108085D01*
X436319Y106908D01*
Y105690D01*
X436634Y104514D01*
X437243Y103459D01*
X438104Y102597D01*
X439159Y101988D01*
X440336Y101673D01*
X441554D01*
X442730Y101988D01*
X443785Y102597D01*
X444647Y103459D01*
X445256Y104514D01*
X445571Y105690D01*
Y106908D01*
X445256Y108085D01*
X444647Y109140D01*
X443785Y110001D01*
X442730Y110610D01*
X441554Y110925D01*
D02*
G37*
G36*
X335255D02*
X334037D01*
X332860Y110610D01*
X331805Y110001D01*
X330944Y109140D01*
X330335Y108085D01*
X330020Y106908D01*
Y105690D01*
X330335Y104514D01*
X330944Y103459D01*
X331805Y102597D01*
X332860Y101988D01*
X334037Y101673D01*
X335255D01*
X336431Y101988D01*
X337486Y102597D01*
X338347Y103459D01*
X338956Y104514D01*
X339272Y105690D01*
Y106908D01*
X338956Y108085D01*
X338347Y109140D01*
X337486Y110001D01*
X336431Y110610D01*
X335255Y110925D01*
D02*
G37*
G36*
X260452D02*
X259233D01*
X258057Y110610D01*
X257002Y110001D01*
X256141Y109140D01*
X255532Y108085D01*
X255217Y106908D01*
Y105690D01*
X255532Y104514D01*
X256141Y103459D01*
X257002Y102597D01*
X258057Y101988D01*
X259233Y101673D01*
X260452D01*
X261628Y101988D01*
X262683Y102597D01*
X263544Y103459D01*
X264153Y104514D01*
X264469Y105690D01*
Y106908D01*
X264153Y108085D01*
X263544Y109140D01*
X262683Y110001D01*
X261628Y110610D01*
X260452Y110925D01*
D02*
G37*
G36*
X227369Y102677D02*
X226332D01*
X225331Y102409D01*
X224433Y101891D01*
X223700Y101157D01*
X223182Y100260D01*
X222913Y99259D01*
Y98222D01*
X223182Y97221D01*
X223700Y96323D01*
X224433Y95590D01*
X225331Y95072D01*
X226332Y94803D01*
X227369D01*
X228370Y95072D01*
X229268Y95590D01*
X230001Y96323D01*
X230519Y97221D01*
X230787Y98222D01*
Y99259D01*
X230519Y100260D01*
X230001Y101157D01*
X229268Y101891D01*
X228370Y102409D01*
X227369Y102677D01*
D02*
G37*
G36*
X217369D02*
X216332D01*
X215331Y102409D01*
X214433Y101891D01*
X213700Y101157D01*
X213182Y100260D01*
X212913Y99259D01*
Y98222D01*
X213182Y97221D01*
X213700Y96323D01*
X214433Y95590D01*
X215331Y95072D01*
X216332Y94803D01*
X217369D01*
X218370Y95072D01*
X219268Y95590D01*
X220001Y96323D01*
X220519Y97221D01*
X220787Y98222D01*
Y99259D01*
X220519Y100260D01*
X220001Y101157D01*
X219268Y101891D01*
X218370Y102409D01*
X217369Y102677D01*
D02*
G37*
G36*
X441554Y91240D02*
X440336D01*
X439159Y90925D01*
X438104Y90316D01*
X437243Y89455D01*
X436634Y88400D01*
X436319Y87223D01*
Y86005D01*
X436634Y84829D01*
X437243Y83774D01*
X438104Y82912D01*
X439159Y82304D01*
X440336Y81988D01*
X441554D01*
X442730Y82304D01*
X443785Y82912D01*
X444647Y83774D01*
X445256Y84829D01*
X445571Y86005D01*
Y87223D01*
X445256Y88400D01*
X444647Y89455D01*
X443785Y90316D01*
X442730Y90925D01*
X441554Y91240D01*
D02*
G37*
G36*
X335255D02*
X334037D01*
X332860Y90925D01*
X331805Y90316D01*
X330944Y89455D01*
X330335Y88400D01*
X330020Y87223D01*
Y86005D01*
X330335Y84829D01*
X330944Y83774D01*
X331805Y82912D01*
X332860Y82304D01*
X334037Y81988D01*
X335255D01*
X336431Y82304D01*
X337486Y82912D01*
X338347Y83774D01*
X338956Y84829D01*
X339272Y86005D01*
Y87223D01*
X338956Y88400D01*
X338347Y89455D01*
X337486Y90316D01*
X336431Y90925D01*
X335255Y91240D01*
D02*
G37*
G36*
X260452D02*
X259233D01*
X258057Y90925D01*
X257002Y90316D01*
X256141Y89455D01*
X255532Y88400D01*
X255217Y87223D01*
Y86005D01*
X255532Y84829D01*
X256141Y83774D01*
X257002Y82912D01*
X258057Y82304D01*
X259233Y81988D01*
X260452D01*
X261628Y82304D01*
X262683Y82912D01*
X263544Y83774D01*
X264153Y84829D01*
X264469Y86005D01*
Y87223D01*
X264153Y88400D01*
X263544Y89455D01*
X262683Y90316D01*
X261628Y90925D01*
X260452Y91240D01*
D02*
G37*
G36*
X441554Y71555D02*
X440336D01*
X439159Y71240D01*
X438104Y70631D01*
X437243Y69770D01*
X436634Y68715D01*
X436319Y67538D01*
Y66320D01*
X436634Y65144D01*
X437243Y64089D01*
X438104Y63227D01*
X439159Y62618D01*
X440336Y62303D01*
X441554D01*
X442730Y62618D01*
X443785Y63227D01*
X444647Y64089D01*
X445256Y65144D01*
X445571Y66320D01*
Y67538D01*
X445256Y68715D01*
X444647Y69770D01*
X443785Y70631D01*
X442730Y71240D01*
X441554Y71555D01*
D02*
G37*
G36*
X335255D02*
X334037D01*
X332860Y71240D01*
X331805Y70631D01*
X330944Y69770D01*
X330335Y68715D01*
X330020Y67538D01*
Y66320D01*
X330335Y65144D01*
X330944Y64089D01*
X331805Y63227D01*
X332860Y62618D01*
X334037Y62303D01*
X335255D01*
X336431Y62618D01*
X337486Y63227D01*
X338347Y64089D01*
X338956Y65144D01*
X339272Y66320D01*
Y67538D01*
X338956Y68715D01*
X338347Y69770D01*
X337486Y70631D01*
X336431Y71240D01*
X335255Y71555D01*
D02*
G37*
G36*
X260452D02*
X259233D01*
X258057Y71240D01*
X257002Y70631D01*
X256141Y69770D01*
X255532Y68715D01*
X255217Y67538D01*
Y66320D01*
X255532Y65144D01*
X256141Y64089D01*
X257002Y63227D01*
X258057Y62618D01*
X259233Y62303D01*
X260452D01*
X261628Y62618D01*
X262683Y63227D01*
X263544Y64089D01*
X264153Y65144D01*
X264469Y66320D01*
Y67538D01*
X264153Y68715D01*
X263544Y69770D01*
X262683Y70631D01*
X261628Y71240D01*
X260452Y71555D01*
D02*
G37*
G36*
X441554Y51870D02*
X440336D01*
X439159Y51555D01*
X438104Y50946D01*
X437243Y50084D01*
X436634Y49030D01*
X436319Y47853D01*
Y46635D01*
X436634Y45458D01*
X437243Y44404D01*
X438104Y43542D01*
X439159Y42933D01*
X440336Y42618D01*
X441554D01*
X442730Y42933D01*
X443785Y43542D01*
X444647Y44404D01*
X445256Y45458D01*
X445571Y46635D01*
Y47853D01*
X445256Y49030D01*
X444647Y50084D01*
X443785Y50946D01*
X442730Y51555D01*
X441554Y51870D01*
D02*
G37*
G36*
X335255D02*
X334037D01*
X332860Y51555D01*
X331805Y50946D01*
X330944Y50084D01*
X330335Y49030D01*
X330020Y47853D01*
Y46635D01*
X330335Y45458D01*
X330944Y44404D01*
X331805Y43542D01*
X332860Y42933D01*
X334037Y42618D01*
X335255D01*
X336431Y42933D01*
X337486Y43542D01*
X338347Y44404D01*
X338956Y45458D01*
X339272Y46635D01*
Y47853D01*
X338956Y49030D01*
X338347Y50084D01*
X337486Y50946D01*
X336431Y51555D01*
X335255Y51870D01*
D02*
G37*
G36*
X260452D02*
X259233D01*
X258057Y51555D01*
X257002Y50946D01*
X256141Y50084D01*
X255532Y49030D01*
X255217Y47853D01*
Y46635D01*
X255532Y45458D01*
X256141Y44404D01*
X257002Y43542D01*
X258057Y42933D01*
X259233Y42618D01*
X260452D01*
X261628Y42933D01*
X262683Y43542D01*
X263544Y44404D01*
X264153Y45458D01*
X264469Y46635D01*
Y47853D01*
X264153Y49030D01*
X263544Y50084D01*
X262683Y50946D01*
X261628Y51555D01*
X260452Y51870D01*
D02*
G37*
%LPD*%
D11*
X452170Y295276D02*
X452756Y295861D01*
X429134Y295276D02*
X452170D01*
X452756Y295861D02*
Y381890D01*
X421260Y287402D02*
X429134Y295276D01*
X396850Y278740D02*
X405512Y287402D01*
X421260D01*
X396850Y268740D02*
Y278740D01*
X239370Y320472D02*
Y451968D01*
X259842Y472441D01*
X226850Y318819D02*
X237717D01*
X239370Y320472D01*
X242126Y435040D02*
X259842Y452756D01*
X242126Y313779D02*
Y435040D01*
X237165Y308819D02*
X242126Y313779D01*
X226850Y308819D02*
X237165D01*
X245276Y304331D02*
Y418504D01*
X259842Y433071D01*
X248031Y298031D02*
Y401575D01*
X259842Y413386D01*
X239764Y298819D02*
X245276Y304331D01*
X226850Y298819D02*
X239764D01*
X238819Y288819D02*
X248031Y298031D01*
X226850Y288819D02*
X238819D01*
X251181Y289370D02*
Y385039D01*
X259842Y393701D01*
X226850Y278819D02*
X240630D01*
X251181Y289370D01*
X187795Y149606D02*
Y557874D01*
X259842Y629921D01*
X187795Y149606D02*
X198661Y138740D01*
X216850D01*
X192126Y170866D02*
Y542520D01*
X259842Y610236D01*
X204252Y158740D02*
X216850D01*
X192126Y170866D02*
X204252Y158740D01*
X196477Y177539D02*
X205276Y168740D01*
X196477Y527186D02*
X259842Y590551D01*
X196477Y177539D02*
Y527186D01*
X205276Y168740D02*
X216850D01*
X203150Y510922D02*
X243409Y551181D01*
X259842D01*
X200787Y511811D02*
X259842Y570866D01*
X203150Y195276D02*
Y510922D01*
Y195276D02*
X209685Y188740D01*
X200787Y178740D02*
X216850D01*
X209685Y188740D02*
X216850D01*
X200787Y178740D02*
Y511811D01*
X334646Y570866D02*
X368179Y537333D01*
Y411585D02*
X396850Y382913D01*
X368179Y411585D02*
Y537333D01*
X334646Y551181D02*
X365880Y519947D01*
Y403884D02*
Y519947D01*
Y403884D02*
X396850Y372913D01*
X357087Y402677D02*
Y509055D01*
X334646Y531496D02*
X357087Y509055D01*
Y402677D02*
X396850Y362913D01*
X419167Y470349D02*
X440945Y492126D01*
X419167Y355230D02*
Y470349D01*
X406850Y342913D02*
X419167Y355230D01*
X421467Y347530D02*
Y452963D01*
X440945Y472441D01*
X406850Y332913D02*
X421467Y347530D01*
X423766Y435577D02*
X440945Y452756D01*
X423766Y339829D02*
Y435577D01*
X433858Y319921D02*
Y386614D01*
X431102Y327165D02*
Y403543D01*
X440945Y413386D01*
X433858Y386614D02*
X440945Y393701D01*
X406850Y322913D02*
X423766Y339829D01*
X406850Y312913D02*
X427165Y333228D01*
Y419291D01*
X440945Y433071D01*
X406850Y302913D02*
X431102Y327165D01*
X406850Y292913D02*
X433858Y319921D01*
D15*
X216850Y128740D02*
D03*
Y138740D02*
D03*
Y148740D02*
D03*
Y158740D02*
D03*
Y178740D02*
D03*
X226850Y118740D02*
D03*
Y178740D02*
D03*
Y168740D02*
D03*
Y158740D02*
D03*
Y148740D02*
D03*
Y138740D02*
D03*
X216850Y168740D02*
D03*
X226850Y128740D02*
D03*
X216850Y258740D02*
D03*
Y248740D02*
D03*
Y238740D02*
D03*
Y228740D02*
D03*
Y218740D02*
D03*
Y208740D02*
D03*
Y198740D02*
D03*
Y188740D02*
D03*
X226850D02*
D03*
Y198740D02*
D03*
Y208740D02*
D03*
Y218740D02*
D03*
Y228740D02*
D03*
Y238740D02*
D03*
Y248740D02*
D03*
Y258740D02*
D03*
X216850Y108740D02*
D03*
X226850Y98740D02*
D03*
X216850D02*
D03*
X226850Y108740D02*
D03*
X216850Y118740D02*
D03*
X406850Y128740D02*
D03*
X396850Y118740D02*
D03*
X406850D02*
D03*
X396850Y128740D02*
D03*
X406850Y278740D02*
D03*
Y268740D02*
D03*
Y258740D02*
D03*
Y248740D02*
D03*
Y238740D02*
D03*
Y228740D02*
D03*
Y218740D02*
D03*
Y208740D02*
D03*
X396850D02*
D03*
Y218740D02*
D03*
Y228740D02*
D03*
Y238740D02*
D03*
Y248740D02*
D03*
Y258740D02*
D03*
Y268740D02*
D03*
Y278740D02*
D03*
X406850Y148740D02*
D03*
X396850Y138740D02*
D03*
Y188740D02*
D03*
X406850Y158740D02*
D03*
Y168740D02*
D03*
Y178740D02*
D03*
Y188740D02*
D03*
Y198740D02*
D03*
Y138740D02*
D03*
X396850Y198740D02*
D03*
Y178740D02*
D03*
Y168740D02*
D03*
Y158740D02*
D03*
Y148740D02*
D03*
X406850Y302913D02*
D03*
X396850Y292913D02*
D03*
X406850D02*
D03*
X396850Y302913D02*
D03*
X406850Y452913D02*
D03*
Y442913D02*
D03*
Y432913D02*
D03*
Y422913D02*
D03*
Y412913D02*
D03*
Y402913D02*
D03*
Y392913D02*
D03*
Y382913D02*
D03*
X396850D02*
D03*
Y392913D02*
D03*
Y402913D02*
D03*
Y412913D02*
D03*
Y422913D02*
D03*
Y432913D02*
D03*
Y442913D02*
D03*
Y452913D02*
D03*
X406850Y322913D02*
D03*
X396850Y312913D02*
D03*
Y362913D02*
D03*
X406850Y332913D02*
D03*
Y342913D02*
D03*
Y352913D02*
D03*
Y362913D02*
D03*
Y372913D02*
D03*
Y312913D02*
D03*
X396850Y372913D02*
D03*
Y352913D02*
D03*
Y342913D02*
D03*
Y332913D02*
D03*
Y322913D02*
D03*
X226850Y288819D02*
D03*
X216850Y278819D02*
D03*
X226850D02*
D03*
X216850Y288819D02*
D03*
X226850Y438819D02*
D03*
Y428819D02*
D03*
Y418819D02*
D03*
Y408819D02*
D03*
Y398819D02*
D03*
Y388819D02*
D03*
Y378819D02*
D03*
Y368819D02*
D03*
X216850D02*
D03*
Y378819D02*
D03*
Y388819D02*
D03*
Y398819D02*
D03*
Y408819D02*
D03*
Y418819D02*
D03*
Y428819D02*
D03*
Y438819D02*
D03*
X226850Y308819D02*
D03*
X216850Y298819D02*
D03*
Y348819D02*
D03*
X226850Y318819D02*
D03*
Y328819D02*
D03*
Y338819D02*
D03*
Y348819D02*
D03*
Y358819D02*
D03*
Y298819D02*
D03*
X216850Y358819D02*
D03*
Y338819D02*
D03*
Y328819D02*
D03*
Y318819D02*
D03*
Y308819D02*
D03*
D16*
X334646Y688976D02*
D03*
Y669291D02*
D03*
Y649606D02*
D03*
Y629921D02*
D03*
Y610236D02*
D03*
Y590551D02*
D03*
Y570866D02*
D03*
Y551181D02*
D03*
Y531496D02*
D03*
Y511811D02*
D03*
Y492126D02*
D03*
Y472441D02*
D03*
Y452756D02*
D03*
Y433071D02*
D03*
Y413386D02*
D03*
Y393701D02*
D03*
X440945Y342520D02*
D03*
Y322835D02*
D03*
Y303150D02*
D03*
Y283465D02*
D03*
Y263779D02*
D03*
Y244094D02*
D03*
Y224409D02*
D03*
Y204724D02*
D03*
Y185039D02*
D03*
Y165354D02*
D03*
Y145669D02*
D03*
Y125984D02*
D03*
Y106299D02*
D03*
Y86614D02*
D03*
Y66929D02*
D03*
Y47244D02*
D03*
X440945Y688976D02*
D03*
Y669291D02*
D03*
Y649606D02*
D03*
Y629921D02*
D03*
Y610236D02*
D03*
Y590551D02*
D03*
Y570866D02*
D03*
Y551181D02*
D03*
Y531496D02*
D03*
Y511811D02*
D03*
Y492126D02*
D03*
Y472441D02*
D03*
Y452756D02*
D03*
Y433071D02*
D03*
Y413386D02*
D03*
Y393701D02*
D03*
X259842D02*
D03*
Y413386D02*
D03*
Y433071D02*
D03*
Y452756D02*
D03*
Y472441D02*
D03*
Y492126D02*
D03*
Y511811D02*
D03*
Y531496D02*
D03*
Y551181D02*
D03*
Y570866D02*
D03*
Y590551D02*
D03*
Y610236D02*
D03*
Y629921D02*
D03*
Y649606D02*
D03*
Y669291D02*
D03*
Y688976D02*
D03*
X334646Y342520D02*
D03*
Y322835D02*
D03*
Y303150D02*
D03*
Y283465D02*
D03*
Y263779D02*
D03*
Y244094D02*
D03*
Y224409D02*
D03*
Y204724D02*
D03*
Y185039D02*
D03*
Y165354D02*
D03*
Y145669D02*
D03*
Y125984D02*
D03*
Y106299D02*
D03*
Y86614D02*
D03*
Y66929D02*
D03*
Y47244D02*
D03*
X259842Y342520D02*
D03*
Y322835D02*
D03*
Y303150D02*
D03*
Y283465D02*
D03*
Y263779D02*
D03*
Y244094D02*
D03*
Y224409D02*
D03*
Y204724D02*
D03*
Y185039D02*
D03*
Y165354D02*
D03*
Y145669D02*
D03*
Y125984D02*
D03*
Y106299D02*
D03*
Y86614D02*
D03*
Y66929D02*
D03*
Y47244D02*
D03*
X129921Y492126D02*
D03*
Y472441D02*
D03*
Y452756D02*
D03*
Y433071D02*
D03*
Y413386D02*
D03*
Y393701D02*
D03*
Y374016D02*
D03*
Y354331D02*
D03*
Y334646D02*
D03*
Y314961D02*
D03*
Y295276D02*
D03*
Y275591D02*
D03*
Y255906D02*
D03*
Y236220D02*
D03*
Y216535D02*
D03*
Y196850D02*
D03*
D17*
X452756Y381890D02*
D03*
M02*
