G04*
G04 #@! TF.GenerationSoftware,Altium Limited,Altium Designer,24.4.1 (13)*
G04*
G04 Layer_Color=32896*
%FSLAX25Y25*%
%MOIN*%
G70*
G04*
G04 #@! TF.SameCoordinates,F4A71C90-CAAB-4947-AAB5-C65089E2A4D9*
G04*
G04*
G04 #@! TF.FilePolarity,Positive*
G04*
G01*
G75*
%ADD11C,0.01000*%
D11*
X325197Y698819D02*
X366535D01*
Y383858D02*
Y698819D01*
X325197Y383858D02*
Y698819D01*
Y383858D02*
X366535D01*
X431496Y352362D02*
X472835D01*
Y37402D02*
Y352362D01*
X431496Y37402D02*
Y352362D01*
Y37402D02*
X472835D01*
X431496Y698819D02*
X472835D01*
Y383858D02*
Y698819D01*
X431496Y383858D02*
Y698819D01*
Y383858D02*
X472835D01*
X250394D02*
X291732D01*
X250394D02*
Y698819D01*
X291732Y383858D02*
Y698819D01*
X250394D02*
X291732D01*
X325197Y352362D02*
X366535D01*
Y37402D02*
Y352362D01*
X325197Y37402D02*
Y352362D01*
Y37402D02*
X366535D01*
X250394Y352362D02*
X291732D01*
Y37402D02*
Y352362D01*
X250394Y37402D02*
Y352362D01*
Y37402D02*
X291732D01*
X120473Y501969D02*
X161811D01*
Y187008D02*
Y501969D01*
X120473Y187008D02*
Y501969D01*
Y187008D02*
X161811D01*
X246244Y145357D02*
Y149293D01*
X244276D01*
X243620Y148636D01*
Y147325D01*
X244276Y146669D01*
X246244D01*
X239685Y149293D02*
X242308D01*
Y147325D01*
X240996D01*
X242308D01*
Y145357D01*
X238373Y144701D02*
X235749D01*
X234437Y148636D02*
X233781Y149293D01*
X232469D01*
X231813Y148636D01*
Y147981D01*
X232469Y147325D01*
X231813Y146669D01*
Y146013D01*
X232469Y145357D01*
X233781D01*
X234437Y146013D01*
Y146669D01*
X233781Y147325D01*
X234437Y147981D01*
Y148636D01*
X233781Y147325D02*
X232469D01*
X111549Y454067D02*
X112205Y454723D01*
X113517D01*
X114173Y454067D01*
Y451443D01*
X113517Y450787D01*
X112205D01*
X111549Y451443D01*
Y452755D01*
X112861D01*
X110238Y450787D02*
Y454723D01*
X107614Y450787D01*
Y454723D01*
X106302D02*
Y450787D01*
X104334D01*
X103678Y451443D01*
Y454067D01*
X104334Y454723D01*
X106302D01*
X111549Y473752D02*
X112205Y474408D01*
X113517D01*
X114173Y473752D01*
Y471128D01*
X113517Y470472D01*
X112205D01*
X111549Y471128D01*
Y472440D01*
X112861D01*
X110238Y470472D02*
Y474408D01*
X107614Y470472D01*
Y474408D01*
X106302D02*
Y470472D01*
X104334D01*
X103678Y471128D01*
Y473752D01*
X104334Y474408D01*
X106302D01*
X111549Y493437D02*
X112205Y494093D01*
X113517D01*
X114173Y493437D01*
Y490813D01*
X113517Y490158D01*
X112205D01*
X111549Y490813D01*
Y492125D01*
X112861D01*
X110238Y490158D02*
Y494093D01*
X107614Y490158D01*
Y494093D01*
X106302D02*
Y490158D01*
X104334D01*
X103678Y490813D01*
Y493437D01*
X104334Y494093D01*
X106302D01*
X111549Y432414D02*
X112205Y433070D01*
X113517D01*
X114173Y432414D01*
Y429790D01*
X113517Y429134D01*
X112205D01*
X111549Y429790D01*
Y431102D01*
X112861D01*
X110238Y429134D02*
Y433070D01*
X107614Y429134D01*
Y433070D01*
X106302D02*
Y429134D01*
X104334D01*
X103678Y429790D01*
Y432414D01*
X104334Y433070D01*
X106302D01*
X114173Y316928D02*
Y314304D01*
X112861Y312992D01*
X111549Y314304D01*
Y316928D01*
X110238D02*
X108926D01*
X109581D01*
Y312992D01*
X110238D01*
X108926D01*
X106958D02*
Y316928D01*
X104334Y312992D01*
Y316928D01*
X111549Y336613D02*
X114173D01*
Y334645D01*
X112861Y335301D01*
X112205D01*
X111549Y334645D01*
Y333333D01*
X112205Y332677D01*
X113517D01*
X114173Y333333D01*
X110238Y336613D02*
Y333989D01*
X108926Y332677D01*
X107614Y333989D01*
Y336613D01*
X114173Y355642D02*
X113517Y356298D01*
X112205D01*
X111549Y355642D01*
Y354986D01*
X112205Y354330D01*
X112861D01*
X112205D01*
X111549Y353674D01*
Y353018D01*
X112205Y352362D01*
X113517D01*
X114173Y353018D01*
X110238Y356298D02*
Y353674D01*
X108926Y352362D01*
X107614Y353674D01*
Y356298D01*
X106302Y355642D02*
X105646Y356298D01*
X104334D01*
X103678Y355642D01*
Y354986D01*
X104334Y354330D01*
X104990D01*
X104334D01*
X103678Y353674D01*
Y353018D01*
X104334Y352362D01*
X105646D01*
X106302Y353018D01*
X110549Y413729D02*
X111205Y414385D01*
X112517D01*
X113173Y413729D01*
Y411105D01*
X112517Y410449D01*
X111205D01*
X110549Y411105D01*
Y412417D01*
X111861D01*
X109238Y410449D02*
Y414385D01*
X106614Y410449D01*
Y414385D01*
X105302D02*
Y410449D01*
X103334D01*
X102678Y411105D01*
Y413729D01*
X103334Y414385D01*
X105302D01*
X110549Y394044D02*
X111205Y394700D01*
X112517D01*
X113173Y394044D01*
Y391420D01*
X112517Y390764D01*
X111205D01*
X110549Y391420D01*
Y392732D01*
X111861D01*
X109238Y390764D02*
Y394700D01*
X106614Y390764D01*
Y394700D01*
X105302D02*
Y390764D01*
X103334D01*
X102678Y391420D01*
Y394044D01*
X103334Y394700D01*
X105302D01*
X111549Y377295D02*
X112205Y377952D01*
X113517D01*
X114173Y377295D01*
Y374672D01*
X113517Y374016D01*
X112205D01*
X111549Y374672D01*
Y375984D01*
X112861D01*
X110238Y374016D02*
Y377952D01*
X107614Y374016D01*
Y377952D01*
X106302D02*
Y374016D01*
X104334D01*
X103678Y374672D01*
Y377295D01*
X104334Y377952D01*
X106302D01*
X114173Y255906D02*
Y258529D01*
X112861Y259841D01*
X111549Y258529D01*
Y255906D01*
Y257873D01*
X114173D01*
X107614Y255906D02*
X110238D01*
X107614Y258529D01*
Y259185D01*
X108270Y259841D01*
X109581D01*
X110238Y259185D01*
X114173Y275591D02*
Y278214D01*
X112861Y279526D01*
X111549Y278214D01*
Y275591D01*
Y277558D01*
X114173D01*
X110238Y275591D02*
X108926D01*
X109581D01*
Y279526D01*
X110238Y278870D01*
X114173Y295276D02*
Y297899D01*
X112861Y299211D01*
X111549Y297899D01*
Y295276D01*
Y297243D01*
X114173D01*
X110238Y298555D02*
X109581Y299211D01*
X108270D01*
X107614Y298555D01*
Y295932D01*
X108270Y295276D01*
X109581D01*
X110238Y295932D01*
Y298555D01*
X114173Y234252D02*
Y236876D01*
X112861Y238188D01*
X111549Y236876D01*
Y234252D01*
Y236220D01*
X114173D01*
X110238Y237532D02*
X109581Y238188D01*
X108270D01*
X107614Y237532D01*
Y236876D01*
X108270Y236220D01*
X108926D01*
X108270D01*
X107614Y235564D01*
Y234908D01*
X108270Y234252D01*
X109581D01*
X110238Y234908D01*
X114173Y214567D02*
Y217191D01*
X112861Y218503D01*
X111549Y217191D01*
Y214567D01*
Y216535D01*
X114173D01*
X108270Y214567D02*
Y218503D01*
X110238Y216535D01*
X107614D01*
X114173Y194882D02*
Y197506D01*
X112861Y198818D01*
X111549Y197506D01*
Y194882D01*
Y196850D01*
X114173D01*
X107614Y198818D02*
X110238D01*
Y196850D01*
X108926Y197506D01*
X108270D01*
X107614Y196850D01*
Y195538D01*
X108270Y194882D01*
X109581D01*
X110238Y195538D01*
X426165Y686039D02*
Y689975D01*
X424197D01*
X423541Y689319D01*
Y688007D01*
X424197Y687351D01*
X426165D01*
X319866Y686039D02*
Y688663D01*
X318554Y689975D01*
X317242Y688663D01*
Y686039D01*
Y688007D01*
X319866D01*
X315930Y689975D02*
Y687351D01*
X314618Y686039D01*
X313307Y687351D01*
Y689975D01*
X311995D02*
Y686039D01*
X310027D01*
X309371Y686695D01*
Y689319D01*
X310027Y689975D01*
X311995D01*
X308059D02*
Y686039D01*
X306091D01*
X305435Y686695D01*
Y689319D01*
X306091Y689975D01*
X308059D01*
X319866Y666354D02*
Y668978D01*
X318554Y670290D01*
X317242Y668978D01*
Y666354D01*
Y668322D01*
X319866D01*
X315930Y670290D02*
Y667666D01*
X314618Y666354D01*
X313307Y667666D01*
Y670290D01*
X311995D02*
Y666354D01*
X310027D01*
X309371Y667010D01*
Y669634D01*
X310027Y670290D01*
X311995D01*
X308059D02*
Y666354D01*
X306091D01*
X305435Y667010D01*
Y669634D01*
X306091Y670290D01*
X308059D01*
X319866Y646669D02*
Y649293D01*
X318554Y650605D01*
X317242Y649293D01*
Y646669D01*
Y648637D01*
X319866D01*
X315930Y650605D02*
Y647981D01*
X314618Y646669D01*
X313307Y647981D01*
Y650605D01*
X311995D02*
Y646669D01*
X310027D01*
X309371Y647325D01*
Y649949D01*
X310027Y650605D01*
X311995D01*
X308059D02*
Y646669D01*
X306091D01*
X305435Y647325D01*
Y649949D01*
X306091Y650605D01*
X308059D01*
X319866Y625016D02*
Y627640D01*
X318554Y628952D01*
X317242Y627640D01*
Y625016D01*
Y626984D01*
X319866D01*
X315930Y628952D02*
Y626328D01*
X314618Y625016D01*
X313307Y626328D01*
Y628952D01*
X311995D02*
Y625016D01*
X310027D01*
X309371Y625672D01*
Y628296D01*
X310027Y628952D01*
X311995D01*
X308059D02*
Y625016D01*
X306091D01*
X305435Y625672D01*
Y628296D01*
X306091Y628952D01*
X308059D01*
X423541Y650605D02*
X424853D01*
X424197D01*
Y647325D01*
X424853Y646669D01*
X425509D01*
X426165Y647325D01*
X422230Y646669D02*
Y650605D01*
X420918Y649293D01*
X419606Y650605D01*
Y646669D01*
X418294D02*
Y650605D01*
X416326D01*
X415670Y649949D01*
Y648637D01*
X416326Y647981D01*
X418294D01*
X319866Y44963D02*
Y48899D01*
X317898D01*
X317242Y48243D01*
Y46931D01*
X317898Y46275D01*
X319866D01*
X313307Y48899D02*
X315930D01*
Y44963D01*
X313307D01*
X315930Y46931D02*
X314618D01*
X311995Y44307D02*
X309371D01*
X308059Y48243D02*
X307403Y48899D01*
X306091D01*
X305435Y48243D01*
Y45619D01*
X306091Y44963D01*
X307403D01*
X308059Y45619D01*
Y48243D01*
X319866Y64648D02*
Y68584D01*
X317898D01*
X317242Y67928D01*
Y66616D01*
X317898Y65960D01*
X319866D01*
X315930Y68584D02*
Y64648D01*
X313963D01*
X313307Y65304D01*
Y65960D01*
X313963Y66616D01*
X315930D01*
X313963D01*
X313307Y67272D01*
Y67928D01*
X313963Y68584D01*
X315930D01*
X311995Y63992D02*
X309371D01*
X308059Y67928D02*
X307403Y68584D01*
X306091D01*
X305435Y67928D01*
Y65304D01*
X306091Y64648D01*
X307403D01*
X308059Y65304D01*
Y67928D01*
X319866Y84333D02*
Y88269D01*
X317898D01*
X317242Y87613D01*
Y86301D01*
X317898Y85645D01*
X319866D01*
X315930Y84333D02*
Y86957D01*
X314618Y88269D01*
X313307Y86957D01*
Y84333D01*
Y86301D01*
X315930D01*
X311995Y83677D02*
X309371D01*
X308059Y87613D02*
X307403Y88269D01*
X306091D01*
X305435Y87613D01*
Y84989D01*
X306091Y84333D01*
X307403D01*
X308059Y84989D01*
Y87613D01*
X319866Y145357D02*
Y149293D01*
X317898D01*
X317242Y148636D01*
Y147325D01*
X317898Y146669D01*
X319866D01*
X315930Y149293D02*
Y145357D01*
X313963D01*
X313307Y146013D01*
Y148636D01*
X313963Y149293D01*
X315930D01*
X311995Y144701D02*
X309371D01*
X308059Y145357D02*
X306747D01*
X307403D01*
Y149293D01*
X308059Y148636D01*
X302155Y145357D02*
X304779D01*
X302155Y147981D01*
Y148636D01*
X302811Y149293D01*
X304123D01*
X304779Y148636D01*
X319866Y125672D02*
Y129607D01*
X317898D01*
X317242Y128952D01*
Y127640D01*
X317898Y126984D01*
X319866D01*
X315930Y129607D02*
Y125672D01*
X313963D01*
X313307Y126328D01*
Y128952D01*
X313963Y129607D01*
X315930D01*
X311995Y125016D02*
X309371D01*
X308059Y125672D02*
X306747D01*
X307403D01*
Y129607D01*
X308059Y128952D01*
X304779Y125672D02*
X303467D01*
X304123D01*
Y129607D01*
X304779Y128952D01*
X319866Y105987D02*
Y109922D01*
X317898D01*
X317242Y109266D01*
Y107955D01*
X317898Y107299D01*
X319866D01*
X313307Y109922D02*
X315930D01*
Y105987D01*
X313307D01*
X315930Y107955D02*
X314618D01*
X311995Y105331D02*
X309371D01*
X305435Y105987D02*
X308059D01*
X305435Y108610D01*
Y109266D01*
X306091Y109922D01*
X307403D01*
X308059Y109266D01*
X319866Y224097D02*
Y228033D01*
X317898D01*
X317242Y227377D01*
Y226065D01*
X317898Y225409D01*
X319866D01*
X313307Y228033D02*
X315930D01*
Y226065D01*
X314618D01*
X315930D01*
Y224097D01*
X311995Y223441D02*
X309371D01*
X306091Y224097D02*
Y228033D01*
X308059Y226065D01*
X305435D01*
X319866Y243782D02*
Y247718D01*
X317898D01*
X317242Y247062D01*
Y245750D01*
X317898Y245094D01*
X319866D01*
X313307Y247062D02*
X313963Y247718D01*
X315274D01*
X315930Y247062D01*
Y244438D01*
X315274Y243782D01*
X313963D01*
X313307Y244438D01*
X311995Y243126D02*
X309371D01*
X305435Y243782D02*
X308059D01*
X305435Y246406D01*
Y247062D01*
X306091Y247718D01*
X307403D01*
X308059Y247062D01*
X319866Y263467D02*
Y267403D01*
X317898D01*
X317242Y266747D01*
Y265435D01*
X317898Y264779D01*
X319866D01*
X315930Y267403D02*
Y263467D01*
X313963D01*
X313307Y264123D01*
Y264779D01*
X313963Y265435D01*
X315930D01*
X313963D01*
X313307Y266091D01*
Y266747D01*
X313963Y267403D01*
X315930D01*
X311995Y262811D02*
X309371D01*
X308059Y263467D02*
X306747D01*
X307403D01*
Y267403D01*
X308059Y266747D01*
X319866Y202443D02*
Y206379D01*
X317898D01*
X317242Y205723D01*
Y204411D01*
X317898Y203755D01*
X319866D01*
X315930Y206379D02*
Y202443D01*
X313963D01*
X313307Y203099D01*
Y203755D01*
X313963Y204411D01*
X315930D01*
X313963D01*
X313307Y205067D01*
Y205723D01*
X313963Y206379D01*
X315930D01*
X311995Y201787D02*
X309371D01*
X305435Y206379D02*
X306747Y205723D01*
X308059Y204411D01*
Y203099D01*
X307403Y202443D01*
X306091D01*
X305435Y203099D01*
Y203755D01*
X306091Y204411D01*
X308059D01*
X319866Y182758D02*
Y186694D01*
X317898D01*
X317242Y186038D01*
Y184726D01*
X317898Y184070D01*
X319866D01*
X315930Y186694D02*
Y182758D01*
X313963D01*
X313307Y183414D01*
Y184070D01*
X313963Y184726D01*
X315930D01*
X313963D01*
X313307Y185382D01*
Y186038D01*
X313963Y186694D01*
X315930D01*
X311995Y182102D02*
X309371D01*
X305435Y182758D02*
X308059D01*
X305435Y185382D01*
Y186038D01*
X306091Y186694D01*
X307403D01*
X308059Y186038D01*
X319866Y163073D02*
Y167009D01*
X317898D01*
X317242Y166353D01*
Y165041D01*
X317898Y164385D01*
X319866D01*
X315930Y167009D02*
Y163073D01*
X313963D01*
X313307Y163729D01*
Y166353D01*
X313963Y167009D01*
X315930D01*
X311995Y162417D02*
X309371D01*
X308059Y163073D02*
X306747D01*
X307403D01*
Y167009D01*
X308059Y166353D01*
X304779D02*
X304123Y167009D01*
X302811D01*
X302155Y166353D01*
Y165697D01*
X302811Y165041D01*
X303467D01*
X302811D01*
X302155Y164385D01*
Y163729D01*
X302811Y163073D01*
X304123D01*
X304779Y163729D01*
X317242Y284463D02*
X318554D01*
X317898D01*
Y281184D01*
X318554Y280528D01*
X319210D01*
X319866Y281184D01*
X315930Y280528D02*
Y284463D01*
X314618Y283151D01*
X313307Y284463D01*
Y280528D01*
X311995D02*
Y284463D01*
X310027D01*
X309371Y283807D01*
Y282495D01*
X310027Y281839D01*
X311995D01*
X317242Y343518D02*
X318554D01*
X317898D01*
Y340239D01*
X318554Y339583D01*
X319210D01*
X319866Y340239D01*
X315930Y339583D02*
Y343518D01*
X314618Y342207D01*
X313307Y343518D01*
Y339583D01*
X311995D02*
Y343518D01*
X310027D01*
X309371Y342863D01*
Y341551D01*
X310027Y340895D01*
X311995D01*
X317242Y323833D02*
X318554D01*
X317898D01*
Y320554D01*
X318554Y319898D01*
X319210D01*
X319866Y320554D01*
X315930Y319898D02*
Y323833D01*
X314618Y322521D01*
X313307Y323833D01*
Y319898D01*
X311995D02*
Y323833D01*
X310027D01*
X309371Y323177D01*
Y321866D01*
X310027Y321210D01*
X311995D01*
X317242Y304148D02*
X318554D01*
X317898D01*
Y300869D01*
X318554Y300213D01*
X319210D01*
X319866Y300869D01*
X315930Y300213D02*
Y304148D01*
X314618Y302836D01*
X313307Y304148D01*
Y300213D01*
X311995D02*
Y304148D01*
X310027D01*
X309371Y303492D01*
Y302181D01*
X310027Y301524D01*
X311995D01*
X319866Y509530D02*
Y513466D01*
X317898D01*
X317242Y512810D01*
Y511498D01*
X317898Y510842D01*
X319866D01*
X315930Y513466D02*
Y509530D01*
X313963D01*
X313307Y510186D01*
Y510842D01*
X313963Y511498D01*
X315930D01*
X313963D01*
X313307Y512154D01*
Y512810D01*
X313963Y513466D01*
X315930D01*
X311995Y508874D02*
X309371D01*
X308059Y509530D02*
X306747D01*
X307403D01*
Y513466D01*
X308059Y512810D01*
X302155Y509530D02*
X304779D01*
X302155Y512154D01*
Y512810D01*
X302811Y513466D01*
X304123D01*
X304779Y512810D01*
X319866Y529215D02*
Y533151D01*
X317898D01*
X317242Y532495D01*
Y531183D01*
X317898Y530527D01*
X319866D01*
X315930Y533151D02*
Y529215D01*
X313963D01*
X313307Y529871D01*
Y530527D01*
X313963Y531183D01*
X315930D01*
X313963D01*
X313307Y531839D01*
Y532495D01*
X313963Y533151D01*
X315930D01*
X311995Y528559D02*
X309371D01*
X308059Y529215D02*
X306747D01*
X307403D01*
Y533151D01*
X308059Y532495D01*
X304779D02*
X304123Y533151D01*
X302811D01*
X302155Y532495D01*
Y531839D01*
X302811Y531183D01*
X303467D01*
X302811D01*
X302155Y530527D01*
Y529871D01*
X302811Y529215D01*
X304123D01*
X304779Y529871D01*
X319866Y548900D02*
Y552836D01*
X317898D01*
X317242Y552180D01*
Y550868D01*
X317898Y550212D01*
X319866D01*
X315930Y552836D02*
Y548900D01*
X313963D01*
X313307Y549556D01*
Y550212D01*
X313963Y550868D01*
X315930D01*
X313963D01*
X313307Y551524D01*
Y552180D01*
X313963Y552836D01*
X315930D01*
X311995Y548244D02*
X309371D01*
X308059Y548900D02*
X306747D01*
X307403D01*
Y552836D01*
X308059Y552180D01*
X302155Y552836D02*
X304779D01*
Y550868D01*
X303467Y551524D01*
X302811D01*
X302155Y550868D01*
Y549556D01*
X302811Y548900D01*
X304123D01*
X304779Y549556D01*
X319866Y609268D02*
Y611892D01*
X318554Y613203D01*
X317242Y611892D01*
Y609268D01*
Y611236D01*
X319866D01*
X315930Y613203D02*
Y610580D01*
X314618Y609268D01*
X313307Y610580D01*
Y613203D01*
X311995D02*
Y609268D01*
X310027D01*
X309371Y609924D01*
Y612547D01*
X310027Y613203D01*
X311995D01*
X308059D02*
Y609268D01*
X306091D01*
X305435Y609924D01*
Y612547D01*
X306091Y613203D01*
X308059D01*
X319866Y589583D02*
Y592206D01*
X318554Y593518D01*
X317242Y592206D01*
Y589583D01*
Y591551D01*
X319866D01*
X315930Y593518D02*
Y590895D01*
X314618Y589583D01*
X313307Y590895D01*
Y593518D01*
X311995D02*
Y589583D01*
X310027D01*
X309371Y590239D01*
Y592863D01*
X310027Y593518D01*
X311995D01*
X308059D02*
Y589583D01*
X306091D01*
X305435Y590239D01*
Y592863D01*
X306091Y593518D01*
X308059D01*
X319866Y570554D02*
Y574489D01*
X317898D01*
X317242Y573833D01*
Y572521D01*
X317898Y571866D01*
X319866D01*
X313307Y573833D02*
X313963Y574489D01*
X315274D01*
X315930Y573833D01*
Y571210D01*
X315274Y570554D01*
X313963D01*
X313307Y571210D01*
X311995Y569898D02*
X309371D01*
X305435Y574489D02*
X306747Y573833D01*
X308059Y572521D01*
Y571210D01*
X307403Y570554D01*
X306091D01*
X305435Y571210D01*
Y571866D01*
X306091Y572521D01*
X308059D01*
X319866Y452443D02*
Y456379D01*
X317898D01*
X317242Y455723D01*
Y454411D01*
X317898Y453755D01*
X319866D01*
X315930Y456379D02*
Y452443D01*
X313963D01*
X313307Y453099D01*
Y453755D01*
X313963Y454411D01*
X315930D01*
X313963D01*
X313307Y455067D01*
Y455723D01*
X313963Y456379D01*
X315930D01*
X311995Y451787D02*
X309371D01*
X305435Y456379D02*
X308059D01*
Y454411D01*
X306747Y455067D01*
X306091D01*
X305435Y454411D01*
Y453099D01*
X306091Y452443D01*
X307403D01*
X308059Y453099D01*
X319866Y472128D02*
Y476064D01*
X317898D01*
X317242Y475408D01*
Y474096D01*
X317898Y473440D01*
X319866D01*
X313307Y475408D02*
X313963Y476064D01*
X315274D01*
X315930Y475408D01*
Y472784D01*
X315274Y472128D01*
X313963D01*
X313307Y472784D01*
X311995Y471473D02*
X309371D01*
X308059Y476064D02*
X305435D01*
Y475408D01*
X308059Y472784D01*
Y472128D01*
X319866Y491814D02*
Y495749D01*
X317898D01*
X317242Y495093D01*
Y493781D01*
X317898Y493125D01*
X319866D01*
X315930Y491814D02*
Y494437D01*
X314618Y495749D01*
X313307Y494437D01*
Y491814D01*
Y493781D01*
X315930D01*
X311995Y491157D02*
X309371D01*
X308059Y491814D02*
X306747D01*
X307403D01*
Y495749D01*
X308059Y495093D01*
X302155Y495749D02*
X304779D01*
Y493781D01*
X303467Y494437D01*
X302811D01*
X302155Y493781D01*
Y492469D01*
X302811Y491814D01*
X304123D01*
X304779Y492469D01*
X319866Y430790D02*
Y434726D01*
X317898D01*
X317242Y434070D01*
Y432758D01*
X317898Y432102D01*
X319866D01*
X315930Y434726D02*
Y430790D01*
X313963D01*
X313307Y431446D01*
Y432102D01*
X313963Y432758D01*
X315930D01*
X313963D01*
X313307Y433414D01*
Y434070D01*
X313963Y434726D01*
X315930D01*
X311995Y430134D02*
X309371D01*
X308059Y434070D02*
X307403Y434726D01*
X306091D01*
X305435Y434070D01*
Y433414D01*
X306091Y432758D01*
X306747D01*
X306091D01*
X305435Y432102D01*
Y431446D01*
X306091Y430790D01*
X307403D01*
X308059Y431446D01*
X319866Y411105D02*
Y415040D01*
X317898D01*
X317242Y414385D01*
Y413073D01*
X317898Y412417D01*
X319866D01*
X315930Y411105D02*
Y413729D01*
X314618Y415040D01*
X313307Y413729D01*
Y411105D01*
Y413073D01*
X315930D01*
X311995Y410449D02*
X309371D01*
X306091Y411105D02*
Y415040D01*
X308059Y413073D01*
X305435D01*
X319866Y391420D02*
Y395356D01*
X317898D01*
X317242Y394700D01*
Y393388D01*
X317898Y392732D01*
X319866D01*
X315930Y395356D02*
Y391420D01*
X313963D01*
X313307Y392076D01*
Y392732D01*
X313963Y393388D01*
X315930D01*
X313963D01*
X313307Y394044D01*
Y394700D01*
X313963Y395356D01*
X315930D01*
X311995Y390764D02*
X309371D01*
X306091Y391420D02*
Y395356D01*
X308059Y393388D01*
X305435D01*
X245063Y44963D02*
Y48899D01*
X243095D01*
X242439Y48243D01*
Y46931D01*
X243095Y46275D01*
X245063D01*
X241127Y48899D02*
Y44963D01*
X239159D01*
X238503Y45619D01*
Y48243D01*
X239159Y48899D01*
X241127D01*
X237192Y44307D02*
X234568D01*
X233256Y44963D02*
X231944D01*
X232600D01*
Y48899D01*
X233256Y48243D01*
X245063Y64648D02*
Y68584D01*
X243095D01*
X242439Y67928D01*
Y66616D01*
X243095Y65960D01*
X245063D01*
X238503Y67928D02*
X239159Y68584D01*
X240471D01*
X241127Y67928D01*
Y65304D01*
X240471Y64648D01*
X239159D01*
X238503Y65304D01*
Y66616D01*
X239815D01*
X237192Y63992D02*
X234568D01*
X233256Y67928D02*
X232600Y68584D01*
X231288D01*
X230632Y67928D01*
Y65304D01*
X231288Y64648D01*
X232600D01*
X233256Y65304D01*
Y67928D01*
X245063Y84333D02*
Y88269D01*
X243095D01*
X242439Y87613D01*
Y86301D01*
X243095Y85645D01*
X245063D01*
X238503Y87613D02*
X239159Y88269D01*
X240471D01*
X241127Y87613D01*
Y84989D01*
X240471Y84333D01*
X239159D01*
X238503Y84989D01*
Y86301D01*
X239815D01*
X237192Y83677D02*
X234568D01*
X233256Y84333D02*
X231944D01*
X232600D01*
Y88269D01*
X233256Y87613D01*
X246244Y125672D02*
Y129607D01*
X244276D01*
X243620Y128952D01*
Y127640D01*
X244276Y126984D01*
X246244D01*
X239685Y129607D02*
X242308D01*
Y127640D01*
X240996D01*
X242308D01*
Y125672D01*
X238373Y125016D02*
X235749D01*
X234437Y129607D02*
X231813D01*
Y128952D01*
X234437Y126328D01*
Y125672D01*
X246244Y105987D02*
Y109922D01*
X244276D01*
X243620Y109266D01*
Y107955D01*
X244276Y107299D01*
X246244D01*
X239685Y109922D02*
X242308D01*
Y107955D01*
X240996D01*
X242308D01*
Y105987D01*
X238373Y105331D02*
X235749D01*
X234437Y106643D02*
X233781Y105987D01*
X232469D01*
X231813Y106643D01*
Y109266D01*
X232469Y109922D01*
X233781D01*
X234437Y109266D01*
Y108610D01*
X233781Y107955D01*
X231813D01*
X246244Y222128D02*
Y226064D01*
X244276D01*
X243620Y225408D01*
Y224096D01*
X244276Y223440D01*
X246244D01*
X239685Y226064D02*
X242308D01*
Y222128D01*
X239685D01*
X242308Y224096D02*
X240996D01*
X238373Y221472D02*
X235749D01*
X232469Y222128D02*
Y226064D01*
X234437Y224096D01*
X231813D01*
X246244Y243782D02*
Y247718D01*
X244276D01*
X243620Y247062D01*
Y245750D01*
X244276Y245094D01*
X246244D01*
X239685Y247718D02*
X242308D01*
Y243782D01*
X239685D01*
X242308Y245750D02*
X240996D01*
X238373Y243126D02*
X235749D01*
X231813Y243782D02*
X234437D01*
X231813Y246406D01*
Y247062D01*
X232469Y247718D01*
X233781D01*
X234437Y247062D01*
X245850Y261498D02*
Y265434D01*
X243882D01*
X243227Y264778D01*
Y263466D01*
X243882Y262810D01*
X245850D01*
X241915Y265434D02*
Y261498D01*
X239947D01*
X239291Y262154D01*
Y264778D01*
X239947Y265434D01*
X241915D01*
X237979Y260842D02*
X235355D01*
X234043Y264778D02*
X233387Y265434D01*
X232075D01*
X231419Y264778D01*
Y264122D01*
X232075Y263466D01*
X232731D01*
X232075D01*
X231419Y262810D01*
Y262154D01*
X232075Y261498D01*
X233387D01*
X234043Y262154D01*
X245850Y202443D02*
Y206379D01*
X243882D01*
X243227Y205723D01*
Y204411D01*
X243882Y203755D01*
X245850D01*
X239291Y206379D02*
X241915D01*
Y202443D01*
X239291D01*
X241915Y204411D02*
X240603D01*
X237979Y201787D02*
X235355D01*
X231419Y206379D02*
X234043D01*
Y204411D01*
X232731Y205067D01*
X232075D01*
X231419Y204411D01*
Y203099D01*
X232075Y202443D01*
X233387D01*
X234043Y203099D01*
X245850Y182758D02*
Y186694D01*
X243882D01*
X243227Y186038D01*
Y184726D01*
X243882Y184070D01*
X245850D01*
X239291Y186694D02*
X241915D01*
Y182758D01*
X239291D01*
X241915Y184726D02*
X240603D01*
X237979Y182102D02*
X235355D01*
X231419Y186694D02*
X232731Y186038D01*
X234043Y184726D01*
Y183414D01*
X233387Y182758D01*
X232075D01*
X231419Y183414D01*
Y184070D01*
X232075Y184726D01*
X234043D01*
X246244Y163073D02*
Y167009D01*
X244276D01*
X243620Y166353D01*
Y165041D01*
X244276Y164385D01*
X246244D01*
X239685Y167009D02*
X242308D01*
Y163073D01*
X239685D01*
X242308Y165041D02*
X240996D01*
X238373Y162417D02*
X235749D01*
X234437Y166353D02*
X233781Y167009D01*
X232469D01*
X231813Y166353D01*
Y165697D01*
X232469Y165041D01*
X233125D01*
X232469D01*
X231813Y164385D01*
Y163729D01*
X232469Y163073D01*
X233781D01*
X234437Y163729D01*
X245063Y281184D02*
Y285119D01*
X243095D01*
X242439Y284463D01*
Y283151D01*
X243095Y282495D01*
X245063D01*
X241127Y285119D02*
Y281184D01*
X239159D01*
X238503Y281839D01*
Y284463D01*
X239159Y285119D01*
X241127D01*
X237192Y280528D02*
X234568D01*
X231288Y281184D02*
Y285119D01*
X233256Y283151D01*
X230632D01*
X245063Y340239D02*
Y344174D01*
X243095D01*
X242439Y343518D01*
Y342207D01*
X243095Y341551D01*
X245063D01*
X241127Y344174D02*
Y340239D01*
X239159D01*
X238503Y340895D01*
Y343518D01*
X239159Y344174D01*
X241127D01*
X237192Y339583D02*
X234568D01*
X233256Y344174D02*
X230632D01*
Y343518D01*
X233256Y340895D01*
Y340239D01*
X247031Y320554D02*
Y324489D01*
X245064D01*
X244408Y323833D01*
Y322521D01*
X245064Y321866D01*
X247031D01*
X243096Y324489D02*
Y320554D01*
X241128D01*
X240472Y321210D01*
Y323833D01*
X241128Y324489D01*
X243096D01*
X239160Y319898D02*
X236536D01*
X232600Y324489D02*
X233912Y323833D01*
X235224Y322521D01*
Y321210D01*
X234568Y320554D01*
X233256D01*
X232600Y321210D01*
Y321866D01*
X233256Y322521D01*
X235224D01*
X246244Y300869D02*
Y304804D01*
X244276D01*
X243620Y304148D01*
Y302836D01*
X244276Y302181D01*
X246244D01*
X242308Y304804D02*
Y300869D01*
X240340D01*
X239685Y301524D01*
Y304148D01*
X240340Y304804D01*
X242308D01*
X238373Y300213D02*
X235749D01*
X231813Y304804D02*
X234437D01*
Y302836D01*
X233125Y303492D01*
X232469D01*
X231813Y302836D01*
Y301524D01*
X232469Y300869D01*
X233781D01*
X234437Y301524D01*
X245063Y650605D02*
X243751D01*
X244407D01*
Y646669D01*
X245063D01*
X243751D01*
X239815Y650605D02*
X241127D01*
X241783Y649949D01*
Y647325D01*
X241127Y646669D01*
X239815D01*
X239159Y647325D01*
Y649949D01*
X239815Y650605D01*
X237847Y646669D02*
Y650605D01*
X235880D01*
X235224Y649949D01*
Y648637D01*
X235880Y647981D01*
X237847D01*
X236536D02*
X235224Y646669D01*
X231288Y650605D02*
X233912D01*
Y646669D01*
X231288D01*
X233912Y648637D02*
X232600D01*
X227352Y650605D02*
X229976D01*
Y648637D01*
X228664D01*
X229976D01*
Y646669D01*
X245063Y666354D02*
Y670290D01*
X243095D01*
X242439Y669634D01*
Y668322D01*
X243095Y667666D01*
X245063D01*
X243751D02*
X242439Y666354D01*
X238503Y670290D02*
X241127D01*
Y666354D01*
X238503D01*
X241127Y668322D02*
X239815D01*
X234568Y669634D02*
X235224Y670290D01*
X236536D01*
X237192Y669634D01*
Y668978D01*
X236536Y668322D01*
X235224D01*
X234568Y667666D01*
Y667010D01*
X235224Y666354D01*
X236536D01*
X237192Y667010D01*
X230632Y670290D02*
X233256D01*
Y666354D01*
X230632D01*
X233256Y668322D02*
X231944D01*
X229320Y670290D02*
X226696D01*
X228008D01*
Y666354D01*
X242439Y689319D02*
X243095Y689975D01*
X244407D01*
X245063Y689319D01*
Y686695D01*
X244407Y686039D01*
X243095D01*
X242439Y686695D01*
Y688007D01*
X243751D01*
X241127Y686039D02*
Y689975D01*
X238503Y686039D01*
Y689975D01*
X237192D02*
Y686039D01*
X235224D01*
X234568Y686695D01*
Y689319D01*
X235224Y689975D01*
X237192D01*
X245063Y625672D02*
Y629607D01*
X243095D01*
X242439Y628952D01*
Y627640D01*
X243095Y626984D01*
X245063D01*
X241127Y629607D02*
Y625672D01*
X239159D01*
X238503Y626328D01*
Y628952D01*
X239159Y629607D01*
X241127D01*
X237192Y625016D02*
X234568D01*
X233256Y628952D02*
X232600Y629607D01*
X231288D01*
X230632Y628952D01*
Y626328D01*
X231288Y625672D01*
X232600D01*
X233256Y626328D01*
Y628952D01*
X245063Y509530D02*
Y513466D01*
X243095D01*
X242439Y512810D01*
Y511498D01*
X243095Y510842D01*
X245063D01*
X238503Y512810D02*
X239159Y513466D01*
X240471D01*
X241127Y512810D01*
Y510186D01*
X240471Y509530D01*
X239159D01*
X238503Y510186D01*
X237192Y508874D02*
X234568D01*
X233256Y510186D02*
X232600Y509530D01*
X231288D01*
X230632Y510186D01*
Y512810D01*
X231288Y513466D01*
X232600D01*
X233256Y512810D01*
Y512154D01*
X232600Y511498D01*
X230632D01*
X245063Y529215D02*
Y533151D01*
X243095D01*
X242439Y532495D01*
Y531183D01*
X243095Y530527D01*
X245063D01*
X238503Y532495D02*
X239159Y533151D01*
X240471D01*
X241127Y532495D01*
Y529871D01*
X240471Y529215D01*
X239159D01*
X238503Y529871D01*
X237192Y528559D02*
X234568D01*
X233256Y532495D02*
X232600Y533151D01*
X231288D01*
X230632Y532495D01*
Y531839D01*
X231288Y531183D01*
X230632Y530527D01*
Y529871D01*
X231288Y529215D01*
X232600D01*
X233256Y529871D01*
Y530527D01*
X232600Y531183D01*
X233256Y531839D01*
Y532495D01*
X232600Y531183D02*
X231288D01*
X245063Y548900D02*
Y552836D01*
X243095D01*
X242439Y552180D01*
Y550868D01*
X243095Y550212D01*
X245063D01*
X241127Y548900D02*
Y551524D01*
X239815Y552836D01*
X238503Y551524D01*
Y548900D01*
Y550868D01*
X241127D01*
X237192Y548244D02*
X234568D01*
X233256Y552836D02*
X230632D01*
Y552180D01*
X233256Y549556D01*
Y548900D01*
X245063Y609924D02*
Y613859D01*
X243095D01*
X242439Y613203D01*
Y611892D01*
X243095Y611236D01*
X245063D01*
X238503Y613859D02*
X241127D01*
Y611892D01*
X239815D01*
X241127D01*
Y609924D01*
X237192Y609268D02*
X234568D01*
X233256Y613203D02*
X232600Y613859D01*
X231288D01*
X230632Y613203D01*
Y610580D01*
X231288Y609924D01*
X232600D01*
X233256Y610580D01*
Y613203D01*
X245063Y590239D02*
Y594174D01*
X243095D01*
X242439Y593518D01*
Y592206D01*
X243095Y591551D01*
X245063D01*
X238503Y594174D02*
X241127D01*
Y592206D01*
X239815D01*
X241127D01*
Y590239D01*
X237192Y589583D02*
X234568D01*
X233256Y590239D02*
X231944D01*
X232600D01*
Y594174D01*
X233256Y593518D01*
X245063Y570554D02*
Y574489D01*
X243095D01*
X242439Y573833D01*
Y572521D01*
X243095Y571866D01*
X245063D01*
X238503Y574489D02*
X241127D01*
Y572521D01*
X239815D01*
X241127D01*
Y570554D01*
X237192Y569898D02*
X234568D01*
X230632Y570554D02*
X233256D01*
X230632Y573177D01*
Y573833D01*
X231288Y574489D01*
X232600D01*
X233256Y573833D01*
X245063Y452443D02*
Y456379D01*
X243095D01*
X242439Y455723D01*
Y454411D01*
X243095Y453755D01*
X245063D01*
X238503Y455723D02*
X239159Y456379D01*
X240471D01*
X241127Y455723D01*
Y453099D01*
X240471Y452443D01*
X239159D01*
X238503Y453099D01*
X237192Y451787D02*
X234568D01*
X233256Y452443D02*
X231944D01*
X232600D01*
Y456379D01*
X233256Y455723D01*
X227352Y452443D02*
X229976D01*
X227352Y455067D01*
Y455723D01*
X228008Y456379D01*
X229320D01*
X229976Y455723D01*
X245063Y472128D02*
Y476064D01*
X243095D01*
X242439Y475408D01*
Y474096D01*
X243095Y473440D01*
X245063D01*
X238503Y475408D02*
X239159Y476064D01*
X240471D01*
X241127Y475408D01*
Y472784D01*
X240471Y472128D01*
X239159D01*
X238503Y472784D01*
X237192Y471473D02*
X234568D01*
X233256Y472128D02*
X231944D01*
X232600D01*
Y476064D01*
X233256Y475408D01*
X229976Y472128D02*
X228664D01*
X229320D01*
Y476064D01*
X229976Y475408D01*
X245063Y489845D02*
Y493781D01*
X243095D01*
X242439Y493125D01*
Y491813D01*
X243095Y491157D01*
X245063D01*
X238503Y493125D02*
X239159Y493781D01*
X240471D01*
X241127Y493125D01*
Y490501D01*
X240471Y489845D01*
X239159D01*
X238503Y490501D01*
X237192Y489189D02*
X234568D01*
X233256Y489845D02*
X231944D01*
X232600D01*
Y493781D01*
X233256Y493125D01*
X229976D02*
X229320Y493781D01*
X228008D01*
X227352Y493125D01*
Y490501D01*
X228008Y489845D01*
X229320D01*
X229976Y490501D01*
Y493125D01*
X246244Y430790D02*
Y434726D01*
X244276D01*
X243620Y434070D01*
Y432758D01*
X244276Y432102D01*
X246244D01*
X242308Y434726D02*
Y430790D01*
X240340D01*
X239685Y431446D01*
Y434070D01*
X240340Y434726D01*
X242308D01*
X238373Y430134D02*
X235749D01*
X231813Y430790D02*
X234437D01*
X231813Y433414D01*
Y434070D01*
X232469Y434726D01*
X233781D01*
X234437Y434070D01*
X245850Y411105D02*
Y415040D01*
X243882D01*
X243227Y414385D01*
Y413073D01*
X243882Y412417D01*
X245850D01*
X239291Y414385D02*
X239947Y415040D01*
X241259D01*
X241915Y414385D01*
Y411761D01*
X241259Y411105D01*
X239947D01*
X239291Y411761D01*
Y413073D01*
X240603D01*
X237979Y410449D02*
X235355D01*
X231419Y411105D02*
X234043D01*
X231419Y413729D01*
Y414385D01*
X232075Y415040D01*
X233387D01*
X234043Y414385D01*
X245063Y391420D02*
Y395356D01*
X243095D01*
X242439Y394700D01*
Y393388D01*
X243095Y392732D01*
X245063D01*
X238503Y394700D02*
X239159Y395356D01*
X240471D01*
X241127Y394700D01*
Y392076D01*
X240471Y391420D01*
X239159D01*
X238503Y392076D01*
Y393388D01*
X239815D01*
X237192Y390764D02*
X234568D01*
X233256Y394700D02*
X232600Y395356D01*
X231288D01*
X230632Y394700D01*
Y394044D01*
X231288Y393388D01*
X231944D01*
X231288D01*
X230632Y392732D01*
Y392076D01*
X231288Y391420D01*
X232600D01*
X233256Y392076D01*
X426165Y394700D02*
Y390764D01*
X424197D01*
X423541Y391420D01*
Y394044D01*
X424197Y394700D01*
X426165D01*
X422230Y394044D02*
X421574Y394700D01*
X420262D01*
X419606Y394044D01*
Y393388D01*
X420262Y392732D01*
X419606Y392076D01*
Y391420D01*
X420262Y390764D01*
X421574D01*
X422230Y391420D01*
Y392076D01*
X421574Y392732D01*
X422230Y393388D01*
Y394044D01*
X421574Y392732D02*
X420262D01*
X426165Y414385D02*
Y410449D01*
X424197D01*
X423541Y411105D01*
Y413729D01*
X424197Y414385D01*
X426165D01*
X422230Y411105D02*
X421574Y410449D01*
X420262D01*
X419606Y411105D01*
Y413729D01*
X420262Y414385D01*
X421574D01*
X422230Y413729D01*
Y413073D01*
X421574Y412417D01*
X419606D01*
X426165Y434070D02*
Y430134D01*
X424197D01*
X423541Y430790D01*
Y433414D01*
X424197Y434070D01*
X426165D01*
X422230Y430134D02*
X420918D01*
X421574D01*
Y434070D01*
X422230Y433414D01*
X418950D02*
X418294Y434070D01*
X416982D01*
X416326Y433414D01*
Y430790D01*
X416982Y430134D01*
X418294D01*
X418950Y430790D01*
Y433414D01*
X426165Y495093D02*
Y491157D01*
X424197D01*
X423541Y491814D01*
Y494437D01*
X424197Y495093D01*
X426165D01*
X422230Y491157D02*
X420918D01*
X421574D01*
Y495093D01*
X422230Y494437D01*
X418950D02*
X418294Y495093D01*
X416982D01*
X416326Y494437D01*
Y493781D01*
X416982Y493125D01*
X417638D01*
X416982D01*
X416326Y492469D01*
Y491814D01*
X416982Y491157D01*
X418294D01*
X418950Y491814D01*
X426165Y475408D02*
Y471473D01*
X424197D01*
X423541Y472128D01*
Y474752D01*
X424197Y475408D01*
X426165D01*
X422230Y471473D02*
X420918D01*
X421574D01*
Y475408D01*
X422230Y474752D01*
X416326Y471473D02*
X418950D01*
X416326Y474096D01*
Y474752D01*
X416982Y475408D01*
X418294D01*
X418950Y474752D01*
X426165Y455723D02*
Y451787D01*
X424197D01*
X423541Y452443D01*
Y455067D01*
X424197Y455723D01*
X426165D01*
X422230Y451787D02*
X420918D01*
X421574D01*
Y455723D01*
X422230Y455067D01*
X418950Y451787D02*
X417638D01*
X418294D01*
Y455723D01*
X418950Y455067D01*
X423541Y573833D02*
X424853D01*
X424197D01*
Y570554D01*
X424853Y569898D01*
X425509D01*
X426165Y570554D01*
X422230Y569898D02*
Y573833D01*
X420918Y572521D01*
X419606Y573833D01*
Y569898D01*
X418294D02*
Y573833D01*
X416326D01*
X415670Y573177D01*
Y571866D01*
X416326Y571210D01*
X418294D01*
X423541Y593518D02*
X424853D01*
X424197D01*
Y590239D01*
X424853Y589583D01*
X425509D01*
X426165Y590239D01*
X422230Y589583D02*
Y593518D01*
X420918Y592206D01*
X419606Y593518D01*
Y589583D01*
X418294D02*
Y593518D01*
X416326D01*
X415670Y592863D01*
Y591551D01*
X416326Y590895D01*
X418294D01*
X423541Y613203D02*
X424853D01*
X424197D01*
Y609924D01*
X424853Y609268D01*
X425509D01*
X426165Y609924D01*
X422230Y609268D02*
Y613203D01*
X420918Y611892D01*
X419606Y613203D01*
Y609268D01*
X418294D02*
Y613203D01*
X416326D01*
X415670Y612547D01*
Y611236D01*
X416326Y610580D01*
X418294D01*
X423541Y552180D02*
X424853D01*
X424197D01*
Y548900D01*
X424853Y548244D01*
X425509D01*
X426165Y548900D01*
X422230Y548244D02*
Y552180D01*
X420918Y550868D01*
X419606Y552180D01*
Y548244D01*
X418294D02*
Y552180D01*
X416326D01*
X415670Y551524D01*
Y550212D01*
X416326Y549556D01*
X418294D01*
X426165Y532495D02*
Y528559D01*
X424197D01*
X423541Y529215D01*
Y531839D01*
X424197Y532495D01*
X426165D01*
X422230Y528559D02*
X420918D01*
X421574D01*
Y532495D01*
X422230Y531839D01*
X416326Y532495D02*
X418950D01*
Y530527D01*
X417638Y531183D01*
X416982D01*
X416326Y530527D01*
Y529215D01*
X416982Y528559D01*
X418294D01*
X418950Y529215D01*
X426165Y512810D02*
Y508874D01*
X424197D01*
X423541Y509530D01*
Y512154D01*
X424197Y512810D01*
X426165D01*
X422230Y508874D02*
X420918D01*
X421574D01*
Y512810D01*
X422230Y512154D01*
X416982Y508874D02*
Y512810D01*
X418950Y510842D01*
X416326D01*
X423541Y628952D02*
X424853D01*
X424197D01*
Y625672D01*
X424853Y625016D01*
X425509D01*
X426165Y625672D01*
X422230Y625016D02*
Y628952D01*
X420918Y627640D01*
X419606Y628952D01*
Y625016D01*
X418294D02*
Y628952D01*
X416326D01*
X415670Y628296D01*
Y626984D01*
X416326Y626328D01*
X418294D01*
X423541Y670290D02*
X424853D01*
X424197D01*
Y667010D01*
X424853Y666354D01*
X425509D01*
X426165Y667010D01*
X422230Y666354D02*
Y670290D01*
X420918Y668978D01*
X419606Y670290D01*
Y666354D01*
X418294D02*
Y670290D01*
X416326D01*
X415670Y669634D01*
Y668322D01*
X416326Y667666D01*
X418294D01*
X426165Y304148D02*
Y300213D01*
X424197D01*
X423541Y300869D01*
Y303492D01*
X424197Y304148D01*
X426165D01*
X419606D02*
X422230D01*
Y302181D01*
X420918Y302836D01*
X420262D01*
X419606Y302181D01*
Y300869D01*
X420262Y300213D01*
X421574D01*
X422230Y300869D01*
X426165Y323833D02*
Y319898D01*
X424197D01*
X423541Y320554D01*
Y323177D01*
X424197Y323833D01*
X426165D01*
X419606D02*
X420918Y323177D01*
X422230Y321866D01*
Y320554D01*
X421574Y319898D01*
X420262D01*
X419606Y320554D01*
Y321210D01*
X420262Y321866D01*
X422230D01*
X426165Y343518D02*
Y339583D01*
X424197D01*
X423541Y340239D01*
Y342863D01*
X424197Y343518D01*
X426165D01*
X422230D02*
X419606D01*
Y342863D01*
X422230Y340239D01*
Y339583D01*
X426165Y284463D02*
Y280528D01*
X424197D01*
X423541Y281184D01*
Y283807D01*
X424197Y284463D01*
X426165D01*
X420262Y280528D02*
Y284463D01*
X422230Y282495D01*
X419606D01*
X426165Y163073D02*
Y167009D01*
X424197D01*
X423541Y166353D01*
Y165041D01*
X424197Y164385D01*
X426165D01*
X419606Y167009D02*
X422230D01*
Y163073D01*
X419606D01*
X422230Y165041D02*
X420918D01*
X418294Y162417D02*
X415670D01*
X414358Y167009D02*
X411734D01*
Y166353D01*
X414358Y163729D01*
Y163073D01*
X426165Y182758D02*
Y186694D01*
X424197D01*
X423541Y186038D01*
Y184726D01*
X424197Y184070D01*
X426165D01*
X419606Y186694D02*
X422230D01*
Y182758D01*
X419606D01*
X422230Y184726D02*
X420918D01*
X418294Y182102D02*
X415670D01*
X414358Y186038D02*
X413702Y186694D01*
X412390D01*
X411734Y186038D01*
Y185382D01*
X412390Y184726D01*
X411734Y184070D01*
Y183414D01*
X412390Y182758D01*
X413702D01*
X414358Y183414D01*
Y184070D01*
X413702Y184726D01*
X414358Y185382D01*
Y186038D01*
X413702Y184726D02*
X412390D01*
X426165Y205723D02*
Y201787D01*
X424197D01*
X423541Y202443D01*
Y205067D01*
X424197Y205723D01*
X426165D01*
X422230Y205067D02*
X421574Y205723D01*
X420262D01*
X419606Y205067D01*
Y202443D01*
X420262Y201787D01*
X421574D01*
X422230Y202443D01*
Y205067D01*
X426165Y266747D02*
Y262811D01*
X424197D01*
X423541Y263467D01*
Y266091D01*
X424197Y266747D01*
X426165D01*
X422230Y266091D02*
X421574Y266747D01*
X420262D01*
X419606Y266091D01*
Y265435D01*
X420262Y264779D01*
X420918D01*
X420262D01*
X419606Y264123D01*
Y263467D01*
X420262Y262811D01*
X421574D01*
X422230Y263467D01*
X426165Y247062D02*
Y243126D01*
X424197D01*
X423541Y243782D01*
Y246406D01*
X424197Y247062D01*
X426165D01*
X419606Y243126D02*
X422230D01*
X419606Y245750D01*
Y246406D01*
X420262Y247062D01*
X421574D01*
X422230Y246406D01*
X426165Y227377D02*
Y223441D01*
X424197D01*
X423541Y224097D01*
Y226721D01*
X424197Y227377D01*
X426165D01*
X422230Y223441D02*
X420918D01*
X421574D01*
Y227377D01*
X422230Y226721D01*
X426165Y105987D02*
Y109922D01*
X424197D01*
X423541Y109266D01*
Y107955D01*
X424197Y107299D01*
X426165D01*
X419606Y109922D02*
X422230D01*
Y105987D01*
X419606D01*
X422230Y107955D02*
X420918D01*
X418294Y105331D02*
X415670D01*
X414358Y105987D02*
X413046D01*
X413702D01*
Y109922D01*
X414358Y109266D01*
X409110Y105987D02*
Y109922D01*
X411078Y107955D01*
X408455D01*
X429315Y122522D02*
Y126458D01*
X427347D01*
X426691Y125802D01*
Y124490D01*
X427347Y123834D01*
X429315D01*
X422755Y126458D02*
X425379D01*
Y122522D01*
X422755D01*
X425379Y124490D02*
X424067D01*
X421444Y121866D02*
X418820D01*
X417508Y122522D02*
X416196D01*
X416852D01*
Y126458D01*
X417508Y125802D01*
X411604Y122522D02*
X414228D01*
X411604Y125146D01*
Y125802D01*
X412260Y126458D01*
X413572D01*
X414228Y125802D01*
X429709Y142601D02*
Y146537D01*
X427741D01*
X427085Y145881D01*
Y144569D01*
X427741Y143913D01*
X429709D01*
X423149Y146537D02*
X425773D01*
Y142601D01*
X423149D01*
X425773Y144569D02*
X424461D01*
X421837Y141945D02*
X419213D01*
X417901Y142601D02*
X416589D01*
X417245D01*
Y146537D01*
X417901Y145881D01*
X414622D02*
X413966Y146537D01*
X412654D01*
X411998Y145881D01*
Y143257D01*
X412654Y142601D01*
X413966D01*
X414622Y143257D01*
Y145881D01*
X426165Y84333D02*
Y88269D01*
X424197D01*
X423541Y87613D01*
Y86301D01*
X424197Y85645D01*
X426165D01*
X419606Y88269D02*
X422230D01*
Y84333D01*
X419606D01*
X422230Y86301D02*
X420918D01*
X418294Y83677D02*
X415670D01*
X414358Y84333D02*
X413046D01*
X413702D01*
Y88269D01*
X414358Y87613D01*
X408455Y88269D02*
X411078D01*
Y86301D01*
X409766Y86957D01*
X409110D01*
X408455Y86301D01*
Y84989D01*
X409110Y84333D01*
X410422D01*
X411078Y84989D01*
X426165Y64648D02*
Y68584D01*
X424197D01*
X423541Y67928D01*
Y66616D01*
X424197Y65960D01*
X426165D01*
X422230Y68584D02*
Y64648D01*
X420262D01*
X419606Y65304D01*
Y65960D01*
X420262Y66616D01*
X422230D01*
X420262D01*
X419606Y67272D01*
Y67928D01*
X420262Y68584D01*
X422230D01*
X418294Y63992D02*
X415670D01*
X414358Y64648D02*
X413046D01*
X413702D01*
Y68584D01*
X414358Y67928D01*
X411078D02*
X410422Y68584D01*
X409110D01*
X408455Y67928D01*
Y65304D01*
X409110Y64648D01*
X410422D01*
X411078Y65304D01*
Y67928D01*
X426165Y44963D02*
Y48899D01*
X424197D01*
X423541Y48243D01*
Y46931D01*
X424197Y46275D01*
X426165D01*
X422230Y48899D02*
Y44963D01*
X420262D01*
X419606Y45619D01*
Y46275D01*
X420262Y46931D01*
X422230D01*
X420262D01*
X419606Y47587D01*
Y48243D01*
X420262Y48899D01*
X422230D01*
X418294Y44307D02*
X415670D01*
X414358Y44963D02*
X413046D01*
X413702D01*
Y48899D01*
X414358Y48243D01*
X411078Y44963D02*
X409766D01*
X410422D01*
Y48899D01*
X411078Y48243D01*
X336300Y363798D02*
X332301Y357800D01*
Y363798D02*
X336300Y357800D01*
X330302D02*
X328303D01*
X329302D01*
Y363798D01*
X330302Y362798D01*
X325304Y357800D02*
X323304D01*
X324304D01*
Y363798D01*
X325304Y362798D01*
X444600Y710298D02*
X440601Y704300D01*
Y710298D02*
X444600Y704300D01*
X438602D02*
X436603D01*
X437602D01*
Y710298D01*
X438602Y709298D01*
X433604D02*
X432604Y710298D01*
X430605D01*
X429605Y709298D01*
Y705300D01*
X430605Y704300D01*
X432604D01*
X433604Y705300D01*
Y709298D01*
X128600Y513398D02*
X124601Y507400D01*
Y513398D02*
X128600Y507400D01*
X118603Y513398D02*
X120603Y512398D01*
X122602Y510399D01*
Y508400D01*
X121602Y507400D01*
X119603D01*
X118603Y508400D01*
Y509399D01*
X119603Y510399D01*
X122602D01*
X439600Y363798D02*
X435601Y357800D01*
Y363798D02*
X439600Y357800D01*
X429603Y363798D02*
X433602D01*
Y360799D01*
X431603Y361799D01*
X430603D01*
X429603Y360799D01*
Y358800D01*
X430603Y357800D01*
X432602D01*
X433602Y358800D01*
X258500Y363798D02*
X254501Y357800D01*
Y363798D02*
X258500Y357800D01*
X249503D02*
Y363798D01*
X252502Y360799D01*
X248503D01*
X333300Y710298D02*
X329301Y704300D01*
Y710298D02*
X333300Y704300D01*
X327302Y709298D02*
X326302Y710298D01*
X324303D01*
X323303Y709298D01*
Y708299D01*
X324303Y707299D01*
X325303D01*
X324303D01*
X323303Y706299D01*
Y705300D01*
X324303Y704300D01*
X326302D01*
X327302Y705300D01*
X256500Y710298D02*
X252501Y704300D01*
Y710298D02*
X256500Y704300D01*
X250502D02*
X248503D01*
X249502D01*
Y710298D01*
X250502Y709298D01*
M02*
