G04*
G04 #@! TF.GenerationSoftware,Altium Limited,Altium Designer,24.4.1 (13)*
G04*
G04 Layer_Color=32768*
%FSLAX25Y25*%
%MOIN*%
G70*
G04*
G04 #@! TF.SameCoordinates,596A526C-B165-46D2-86D2-354CEF31AD50*
G04*
G04*
G04 #@! TF.FilePolarity,Positive*
G04*
G01*
G75*
%ADD11C,0.01000*%
%ADD21C,0.00300*%
D11*
X322835Y381890D02*
Y700787D01*
Y381890D02*
X385827D01*
Y700787D01*
X322835D02*
X385827D01*
X429134Y354331D02*
X492126D01*
Y35433D02*
Y354331D01*
X429134Y35433D02*
X492126D01*
X429134D02*
Y354331D01*
X429134Y700787D02*
X492126D01*
Y381890D02*
Y700787D01*
X429134Y381890D02*
X492126D01*
X429134D02*
Y700787D01*
X248031Y381890D02*
Y700787D01*
Y381890D02*
X311023D01*
Y700787D01*
X248031D02*
X311023D01*
X322835Y354331D02*
X385827D01*
Y35433D02*
Y354331D01*
X322835Y35433D02*
X385827D01*
X322835D02*
Y354331D01*
X248031D02*
X311023D01*
Y35433D02*
Y354331D01*
X248031Y35433D02*
X311023D01*
X248031D02*
Y354331D01*
X181103Y185039D02*
Y503937D01*
X118110Y185039D02*
Y503937D01*
X181103D01*
X118110Y185039D02*
X181103D01*
D21*
X157362Y639685D02*
Y644685D01*
Y634685D02*
Y639685D01*
X147362Y634685D02*
X157362D01*
X147362D02*
Y644685D01*
X157362D01*
Y649685D02*
Y654685D01*
Y644685D02*
Y649685D01*
X147362Y644685D02*
X157362D01*
X147362D02*
Y654685D01*
X157362D01*
Y619685D02*
Y624685D01*
Y614685D02*
Y619685D01*
X147362Y614685D02*
X157362D01*
X147362D02*
Y624685D01*
X157362D01*
Y629685D02*
Y634685D01*
Y624685D02*
Y629685D01*
X147362Y624685D02*
X157362D01*
X147362D02*
Y634685D01*
X157362D01*
Y609685D02*
Y614685D01*
Y604685D02*
Y609685D01*
X147362Y604685D02*
X157362D01*
X147362D02*
Y614685D01*
X157362D01*
Y659685D02*
Y664685D01*
Y654685D02*
Y659685D01*
X147362Y654685D02*
X157362D01*
X147362D02*
Y664685D01*
X157362D01*
X108150Y639685D02*
Y644685D01*
Y634685D02*
Y639685D01*
X98150Y634685D02*
X108150D01*
X98150D02*
Y644685D01*
X108150D01*
Y629685D02*
Y634685D01*
Y624685D02*
Y629685D01*
X98150Y624685D02*
X108150D01*
X98150D02*
Y634685D01*
X108150D01*
Y619685D02*
Y624685D01*
Y614685D02*
Y619685D01*
X98150Y614685D02*
X108150D01*
X98150D02*
Y624685D01*
X108150D01*
Y609685D02*
Y614685D01*
Y604685D02*
Y609685D01*
X98150Y604685D02*
X108150D01*
X98150D02*
Y614685D01*
X108150D01*
Y649685D02*
Y654685D01*
Y644685D02*
Y649685D01*
X98150Y644685D02*
X108150D01*
X98150D02*
Y654685D01*
X108150D01*
Y659685D02*
Y664685D01*
Y654685D02*
Y659685D01*
X98150Y654685D02*
X108150D01*
X98150D02*
Y664685D01*
X108150D01*
M02*
