G04*
G04 #@! TF.GenerationSoftware,Altium Limited,Altium Designer,24.4.1 (13)*
G04*
G04 Layer_Color=65535*
%FSLAX25Y25*%
%MOIN*%
G70*
G04*
G04 #@! TF.SameCoordinates,F4A71C90-CAAB-4947-AAB5-C65089E2A4D9*
G04*
G04*
G04 #@! TF.FilePolarity,Positive*
G04*
G01*
G75*
%ADD10C,0.03937*%
%ADD11C,0.01000*%
G36*
X102531Y687865D02*
X102499Y687833D01*
X102467Y687865D01*
X102499Y687897D01*
X102531Y687865D01*
D02*
G37*
G36*
X103533Y694101D02*
X103921Y693842D01*
X104373Y693584D01*
X104567Y693390D01*
X104696Y693325D01*
X105084Y692937D01*
X105181Y692905D01*
X105245Y692776D01*
X105601Y692550D01*
X105730Y692420D01*
X105859Y692356D01*
X106118Y692097D01*
X106247Y692033D01*
X106990Y691290D01*
X107054Y691160D01*
X107378Y690708D01*
X107442Y690579D01*
X107668Y690288D01*
X107798Y690224D01*
X107927Y690094D01*
X108056Y690030D01*
X108508Y689771D01*
X108864Y689480D01*
X109058Y689287D01*
X109122Y689157D01*
X109704Y688576D01*
X109768Y688447D01*
X110285Y687929D01*
X110350Y687800D01*
X110447Y687703D01*
X110576Y687639D01*
X110770Y687445D01*
X110899Y687380D01*
X111158Y687122D01*
X111998Y686669D01*
X113613Y685894D01*
X114453Y685442D01*
X114906Y685119D01*
X115035Y685054D01*
X115649Y684440D01*
X115713Y684311D01*
X115907Y684117D01*
X115972Y683988D01*
X116166Y683794D01*
X116424Y683342D01*
X116747Y682889D01*
X117006Y682437D01*
X117200Y682243D01*
X117135Y681855D01*
X116876Y681597D01*
X116812Y681468D01*
X116553Y681209D01*
X116489Y681080D01*
X116295Y680886D01*
X116230Y680757D01*
X115584Y679852D01*
X115519Y679594D01*
X115326Y679271D01*
X115003Y678560D01*
X114938Y678108D01*
X114873Y677914D01*
X114809Y677655D01*
X114744Y677332D01*
Y677268D01*
X114680Y677074D01*
X114615Y676815D01*
X114453Y676524D01*
X114195Y676589D01*
X113872Y676783D01*
X113549Y676718D01*
X113193Y676428D01*
X113032Y676266D01*
X112902Y676201D01*
X112773Y676072D01*
X112644Y676008D01*
X112062Y675749D01*
X111546Y675620D01*
X111093Y675491D01*
X110835Y675426D01*
X109995Y675361D01*
X109348Y675297D01*
X109155Y675232D01*
X108153Y675135D01*
X106990Y675006D01*
X106570Y674974D01*
X106376Y675038D01*
X102111Y675103D01*
X102014Y675200D01*
X101950Y675781D01*
X101659Y676137D01*
X101336Y676266D01*
X100302Y676201D01*
X100108Y676137D01*
X99947Y676169D01*
X100011Y676363D01*
X100140Y676686D01*
X100205Y676944D01*
X100140Y677397D01*
X100076Y678237D01*
X99785Y678528D01*
X99333Y678722D01*
X99010Y678851D01*
X98848Y679012D01*
X98913Y679529D01*
X99074Y679691D01*
X99720Y679626D01*
X99817Y679723D01*
X99882Y679852D01*
X100140Y680111D01*
X100205Y680628D01*
X100431Y680660D01*
X100690Y680402D01*
X100916Y680369D01*
X101142Y680466D01*
X101304Y680628D01*
X101368Y680757D01*
X101433Y680951D01*
X101562Y681403D01*
X101594Y681694D01*
X101530Y682017D01*
X101497Y682243D01*
X101724Y682469D01*
X102693Y682534D01*
X102984Y682760D01*
X103048Y683019D01*
X102790Y683600D01*
X102402Y684440D01*
X102014Y685151D01*
X101917Y685248D01*
X101788Y685313D01*
X101691Y685409D01*
X101756Y685603D01*
X101950Y685797D01*
X102079Y686314D01*
X102176Y686411D01*
X102499Y686605D01*
X102596Y686896D01*
X102661Y687283D01*
X102596Y687477D01*
X102564Y687833D01*
X103145Y687574D01*
X104179Y687639D01*
X104470Y687865D01*
X104534Y688123D01*
X104470Y688576D01*
X104341Y688705D01*
X104276Y688834D01*
X103953Y689157D01*
X104017Y689480D01*
X104211Y689674D01*
X104147Y690191D01*
X103274Y691063D01*
X102951Y691193D01*
X102758Y691257D01*
X102725Y691419D01*
X102919Y691613D01*
X102951Y691839D01*
X102919Y692194D01*
X103436Y692711D01*
X103565Y693034D01*
X103501Y693422D01*
X103242Y694004D01*
X103274Y694165D01*
X103533Y694101D01*
D02*
G37*
G36*
X160655Y687833D02*
X161818Y687768D01*
X162270Y687574D01*
X162529Y687509D01*
X163046Y687445D01*
X163498Y687251D01*
X163757Y687186D01*
X164661Y687122D01*
X164855Y687057D01*
X165598Y686960D01*
X166826Y686896D01*
X167149Y686831D01*
X167666Y686702D01*
X168538Y686605D01*
X169766Y686540D01*
X170186Y686443D01*
X170477Y686346D01*
X171091Y686249D01*
X171446Y686088D01*
X171963Y685959D01*
X172286Y685894D01*
X172415Y685765D01*
X172739Y685571D01*
X173094Y685280D01*
X173449Y685054D01*
X173805Y684699D01*
X173934Y684246D01*
X174031Y683826D01*
X174193Y683471D01*
X174386Y683148D01*
X174516Y683019D01*
X174612Y682663D01*
X174774Y682308D01*
X175000Y681694D01*
X175162Y681339D01*
X175388Y680725D01*
X175743Y679982D01*
X175840Y679626D01*
X175970Y679303D01*
X176293Y678463D01*
X176390Y678108D01*
X176454Y677655D01*
X176648Y677009D01*
X176713Y676557D01*
X176583Y676234D01*
X176454Y676169D01*
X176519Y675652D01*
X176777Y675071D01*
X176907Y674748D01*
X177068Y674069D01*
X177165Y673714D01*
X177230Y673455D01*
X177327Y673100D01*
X177391Y672324D01*
X177456Y671807D01*
X177520Y669675D01*
X177553Y669513D01*
X177359Y669061D01*
X177197Y668641D01*
X177068Y668318D01*
X176971Y668027D01*
X176810Y667607D01*
X176680Y667284D01*
X176422Y666896D01*
X176260Y666670D01*
X175873Y666283D01*
X175808Y666153D01*
X175711Y666056D01*
X175517Y665992D01*
X175420Y665895D01*
X175356Y665766D01*
X175226Y665636D01*
X175259Y665475D01*
X175453Y665539D01*
X175970Y666056D01*
X176228Y665992D01*
X176325Y665895D01*
X176260Y665443D01*
X176163Y664829D01*
X176099Y664182D01*
X176002Y663569D01*
X175937Y663375D01*
X175840Y662955D01*
X175776Y662696D01*
X175711Y662373D01*
X175582Y662050D01*
X175259Y661339D01*
X174968Y660725D01*
X174548Y660112D01*
X174386Y659885D01*
X174193Y659691D01*
X174128Y659562D01*
X173773Y659207D01*
X173643Y659142D01*
X173449Y658948D01*
X173320Y658884D01*
X173191Y658755D01*
X172351Y658367D01*
X172060Y658205D01*
X172254Y658011D01*
X172286Y657850D01*
X172125Y657624D01*
X171834Y657268D01*
X171446Y656881D01*
X171317Y656816D01*
X171091Y656655D01*
X171058Y656558D01*
X170736Y656428D01*
X168926Y656493D01*
X168732Y656558D01*
X168054Y656719D01*
X167763Y656816D01*
X167408Y656913D01*
X167052Y657074D01*
X166729Y657268D01*
X166697Y657624D01*
X167020Y658076D01*
X167149Y658399D01*
X167214Y658528D01*
X167408Y658981D01*
X167472Y659110D01*
X167666Y659304D01*
X167731Y659562D01*
X167989Y660144D01*
X168118Y660467D01*
X168377Y661049D01*
X168441Y661307D01*
X168571Y661436D01*
X168765Y661953D01*
X168894Y662276D01*
X168958Y662535D01*
X169055Y662890D01*
X169152Y662987D01*
X169249Y663342D01*
X169378Y663665D01*
X169540Y664021D01*
X169637Y664764D01*
X169734Y664861D01*
X169863Y665313D01*
X169960Y665733D01*
X170025Y665992D01*
X170122Y666283D01*
X170154Y666573D01*
X170122Y666864D01*
X170509Y667575D01*
X170800Y667672D01*
X170994Y667607D01*
X171317Y667672D01*
X171608Y667963D01*
X172319Y669449D01*
X172383Y670160D01*
X172512Y670483D01*
X172545Y671420D01*
X172480Y671678D01*
X172383Y671775D01*
X172319Y672550D01*
X172125Y672744D01*
X171866Y673197D01*
X171575Y673487D01*
X171317Y673552D01*
X170574Y673520D01*
X170283Y673617D01*
X169831Y673681D01*
X169702Y673810D01*
X169443Y673875D01*
X169120Y674069D01*
X168894Y674295D01*
X168861Y674392D01*
X168538Y674521D01*
X168312Y674554D01*
X168054Y674489D01*
X167828Y674457D01*
X167375Y674651D01*
X166600Y674586D01*
X166148Y674780D01*
X165437Y674715D01*
X165308Y674586D01*
X165178Y674521D01*
X164661Y674198D01*
X164403Y674134D01*
X163014Y674166D01*
X162787Y674069D01*
X162658Y673940D01*
X162529Y673875D01*
X162206Y673487D01*
X162109Y673197D01*
X161851Y672615D01*
X161786Y672227D01*
X161721Y672034D01*
X161657Y671775D01*
X161721Y670160D01*
X161786Y669966D01*
X161851Y669707D01*
X162303Y668867D01*
X162594Y668576D01*
X163110Y668512D01*
X163272Y668350D01*
X163337Y668221D01*
X163724Y667510D01*
X163983Y667123D01*
X164144Y666832D01*
X164241Y666799D01*
X164306Y666670D01*
X164629Y666153D01*
X164758Y665830D01*
X164823Y665572D01*
X164758Y665313D01*
X164629Y665184D01*
X164565Y665055D01*
X164306Y664796D01*
X164241Y664667D01*
X164048Y664473D01*
X163789Y664021D01*
X163660Y663892D01*
X163595Y663762D01*
X163337Y663504D01*
X163272Y663375D01*
X163014Y663116D01*
X162949Y662987D01*
X162755Y662793D01*
X162690Y662664D01*
X162432Y662405D01*
X162367Y662276D01*
X162238Y662147D01*
X162174Y662018D01*
X161883Y661662D01*
X161624Y661275D01*
X161527Y661178D01*
X161463Y661049D01*
X161269Y660855D01*
X161011Y660402D01*
X160881Y660273D01*
X160817Y660144D01*
X160623Y659950D01*
X160429Y659627D01*
X160267Y659465D01*
X159880Y659530D01*
X159427Y659788D01*
X159169Y659853D01*
X158846Y659982D01*
X158264Y660241D01*
X157424Y660499D01*
X157101Y660564D01*
X156519Y660822D01*
X155906Y660919D01*
X155356Y661081D01*
X155098Y661145D01*
X154516Y661210D01*
X154387Y661339D01*
X153935Y661404D01*
X153676Y661469D01*
X152739Y661565D01*
X152384Y661662D01*
X152126Y661727D01*
X151221Y661792D01*
X150768Y661985D01*
X149928Y662050D01*
X149605Y662244D01*
X149024Y662632D01*
X148604Y662793D01*
X148507Y662890D01*
X148184Y663019D01*
X147602Y663278D01*
X147215Y663342D01*
X146762Y663536D01*
X146310Y663665D01*
X145890Y663762D01*
X145567Y663827D01*
X144242Y663989D01*
X143467Y664053D01*
X143273Y664118D01*
X142821Y664182D01*
X141981Y664247D01*
X139654Y664312D01*
X139557Y664603D01*
X139460Y664958D01*
X139234Y665378D01*
X139073Y665798D01*
X138911Y666153D01*
X138814Y666573D01*
X138717Y666929D01*
X138653Y667187D01*
X138717Y667575D01*
X139073Y667736D01*
X139525Y667672D01*
X139719Y667736D01*
X140623Y667801D01*
X140817Y667866D01*
X141270Y667930D01*
X141528Y667995D01*
X141657Y668059D01*
X142110Y668253D01*
X142368Y668318D01*
X143079Y668706D01*
X143208Y668835D01*
X143661Y669093D01*
X143790Y669223D01*
X143919Y669287D01*
X143984Y669417D01*
X144113Y669481D01*
X144759Y670127D01*
X144791Y670160D01*
X144856Y670289D01*
X145115Y670547D01*
X145308Y670870D01*
X145599Y671226D01*
X145793Y671614D01*
X145955Y671904D01*
X146051Y672260D01*
X146213Y672615D01*
X146310Y673810D01*
X146342Y676234D01*
X146278Y676428D01*
X146213Y677074D01*
X146148Y677591D01*
X146019Y677914D01*
X145922Y678463D01*
X145761Y678818D01*
X145599Y679497D01*
X145438Y679658D01*
X145276Y680078D01*
X145115Y680240D01*
X145050Y680499D01*
X144791Y680757D01*
X144727Y680886D01*
X144468Y681145D01*
X144404Y681274D01*
X144177Y681435D01*
X143984Y681629D01*
X143854Y681694D01*
X143661Y681888D01*
X142821Y682340D01*
X142498Y682469D01*
X142239Y682534D01*
X141787Y682728D01*
X141528Y682792D01*
X141140Y682857D01*
X140947Y682922D01*
X140656Y682954D01*
X140559Y682922D01*
X140365Y682986D01*
X139719Y683051D01*
X139331Y683115D01*
X139137Y683051D01*
X138782Y683212D01*
X138717Y683471D01*
X138782Y683988D01*
X138847Y684182D01*
X139008Y684602D01*
X139170Y684893D01*
X139364Y685216D01*
X140236Y686411D01*
X140527Y686443D01*
X140882Y686346D01*
X141334Y686282D01*
X141916Y686217D01*
X142110Y686153D01*
X142562Y686088D01*
X144533Y686056D01*
X145922Y686153D01*
X146116Y686217D01*
X146762Y686282D01*
X147602Y686346D01*
X148119Y686411D01*
X148313Y686476D01*
X148572Y686540D01*
X150058Y686605D01*
X150252Y686669D01*
X150510Y686734D01*
X150833Y686863D01*
X151673Y686928D01*
X152061Y686993D01*
X152384Y687122D01*
X152675Y687089D01*
X153547Y687186D01*
X154096Y687283D01*
X154516Y687445D01*
X154775Y687509D01*
X156326Y687574D01*
X156519Y687639D01*
X157133Y687736D01*
X160429Y687865D01*
X160461Y687897D01*
X160655Y687833D01*
D02*
G37*
G36*
X174806Y689254D02*
X175097Y688963D01*
X175291Y688640D01*
X175420Y688511D01*
X175453Y688027D01*
X175323Y687703D01*
X175226Y687606D01*
X175032Y687283D01*
X174806Y687057D01*
X174354Y687122D01*
X173999Y687477D01*
X173869Y687800D01*
X173805Y688059D01*
X173869Y688640D01*
X174031Y688931D01*
X174063Y688963D01*
X174160Y689060D01*
X174257Y689093D01*
X174322Y689222D01*
X174419Y689319D01*
X174806Y689254D01*
D02*
G37*
G36*
X161947Y694811D02*
X162690Y694714D01*
X163046Y694618D01*
X163660Y694521D01*
X163983Y694456D01*
X164241Y694391D01*
X164565Y694327D01*
X165081Y694198D01*
X165437Y694036D01*
X165921Y693939D01*
X166244Y693810D01*
X166955Y693616D01*
X167246Y693454D01*
X167698Y693325D01*
X168118Y693164D01*
X168732Y692873D01*
X169378Y692614D01*
X170348Y692162D01*
X171963Y691322D01*
X172933Y690805D01*
X173256Y690611D01*
X174160Y690094D01*
X174516Y689868D01*
X174451Y689610D01*
X174354Y689513D01*
X174225Y689448D01*
X173869Y689157D01*
X173805Y689028D01*
X173611Y688834D01*
X173353Y688253D01*
X173126Y687639D01*
X172965Y687283D01*
X172803Y686863D01*
X172706Y686766D01*
X172480Y686346D01*
X172351Y686282D01*
X172319Y686249D01*
X172092Y686217D01*
X171511Y686476D01*
X171058Y686540D01*
X170315Y686702D01*
X169928Y686766D01*
X169605Y686831D01*
X169346Y686896D01*
X168506Y686960D01*
X167989Y687025D01*
X167602Y687089D01*
X167020Y687154D01*
X165404Y687283D01*
X164694Y687413D01*
X164435Y687477D01*
X163918Y687542D01*
X163304Y687639D01*
X163110Y687703D01*
X162690Y687800D01*
X162367Y687865D01*
X162141Y687962D01*
X161818Y688091D01*
X161560Y688156D01*
X160914Y688414D01*
X160591Y688608D01*
X160203Y688867D01*
X159944Y688931D01*
X159912Y688705D01*
X160041Y688576D01*
X160106Y688447D01*
X160300Y688317D01*
X160235Y688188D01*
X159815Y688156D01*
X159686Y688220D01*
X159492Y688156D01*
X156972Y688091D01*
X156778Y688027D01*
X155970Y687865D01*
X155130Y687800D01*
X154290Y687671D01*
X153902Y687606D01*
X153386Y687542D01*
X152804Y687477D01*
X152061Y687251D01*
X151027Y687186D01*
X150833Y687122D01*
X150187Y687057D01*
X149993Y686993D01*
X148733Y686831D01*
X148410Y686766D01*
X147828Y686702D01*
X147505Y686637D01*
X147118Y686573D01*
X144145Y686443D01*
X143790Y686411D01*
X143596Y686476D01*
X141270Y686540D01*
X141076Y686605D01*
X140656Y686702D01*
X140462Y686896D01*
X140397Y687154D01*
X140527Y687477D01*
X140591Y687736D01*
X140785Y688188D01*
X140850Y688447D01*
X141044Y688640D01*
X141173Y688963D01*
X141302Y689093D01*
X141367Y689222D01*
X141819Y689803D01*
X142013Y689997D01*
X142077Y690127D01*
X142498Y690547D01*
X142627Y690611D01*
X142950Y690934D01*
X143079Y690999D01*
X143208Y691128D01*
X143338Y691193D01*
X143531Y691387D01*
X143661Y691451D01*
X143984Y691645D01*
X144371Y691903D01*
X144501Y691968D01*
X145858Y692614D01*
X146310Y692743D01*
X147150Y693002D01*
X147602Y693067D01*
X148895Y693131D01*
X149089Y693196D01*
X150381Y693325D01*
X151382Y693422D01*
X151899Y693487D01*
X152416Y693616D01*
X153289Y693713D01*
X154064Y693777D01*
X154258Y693842D01*
X154936Y693939D01*
X155583Y694004D01*
X156293Y694133D01*
X156552Y694198D01*
X157133Y694262D01*
X157909Y694391D01*
X158490Y694456D01*
X158814Y694521D01*
X159330Y694585D01*
X159718Y694650D01*
X160235Y694779D01*
X160752Y694844D01*
X161754Y694876D01*
X161947Y694811D01*
D02*
G37*
G36*
X180428Y687574D02*
X180880Y687316D01*
X181074Y687122D01*
X181397Y686928D01*
X181850Y686605D01*
X181979Y686476D01*
X182237Y686411D01*
X182431Y686217D01*
X182884Y685959D01*
X183853Y685442D01*
X184951Y684925D01*
X185598Y684666D01*
X185856Y684602D01*
X186276Y684505D01*
X186696Y684343D01*
X186825D01*
X187019Y684279D01*
X187504Y684182D01*
X187795Y684085D01*
X188667Y683988D01*
X189507Y683923D01*
X189992Y683891D01*
X190185Y683955D01*
X191381Y683794D01*
X192253Y683697D01*
X194353Y683600D01*
X195193Y683535D01*
X197584Y683471D01*
X201526Y683406D01*
X202947Y683342D01*
X204240Y683277D01*
X205661Y683212D01*
X208537Y683180D01*
X208731Y683245D01*
X209571Y683309D01*
X211768Y683374D01*
X211962Y683439D01*
X213286Y683535D01*
X213609Y683600D01*
X213997Y683665D01*
X214288Y683762D01*
X214385Y683665D01*
X214320Y683406D01*
X214191Y683277D01*
X214126Y681855D01*
X214223Y680854D01*
X214288Y680595D01*
X214385Y680240D01*
X214482Y679820D01*
X214611Y679497D01*
X214773Y679077D01*
X214966Y678754D01*
X215225Y678301D01*
X215483Y677914D01*
X215548Y677784D01*
X215677Y677655D01*
X215742Y677526D01*
X215936Y677332D01*
X216000Y677203D01*
X216323Y676880D01*
X216388Y676751D01*
X216647Y676492D01*
X216711Y676363D01*
X217228Y675846D01*
X217422Y675523D01*
X217551Y675394D01*
X217487Y675006D01*
X217390Y674909D01*
X215580Y674844D01*
X215386Y674780D01*
X214256Y674683D01*
X213674Y674618D01*
X212446Y674554D01*
X211865Y674489D01*
X211542Y674424D01*
X210831Y674360D01*
X209991Y674295D01*
X208957Y674230D01*
X208117Y674166D01*
X207342Y674037D01*
X206922Y674004D01*
X206728Y674069D01*
X205112Y674004D01*
X204854Y673940D01*
X203981Y673843D01*
X203464Y673778D01*
X203109Y673681D01*
X202851Y673617D01*
X201752Y673552D01*
X201558Y673487D01*
X200944Y673390D01*
X200621Y673326D01*
X200104Y673261D01*
X199523Y673197D01*
X199200Y673132D01*
X195969Y673003D01*
X195064Y672938D01*
X194289Y672809D01*
X193933Y672712D01*
X193642Y672680D01*
X193610Y672712D01*
X193546Y672647D01*
X193352Y672712D01*
X192803Y672615D01*
X192253Y672453D01*
X191672Y672389D01*
X190961Y672066D01*
X189475Y672001D01*
X188312Y671484D01*
X187988Y671355D01*
X187407Y671097D01*
X187278Y671032D01*
X187148Y670903D01*
X186567Y670580D01*
X186405Y670483D01*
X186341Y670224D01*
X186405Y670030D01*
X186502Y669933D01*
X186954Y669998D01*
X187116Y670160D01*
X187148Y670257D01*
X187568Y670418D01*
X187924Y670580D01*
X188344Y670741D01*
X188505Y670903D01*
X188958Y670967D01*
X189927Y670903D01*
X190121Y670838D01*
X190573Y670644D01*
X191025Y670580D01*
X191478Y670386D01*
X192318Y670063D01*
X192673Y669966D01*
X192996Y669837D01*
X193287Y669740D01*
X193642Y669643D01*
X193966Y669513D01*
X194321Y669417D01*
X194580Y669352D01*
X195096Y669287D01*
X195290Y669223D01*
X196130Y669158D01*
X198909Y669223D01*
X199103Y669287D01*
X199846Y669320D01*
X200847Y669287D01*
X201041Y669352D01*
X204046Y669384D01*
X204078Y669352D01*
X204272Y669417D01*
X204466Y669352D01*
X205823Y669287D01*
X206017Y669223D01*
X207051Y669158D01*
X207245Y669093D01*
X207891Y669158D01*
X208085Y669093D01*
X209248Y669029D01*
X209442Y668964D01*
X211542Y668803D01*
X213222Y668738D01*
X214094Y668641D01*
X214352Y668576D01*
X216356Y668512D01*
X216517Y668415D01*
X216582Y668221D01*
X216517Y668027D01*
X216453Y666541D01*
X216323Y666218D01*
X216259Y665960D01*
X216065Y665766D01*
X216000Y665507D01*
X215742Y665119D01*
X215613Y664796D01*
X215354Y664409D01*
X215289Y664150D01*
X215031Y663569D01*
X214966Y663310D01*
X214773Y662858D01*
X214579Y661759D01*
X214643Y659950D01*
X214708Y659756D01*
X214643Y659562D01*
X214546Y659530D01*
X214223Y659659D01*
X213900Y659853D01*
X213577Y659982D01*
X212349Y660047D01*
X211122Y659982D01*
X209862Y659885D01*
X209345Y659821D01*
X209021Y659756D01*
X208149Y659659D01*
X205371Y659595D01*
X205177Y659530D01*
X203723Y659433D01*
X202431Y659368D01*
X201914Y659304D01*
X201364Y659078D01*
X200137Y659013D01*
X199943Y658948D01*
X199652Y658916D01*
X199167Y658948D01*
X198974Y658884D01*
X196324Y658819D01*
X196130Y658755D01*
X193642Y658658D01*
X193255Y658593D01*
X192996Y658528D01*
X191187Y658464D01*
X190088Y658399D01*
X188925Y658334D01*
X188344Y658270D01*
X187633Y658205D01*
X186470Y658141D01*
X184984Y658076D01*
X184337Y658011D01*
X183627Y657947D01*
X182270Y657882D01*
X181624Y657818D01*
X180783Y657688D01*
X180428Y657591D01*
X179911Y657462D01*
X179556Y657365D01*
X179265Y657268D01*
X179007Y657204D01*
X178328Y657107D01*
X178070Y657042D01*
X177746Y656978D01*
X176874Y656881D01*
X175905Y656945D01*
X175582Y657074D01*
X174936Y657139D01*
X174709Y657301D01*
X174774Y657818D01*
X174645Y658076D01*
X174742Y658173D01*
X175129Y658238D01*
X175873Y658787D01*
X176260Y659498D01*
X176583Y660208D01*
X176648Y660467D01*
X176777Y660790D01*
X176842Y661113D01*
X177036Y661436D01*
X177133Y662050D01*
X177359Y662599D01*
X177553Y663052D01*
X177488Y663439D01*
X177391Y663536D01*
X176939Y663601D01*
X176616Y663536D01*
X176519Y663633D01*
X176551Y663859D01*
X176874Y663795D01*
X176939Y663730D01*
X177133Y663795D01*
X177779Y663859D01*
X177876Y663956D01*
X178070Y664409D01*
X178328Y665055D01*
X178393Y665313D01*
X178457Y665701D01*
X178651Y666153D01*
X178748Y666832D01*
X178845Y667187D01*
X178942Y668835D01*
X179071Y669158D01*
X179168Y669255D01*
X179427Y670160D01*
X179556Y671064D01*
X179394Y672841D01*
X179330Y673100D01*
X179297Y673907D01*
X179362Y674101D01*
X179265Y675491D01*
X179200Y675814D01*
X179007Y676331D01*
X178942Y676589D01*
X178813Y676912D01*
X178586Y677397D01*
X178490Y677494D01*
X177488Y677526D01*
X177197Y677429D01*
X176971Y677591D01*
X177036Y677720D01*
X177294Y677784D01*
X177327Y677817D01*
X177520Y677752D01*
X177714Y677817D01*
X178166Y677881D01*
X178328Y677978D01*
X178393Y678237D01*
X178296Y678980D01*
X178231Y679238D01*
X178070Y679788D01*
X177973Y680143D01*
X177811Y680434D01*
X177585Y681048D01*
X177230Y681597D01*
X177100Y681920D01*
X177036Y682178D01*
X177003Y682598D01*
X177068Y682728D01*
X177230Y682760D01*
X177456Y682340D01*
X177650Y682405D01*
X178005Y682760D01*
X178166Y683051D01*
X178296Y683115D01*
X178490Y683568D01*
X178586Y683600D01*
X178780Y684117D01*
X178910Y684246D01*
X178974Y684505D01*
X179071Y684860D01*
X179168Y684957D01*
X179265Y685313D01*
X179362Y685603D01*
X179427Y685991D01*
X179556Y686314D01*
X179620Y687348D01*
X179653Y687639D01*
X180428Y687574D01*
D02*
G37*
G36*
X126698Y684246D02*
X127345Y684182D01*
X127700Y684085D01*
X127894Y684020D01*
X127958D01*
X128088Y683891D01*
X128217Y683826D01*
X128669Y683503D01*
X128992Y683309D01*
X129122Y683180D01*
X129251Y683115D01*
X129380Y682986D01*
X129509Y682922D01*
X129962Y682598D01*
X130220Y682534D01*
X130866Y682469D01*
X131609Y682372D01*
X132320Y682308D01*
X133031Y682178D01*
X133677Y682114D01*
X134194Y682049D01*
X134582Y681985D01*
X136488Y681888D01*
X137845Y681952D01*
X138459Y682372D01*
X138588Y682502D01*
X138620Y682598D01*
X138750Y682663D01*
X138944Y682728D01*
X139299Y682760D01*
X140171Y682663D01*
X140623Y682598D01*
X141237Y682502D01*
X141819Y682437D01*
X143014Y681888D01*
X143144Y681823D01*
X144016Y681209D01*
X144081Y681080D01*
X144242Y680919D01*
X144371Y680854D01*
X144533Y680628D01*
X144662Y680499D01*
X144856Y680175D01*
X144985Y680046D01*
X145115Y679723D01*
X145179Y679594D01*
X145373Y679142D01*
X145631Y678689D01*
X145696Y678495D01*
X145761Y677720D01*
X145825Y677526D01*
X145890Y677268D01*
X146019Y676944D01*
X146051Y674263D01*
X145987Y672906D01*
X145825Y672550D01*
X145761Y672292D01*
X145599Y671872D01*
X145438Y671646D01*
X145179Y671194D01*
X144888Y670838D01*
X144791Y670741D01*
X144597Y670418D01*
X143661Y669481D01*
X143531Y669417D01*
X143402Y669287D01*
X143273Y669223D01*
X142821Y668900D01*
X142562Y668835D01*
X142433Y668706D01*
X141787Y668447D01*
X141593Y668383D01*
X141334Y668318D01*
X140850Y668221D01*
X140591Y668156D01*
X140171Y667995D01*
X138491Y668059D01*
X138103Y668318D01*
X137005Y668835D01*
X136747Y668900D01*
X136100Y668964D01*
X134226Y668900D01*
X134032Y668835D01*
X133354Y668738D01*
X132708Y668609D01*
X131997Y668544D01*
X131351Y668415D01*
X130834Y668350D01*
X130446Y668286D01*
X129929Y668221D01*
X129283Y667833D01*
X129186Y667736D01*
X128863Y667543D01*
X128669Y667349D01*
X128540Y667284D01*
X128346Y667090D01*
X128217Y667026D01*
X127829Y666767D01*
X127409Y666670D01*
X126892Y666541D01*
X126246Y666476D01*
X126084Y666444D01*
X125761Y666638D01*
X125600Y666799D01*
X125535Y667058D01*
X125600Y667316D01*
X125826Y667478D01*
X126052Y667769D01*
X126117Y668221D01*
X125923Y668544D01*
X125697Y668770D01*
X125374Y668900D01*
X125115Y668964D01*
X124760Y669061D01*
X123984Y669190D01*
X123661Y669255D01*
X123274Y669320D01*
X122627Y669384D01*
X122014Y669417D01*
X121820Y669352D01*
X121367Y669287D01*
X120140Y669352D01*
X119946Y669417D01*
X119300Y669352D01*
X118847Y669158D01*
X118524Y669029D01*
X118266Y668964D01*
X117910Y669255D01*
X117846Y669384D01*
X117523Y669707D01*
X117458Y669837D01*
X117329Y669966D01*
X117264Y670095D01*
X116941Y670547D01*
X116876Y670677D01*
X116747Y670806D01*
X116424Y671387D01*
X115649Y673003D01*
X115455Y673455D01*
X115261Y674230D01*
X115164Y674651D01*
X115100Y674909D01*
X115035Y675749D01*
X115003Y676363D01*
X115067Y676557D01*
X115132Y677526D01*
X115261Y677849D01*
X115326Y678431D01*
X115649Y679142D01*
X116036Y679852D01*
X116166Y679982D01*
X116424Y680434D01*
X116553Y680563D01*
X116618Y680692D01*
X116876Y680951D01*
X116941Y681080D01*
X117200Y681339D01*
X117264Y681468D01*
X117458Y681662D01*
X117652Y681985D01*
X117846Y682178D01*
X117910Y682308D01*
X118137Y682469D01*
X118718Y682728D01*
X119300Y682469D01*
X121044Y681629D01*
X121497Y681565D01*
X121755Y681629D01*
X122530Y681694D01*
X122724Y681758D01*
X123468Y681855D01*
X123855Y681920D01*
X124178Y682049D01*
X124727Y682275D01*
X124986Y682340D01*
X125503Y682405D01*
X125923Y682631D01*
X125988Y682889D01*
X125923Y683148D01*
X125406Y683923D01*
X125471Y684117D01*
X125826Y684279D01*
X126084Y684343D01*
X126698Y684246D01*
D02*
G37*
G36*
X176486Y688414D02*
X176810Y688285D01*
X177068Y688220D01*
X177100Y688188D01*
X177359Y688123D01*
X177682Y688059D01*
X178393Y687929D01*
X178942Y687833D01*
X179104Y687736D01*
X179168Y687477D01*
X179104Y687025D01*
X179039Y686508D01*
X178974Y686314D01*
X178845Y685797D01*
X178780Y685409D01*
X178651Y685280D01*
X178586Y685022D01*
X178490Y684602D01*
X177811Y683342D01*
X177714Y683245D01*
X176810Y683180D01*
X176648Y683019D01*
X176583Y682889D01*
X176454Y682566D01*
X176422Y682275D01*
X176486Y681952D01*
X176583Y681855D01*
X176519Y681015D01*
X176293Y680725D01*
X176034Y680789D01*
X175873Y680951D01*
X175776Y681371D01*
X175646Y681694D01*
X175453Y682211D01*
X175356Y682308D01*
X175291Y682437D01*
X175000Y682792D01*
X174742Y683180D01*
X174645Y683277D01*
X174386Y683729D01*
X174257Y683859D01*
X174193Y684117D01*
X174096Y684666D01*
X173999Y685022D01*
X174160Y685442D01*
X174709Y686379D01*
X174903Y686573D01*
X174968Y686702D01*
X175097Y686831D01*
X175162Y686960D01*
X175485Y687413D01*
X175679Y687736D01*
X175873Y688188D01*
X175937Y688382D01*
X176034Y688479D01*
X176486Y688414D01*
D02*
G37*
G36*
X164823Y673907D02*
X164855Y673875D01*
X164887Y673843D01*
X165146Y673197D01*
X165243Y672712D01*
X165275Y672357D01*
X165211Y672163D01*
X165049Y671743D01*
X164855Y671226D01*
X164758Y671129D01*
X164694Y671000D01*
X164403Y670644D01*
X164144Y670257D01*
X163983Y669837D01*
X164080Y669417D01*
X164306Y669190D01*
X164500Y668738D01*
X164403Y668641D01*
X163886Y668706D01*
X163692Y668770D01*
X163175Y668835D01*
X163078Y669126D01*
X163337Y669384D01*
X163401Y669643D01*
X163337Y670030D01*
X163466Y670354D01*
X163401Y671710D01*
X163337Y671904D01*
X163401Y672163D01*
X163304Y672712D01*
X163240Y673423D01*
X163143Y673649D01*
X163369Y673940D01*
X163628Y674004D01*
X164144Y673940D01*
X164338Y674004D01*
X164823Y673907D01*
D02*
G37*
G36*
X216743Y673940D02*
X216776Y673907D01*
X216420Y673810D01*
X215709Y673746D01*
X215516Y673681D01*
X214966Y673714D01*
X214773Y673649D01*
X214837Y673455D01*
X214934Y673423D01*
X215128Y673487D01*
X215386Y673552D01*
X215580Y673487D01*
X215742Y673390D01*
X215419Y673067D01*
X215548Y672550D01*
X215645Y672130D01*
X215677Y671904D01*
X215613Y671710D01*
X215645Y671355D01*
X215580Y671097D01*
X215483Y671064D01*
X215516Y670967D01*
X215742Y670870D01*
X215677Y670677D01*
X215709Y670321D01*
X215451Y670257D01*
X215386Y670321D01*
X215322Y670257D01*
X214999Y670386D01*
X214902Y670354D01*
X214966Y670224D01*
X215193Y670063D01*
X215225Y669966D01*
X214837Y669772D01*
X214934Y669675D01*
X215193Y669610D01*
X215839Y669675D01*
X216129Y669513D01*
X216065Y669384D01*
X215968Y669287D01*
X213448Y669417D01*
X213254Y669481D01*
X210702Y669578D01*
X208892Y669643D01*
X208246Y669707D01*
X207374Y669804D01*
X205371Y669869D01*
X205177Y669933D01*
X204918Y669998D01*
X204725Y669933D01*
X204466Y669998D01*
X204078Y670063D01*
X203917Y670224D01*
X203852Y670483D01*
X203755Y670967D01*
X203691Y671226D01*
X203626Y671355D01*
X203594Y671387D01*
X203464Y671517D01*
X203400Y671775D01*
X203464Y672034D01*
X203723Y672615D01*
X203787Y673067D01*
X203884Y673164D01*
X204143Y673229D01*
X204595Y673294D01*
X206663Y673423D01*
X208731Y673487D01*
X208925Y673552D01*
X209829Y673617D01*
X210023Y673681D01*
X211832Y673746D01*
X212091Y673810D01*
X213965Y673875D01*
X214159Y673940D01*
X215774Y674004D01*
X216743Y673940D01*
D02*
G37*
G36*
X162820Y673261D02*
X162884Y672744D01*
X162949Y672550D01*
X163014Y671775D01*
X163078Y671581D01*
X163046Y671355D01*
X162723Y671420D01*
X162594Y671484D01*
X162432Y671323D01*
X162497Y671000D01*
X162626Y670870D01*
X162690Y670741D01*
X162755Y670547D01*
X162690Y670289D01*
X162594Y670192D01*
X162464Y670257D01*
X162367Y670354D01*
X162303Y670547D01*
Y670612D01*
X162109Y670806D01*
X162044Y671064D01*
X162109Y671581D01*
X162174Y671775D01*
X162238Y672550D01*
X162497Y673132D01*
X162561Y673326D01*
X162723Y673358D01*
X162820Y673261D01*
D02*
G37*
G36*
X216259Y670095D02*
X216194Y669901D01*
X215903Y669869D01*
X215677Y670030D01*
X215774Y670257D01*
X216097D01*
X216259Y670095D01*
D02*
G37*
G36*
X216711Y669513D02*
Y669384D01*
Y669320D01*
X216614Y669287D01*
X216388Y669449D01*
X216453Y669643D01*
X216549Y669675D01*
X216711Y669513D01*
D02*
G37*
G36*
X162949Y669643D02*
X162884Y669449D01*
Y669384D01*
X162658Y669158D01*
X162497Y669190D01*
X162432Y669449D01*
X162529Y669546D01*
X162852Y669675D01*
X162949Y669643D01*
D02*
G37*
G36*
X178813Y672906D02*
X178910Y672550D01*
X178974Y671129D01*
Y670935D01*
Y670870D01*
X178877Y670321D01*
X178780Y669707D01*
X178522Y669255D01*
X178425Y669158D01*
X178231Y669093D01*
X178037Y669158D01*
X177714Y669352D01*
X177682Y669449D01*
X177811Y669772D01*
X177746Y670030D01*
X177714Y671097D01*
X177746Y671387D01*
X177682Y671581D01*
X177650Y672777D01*
X177843Y672970D01*
X178813Y672906D01*
D02*
G37*
G36*
X166212Y674457D02*
X166374Y674295D01*
X166471Y673940D01*
X166632Y673390D01*
X166697Y673003D01*
X166923Y672583D01*
X167117Y672647D01*
X167214Y672744D01*
X167052Y673164D01*
X166988Y673423D01*
X166826Y673714D01*
X166891Y674230D01*
X166988Y674392D01*
X167149Y674424D01*
X167472Y674295D01*
X167731Y674037D01*
X167795Y673520D01*
X167925Y673197D01*
X167989Y672680D01*
X168215Y672389D01*
X168345Y672453D01*
X168377Y672874D01*
X168312Y673067D01*
X168118Y673714D01*
X168183Y674101D01*
X168280Y674198D01*
X168603Y674134D01*
X168732Y674004D01*
X168861Y673940D01*
X169023Y673778D01*
X169282Y673197D01*
X169346Y672938D01*
X169443Y672841D01*
X169605Y673003D01*
X169669Y673326D01*
X169766Y673358D01*
X170186Y672938D01*
X170283Y672453D01*
X170380Y672098D01*
X170509Y671323D01*
X170445Y670095D01*
X170380Y669901D01*
X170283Y669223D01*
X170122Y667769D01*
X170057Y667381D01*
X169992Y667187D01*
X169928Y666541D01*
X169863Y666347D01*
X169766Y665992D01*
X169605Y665636D01*
X169508Y665023D01*
X169443Y664764D01*
X169282Y664344D01*
X169185Y663989D01*
X169023Y663633D01*
X168861Y662955D01*
X168635Y662405D01*
X168377Y661824D01*
X168248Y661307D01*
X168054Y661113D01*
X167957Y660758D01*
X167860Y660532D01*
X167731Y660208D01*
X167472Y659756D01*
X167343Y659433D01*
X166891Y658593D01*
X166309Y657494D01*
X166180Y657365D01*
X166115Y657107D01*
X165792Y656655D01*
X165728Y656525D01*
X165598Y656396D01*
X165534Y656267D01*
X165243Y655911D01*
X165081Y655685D01*
X164887Y655491D01*
X164823Y655362D01*
X164597Y655201D01*
X164274Y654878D01*
X164144Y654813D01*
X164015Y654684D01*
X163886Y654619D01*
X163434Y654296D01*
X163304Y654231D01*
X163110Y654037D01*
X162787Y653844D01*
X162658Y653714D01*
X162174Y653617D01*
X161657Y653488D01*
X161140Y653424D01*
X160364Y653359D01*
X159815Y653327D01*
X159621Y653391D01*
X158394Y653456D01*
X158200Y653520D01*
X157683Y653585D01*
X157489Y653650D01*
X156939Y653747D01*
X156681Y653811D01*
X156390Y653908D01*
X155938Y654037D01*
X155680Y654102D01*
X155260Y654264D01*
X154904Y654360D01*
X154646Y654425D01*
X154064Y654684D01*
X153741Y654748D01*
X153289Y654942D01*
X152869Y655104D01*
X152772Y655201D01*
X152287Y655298D01*
X151189Y655685D01*
X150639Y655847D01*
X150025Y655944D01*
X149509Y656073D01*
X148733Y656202D01*
X148475Y656267D01*
X147958Y656331D01*
X147699Y656396D01*
X147118Y656461D01*
X145922Y656558D01*
X145728Y656622D01*
X145276Y656816D01*
X144307Y657333D01*
X143402Y657979D01*
X143208Y658173D01*
X143079Y658238D01*
X141754Y659562D01*
X141690Y659691D01*
X141367Y660015D01*
X141173Y660338D01*
X141044Y660467D01*
X140979Y660596D01*
X140850Y660725D01*
X140333Y661695D01*
X140074Y662276D01*
X139945Y662599D01*
X139751Y663375D01*
X139816Y663827D01*
X140107Y663924D01*
X140365Y663859D01*
X143790Y663795D01*
X143984Y663730D01*
X144630Y663665D01*
X144888Y663601D01*
X145599Y663536D01*
X146051Y663342D01*
X146504Y663278D01*
X146859Y663181D01*
X147764Y662858D01*
X147861Y662761D01*
X148313Y662632D01*
X149024Y662244D01*
X149153Y662115D01*
X149735Y661792D01*
X149928Y661727D01*
X150187Y661662D01*
X150833Y661598D01*
X151027Y661533D01*
X151673Y661469D01*
X152449Y661339D01*
X152901Y661275D01*
X153095Y661210D01*
X153353Y661145D01*
X153806Y661081D01*
X154613Y660919D01*
X154872Y660855D01*
X155389Y660790D01*
X155647Y660725D01*
X155938Y660564D01*
X156196Y660499D01*
X156713Y660435D01*
X157166Y660241D01*
X157747Y660112D01*
X157877Y659982D01*
X158329Y659853D01*
X158684Y659756D01*
X159040Y659595D01*
X159104D01*
X159233Y659530D01*
X159621Y659271D01*
X159880Y659207D01*
X159912Y658981D01*
X159653Y658722D01*
X159589Y658593D01*
X159460Y658270D01*
X159524Y658141D01*
X159557Y658108D01*
X159912Y658334D01*
X160170Y658787D01*
X160364Y658981D01*
X160429Y659110D01*
X160752Y659562D01*
X160881Y659691D01*
X160946Y659821D01*
X161269Y660273D01*
X161334Y660402D01*
X161527Y660596D01*
X161592Y660725D01*
X161721Y660855D01*
X161786Y660984D01*
X162077Y661339D01*
X162303Y661695D01*
X162432Y661824D01*
X162497Y661953D01*
X162690Y662147D01*
X162755Y662276D01*
X163046Y662632D01*
X163143Y662729D01*
X163207Y662858D01*
X163401Y663052D01*
X163466Y663181D01*
X163563Y663278D01*
X163660Y663310D01*
X163724Y663439D01*
X163854Y663569D01*
X163918Y663698D01*
X164048Y663827D01*
X164144Y664053D01*
X164241Y664085D01*
X164306Y664215D01*
X164629Y664667D01*
X164694Y664796D01*
X164920Y664958D01*
X165146Y665378D01*
X165081Y665766D01*
X164952Y665895D01*
X164887Y666347D01*
X164694Y666541D01*
X164435Y666993D01*
X163789Y667898D01*
X163724Y668092D01*
X163789Y668350D01*
X164015Y668383D01*
X164338Y668253D01*
X164694Y668350D01*
X164920Y668512D01*
X165211Y668996D01*
X165469Y669643D01*
X165534Y669901D01*
X165598Y670354D01*
X165631Y672130D01*
X165534Y673003D01*
X165469Y673261D01*
X165211Y673843D01*
X165178Y674004D01*
X165404Y674360D01*
X165824Y674521D01*
X166212Y674457D01*
D02*
G37*
G36*
X170994Y673229D02*
X171220Y673003D01*
X171285Y672809D01*
X171414Y672486D01*
X171479Y672227D01*
Y672163D01*
X171575Y671549D01*
X171705Y671226D01*
X171802Y670870D01*
X171672Y670289D01*
X171543Y669966D01*
X171479Y669320D01*
X171414Y669126D01*
X171285Y668803D01*
X171091Y668286D01*
X170736Y667930D01*
X170542Y667995D01*
X170509Y668415D01*
X170574Y668609D01*
X170639Y669513D01*
X170703Y669707D01*
X170736Y671678D01*
X170671Y672260D01*
X170542Y672777D01*
X170445Y673067D01*
X170509Y673326D01*
X170671Y673423D01*
X170994Y673229D01*
D02*
G37*
G36*
X124825Y666606D02*
X124760Y666412D01*
X124631Y666283D01*
X124566Y666153D01*
X124243Y665830D01*
X124114Y665443D01*
X124178Y665249D01*
X124114Y664796D01*
X123984Y664667D01*
Y664603D01*
X123694Y664505D01*
X123564Y664570D01*
X123468Y664667D01*
X123371Y665152D01*
X123241Y665475D01*
X123047Y665992D01*
X122821Y666412D01*
X122886Y666606D01*
X123371Y666638D01*
X123564Y666573D01*
X123758Y666638D01*
X124825Y666606D01*
D02*
G37*
G36*
X101756Y671581D02*
X102531Y671517D01*
X103177Y671452D01*
X103501Y671387D01*
X104017Y671323D01*
X104793Y671258D01*
X105827Y671129D01*
X107119Y671064D01*
X107668Y671032D01*
X107862Y671097D01*
X109025Y671161D01*
X109090D01*
X110027Y671258D01*
X112062Y671290D01*
X112224Y671194D01*
X112289Y671000D01*
X112127Y670774D01*
X111998Y670709D01*
X111869Y670580D01*
X111739Y670515D01*
X111126Y670095D01*
X110899Y669933D01*
X110608Y669643D01*
X110544Y669513D01*
X110350Y669384D01*
X110285Y669255D01*
X109445Y668415D01*
X109381Y668286D01*
X109058Y667833D01*
X108476Y666606D01*
X108412Y666347D01*
X108218Y666153D01*
X108024Y665830D01*
X107830Y665636D01*
X107636Y665313D01*
X107184Y664667D01*
X107119Y664538D01*
X106925Y664344D01*
X106731Y664021D01*
X105762Y662664D01*
X105698Y662535D01*
X105568Y662405D01*
X105504Y662276D01*
X105375Y662147D01*
X105181Y661824D01*
X105051Y661695D01*
X104987Y661565D01*
X104534Y660984D01*
X104244Y660629D01*
X104147Y660532D01*
X103953Y660208D01*
X103565Y659821D01*
X103501Y659691D01*
X103307Y659498D01*
X103242Y659368D01*
X102628Y659013D01*
X102305Y658884D01*
X101788Y658755D01*
X101239Y658658D01*
X100722Y658593D01*
X100463Y658528D01*
X100140Y658464D01*
X99300Y658399D01*
X98396Y658334D01*
X98137Y658270D01*
X98105Y658238D01*
X97814Y658399D01*
X97750Y658658D01*
X97814Y658916D01*
X97556Y659368D01*
X97265Y659659D01*
X96909Y659756D01*
X96554Y659918D01*
X96296Y659982D01*
X96199Y660079D01*
X96393Y660402D01*
X96651Y660790D01*
X96716Y661049D01*
X96780Y661630D01*
X96296Y662309D01*
X95714Y662632D01*
X95617Y662729D01*
X95682Y662987D01*
X95811Y663116D01*
X95876Y663245D01*
X96037Y663407D01*
X96296Y663472D01*
X96457Y663569D01*
X96522Y663698D01*
X96716Y664150D01*
X96651Y664344D01*
X96813Y664635D01*
X96942Y664570D01*
X97039Y664473D01*
X97103Y664344D01*
X97233Y664215D01*
X97297Y664085D01*
X97717Y663665D01*
X98040Y663730D01*
X98590Y664279D01*
X98848Y664732D01*
X98977Y665055D01*
X98913Y665313D01*
X98686Y665539D01*
X98557Y665604D01*
X98460Y665701D01*
X98525Y665830D01*
X98622Y665927D01*
X99139Y665863D01*
X99268Y665798D01*
X99462Y665863D01*
X99591Y665927D01*
X99947Y666218D01*
X100011Y666476D01*
X99947Y666799D01*
X99817Y666929D01*
X99785Y667026D01*
X99656Y667090D01*
X99462Y667284D01*
X99010Y667543D01*
X98913Y667639D01*
X98977Y667898D01*
X99203Y668059D01*
X99300Y668156D01*
X99365Y668286D01*
X99559Y668479D01*
X99624Y668738D01*
X99559Y668867D01*
X99397Y669029D01*
X99010Y669093D01*
X98913Y669190D01*
X98977Y669449D01*
X99139Y669610D01*
X99236Y669643D01*
X99300Y669901D01*
X99171Y670354D01*
X99236Y670483D01*
X99753Y670547D01*
X99882Y670677D01*
X99947Y670806D01*
X100011Y671000D01*
X99979Y671484D01*
X100108Y671614D01*
X100399Y671646D01*
X101756Y671581D01*
D02*
G37*
G36*
X120140Y667155D02*
X120463Y667026D01*
X120818Y666929D01*
X121561Y666703D01*
X122014Y666638D01*
X122207Y666573D01*
X122240Y666283D01*
X122110Y666153D01*
X122046Y666024D01*
X121529Y664861D01*
X121367Y664441D01*
X121271Y664344D01*
X121206Y664215D01*
X120915Y663924D01*
X120786Y663859D01*
X120527Y663601D01*
X120398Y663536D01*
X120204Y663342D01*
X119881Y663149D01*
X119526Y662858D01*
X119300Y662761D01*
X119138Y662922D01*
X119073Y663827D01*
X118976Y663989D01*
X118718Y663924D01*
X118621Y663827D01*
X118169Y662987D01*
X117846Y662535D01*
X117555Y662179D01*
X117167Y661792D01*
X117038Y661727D01*
X116650Y661469D01*
X115939Y661145D01*
X115423Y661016D01*
X114421Y660919D01*
X114227Y660790D01*
X114292Y660596D01*
X114583Y660499D01*
X115423Y660435D01*
X115875Y660241D01*
X116327Y659982D01*
X117135Y659368D01*
X117232Y659271D01*
X117361Y659207D01*
X118040Y658528D01*
X118104Y658399D01*
X118427Y658076D01*
X118492Y657947D01*
X118783Y657850D01*
X118944Y658011D01*
X118880Y658399D01*
X118815Y658593D01*
X118750Y658851D01*
X118653Y659207D01*
X118556Y659498D01*
X118621Y659756D01*
X118912Y659788D01*
X119364Y659530D01*
X119558Y659336D01*
X119655Y659304D01*
X119720Y659175D01*
X120237Y658658D01*
X120301Y658528D01*
X120560Y658270D01*
X120624Y658141D01*
X120754Y658011D01*
X120818Y657882D01*
X120947Y657753D01*
X121012Y657624D01*
X121206Y657430D01*
X121529Y656719D01*
X121594Y656590D01*
X121884Y656558D01*
X121981Y656655D01*
X122046Y656913D01*
X122014Y657850D01*
X122078Y658625D01*
X122175Y658851D01*
X122272Y658948D01*
X122595Y658884D01*
X122854Y658625D01*
X122983Y658561D01*
X123080Y658270D01*
X123015Y655039D01*
X122789Y654813D01*
X122272Y654684D01*
X121917Y654522D01*
X121787Y654199D01*
X121820Y653520D01*
X121594Y653294D01*
X121529Y653165D01*
X121432Y653068D01*
X121044Y653133D01*
X120818Y653488D01*
X120721Y653585D01*
X120269Y653520D01*
X119558Y653197D01*
X119300Y653262D01*
X119106Y653456D01*
X118783Y653391D01*
X118686Y653036D01*
X118750Y651227D01*
X118686Y650580D01*
X118556Y650064D01*
X118363Y649870D01*
X118298Y649740D01*
X118072Y649579D01*
X117749Y649450D01*
X117426Y649514D01*
X117297Y649643D01*
X117038Y649708D01*
X116779Y649643D01*
X115649Y648513D01*
X115584Y648254D01*
X115649Y647996D01*
X115552Y647834D01*
X114906Y647769D01*
X114680Y647543D01*
X114615Y647414D01*
X114486Y647285D01*
X114421Y647026D01*
X114259Y646606D01*
X114163Y646251D01*
X114195Y643957D01*
X114066Y643634D01*
X113872Y643569D01*
X113678Y643634D01*
X113484Y643828D01*
X113355Y643892D01*
X113161Y644086D01*
X112902Y644151D01*
X112579Y644086D01*
X112224Y643731D01*
X112030Y643408D01*
X111739Y643117D01*
X111416Y642923D01*
X111255Y642762D01*
X111061Y642309D01*
X110996Y642051D01*
X110932Y641017D01*
X110964Y638917D01*
X110802Y638691D01*
X110608Y638497D01*
X110544Y638238D01*
X110802Y637786D01*
X111190Y637528D01*
X111319Y637398D01*
X111255Y637075D01*
X111061Y636881D01*
X111126Y636688D01*
X111772Y636623D01*
X111966Y636494D01*
X112030Y636235D01*
X111966Y635977D01*
X111578Y635137D01*
X111642Y634555D01*
X111901Y633974D01*
X111966Y633521D01*
X111901Y633069D01*
X111675Y632843D01*
X111416Y632778D01*
X111061Y632552D01*
X110996Y632294D01*
X110932Y632100D01*
X110996Y631906D01*
X110932Y631712D01*
X110867Y631583D01*
X110770Y631486D01*
X110512Y631421D01*
X110156Y631260D01*
X110092Y631001D01*
X110156Y630743D01*
X110285Y630614D01*
X110350Y630484D01*
X110479Y630355D01*
X110544Y630226D01*
X110996Y629515D01*
X110932Y629256D01*
X110576Y628901D01*
X109865Y628836D01*
X109672Y628901D01*
X108767Y628836D01*
X108412Y628546D01*
X108282Y628416D01*
X108218Y628287D01*
X107927Y627932D01*
X107765Y627770D01*
X107668Y627350D01*
X107636Y627253D01*
X107701Y627060D01*
X107830Y626543D01*
X107895Y625702D01*
X107830Y625444D01*
X107571Y624992D01*
X107442Y624862D01*
X107378Y624733D01*
X107248Y624410D01*
X107345Y623732D01*
X107410Y623150D01*
X107442Y622730D01*
X107184Y622149D01*
X107119Y622019D01*
X106990Y621890D01*
X106925Y621632D01*
X106990Y621050D01*
X107119Y620727D01*
X107216Y620307D01*
X107701Y619176D01*
X107765Y619047D01*
X108185Y618627D01*
X108315Y618562D01*
X108412Y618271D01*
X108315Y617787D01*
X108218Y617496D01*
X108153Y616204D01*
X108347Y615881D01*
X108444Y615784D01*
X108702Y615719D01*
X109251Y615687D01*
X109284Y615525D01*
X109122Y615170D01*
X109058Y614976D01*
X109284Y614620D01*
X109413Y614556D01*
X109865Y614362D01*
X110318Y614297D01*
X111029Y614233D01*
X111255Y614007D01*
X111319Y613554D01*
X111384Y613361D01*
X111513Y612908D01*
X111610Y612488D01*
X111707Y612391D01*
X111772Y612262D01*
X112062Y612165D01*
X112385Y612230D01*
X112579Y612294D01*
X112709Y612230D01*
X112870Y612068D01*
X112935Y611939D01*
X113387Y610970D01*
X113646Y610517D01*
X114195Y609774D01*
X114324Y609710D01*
X114583Y609451D01*
X114970Y609516D01*
X115326Y609871D01*
X115390Y610000D01*
X115552Y610162D01*
X115810Y610226D01*
X115907Y610194D01*
X116166Y609548D01*
X116230Y609290D01*
X116166Y608837D01*
X115972Y608643D01*
X115713Y608062D01*
X115778Y607739D01*
X116230Y607286D01*
X116295Y607028D01*
X116359Y606511D01*
X116521Y606350D01*
X117232Y605962D01*
X117458Y605800D01*
X117523Y605542D01*
X117426Y605057D01*
X117264Y604508D01*
X117200Y603539D01*
X116973Y603312D01*
X116844Y603248D01*
X116263Y602796D01*
X116004Y602537D01*
X115875Y602472D01*
X115584Y602182D01*
X115519Y602052D01*
X115326Y601859D01*
X115003Y601148D01*
X114938Y600889D01*
X114841Y599435D01*
X114776Y599177D01*
X114680Y598821D01*
X114615Y598563D01*
X114518Y598466D01*
X114389Y598401D01*
X114195Y598208D01*
X114066Y598143D01*
X113484Y597691D01*
X113355Y597561D01*
X113129Y597529D01*
X112902Y597626D01*
X112644Y597755D01*
X112321Y597561D01*
X112159Y597400D01*
X111901Y596818D01*
X111739Y596140D01*
X111546Y595623D01*
X111416Y595300D01*
X111384Y595074D01*
X111836Y594234D01*
X112385Y593426D01*
X112482Y593329D01*
X112547Y593200D01*
X112644Y593103D01*
X112999Y593006D01*
X113193Y592812D01*
X113452Y592101D01*
X113549Y592004D01*
X113904Y591907D01*
X114033Y591584D01*
X114195Y591293D01*
X114712Y591164D01*
X114938Y591067D01*
X115067Y590550D01*
X115132Y590163D01*
X115196Y589969D01*
X115261Y589516D01*
X115067Y589193D01*
X114615Y588741D01*
X114550Y588418D01*
X114841Y587998D01*
X115164Y587869D01*
X115746Y587933D01*
X115972Y587707D01*
X116036Y587578D01*
X116424Y587320D01*
X116553Y587190D01*
X116618Y586932D01*
X116553Y586738D01*
X116489Y586350D01*
X116359Y586221D01*
X116295Y585962D01*
X116359Y585769D01*
X116650Y585478D01*
X116779Y585413D01*
X117232Y585090D01*
X117717Y584799D01*
X117781Y584541D01*
X117717Y583636D01*
X117587Y583313D01*
X117264Y582732D01*
X117135Y582602D01*
X117070Y582344D01*
X117006Y582150D01*
X117070Y581956D01*
X117200Y581633D01*
X117393Y581439D01*
X117458Y581245D01*
X117361Y581084D01*
X116973Y581148D01*
X116876Y581245D01*
X116812Y581375D01*
X116521Y581472D01*
X113290Y581407D01*
X113193Y581310D01*
X113129Y581052D01*
X113064Y580664D01*
X112967Y580567D01*
X111384Y580599D01*
X110673Y580535D01*
X110156Y580470D01*
X109833Y580341D01*
X109736Y580244D01*
X109284Y579985D01*
X108961Y579791D01*
X108767Y579856D01*
X108315Y580050D01*
X107798Y580179D01*
X107281Y580244D01*
X107087Y580179D01*
X106699Y580115D01*
X106214Y579759D01*
X106150Y579630D01*
X106021Y579501D01*
X105891Y579048D01*
X105827Y578661D01*
X105698Y578338D01*
X105633Y578015D01*
X105375Y577627D01*
X105278Y577271D01*
X105116Y576722D01*
X104987Y576270D01*
X104922Y575494D01*
X104664Y574913D01*
X104728Y574137D01*
X104922Y573814D01*
X104858Y573427D01*
X104793Y573233D01*
X104858Y572845D01*
X105116Y572457D01*
X105181Y572199D01*
X105116Y571747D01*
X105181Y571165D01*
X105310Y571036D01*
X105439Y570713D01*
X105504Y570454D01*
X105439Y570066D01*
X105827Y569356D01*
X105956Y569227D01*
X106021Y568839D01*
X106279Y568451D01*
X106344Y568322D01*
X106667Y567870D01*
X106731Y567740D01*
X106925Y567546D01*
X106990Y567417D01*
X107733Y566674D01*
X107862Y566609D01*
X107992Y566480D01*
X108121Y566416D01*
X108315Y566222D01*
X108573Y566157D01*
X108702Y566028D01*
X109155Y565834D01*
X109478Y565705D01*
X109898Y565608D01*
X110738Y565479D01*
X110996Y565220D01*
X111061Y564962D01*
X110996Y564768D01*
X111061Y563088D01*
X111158Y562991D01*
X111255Y563346D01*
X111158Y564929D01*
X111126Y565026D01*
X111287Y565252D01*
X111546Y565317D01*
X112127Y565252D01*
X112224Y564962D01*
X112321Y564412D01*
X112385Y563572D01*
X112515Y563056D01*
X112579Y554074D01*
X112709Y553751D01*
X112773Y553686D01*
X112870Y553783D01*
X112805Y554623D01*
X112741Y554817D01*
X112805Y555011D01*
X112773Y555883D01*
X112805Y558371D01*
X112741Y558565D01*
X112805Y559017D01*
X112773Y559825D01*
X112838Y561634D01*
X112870Y562183D01*
X112805Y562377D01*
X112741Y563605D01*
X112547Y564057D01*
X112482Y564768D01*
X112676Y565091D01*
X113419Y565123D01*
X113613Y565059D01*
X115035Y565123D01*
X115229Y565188D01*
X115649Y565285D01*
X115939Y565317D01*
X116133Y565252D01*
X116747Y565156D01*
X117297Y565123D01*
X117490Y565188D01*
X118007Y565252D01*
X118524Y565576D01*
X118653Y565640D01*
X119073Y566060D01*
X119267Y566383D01*
X119429Y566545D01*
X119687Y566609D01*
X119946Y566545D01*
X120107Y566383D01*
X120075Y565317D01*
X120107Y550423D01*
X120043Y550229D01*
X119978Y532265D01*
X119687Y532168D01*
X119493Y532233D01*
X118976Y532168D01*
X118653Y531974D01*
X118524Y531845D01*
X118266Y531780D01*
X118137Y531651D01*
X118007Y531587D01*
X117555Y531328D01*
X117232Y531199D01*
X116263Y531134D01*
X115681Y530811D01*
X115100Y530553D01*
X114486Y530327D01*
X114001Y530294D01*
X113646Y530585D01*
X113452Y530779D01*
X113387Y531231D01*
X113452Y533557D01*
X113516Y533751D01*
X113452Y534527D01*
X113355Y534559D01*
X113193Y534204D01*
X113129Y531102D01*
X113032Y531005D01*
X112773Y530940D01*
X112515Y531005D01*
X112192Y531134D01*
X111319Y531037D01*
X110996Y530843D01*
X110932Y530714D01*
X110738Y530520D01*
X110673Y530262D01*
X110705Y530165D01*
X110867Y530197D01*
X111029Y530553D01*
X111158Y530617D01*
X111319Y530714D01*
X111384Y530843D01*
X111675Y530940D01*
X112547Y530843D01*
X112644Y530747D01*
X112773Y530682D01*
X113096Y530553D01*
X113419Y530359D01*
X113549Y530230D01*
X113678Y530165D01*
X113904Y529616D01*
X113872Y529325D01*
X113904Y529163D01*
X113839Y528969D01*
X113775Y527548D01*
X113710Y525157D01*
X113646Y524963D01*
X113710Y523542D01*
X113775Y523348D01*
X113742Y523057D01*
X113807Y522475D01*
X113872Y522152D01*
X114130Y521506D01*
X114259Y521377D01*
X114389Y521312D01*
X114906Y520989D01*
X115164Y520925D01*
X115746Y520666D01*
X116586Y520408D01*
X117038Y520343D01*
X118072Y520408D01*
X119170Y520925D01*
X120721Y520860D01*
X120851Y520731D01*
X121174Y520537D01*
X121367Y520343D01*
X121497Y520278D01*
X121594Y520182D01*
X121529Y519923D01*
X121432Y519762D01*
X121303Y519697D01*
X121206Y519600D01*
X120947Y519018D01*
X121012Y518566D01*
X121141Y518437D01*
X121206Y518308D01*
X121561Y517952D01*
X121884Y517823D01*
X122337Y517694D01*
X123241Y517758D01*
X123564Y517888D01*
X123984Y518049D01*
X124340Y518275D01*
X124469Y518404D01*
X124598Y518469D01*
X124760Y518695D01*
X125180Y518728D01*
X125374Y518534D01*
X125891Y518404D01*
X126246Y518114D01*
X126181Y517855D01*
X125955Y517629D01*
X124986Y517241D01*
X124469Y517112D01*
X124017Y516983D01*
X123564Y516918D01*
X123306Y516854D01*
X122660Y516789D01*
X122337Y516660D01*
X121690Y516595D01*
X120883Y516498D01*
X120560Y516434D01*
X119526Y516369D01*
X119138Y516304D01*
X118040Y516240D01*
X116973Y516208D01*
X116779Y516272D01*
X114970Y516337D01*
X114776Y516401D01*
X114389Y516466D01*
X114066Y516595D01*
X113742Y516660D01*
X113032Y517048D01*
X112838Y517241D01*
X112709Y517306D01*
X112385Y517629D01*
X112289Y517661D01*
X112095Y518114D01*
X111966Y518566D01*
X111901Y518824D01*
X111416Y519762D01*
X111255Y519729D01*
X111190Y519471D01*
X110964Y519115D01*
X110835Y519051D01*
X110512Y518728D01*
X110253Y518663D01*
X110124Y518534D01*
X109025Y518340D01*
X108767Y518404D01*
X108444Y518211D01*
X108282Y518049D01*
X108347Y517791D01*
X108476Y517661D01*
X108412Y517144D01*
X108185Y516918D01*
X107830Y516821D01*
X107668Y516660D01*
X106958Y516337D01*
X106731Y516498D01*
X106667Y517080D01*
X106505Y517241D01*
X106053Y517371D01*
X105795Y517435D01*
X105342Y517500D01*
X104567Y517564D01*
X104244Y517694D01*
X102822Y517758D01*
X102596Y517532D01*
X102208Y516821D01*
X102014Y516628D01*
X101950Y516498D01*
X101724Y516272D01*
X101594Y516208D01*
X101400Y516014D01*
X101077Y515884D01*
X100463Y515658D01*
X100270Y515271D01*
X100334Y515077D01*
X100496Y514786D01*
X100819Y514592D01*
X101013Y514398D01*
X101142Y514334D01*
X101239Y514237D01*
X101304Y513978D01*
X101239Y513590D01*
X100948Y513429D01*
X100754Y513364D01*
X100560Y513429D01*
X100237Y513558D01*
X100043Y513752D01*
X99785Y513687D01*
X99300Y513203D01*
X99236Y513074D01*
X98945Y512718D01*
X98751Y512524D01*
X98299Y512589D01*
X98170Y512718D01*
X98040Y512783D01*
X97847Y512847D01*
X97588Y512912D01*
X97394Y512977D01*
X97200Y512912D01*
X97071Y512847D01*
X96845Y512621D01*
X96780Y512363D01*
X97071Y512007D01*
X97200Y511878D01*
X97330Y511813D01*
X97523Y511620D01*
X97653Y511555D01*
X98008Y511200D01*
X97943Y510877D01*
X97782Y510715D01*
X97653Y510650D01*
X97556Y510554D01*
X97491Y510295D01*
X97620Y509972D01*
X97717Y509358D01*
X97943Y508809D01*
X97879Y508615D01*
X97782Y508583D01*
X97459Y508777D01*
X97330Y508712D01*
X96974Y508357D01*
X96909Y508227D01*
X96683Y508066D01*
X96554Y507936D01*
X96166Y507743D01*
X95811Y507969D01*
X95714Y509293D01*
X95649Y509617D01*
X95520Y510133D01*
X95488Y511200D01*
X95553Y511393D01*
X95682Y511910D01*
X95746Y512363D01*
X95811Y513784D01*
X95940Y513914D01*
X96102Y514592D01*
X96393Y515271D01*
X96457Y515594D01*
X96587Y515723D01*
X96813Y516337D01*
X96974Y516498D01*
X97103Y516821D01*
X97297Y517015D01*
X97523Y517435D01*
X97653Y517500D01*
X97976Y517823D01*
X98299Y517952D01*
X98751Y518146D01*
X99850Y518211D01*
X100237Y518469D01*
X100560Y518534D01*
X100980Y518824D01*
X101110Y519148D01*
X101368Y519729D01*
X101433Y520182D01*
X101368Y520828D01*
X101271Y520925D01*
X101142Y520989D01*
X100722Y521409D01*
X100657Y521926D01*
X100787Y522249D01*
X100883Y522863D01*
X100916Y523348D01*
X100787Y523671D01*
X100528Y524123D01*
X100399Y524253D01*
X100334Y524382D01*
X100140Y524576D01*
X99882Y525028D01*
X99688Y525480D01*
X99624Y525609D01*
X99559Y525803D01*
X99527Y526353D01*
X99591Y526611D01*
X99688Y526708D01*
X99753Y526966D01*
X99850Y527386D01*
X100076Y527806D01*
X100205Y528129D01*
X100399Y528582D01*
X100593Y528905D01*
X100980Y529745D01*
X101174Y530068D01*
X101304Y530197D01*
X101562Y530650D01*
X101885Y531102D01*
X102014Y531231D01*
X102079Y531360D01*
X102273Y531554D01*
X102337Y531683D01*
X102434Y531780D01*
X102564Y531845D01*
X102661Y531942D01*
X102725Y532071D01*
X103080Y532297D01*
X103533Y532620D01*
X103694Y532847D01*
X103824Y533170D01*
X103727Y533461D01*
X103565Y533299D01*
X103307Y532847D01*
X103080Y532685D01*
X102887Y532491D01*
X102564Y532297D01*
X102208Y532007D01*
X102144Y531877D01*
X101950Y531683D01*
X101885Y531554D01*
X101691Y531425D01*
X101497Y531102D01*
X101304Y530908D01*
X101239Y530714D01*
X101045Y530520D01*
X100916Y530197D01*
X100787Y530068D01*
X100625Y529648D01*
X100463Y529487D01*
X100334Y529163D01*
X100270Y528905D01*
X100140Y528776D01*
X100043Y528420D01*
X99882Y528194D01*
X99753Y527871D01*
X99688Y527613D01*
X99430Y527225D01*
X99365Y526837D01*
X99236Y526514D01*
X99171Y526062D01*
X99300Y525480D01*
X99688Y524769D01*
X100011Y524317D01*
X100399Y523671D01*
X100593Y523219D01*
X100528Y522702D01*
X100463Y522508D01*
X100399Y522249D01*
X100463Y521215D01*
X101239Y520440D01*
X101174Y520246D01*
X101045Y519923D01*
X100948Y519438D01*
X100722Y519148D01*
X100657Y519018D01*
X100560Y518922D01*
X100237Y518792D01*
X99979Y518728D01*
X99656Y518598D01*
X99203Y518534D01*
X98783Y518437D01*
X98396Y518372D01*
X98040Y518211D01*
X97717Y518081D01*
X97297Y517661D01*
X97233Y517532D01*
X96974Y517274D01*
X96909Y517080D01*
X96651Y516692D01*
X96005Y515271D01*
X95940Y515012D01*
X95811Y514883D01*
X95746Y514431D01*
X95617Y513849D01*
X95488Y513526D01*
X95391Y512847D01*
X95326Y512460D01*
X95230Y511587D01*
X95165Y510941D01*
X95230Y509455D01*
X95294Y509261D01*
X95359Y508809D01*
X95423Y508550D01*
X95520Y508066D01*
X95682Y507710D01*
X95617Y507387D01*
X95423Y507193D01*
X95165Y506612D01*
X95230Y505901D01*
X95488Y505449D01*
X95746Y505190D01*
X95682Y504867D01*
X95359Y504544D01*
X95100Y503962D01*
X95294Y503639D01*
X95585Y503284D01*
X95682Y503187D01*
X95617Y502799D01*
X95488Y502670D01*
X95391Y502315D01*
X95294Y502024D01*
X95230Y501572D01*
X95165Y500602D01*
X94939Y500570D01*
X94810Y500699D01*
X94551Y500764D01*
X94357Y500699D01*
X94260Y500602D01*
X94196Y500344D01*
X94131Y499698D01*
X93969Y499536D01*
X93711Y499472D01*
X93291Y499633D01*
Y550940D01*
X93323Y615202D01*
X93614Y615041D01*
X93646Y614944D01*
X93776Y614879D01*
X94228Y614685D01*
X94551Y614750D01*
X95649Y615331D01*
X95746Y615428D01*
X95779Y615654D01*
X95617Y615881D01*
X95326Y616171D01*
X95197Y616236D01*
X95100Y616333D01*
X95165Y616721D01*
X95488Y617173D01*
X95746Y617625D01*
X95843Y617722D01*
X96102Y617787D01*
X96360Y617722D01*
X96683Y617593D01*
X96813Y617464D01*
X97136Y617335D01*
X97394Y617270D01*
X97911Y617335D01*
X98267Y617690D01*
X98396Y618142D01*
X98331Y618530D01*
X98202Y618659D01*
X98137Y618788D01*
X97847Y619079D01*
X97394Y619338D01*
X97362Y619499D01*
X97459Y619596D01*
X97911Y619661D01*
X98170Y619725D01*
X98493Y619855D01*
X98848Y620145D01*
X98977Y620469D01*
X98848Y620792D01*
X98493Y621147D01*
X97523Y621664D01*
X97426Y621761D01*
X97362Y621955D01*
X97459Y622116D01*
X97717Y622181D01*
X98267Y622472D01*
X98331Y622730D01*
X98267Y623118D01*
X97976Y623473D01*
X97717Y623732D01*
X97265Y623990D01*
X97168Y624087D01*
X97233Y624216D01*
X97588Y624442D01*
X97685Y624539D01*
X97750Y624798D01*
X97717Y625799D01*
X97911Y625864D01*
X98880Y625929D01*
X99203Y626123D01*
X99300Y626219D01*
X99430Y626543D01*
X99494Y626736D01*
X99430Y626930D01*
X99042Y627641D01*
X98267Y628093D01*
X98331Y628287D01*
X98428Y628384D01*
X98557Y628449D01*
X98719Y628610D01*
X98848Y628933D01*
X98783Y629321D01*
X98590Y629515D01*
X98525Y629644D01*
X97943Y630226D01*
X97879Y630355D01*
X97653Y630516D01*
X97136Y631034D01*
X97006Y631098D01*
X96651Y631389D01*
X96328Y631518D01*
X96231Y631744D01*
X96393Y631970D01*
X96587Y632164D01*
X96522Y632552D01*
X96296Y632843D01*
X95973Y632972D01*
X95876Y633004D01*
X95746Y633521D01*
X95811Y633909D01*
X95908Y634006D01*
X96328Y634167D01*
X96522Y634361D01*
X96587Y634490D01*
X96716Y634620D01*
X96748Y635234D01*
X96651Y635460D01*
X96490Y635621D01*
X96166Y635751D01*
X96070Y635848D01*
X96134Y636106D01*
X96393Y636365D01*
X96328Y637011D01*
X96102Y637237D01*
X95682Y637398D01*
X95423Y637463D01*
X94906Y637786D01*
X94777Y637915D01*
X94713Y638045D01*
X94454Y638626D01*
X94906Y639337D01*
X94971Y639466D01*
X95100Y639595D01*
X95165Y639725D01*
X95488Y640177D01*
X95682Y640500D01*
X95811Y640629D01*
X95876Y640823D01*
X96780Y641986D01*
X97071Y642342D01*
X97459Y642729D01*
X97588Y642794D01*
X97750Y643020D01*
X97847Y643117D01*
X97976Y643182D01*
X98880Y644086D01*
X99010Y644151D01*
X99720Y644862D01*
X99850Y644926D01*
X100560Y645637D01*
X100690Y645702D01*
X100819Y645896D01*
X100948Y645960D01*
X102661Y647673D01*
X102725Y647802D01*
X103177Y648254D01*
X103242Y648383D01*
X103371Y648513D01*
X103888Y649611D01*
X104211Y650322D01*
X104470Y650904D01*
X104631Y651324D01*
X105278Y652616D01*
X105568Y653165D01*
X106021Y653747D01*
X106118Y653908D01*
X106247Y653973D01*
X106893Y654619D01*
X107022Y654684D01*
X107539Y655201D01*
X107668Y655265D01*
X107895Y655491D01*
X107959Y655621D01*
X108282Y655944D01*
X108347Y656073D01*
X108605Y656655D01*
X108702Y657204D01*
X109090Y657850D01*
X109187Y657947D01*
X109219Y658044D01*
X109348Y658108D01*
X109801Y658561D01*
X109930Y658625D01*
X110188Y658884D01*
X110512Y659078D01*
X110641Y659207D01*
X111093Y659465D01*
X111222Y659595D01*
X111352Y659659D01*
X111933Y660112D01*
X112062Y660241D01*
X112159Y660273D01*
X112224Y660402D01*
X112547Y660919D01*
X112999Y661759D01*
X113193Y661953D01*
X113258Y662082D01*
X114130Y662955D01*
X114259Y663019D01*
X114453Y663213D01*
X114776Y663407D01*
X114906Y663536D01*
X115035Y663601D01*
X115487Y663924D01*
X115616Y663989D01*
X115810Y664182D01*
X115939Y664247D01*
X116198Y664505D01*
X116327Y664570D01*
X116586Y664829D01*
X116715Y664893D01*
X117297Y665346D01*
X117620Y665475D01*
X118072Y665733D01*
X118395Y666056D01*
X118524Y666121D01*
X118686Y666283D01*
X118750Y666412D01*
X118944Y666606D01*
X119009Y666735D01*
X119300Y667026D01*
X119429Y667090D01*
X119752Y667219D01*
X120140Y667155D01*
D02*
G37*
G36*
X213577Y659207D02*
X214417Y658884D01*
X214869Y658819D01*
X215063Y658755D01*
X215160Y658658D01*
X215225Y658528D01*
X215289Y658334D01*
X215354Y658076D01*
X215419Y656331D01*
X215613Y655879D01*
X215645Y655588D01*
X215613Y655427D01*
X215903Y655071D01*
X216065Y654716D01*
X216129Y654587D01*
X216356Y654425D01*
X216549Y654102D01*
X216743Y654037D01*
X216937Y653844D01*
X217196Y653779D01*
X217390Y653585D01*
X217648Y653520D01*
X217745Y653424D01*
X217648Y653327D01*
X217325Y653391D01*
X217260Y653520D01*
X217002Y653585D01*
X216873Y653650D01*
X216743Y653779D01*
X216485Y653844D01*
X216420Y654102D01*
X216226Y654167D01*
X216065Y654134D01*
X215936Y653747D01*
X216033Y653650D01*
X216291Y653585D01*
X216323Y653294D01*
X216226Y653197D01*
X216065Y653165D01*
X216129Y652971D01*
X216259Y652907D01*
X216226Y651065D01*
X216356Y650936D01*
X216582Y650904D01*
X216549Y648610D01*
X216614Y648222D01*
X216711Y648189D01*
X216647Y648060D01*
X216582Y647866D01*
X216549Y646736D01*
X216647Y646445D01*
X216485Y646348D01*
X216388Y646445D01*
X216453Y646703D01*
X216356Y646800D01*
X216194Y646639D01*
X216259Y646186D01*
X216291Y645637D01*
X216420Y645766D01*
X216647Y645734D01*
X216582Y645476D01*
X216356Y645443D01*
X216291Y645508D01*
X216226Y644797D01*
X216194Y644571D01*
X216647Y644506D01*
X216582Y644248D01*
X216647Y644119D01*
X216679Y644086D01*
X216743Y644151D01*
X216905Y643795D01*
X216808Y643440D01*
X216776Y643408D01*
X216840Y643214D01*
X216808Y642794D01*
X216905Y642568D01*
X216840Y642374D01*
X216969Y642245D01*
X216840Y642180D01*
X216905Y641792D01*
X216840Y641599D01*
X216905Y641340D01*
X216840Y641146D01*
X216808Y640920D01*
X216582Y640888D01*
X216549Y640726D01*
X216679Y640532D01*
X216776Y640500D01*
X216679Y640145D01*
X216647Y639918D01*
X216776Y639789D01*
X216905Y639466D01*
X216840Y639014D01*
X216905Y638432D01*
X216969Y638368D01*
X216743Y638271D01*
X216647Y638174D01*
X216711Y637915D01*
X216776Y637205D01*
X216905Y637075D01*
X216840Y636752D01*
X216743Y636526D01*
X216937Y636461D01*
X217260Y636397D01*
X217551Y636235D01*
X217519Y636138D01*
X217163Y636106D01*
X217131Y634523D01*
X217034Y635072D01*
X216969Y635266D01*
X217002Y635815D01*
X216873Y635880D01*
X216840Y635589D01*
X216905Y635395D01*
X216840Y634943D01*
X216873Y634329D01*
X216840Y634038D01*
X217002Y633877D01*
X217131Y633941D01*
X217228Y634167D01*
X217163Y634361D01*
X217196Y634523D01*
X217454Y634264D01*
X217551Y634232D01*
X217519Y634135D01*
X217454Y634200D01*
X217357Y634103D01*
X217390Y634006D01*
X217551Y633974D01*
X217616Y633780D01*
X217551Y633650D01*
X217583Y633618D01*
X217713Y633683D01*
X217874Y633586D01*
X217939Y633327D01*
X217906Y633230D01*
X217583Y633295D01*
X217325Y633554D01*
X217228Y633521D01*
X217293Y633457D01*
X217131Y633424D01*
X217067Y633554D01*
X216776Y633521D01*
X216743Y633360D01*
X216840Y633327D01*
X216873Y633230D01*
X217002Y633295D01*
X217196Y633360D01*
X217293Y633069D01*
X217228Y633004D01*
X217293Y632810D01*
X217067Y632584D01*
X216937Y632520D01*
X216905Y632423D01*
X216969Y632358D01*
X216905Y632294D01*
X216969Y632164D01*
X216647Y632035D01*
X216388Y631970D01*
X216259Y631906D01*
X216517Y631841D01*
X217390Y631744D01*
X217583Y631680D01*
X217616Y631583D01*
X217519Y631486D01*
X216129Y631389D01*
X214773Y631324D01*
X212317Y631260D01*
X210863Y631227D01*
X210799D01*
X205726Y631130D01*
X204951Y631066D01*
X204240Y631001D01*
X204207Y630969D01*
X203852Y631260D01*
X203529Y631841D01*
X203400Y632164D01*
X203464Y632294D01*
X203561Y632390D01*
X203691Y632455D01*
X203820Y632584D01*
X204143Y632778D01*
X204240Y632875D01*
X204175Y633198D01*
X204078Y633295D01*
X203626Y633554D01*
X203594Y633715D01*
X203852Y633780D01*
X204207Y633747D01*
X204304Y634038D01*
X204014Y634394D01*
X203884Y634458D01*
X203787Y634555D01*
X203755Y634717D01*
X203820Y634846D01*
X204240Y634814D01*
X204369Y634878D01*
X204434Y635137D01*
X204498Y635460D01*
X204563Y635654D01*
X204304Y636106D01*
X203981Y636429D01*
X203917Y636688D01*
X203949Y638594D01*
X203852Y639143D01*
X203723Y639466D01*
X203755Y640403D01*
X203691Y640661D01*
X203529Y640888D01*
X203077Y641340D01*
X203141Y641663D01*
X203238Y641760D01*
X203594Y641857D01*
X203691Y641954D01*
X203787Y641986D01*
X203852Y642115D01*
X204046Y642568D01*
X203949Y643699D01*
X203884Y643957D01*
X203787Y644248D01*
X203723Y644700D01*
X203820Y645249D01*
X203981Y645669D01*
X204078Y646090D01*
X204175Y646833D01*
X204111Y647026D01*
X204046Y647285D01*
X203981Y647414D01*
X203529Y647996D01*
X203400Y648125D01*
X203335Y648383D01*
X203497Y648674D01*
X203626Y648739D01*
X203917Y649030D01*
X203981Y649223D01*
X203755Y649514D01*
X203432Y649643D01*
X203335Y649740D01*
X203400Y649870D01*
X203561Y650031D01*
X203981Y650257D01*
X204046Y650710D01*
X203949Y652228D01*
X203787Y652584D01*
X204046Y652971D01*
X203981Y653294D01*
X203820Y653456D01*
X203691Y653520D01*
X203561Y653650D01*
X203238Y653779D01*
X203206Y654005D01*
X203529Y654199D01*
X203594Y654458D01*
X203303Y654813D01*
X203174Y654878D01*
X203012Y655039D01*
X203077Y655298D01*
X203497Y655459D01*
X203787Y655621D01*
X203852Y655750D01*
X203917Y655944D01*
X203981Y656202D01*
X203949Y658690D01*
X204014Y658819D01*
X204272Y658884D01*
X206081Y658948D01*
X206340Y659013D01*
X208601Y659078D01*
X208795Y659142D01*
X210766Y659239D01*
X211477Y659304D01*
X213254Y659336D01*
X213577Y659207D01*
D02*
G37*
G36*
X216614Y653133D02*
X216647Y653100D01*
X216614Y653068D01*
X216453Y653100D01*
X216485Y653197D01*
X216614Y653133D01*
D02*
G37*
G36*
X98137Y654522D02*
X98170Y654554D01*
X98299Y654490D01*
X98363Y654554D01*
X98557Y654490D01*
X100560Y654425D01*
X100657Y654328D01*
X100593Y653747D01*
X100270Y653165D01*
X100011Y652907D01*
X99979Y652810D01*
X99882Y652777D01*
X99850Y652745D01*
X99527Y652422D01*
X99397Y652357D01*
X99268Y652228D01*
X99139Y652164D01*
X98686Y651840D01*
X97847Y651388D01*
X96877Y650936D01*
X96296Y650677D01*
X95876Y650516D01*
X95585Y650419D01*
X95165Y650710D01*
X95230Y650904D01*
X95553Y651227D01*
X95617Y651356D01*
X95746Y651485D01*
X95811Y651744D01*
X95746Y652067D01*
X95456Y652422D01*
X95100Y652648D01*
X95068Y652745D01*
X94939Y652810D01*
X94583Y653100D01*
X94454Y653230D01*
X94519Y653617D01*
X94745Y653844D01*
X95553Y653230D01*
X95973Y653004D01*
X96490Y653068D01*
X96651Y653230D01*
X96716Y653488D01*
X96780Y653682D01*
X96716Y653876D01*
X96780Y654522D01*
X96877Y654619D01*
X98137Y654522D01*
D02*
G37*
G36*
X216582Y651937D02*
Y651873D01*
X216549Y651647D01*
X216453Y651744D01*
X216485Y651970D01*
X216582Y651937D01*
D02*
G37*
G36*
X97297Y646703D02*
X96909Y646316D01*
X96845Y646186D01*
X96554Y645831D01*
X96393Y645669D01*
X96328Y645540D01*
X96199Y645411D01*
Y645346D01*
X95811Y644959D01*
X95617Y644635D01*
X95294Y644312D01*
X95230Y644183D01*
X95100Y644054D01*
X95036Y643925D01*
X94842Y643731D01*
X94777Y643602D01*
X94519Y643343D01*
X94454Y643214D01*
X94260Y643020D01*
X94196Y642891D01*
X94002Y642697D01*
X93937Y642568D01*
X93646Y642212D01*
X93549Y642115D01*
X93485Y641986D01*
X93388Y641889D01*
X93291Y641922D01*
X93323Y645766D01*
X93582Y645831D01*
X93711Y645960D01*
X93840Y646025D01*
X93969Y646154D01*
X94228Y646219D01*
X94810Y646477D01*
X95456Y646671D01*
X95714Y646736D01*
X96166Y646800D01*
X96425Y646865D01*
X97233Y646897D01*
X97297Y646703D01*
D02*
G37*
G36*
X204207Y635557D02*
X204304Y635460D01*
X203884Y635428D01*
X203852Y635460D01*
X203820Y635492D01*
X203787Y635524D01*
X203884Y635621D01*
X204207Y635557D01*
D02*
G37*
G36*
X219167Y631583D02*
X219134Y631550D01*
X219102Y631583D01*
X219134Y631615D01*
X219167Y631583D01*
D02*
G37*
G36*
X218844Y631324D02*
X218746Y631227D01*
X218585Y631195D01*
Y631260D01*
Y631324D01*
X218811Y631357D01*
X218844Y631324D01*
D02*
G37*
G36*
X218100Y631163D02*
X218165D01*
X218262Y631066D01*
X218197Y630937D01*
X217906Y630775D01*
X217810Y630807D01*
X217745Y631066D01*
X217906Y631227D01*
X218100Y631163D01*
D02*
G37*
G36*
X121400Y628610D02*
X121367Y628578D01*
X121335Y628675D01*
X121367Y628707D01*
X121400Y628610D01*
D02*
G37*
G36*
X121981Y628675D02*
Y628481D01*
X121949Y628449D01*
X121884Y628384D01*
X121787Y628481D01*
X121820Y628707D01*
X121981Y628675D01*
D02*
G37*
G36*
X122627Y627447D02*
X122530Y627415D01*
X122434Y627512D01*
Y627576D01*
Y627641D01*
X122530Y627673D01*
X122627Y627447D01*
D02*
G37*
G36*
Y626801D02*
X122595Y626575D01*
X122337Y626510D01*
X122143Y626575D01*
X121690Y626640D01*
X121497Y626575D01*
X120527Y626640D01*
X120495Y626672D01*
X121658Y626736D01*
X121820Y626769D01*
X122014Y626704D01*
X122401Y626769D01*
X122434Y626801D01*
X122466Y626833D01*
X122627Y626801D01*
D02*
G37*
G36*
X118556Y626736D02*
X118524Y626575D01*
X118330Y626510D01*
X118233Y626607D01*
Y626736D01*
X118266Y626769D01*
X118460Y626833D01*
X118556Y626736D01*
D02*
G37*
G36*
X160267Y636074D02*
X160397Y636009D01*
X160752Y635718D01*
X160881Y635589D01*
X160946Y635460D01*
X160978Y635428D01*
X161011Y635395D01*
X161269Y635137D01*
X161334Y635007D01*
X161527Y634814D01*
X161721Y634490D01*
X161980Y634232D01*
X162044Y634103D01*
X162367Y633650D01*
X162690Y633134D01*
X163143Y632294D01*
X163401Y631906D01*
X163466Y631777D01*
X163595Y631647D01*
X164112Y630743D01*
X164241Y630614D01*
X164565Y630032D01*
X164887Y629580D01*
X165146Y629127D01*
X165534Y628546D01*
X165598Y628416D01*
X165728Y628287D01*
X165792Y628158D01*
X166115Y627706D01*
X166083Y627415D01*
X165954Y627350D01*
X165631Y627027D01*
X165501Y626963D01*
X165308Y626769D01*
X165178Y626704D01*
X165049Y626575D01*
X164920Y626510D01*
X164274Y626058D01*
X164080Y626123D01*
X163369Y626833D01*
X163240Y626898D01*
X162529Y627609D01*
X162400Y627673D01*
X161818Y628255D01*
X161689Y628320D01*
X161107Y628901D01*
X160978Y628966D01*
X160655Y629289D01*
X160558Y629321D01*
X160526Y629418D01*
X160397Y629483D01*
X159815Y630064D01*
X159686Y630129D01*
X159040Y630775D01*
X158910Y630840D01*
X157650Y632100D01*
X157586Y632229D01*
X157360Y632520D01*
X156261Y632003D01*
X155680Y631938D01*
X155227Y631744D01*
X153579Y631583D01*
X152222Y631518D01*
X151189Y631454D01*
X150413Y631389D01*
X150187Y631357D01*
X150025Y631454D01*
X149864Y631874D01*
X149767Y632164D01*
X149638Y632940D01*
X149509Y633392D01*
X149444Y633650D01*
X149412Y635169D01*
X149573Y635395D01*
X149961Y635460D01*
X150316Y635557D01*
X150575Y635621D01*
X151221Y635686D01*
X151415Y635751D01*
X151673Y635815D01*
X152126Y635880D01*
X152869Y635977D01*
X154096Y636041D01*
X154613Y636106D01*
X155260Y636171D01*
X156939Y636235D01*
X160073Y636268D01*
X160267Y636074D01*
D02*
G37*
G36*
X166600Y627286D02*
X166697Y627189D01*
X166762Y626995D01*
X166858Y626898D01*
X166988Y626833D01*
X167214Y626607D01*
X167278Y626349D01*
X167214Y626090D01*
X167117Y625993D01*
X166988Y625929D01*
X166858Y625799D01*
X166729Y625735D01*
X166665D01*
X166212Y625799D01*
X166115Y625896D01*
X166051Y626219D01*
X165792Y626478D01*
X165889Y626898D01*
X166018Y627027D01*
X166115Y627060D01*
X166180Y627189D01*
X166341Y627350D01*
X166600Y627286D01*
D02*
G37*
G36*
X165663Y626155D02*
X165728Y625961D01*
X165921Y625767D01*
X165857Y625509D01*
X165695Y625347D01*
X165566Y625282D01*
X165114Y624959D01*
X165049Y624895D01*
X165017Y624862D01*
X164791Y624830D01*
X164694Y624927D01*
X164597Y625282D01*
X164500Y625573D01*
X164565Y625702D01*
X164791Y625929D01*
X164920Y625993D01*
X165146Y626155D01*
X165211Y626284D01*
X165501Y626316D01*
X165663Y626155D01*
D02*
G37*
G36*
X220394Y622407D02*
X220297Y622310D01*
X220265Y622342D01*
X220233Y622375D01*
X220104Y622439D01*
X220071Y622472D01*
X220297Y622504D01*
X220394Y622407D01*
D02*
G37*
G36*
X137716Y622698D02*
X137845Y622633D01*
X138103Y622375D01*
X138426Y622181D01*
X138879Y621922D01*
X139460Y621599D01*
X139590Y621470D01*
X140010Y621309D01*
X140107Y621212D01*
X140527Y621050D01*
X141722Y620501D01*
X141851Y620436D01*
X141948Y620339D01*
X141884Y620210D01*
X140882Y620178D01*
X140688Y620242D01*
X140236Y620307D01*
X139525Y620371D01*
X139331Y620436D01*
X139073Y620501D01*
X138620Y620565D01*
X137554Y620662D01*
X137360Y620792D01*
X137296Y621050D01*
Y622278D01*
Y622342D01*
X137360Y622859D01*
X137522Y622892D01*
X137716Y622698D01*
D02*
G37*
G36*
X123758Y623085D02*
X124501Y622989D01*
X124825Y622795D01*
X124986Y622375D01*
X125148Y622213D01*
X125083Y621825D01*
X125471Y621438D01*
X125406Y620598D01*
X125180Y620242D01*
X124760Y620081D01*
X124404Y619984D01*
X123661Y619951D01*
X123177Y619984D01*
X123047Y619855D01*
X122918D01*
X122789Y619984D01*
X122466Y620178D01*
X122175Y620469D01*
X122110Y620727D01*
X122175Y621309D01*
X122401Y621535D01*
X122530Y621599D01*
X122692Y621761D01*
X122563Y622213D01*
X122627Y622601D01*
X122821Y622924D01*
X122918Y623021D01*
X123306Y623150D01*
X123758Y623085D01*
D02*
G37*
G36*
X124340Y629095D02*
X124534Y629030D01*
X124889Y628933D01*
X125406Y628740D01*
X125503Y628643D01*
X125826Y628449D01*
X125955Y628320D01*
X126084Y628255D01*
X126181Y628158D01*
X126440Y627706D01*
X126537Y627609D01*
X127442Y627480D01*
X127635Y627415D01*
X127991Y627318D01*
X128217Y627221D01*
X128928Y626833D01*
X129509Y626510D01*
X131125Y625735D01*
X131642Y625606D01*
X131965Y625476D01*
X132934Y625541D01*
X133128Y625606D01*
X133580Y625670D01*
X134032Y625606D01*
X134549Y625541D01*
X134743Y625476D01*
X135002Y625412D01*
X135422Y625250D01*
X135519Y625153D01*
X135842Y624959D01*
X135971Y624830D01*
X136100Y624765D01*
X136520Y624345D01*
X136585Y624216D01*
X136973Y623376D01*
X137037Y622342D01*
X136973Y620856D01*
X136876Y620759D01*
X136617Y620695D01*
X135874Y620533D01*
X135228Y620145D01*
X134937Y619855D01*
X134485Y619661D01*
X134226Y619725D01*
X134129Y619822D01*
X134162Y620113D01*
X134065Y620662D01*
X133936Y620985D01*
X133871Y621502D01*
X133742Y621632D01*
X133419Y622213D01*
X133289Y622342D01*
X133225Y622472D01*
X133063Y622633D01*
X132934D01*
X132773Y622601D01*
X132837Y622342D01*
X133225Y621955D01*
X133386Y621535D01*
X133548Y621373D01*
X133645Y620824D01*
X133742Y620533D01*
X133806Y620210D01*
X133936Y619887D01*
X133871Y619047D01*
X133839Y618691D01*
X133871Y618401D01*
X133806Y618207D01*
X133742Y617690D01*
X133613Y617367D01*
X133548Y617108D01*
X133483Y616979D01*
X133257Y616753D01*
X132999Y616688D01*
X132094Y616430D01*
X131771Y616365D01*
X131448Y616236D01*
X130802Y616171D01*
X130608Y616107D01*
X130252Y616010D01*
X129832Y615848D01*
X129445Y615784D01*
X128992Y615590D01*
X128637Y615493D01*
X127861Y615105D01*
X127248Y614814D01*
X126925Y614685D01*
X126020Y614750D01*
X125697Y614879D01*
X125244Y614944D01*
X125148Y615041D01*
X125115Y615202D01*
X125180Y615461D01*
X125212Y616656D01*
X124760Y617238D01*
X124695Y617367D01*
X125115Y617399D01*
X125309Y617335D01*
X126343Y617270D01*
X126666Y617141D01*
X127118Y617076D01*
X127442Y616947D01*
X127506Y616430D01*
X127571Y616365D01*
X127700Y616495D01*
X128346Y616753D01*
X128508Y616915D01*
X128572Y617173D01*
X128314Y617755D01*
X128249Y618078D01*
X128152Y618175D01*
X127991Y618078D01*
X128055Y617690D01*
X128120Y617496D01*
X128055Y617238D01*
X127700Y617205D01*
X127506Y617399D01*
X126731Y617464D01*
X126408Y617593D01*
X126149Y617658D01*
X125503Y617722D01*
X124921Y617787D01*
X124727Y617851D01*
X124631Y617819D01*
X124598Y617464D01*
X123888Y617528D01*
X123694Y617593D01*
X122886Y617625D01*
X122757Y617948D01*
X122789Y618368D01*
X122757Y618788D01*
X122821Y618982D01*
X122886Y619111D01*
X122983Y619208D01*
X124146Y619273D01*
X124598Y619467D01*
X124921Y619596D01*
X125051Y619725D01*
X125180Y619790D01*
X125406Y620016D01*
X125471Y620145D01*
X125600Y620469D01*
X125664Y620662D01*
X125794Y620792D01*
X125729Y621567D01*
X125600Y621890D01*
X125438Y622310D01*
X125277Y622601D01*
X125212Y622730D01*
X124889Y623053D01*
X124825Y623182D01*
X124663Y623344D01*
X124211Y623538D01*
X123952Y623602D01*
X123500Y623667D01*
X123403Y623764D01*
X123338Y624410D01*
X123403Y624669D01*
X123468Y626995D01*
X123597Y627124D01*
X123532Y627512D01*
X123435Y627609D01*
X123306Y627673D01*
X122821Y628158D01*
X122757Y628287D01*
X122627Y628416D01*
X122563Y628675D01*
X122627Y628933D01*
X122724Y629030D01*
X123177Y629160D01*
X124340Y629095D01*
D02*
G37*
G36*
X163563Y621729D02*
X163724Y621567D01*
X163854Y621244D01*
X163918Y620985D01*
X164015Y620565D01*
X164080Y619919D01*
X164112Y619499D01*
X164015Y619338D01*
X163886Y619402D01*
X163789Y619499D01*
X163595Y619822D01*
X163498Y619919D01*
X163175Y619855D01*
X163143Y619628D01*
X163401Y619047D01*
X163337Y618788D01*
X163240Y618691D01*
X163110Y618756D01*
X162917Y619079D01*
X162723Y619144D01*
X162626Y619241D01*
X162690Y620145D01*
X162755Y620339D01*
X162820Y620598D01*
Y620662D01*
X162917Y621018D01*
X163207Y621567D01*
X163434Y621793D01*
X163563Y621729D01*
D02*
G37*
G36*
X111222Y620501D02*
X111546Y620436D01*
X111578Y620210D01*
X111449Y619887D01*
X111384Y619628D01*
X111449Y619111D01*
X111707Y618853D01*
X111739Y618821D01*
X111836Y618595D01*
X111739Y618433D01*
X111222Y618498D01*
X111061Y618659D01*
X110932Y619111D01*
X110996Y619370D01*
X110932Y620016D01*
X110608Y620339D01*
X110673Y620533D01*
X111029Y620565D01*
X111222Y620501D01*
D02*
G37*
G36*
X173579Y621276D02*
X173740Y620856D01*
X173837Y620242D01*
X173869Y619887D01*
X173805Y619693D01*
X173708Y618950D01*
X173643Y618562D01*
X173579Y618304D01*
X173449Y618175D01*
X173191Y618110D01*
X172706Y618078D01*
X172512Y618142D01*
X172577Y618595D01*
X172642Y618788D01*
X172706Y620210D01*
Y620275D01*
X172771Y621244D01*
X172868Y621341D01*
X173579Y621276D01*
D02*
G37*
G36*
X220394Y618013D02*
X220362Y617981D01*
X220330Y618013D01*
Y618078D01*
X220362Y618175D01*
X220394Y618013D01*
D02*
G37*
G36*
X167698Y625735D02*
X167860Y625509D01*
X168248Y625121D01*
X168441Y624798D01*
X168635Y624604D01*
X168700Y624475D01*
X168894Y624281D01*
X169088Y623958D01*
X169540Y623312D01*
X169734Y622989D01*
X169992Y622536D01*
X170186Y622084D01*
X170283Y621729D01*
X170445Y621567D01*
X170574Y621050D01*
X170477Y619725D01*
X170380Y619499D01*
X170251Y619176D01*
X170186Y618918D01*
X170089Y618562D01*
X170025Y618239D01*
X169766Y617787D01*
X169346Y617819D01*
X169411Y618207D01*
X169540Y618530D01*
X169637Y619273D01*
X169669Y620339D01*
X169605Y620533D01*
X169669Y621179D01*
X169605Y621309D01*
X169443Y621341D01*
X169346Y621244D01*
X169282Y618918D01*
X169152Y618595D01*
X169023Y618078D01*
X168926Y617658D01*
X168765Y617431D01*
X168409Y617399D01*
X168312Y617690D01*
X168474Y618368D01*
X168538Y619015D01*
X168635Y619370D01*
X168700Y620210D01*
X168635Y620985D01*
X168474Y621082D01*
X168312Y620921D01*
X168248Y618724D01*
X168118Y618401D01*
X168054Y617884D01*
X167892Y617722D01*
X167763Y617787D01*
X167666Y617884D01*
X167698Y620307D01*
X167569Y620630D01*
X167311Y621018D01*
X167052Y621276D01*
X166858Y621341D01*
X166503Y621050D01*
X166438Y620856D01*
X166406Y619855D01*
X166438Y619047D01*
Y618982D01*
X166374Y617948D01*
X166115Y617496D01*
X165889Y617464D01*
X165792Y617561D01*
X165728Y618595D01*
X165792Y621115D01*
X165663Y621438D01*
X165598Y621696D01*
X165340Y622149D01*
X165049Y622439D01*
X164758Y622472D01*
X164468Y622439D01*
X164306Y622536D01*
X164371Y623118D01*
X164500Y623441D01*
X164661Y623861D01*
X164823Y624087D01*
X164952Y624216D01*
X165017Y624345D01*
X165243Y624572D01*
X165372Y624636D01*
X165501Y624765D01*
X165824Y624959D01*
X165954Y625089D01*
X167052Y625670D01*
X167375Y625799D01*
X167698Y625735D01*
D02*
G37*
G36*
X163918Y617819D02*
X163854Y617625D01*
X163821Y617593D01*
X163724Y617238D01*
X163660Y617108D01*
X163498Y617076D01*
X163401Y617173D01*
X163337Y617431D01*
X163143Y617625D01*
X163014Y617948D01*
X163272Y618013D01*
X163498Y618110D01*
X163595Y618207D01*
X163660Y618336D01*
X163886Y618627D01*
X163918Y617819D01*
D02*
G37*
G36*
X170994Y621793D02*
X171091Y621502D01*
X171220Y620985D01*
X171156Y618659D01*
X171026Y618336D01*
X170929Y617851D01*
X170832Y617561D01*
Y617496D01*
X170671Y617076D01*
X170477Y616753D01*
X170219Y616688D01*
X169378Y616753D01*
X169282Y617044D01*
X169508Y617335D01*
X169831Y617464D01*
X170186Y617819D01*
X170380Y618271D01*
X170445Y618724D01*
X170509Y618918D01*
X170703Y619693D01*
X170768Y620727D01*
X170703Y621502D01*
X170574Y621632D01*
X170606Y621922D01*
X170768Y621955D01*
X170994Y621793D01*
D02*
G37*
G36*
X164920Y621987D02*
X165211Y621825D01*
X165534Y621115D01*
X165469Y620792D01*
X165275Y620598D01*
X165211Y620469D01*
X165081Y620145D01*
X165017Y619887D01*
X165081Y618788D01*
X165211Y618465D01*
X165275Y618078D01*
X165469Y617625D01*
X165566Y617076D01*
X165598Y616915D01*
X165501Y616753D01*
X165469Y616721D01*
X165178Y616624D01*
X164080Y616688D01*
X163983Y616979D01*
X164112Y617108D01*
X164177Y617238D01*
X164241Y617431D01*
X164338Y617981D01*
X164403Y618368D01*
X164500Y619241D01*
X164532Y619790D01*
X164468Y620565D01*
X164403Y620889D01*
X164274Y621405D01*
X164112Y621632D01*
X164048Y621825D01*
X164112Y621955D01*
X164629Y622019D01*
X164726Y622052D01*
X164920Y621987D01*
D02*
G37*
G36*
X113678Y621922D02*
X114033Y621567D01*
X114098Y621438D01*
X114421Y620985D01*
X114518Y620630D01*
X114680Y620081D01*
X114776Y619467D01*
X114873Y619111D01*
X114938Y618465D01*
X114873Y617431D01*
X114550Y616979D01*
X114259Y616688D01*
X113904Y616591D01*
X113032Y616559D01*
X112579Y616818D01*
X112418Y616979D01*
X112353Y617108D01*
X112224Y617238D01*
X112095Y618142D01*
X112159Y618530D01*
X112224Y618659D01*
Y618724D01*
X112030Y619047D01*
X111642Y619435D01*
X111707Y619693D01*
X111966Y620275D01*
X111901Y620727D01*
X112095Y621050D01*
X112385Y621405D01*
X112482Y621502D01*
X112547Y621632D01*
X112902Y621987D01*
X113355Y622052D01*
X113678Y621922D01*
D02*
G37*
G36*
X119817Y625993D02*
X121400Y625896D01*
X122207Y625864D01*
X122530Y625993D01*
X122789Y625929D01*
X122886Y625832D01*
X122950Y623893D01*
X122434Y622795D01*
X122369Y622536D01*
X122175Y622213D01*
X122046Y621761D01*
X121852Y620985D01*
X121949Y620565D01*
X122014Y620242D01*
X122207Y619725D01*
X122304Y619628D01*
X122369Y619370D01*
X122304Y617431D01*
X122175Y617302D01*
X122014Y616882D01*
X121917Y616785D01*
X121852Y616527D01*
X121787Y616010D01*
X121658Y615687D01*
X121852Y615041D01*
X121917Y614847D01*
X121820Y614685D01*
X121561Y614620D01*
X121109Y614685D01*
X119041Y614750D01*
X118912Y614879D01*
X118524Y614944D01*
X118363Y615041D01*
X118298Y615299D01*
X118363Y615881D01*
X118298Y616074D01*
X118363Y616721D01*
X118460Y617141D01*
X118589Y617658D01*
X118750Y618207D01*
X118815Y618465D01*
X118880Y618595D01*
X119009Y618918D01*
X119106Y619338D01*
X119267Y619693D01*
X119332Y619951D01*
X119429Y620436D01*
X119558Y620759D01*
X119655Y621632D01*
X119590Y622795D01*
X119397Y623247D01*
X119300Y623667D01*
X119170Y623990D01*
X119073Y624281D01*
X118912Y624701D01*
X118815Y624798D01*
X118653Y625218D01*
X118492Y625379D01*
X118363Y625702D01*
Y625767D01*
X118395Y625799D01*
X118460Y625929D01*
X118718Y625993D01*
X119558Y626058D01*
X119817Y625993D01*
D02*
G37*
G36*
X122983Y617076D02*
X124146Y617011D01*
X124340Y616947D01*
X124469Y616882D01*
X124889Y616591D01*
Y615557D01*
Y615493D01*
X124825Y615234D01*
X124469Y614750D01*
X124017Y614620D01*
X123468Y614588D01*
X123177Y614685D01*
X122789Y614620D01*
X122724Y614556D01*
X122337Y614814D01*
X122207Y614879D01*
X122046Y615299D01*
X122110Y616397D01*
X122175Y616591D01*
X122240Y616721D01*
X122434Y616915D01*
X122498Y617044D01*
X122789Y617141D01*
X122983Y617076D01*
D02*
G37*
G36*
X178683Y613587D02*
X180170Y613522D01*
X180202Y613231D01*
X180105Y613134D01*
X179265Y612747D01*
X178942Y612553D01*
X178748Y612488D01*
X178425Y612553D01*
X178263Y612714D01*
X178199Y612844D01*
X177973Y613070D01*
X177843Y613134D01*
X177520Y613328D01*
X177262Y613393D01*
X177133D01*
X177100Y613425D01*
X176971Y613490D01*
X177003Y613587D01*
X177456Y613651D01*
X178683Y613587D01*
D02*
G37*
G36*
X155938Y615073D02*
X156132Y615008D01*
X157747Y614944D01*
X157941Y614879D01*
X159686Y614944D01*
X159880Y615008D01*
X162206Y614944D01*
X162400Y614879D01*
X163628Y614814D01*
X164080Y614620D01*
X164338Y614556D01*
X164758Y614394D01*
X165017Y614330D01*
X165404Y614265D01*
X165954Y614104D01*
X166212Y614039D01*
X167052Y613974D01*
X167698Y613910D01*
X169217Y614007D01*
X169992Y614136D01*
X170412Y614297D01*
X171156Y614459D01*
X171575Y614620D01*
X172222Y614685D01*
X172674Y614620D01*
X173126Y614362D01*
X173256Y614297D01*
X173773Y613974D01*
X174612Y613910D01*
X174871Y613845D01*
X175517Y613780D01*
X175582D01*
X175614Y613748D01*
X175808Y613619D01*
X175873Y613296D01*
X176486Y613199D01*
X176680Y613134D01*
X177262Y613070D01*
X177650Y612811D01*
X177940Y612650D01*
X178070Y612327D01*
X178037Y612230D01*
X177779Y612165D01*
X177520Y612230D01*
X177100Y612327D01*
X176745Y612424D01*
X175970Y612488D01*
X175776Y612424D01*
X175517Y612359D01*
X175420Y612068D01*
X175646Y611971D01*
X175970Y612101D01*
X176874Y612036D01*
X177197Y611907D01*
X177456Y611842D01*
X177908Y611777D01*
X178263Y611874D01*
X178360Y611971D01*
X178813Y612165D01*
X179200Y612230D01*
X179653Y612488D01*
X180105Y612682D01*
X180364Y612747D01*
X181850Y612682D01*
X182076Y612456D01*
X182011Y612133D01*
X181720Y611842D01*
X181591Y611777D01*
X181139Y611584D01*
X180880Y611519D01*
X180460Y611422D01*
X180170Y611325D01*
X179459Y611260D01*
X179330Y611325D01*
X179136Y611260D01*
X175453Y611325D01*
X175000Y611519D01*
X174451Y611616D01*
X174128Y611745D01*
X173773Y611842D01*
X173126Y612101D01*
X172609Y612230D01*
X172286Y612359D01*
X172028Y612424D01*
X171608Y612521D01*
X171058Y612682D01*
X169702Y612747D01*
X169508Y612682D01*
X168732Y612617D01*
X168538Y612553D01*
X167117Y612488D01*
X163757Y612424D01*
X162174Y612521D01*
X161301Y612617D01*
X160655Y612682D01*
X159201Y612779D01*
X157909Y612844D01*
X157586Y612908D01*
X157198Y612973D01*
X155970Y613037D01*
X155260Y613102D01*
X151996Y613134D01*
X151802Y613070D01*
X149799Y613005D01*
X149702Y613102D01*
X149638Y613296D01*
X149767Y613619D01*
X149832Y614071D01*
X149961Y614459D01*
X150187Y614685D01*
X150833Y614750D01*
X151027Y614814D01*
X151286Y614879D01*
X152384Y614944D01*
X152578Y615008D01*
X153741Y615073D01*
X153935Y615137D01*
X155938Y615073D01*
D02*
G37*
G36*
X205080Y614524D02*
X207148Y614459D01*
X208957Y614394D01*
X212059Y614200D01*
X212899Y614136D01*
X213771Y614039D01*
X214611Y613974D01*
X215548Y614007D01*
X215936Y613813D01*
X216259Y613490D01*
X216388Y612714D01*
X216453Y612068D01*
X216549Y611002D01*
X216614Y610420D01*
X216679Y610162D01*
X217131Y609451D01*
X217260Y609322D01*
X217713Y609063D01*
X218036Y608934D01*
X218230Y608870D01*
X218294D01*
X219490Y608837D01*
X219780Y608870D01*
X219813Y608708D01*
X219457Y608611D01*
X219328Y608676D01*
X219134Y608611D01*
X217971Y608546D01*
X217777Y608417D01*
X218230Y608353D01*
X218359Y608288D01*
X218424Y608030D01*
X218456Y607739D01*
X218391Y607610D01*
X218456Y607416D01*
X218359Y607190D01*
X218133Y607157D01*
X218165Y606866D01*
X218133Y606834D01*
X218230Y606737D01*
X218488Y606672D01*
X218714Y606511D01*
X218650Y606188D01*
X218617Y606156D01*
X218553Y606220D01*
X218391Y606059D01*
X218456Y605671D01*
X218650Y605348D01*
X218779Y605025D01*
X218714Y604766D01*
X218779Y603862D01*
X218844Y603732D01*
X218779Y603539D01*
X218746Y602020D01*
X218779Y601794D01*
X218585Y601342D01*
X218682Y601115D01*
X218876Y601051D01*
X218908Y601018D01*
X218779Y600695D01*
X218844Y600243D01*
X218779Y599920D01*
X218844Y599726D01*
X218811Y599565D01*
X218682Y599500D01*
X218553Y599371D01*
X218391Y599403D01*
X218424Y599048D01*
X218585Y599015D01*
X218520Y598563D01*
X218326Y598111D01*
X218424Y598014D01*
X218488Y598208D01*
X218714Y598111D01*
X218585Y598369D01*
X218617Y598401D01*
X218844Y598305D01*
X218908Y598046D01*
X218746Y597691D01*
X218908Y597594D01*
X219102Y597206D01*
X219037Y597012D01*
X219102Y596301D01*
X219328Y596204D01*
X219360Y596107D01*
X219264Y596011D01*
X219199Y596075D01*
X219037Y595914D01*
X218973Y595655D01*
X219037Y594557D01*
X218973Y594363D01*
X219070Y594266D01*
X219264Y594201D01*
X219393Y594331D01*
X219522Y594266D01*
X219554Y594040D01*
X219457Y593943D01*
X219296Y593975D01*
X219264Y593878D01*
X219134Y593943D01*
X219005Y593749D01*
X218876Y593684D01*
X218844Y593394D01*
X219134Y593038D01*
X219167Y592941D01*
X218908Y592683D01*
X219070Y592327D01*
X219037Y592166D01*
X219102Y592101D01*
X219037Y591972D01*
X219102Y591907D01*
X218908Y591649D01*
X218973Y591455D01*
X218908Y591390D01*
X219134Y591293D01*
X219167Y591261D01*
X219037Y591197D01*
X219070Y590970D01*
X219134Y591164D01*
X219167Y590938D01*
X219037Y590873D01*
X219167Y590744D01*
X219134Y590583D01*
X219199Y590453D01*
X219264Y590518D01*
X219360Y590227D01*
X219231Y589904D01*
X219199Y589484D01*
X219231Y589452D01*
X219070Y589096D01*
X219134Y588967D01*
X219296Y588935D01*
X219231Y588741D01*
X218908Y588289D01*
X218714Y588095D01*
X218650Y587772D01*
X218520Y587643D01*
X218294Y587223D01*
X218133Y587190D01*
X218068Y586609D01*
X217874Y586286D01*
X217810Y586027D01*
X217745Y585898D01*
X217616Y585769D01*
X217487Y585446D01*
X217131Y584961D01*
X216937Y585026D01*
X216873Y585284D01*
X216679Y585349D01*
X214191Y585252D01*
X212834Y585187D01*
X210379Y585122D01*
X208828Y585058D01*
X207923Y584993D01*
X203949Y584896D01*
X203691Y584961D01*
X203594Y585058D01*
X203658Y585575D01*
X203917Y586221D01*
X203981Y586480D01*
X203917Y586673D01*
X204014Y587029D01*
X204046Y587320D01*
X203917Y587643D01*
X203981Y587772D01*
X203917Y587966D01*
X203949Y588644D01*
X203852Y589904D01*
X203917Y590098D01*
X204014Y590518D01*
X204175Y591067D01*
X204304Y591584D01*
X203917Y592295D01*
X203658Y592554D01*
X203723Y592877D01*
X203917Y593071D01*
X203981Y593523D01*
X203917Y593717D01*
X203981Y594427D01*
X203787Y594751D01*
X203755Y594912D01*
X203917Y595203D01*
X203852Y595461D01*
X203723Y595591D01*
X203658Y595849D01*
X203594Y596043D01*
X203787Y596495D01*
X203917Y596818D01*
X203852Y597658D01*
X203787Y597723D01*
X203949Y598014D01*
X204240Y598175D01*
X204304Y598369D01*
X204014Y598725D01*
X203917Y598821D01*
X203949Y598983D01*
X204272Y599048D01*
X204369Y599145D01*
X204304Y599403D01*
X204143Y599565D01*
X203820Y599758D01*
X203723Y599855D01*
X203787Y600631D01*
X204046Y600889D01*
X204304Y601406D01*
X203917Y602246D01*
X204046Y602569D01*
X204014Y602796D01*
X203691Y602925D01*
X203594Y602957D01*
X203529Y603216D01*
X203723Y603926D01*
X203981Y604508D01*
X204046Y604702D01*
X203981Y604896D01*
X203917Y605412D01*
X203787Y605542D01*
X203723Y605800D01*
X203917Y606252D01*
X203981Y606511D01*
X203917Y606963D01*
X203949Y608676D01*
X203820Y608999D01*
X203755Y609257D01*
X203723Y609290D01*
X204046Y610000D01*
X203917Y610323D01*
X203949Y610808D01*
X203852Y611099D01*
X203917Y611228D01*
X204111Y611422D01*
X204175Y611680D01*
X204111Y611939D01*
X203981Y612391D01*
X204046Y612844D01*
X204111Y613037D01*
X204046Y613361D01*
X203787Y613748D01*
X203820Y614168D01*
X203787Y614459D01*
X203949Y614620D01*
X205080Y614524D01*
D02*
G37*
G36*
X218908Y603668D02*
X218876Y603636D01*
X218844Y603668D01*
X218876Y603700D01*
X218908Y603668D01*
D02*
G37*
G36*
X219942Y592554D02*
X219877Y592489D01*
X220007Y592424D01*
X219942Y592295D01*
X219845Y592263D01*
X219748Y592489D01*
X219845Y592521D01*
X219877Y592554D01*
X219910Y592586D01*
X219942Y592554D01*
D02*
G37*
G36*
X220847Y590098D02*
X220750Y590001D01*
X220620Y589936D01*
X220524Y589840D01*
X220491Y589743D01*
X220297Y589678D01*
X220200Y589775D01*
X220265Y589904D01*
X220297Y589936D01*
X220362D01*
X220524Y590033D01*
X220556Y590130D01*
X220717Y590163D01*
X220847Y590098D01*
D02*
G37*
G36*
X219974Y589484D02*
X220007Y589452D01*
X219910Y589355D01*
X219877Y589323D01*
X219748Y589258D01*
X219684Y589064D01*
X219457Y588967D01*
X219360Y589129D01*
X219457Y589226D01*
X219748Y589323D01*
X219845Y589549D01*
X219974Y589484D01*
D02*
G37*
G36*
X169572Y587546D02*
X169734Y587384D01*
X169799Y587255D01*
X169863Y587190D01*
Y587126D01*
X169928Y586932D01*
X169863Y586738D01*
X169637Y586512D01*
X169378Y586447D01*
X168926Y586512D01*
X168571Y586802D01*
X168377Y586996D01*
X168441Y587449D01*
X168991Y587675D01*
X169249Y587740D01*
X169572Y587546D01*
D02*
G37*
G36*
X174968Y586415D02*
X174483Y586318D01*
X174451Y586350D01*
X174483Y586447D01*
X174968Y586415D01*
D02*
G37*
G36*
X176648Y586092D02*
X176616Y586059D01*
X176293Y586124D01*
X176260Y586156D01*
X176486Y586189D01*
X176648Y586092D01*
D02*
G37*
G36*
X174193Y585510D02*
X174225Y585478D01*
X174257Y585381D01*
X174096Y585219D01*
X174063Y585446D01*
X174160Y585542D01*
X174193Y585510D01*
D02*
G37*
G36*
X179104Y585187D02*
X179039Y585122D01*
X179007Y585090D01*
X178748Y585155D01*
X178716Y585252D01*
X178942Y585284D01*
X179104Y585187D01*
D02*
G37*
G36*
X180396Y584864D02*
X180234Y584832D01*
X180202Y584864D01*
X180299Y584896D01*
X180364D01*
X180396Y584864D01*
D02*
G37*
G36*
X154323Y593684D02*
X154516Y593620D01*
X155292Y593491D01*
X156132Y593426D01*
X156326Y593361D01*
X156584Y593297D01*
X157198Y593200D01*
X157715Y593071D01*
X158070Y592974D01*
X158329Y592909D01*
X158781Y592844D01*
X159621Y592521D01*
X160235Y592295D01*
X160494Y592231D01*
X161172Y591940D01*
X163434Y590777D01*
X164015Y590453D01*
X164532Y590130D01*
X164985Y589872D01*
X165695Y589420D01*
X166018Y589226D01*
X166471Y588903D01*
X166794Y588709D01*
X166923Y588580D01*
X167246Y588386D01*
X167698Y588127D01*
X167892Y587933D01*
X168183Y587772D01*
X168118Y587320D01*
X168054Y587126D01*
X168248Y586673D01*
X168086Y586253D01*
X167989Y585962D01*
X167925Y585704D01*
X167860Y585381D01*
X167634Y584896D01*
X167375Y584832D01*
X166729Y584896D01*
X166309Y584993D01*
X165792Y585122D01*
X165469Y585187D01*
X165146Y585316D01*
X164726Y585478D01*
X164241Y585575D01*
X163724Y585704D01*
X163401Y585769D01*
X163014Y585833D01*
X162690Y585962D01*
X162335Y586059D01*
X161883Y586124D01*
X161075Y586221D01*
X160558Y586350D01*
X159912Y586415D01*
X159589Y586544D01*
X159169Y586706D01*
X158458Y586770D01*
X158135Y586900D01*
X157877Y586964D01*
X157392Y587061D01*
X157036Y587223D01*
X156584Y587287D01*
X156326Y587352D01*
X154969Y588063D01*
X154516Y588515D01*
X154193Y588450D01*
X153999Y588257D01*
X153806Y588192D01*
X153612Y588257D01*
X153482D01*
X153224Y588192D01*
X152545Y588095D01*
X151512Y587836D01*
X150445Y587352D01*
X150090Y587255D01*
X149799Y587093D01*
X149379Y586932D01*
X149282Y586835D01*
X148830Y586706D01*
X148378Y586641D01*
X147796Y586382D01*
X147408Y586447D01*
X147247Y586609D01*
X146988Y587190D01*
X146924Y587449D01*
X146794Y587772D01*
X146601Y588224D01*
X146504Y588580D01*
X146342Y589000D01*
X146245Y589355D01*
X146116Y589678D01*
X146019Y590033D01*
X145890Y590550D01*
X145761Y591003D01*
X145696Y591455D01*
X145599Y591810D01*
X145761Y592037D01*
X145922Y592198D01*
X146407Y592295D01*
X146730Y592424D01*
X147085Y592521D01*
X147699Y592747D01*
X148055Y592844D01*
X148572Y592974D01*
X148765Y593038D01*
X149218Y593167D01*
X149864Y593361D01*
X150381Y593491D01*
X151092Y593555D01*
X151286Y593620D01*
X152513Y593684D01*
X152707Y593749D01*
X154323Y593684D01*
D02*
G37*
G36*
X183885Y584541D02*
X183724Y584509D01*
X183659D01*
X183627Y584541D01*
X183788Y584638D01*
X183885Y584541D01*
D02*
G37*
G36*
X173934Y584735D02*
X173676Y584670D01*
X173611Y584541D01*
X173579Y584509D01*
X173546Y584606D01*
X173676Y584735D01*
X173837Y585026D01*
X173934Y584735D01*
D02*
G37*
G36*
X216162Y584573D02*
X216194Y584347D01*
X216097Y584315D01*
X215936Y584476D01*
Y584541D01*
X216033Y584638D01*
X216162Y584573D01*
D02*
G37*
G36*
X208182Y584282D02*
X208085Y584186D01*
X207762D01*
X207342Y584218D01*
X207438Y584315D01*
X208052Y584282D01*
X208149Y584315D01*
X208182Y584282D01*
D02*
G37*
G36*
X212640D02*
X212543Y584186D01*
X212156D01*
X211994Y584218D01*
X212026Y584315D01*
X212640Y584282D01*
D02*
G37*
G36*
X210572D02*
X210475Y584186D01*
X209926Y584218D01*
X209248Y584186D01*
X209183D01*
X208182Y584218D01*
X208537Y584315D01*
X210572Y584282D01*
D02*
G37*
G36*
X186987Y584218D02*
X186179Y584186D01*
X186147Y584218D01*
X186115Y584250D01*
X186082Y584282D01*
X186954Y584315D01*
X186987Y584218D01*
D02*
G37*
G36*
X204175Y584024D02*
X204143Y583927D01*
X204014D01*
X203981Y583959D01*
X204078Y584056D01*
X204175Y584024D01*
D02*
G37*
G36*
X200427Y583959D02*
X200330Y583927D01*
X200298Y583959D01*
X200395Y583992D01*
X200427Y583959D01*
D02*
G37*
G36*
X198424D02*
X198263Y583927D01*
X198198D01*
X198037Y583959D01*
X198392Y583992D01*
X198424Y583959D01*
D02*
G37*
G36*
X197778D02*
X197035Y583927D01*
X197003Y583959D01*
X197164Y583992D01*
X197229D01*
X197778Y583959D01*
D02*
G37*
G36*
X190024D02*
X189798Y583927D01*
X189765Y583959D01*
X189992Y583992D01*
X190024Y583959D01*
D02*
G37*
G36*
X173353Y584089D02*
X173256Y583927D01*
X173159Y583959D01*
X173223Y584153D01*
X173256Y584186D01*
X173353Y584089D01*
D02*
G37*
G36*
X193707Y583959D02*
X193222Y583927D01*
X193158D01*
X192286Y583895D01*
X192092Y583959D01*
X193675Y583992D01*
X193707Y583959D01*
D02*
G37*
G36*
X216194Y583830D02*
Y583766D01*
X216129Y583572D01*
X216097Y583539D01*
X216065Y583830D01*
X216162Y583862D01*
X216194Y583830D01*
D02*
G37*
G36*
X173029Y583701D02*
X172965Y583572D01*
X172868Y583539D01*
X172836Y583572D01*
X172900Y583766D01*
X172933Y583798D01*
X173029Y583701D01*
D02*
G37*
G36*
X177359Y583572D02*
X177262Y583475D01*
X177165Y583507D01*
X177230Y583636D01*
X177262Y583669D01*
X177294Y583701D01*
X177327Y583733D01*
X177359Y583572D01*
D02*
G37*
G36*
X172642Y583313D02*
X172609Y583281D01*
X172577Y583313D01*
X172609Y583346D01*
X172642Y583313D01*
D02*
G37*
G36*
X178328D02*
X178263Y583184D01*
X178102Y583022D01*
X177973Y582958D01*
X177940Y582990D01*
X177973Y583087D01*
X178102Y583152D01*
X178231Y583346D01*
X178328Y583313D01*
D02*
G37*
G36*
X172383Y582990D02*
X172222Y582958D01*
X172189Y582990D01*
X172222Y583022D01*
X172254Y583055D01*
X172351Y583087D01*
X172383Y582990D01*
D02*
G37*
G36*
X176777Y583055D02*
X176680Y582958D01*
X176486Y582893D01*
X176454Y582926D01*
X176680Y583152D01*
X176745D01*
X176777Y583055D01*
D02*
G37*
G36*
X172060Y582667D02*
X171963Y582635D01*
X171931Y582732D01*
X171963Y582764D01*
X172028D01*
X172060Y582667D01*
D02*
G37*
G36*
X172933Y586964D02*
X173256Y586835D01*
X173676Y586738D01*
X173869Y586544D01*
X173805Y586286D01*
X173676Y586156D01*
X173514Y585736D01*
X173094Y584993D01*
X172674Y584379D01*
X172512Y584153D01*
X172319Y583959D01*
X172254Y583830D01*
X172125Y583701D01*
X172092Y583669D01*
X171511Y583087D01*
X171382Y583022D01*
X171123Y582764D01*
X170800Y582635D01*
X170542Y582570D01*
X169572Y583087D01*
X169249Y583410D01*
X169120Y583475D01*
X168958Y583701D01*
X168700Y583959D01*
X168668Y584186D01*
X168765Y584412D01*
X168894Y584541D01*
X169766Y586253D01*
X169895Y586318D01*
X170122Y586544D01*
X170348Y586964D01*
X170994Y587029D01*
X172933Y586964D01*
D02*
G37*
G36*
X176131Y582602D02*
X176034Y582506D01*
X175873Y582538D01*
Y582602D01*
X175905Y582635D01*
X176099Y582699D01*
X176131Y582602D01*
D02*
G37*
G36*
X171802Y582473D02*
X171737Y582344D01*
X171511Y582247D01*
X171479Y582344D01*
X171511Y582376D01*
X171640Y582506D01*
X171802Y582473D01*
D02*
G37*
G36*
X171414Y581504D02*
X171382Y581472D01*
X171349Y581633D01*
X171382Y581665D01*
X171414Y581504D01*
D02*
G37*
G36*
X176131D02*
X176099Y581472D01*
X176066Y581439D01*
X175905Y581407D01*
X175873Y581504D01*
X176099Y581536D01*
X176131Y581504D01*
D02*
G37*
G36*
X172836Y581375D02*
Y581310D01*
X172771Y581181D01*
X172674Y581148D01*
X172642Y581375D01*
X172803Y581407D01*
X172836Y581375D01*
D02*
G37*
G36*
X216517Y580728D02*
X216485Y580567D01*
X216420Y580825D01*
X216388Y580987D01*
Y581052D01*
X216420Y581084D01*
X216517Y580728D01*
D02*
G37*
G36*
X116133Y580373D02*
X116295Y580276D01*
X116359Y580018D01*
X116327Y579533D01*
X116295Y579501D01*
X116198Y579468D01*
X115972Y579630D01*
X115907Y579759D01*
X115746Y579921D01*
X115035Y579856D01*
X114680Y579565D01*
X114550Y579242D01*
X114486Y578984D01*
X114550Y578725D01*
X114486Y578467D01*
X114550Y578144D01*
X114680Y577885D01*
X114518Y577659D01*
X114066Y577724D01*
X113904Y577885D01*
X113969Y580276D01*
X114130Y580438D01*
X116133Y580373D01*
D02*
G37*
G36*
X216776Y579824D02*
X216840Y579372D01*
X216743Y579339D01*
X216647Y579630D01*
Y579888D01*
X216679Y579921D01*
X216776Y579824D01*
D02*
G37*
G36*
X172189Y578984D02*
X172092Y578952D01*
X172060Y578984D01*
Y579048D01*
X171995Y579242D01*
X172028Y579339D01*
X172189Y578984D01*
D02*
G37*
G36*
X145147Y592780D02*
X145211Y592069D01*
X145308Y591713D01*
X145373Y591261D01*
X145438Y591067D01*
X145502Y590809D01*
X145761Y590227D01*
X145825Y589581D01*
X145955Y589452D01*
X146019Y589193D01*
X146051Y589032D01*
X146084Y589000D01*
X146148Y588677D01*
X146278Y588353D01*
X146407Y587836D01*
X146601Y587513D01*
X146730Y587190D01*
X146794Y587061D01*
X146924Y586738D01*
X146859Y586415D01*
X146762Y586318D01*
X145858Y586253D01*
X145825Y586221D01*
X145922Y586124D01*
X147570Y586092D01*
X148152Y586156D01*
X148895Y586382D01*
X149476Y586641D01*
X149735Y586706D01*
X150155Y586867D01*
X150252Y586964D01*
X150575Y587093D01*
X151027Y587287D01*
X151447Y587384D01*
X151867Y587610D01*
X152126Y587675D01*
X152836Y587869D01*
X154678Y587901D01*
X155033Y587675D01*
X155389Y587384D01*
X155744Y587287D01*
X156196Y587093D01*
X156455Y587029D01*
X156907Y586835D01*
X157327Y586738D01*
X158038Y586609D01*
X158361Y586544D01*
X158652Y586447D01*
X158910Y586382D01*
X159557Y586189D01*
X159815Y586124D01*
X160558Y586027D01*
X161204Y585962D01*
X161624Y585801D01*
X161883Y585736D01*
X162529Y585672D01*
X162723Y585607D01*
X162981Y585542D01*
X163595Y585446D01*
X163854Y585381D01*
X164177Y585252D01*
X164468Y585155D01*
X165017Y585058D01*
X165437Y584896D01*
X165889Y584832D01*
X166018Y584767D01*
X166341Y584573D01*
X166858Y584509D01*
X167343Y584024D01*
X167408Y583895D01*
X167698Y583539D01*
X167957Y583152D01*
X168183Y582796D01*
X168571Y582086D01*
X168894Y581375D01*
X168958Y581116D01*
X169055Y580696D01*
X169120Y580308D01*
X169185Y579275D01*
X169217Y578855D01*
X169055Y578693D01*
X168668Y578952D01*
X168571Y578919D01*
X168635Y578725D01*
X168894Y578467D01*
X169217Y577885D01*
X169475Y577498D01*
X169928Y576528D01*
X170057Y576205D01*
X170186Y575688D01*
X170445Y574848D01*
X170574Y574525D01*
X170639Y574331D01*
X170574Y574137D01*
X170703Y573233D01*
X170639Y570906D01*
X170574Y570713D01*
X170509Y570066D01*
X170380Y569743D01*
X170057Y568839D01*
X169928Y568516D01*
X169960Y568290D01*
X170283Y568225D01*
X170380Y567934D01*
X170315Y566125D01*
X170251Y565931D01*
X170186Y565672D01*
X170057Y565091D01*
X169928Y564768D01*
X169540Y563928D01*
X169475Y563799D01*
X169152Y563282D01*
X169088Y563152D01*
X168635Y562571D01*
X168377Y562183D01*
X168538Y561763D01*
X168571Y561602D01*
X168377Y561149D01*
X168280Y560794D01*
X167795Y559986D01*
X167505Y559631D01*
X167408Y559534D01*
X167343Y559405D01*
X166988Y559049D01*
X166858Y558985D01*
X166665Y558791D01*
X166341Y558597D01*
X165372Y558145D01*
X164920Y557951D01*
X164403Y557821D01*
X163724Y557725D01*
X162852Y557628D01*
X161366Y557692D01*
X161172Y557757D01*
X160526Y557821D01*
X160041Y557918D01*
X159653Y557983D01*
X159395Y558048D01*
X158846Y558209D01*
X158458Y558274D01*
X158167Y558500D01*
X158038Y558823D01*
X157844Y559146D01*
X157683Y559566D01*
X157521Y559922D01*
X157263Y560374D01*
X157133Y560503D01*
X157069Y560891D01*
X156681Y561602D01*
X156552Y561731D01*
X156487Y562054D01*
X156229Y562442D01*
X156164Y562700D01*
X155970Y562894D01*
X155906Y563152D01*
X155841Y563282D01*
X155583Y563669D01*
X155389Y563992D01*
X155324Y564186D01*
X154549Y565543D01*
X154420Y565672D01*
X154355Y565931D01*
X154420Y566125D01*
X154678Y566383D01*
X155130Y567223D01*
X155324Y567676D01*
X155389Y568063D01*
X155518Y568387D01*
X155615Y568936D01*
X155680Y569194D01*
X155712Y570842D01*
X155583Y571165D01*
X155486Y571585D01*
X155260Y571940D01*
X155098Y572102D01*
X155001Y572134D01*
X154936Y572263D01*
X154840Y572361D01*
X154581Y572425D01*
X154452Y572490D01*
X154032Y572910D01*
X153967Y573104D01*
X153676Y573394D01*
X153353Y573524D01*
X152966Y573459D01*
X152578Y573847D01*
X152319Y573911D01*
X151609Y573976D01*
X151221Y574557D01*
X150768Y574687D01*
X150187Y574622D01*
X149832Y574331D01*
X149541Y574299D01*
X149379Y574461D01*
X149347Y574557D01*
X149024Y574687D01*
X148669Y574590D01*
X148378Y574299D01*
X147861Y574234D01*
X147538Y574364D01*
X146762Y574299D01*
X146439Y574105D01*
X146084Y573814D01*
X145955Y573685D01*
X145890Y573556D01*
X145761Y573427D01*
X145599Y573007D01*
X145438Y572651D01*
X145179Y571747D01*
X145115Y571100D01*
X145179Y569162D01*
X145438Y568710D01*
X145535Y568613D01*
X145664Y568548D01*
X145793Y568419D01*
X146051Y568354D01*
X146342Y567805D01*
X146439Y567450D01*
X146536Y567353D01*
X146794Y566900D01*
X147085Y566480D01*
X147215Y566416D01*
X147473Y566157D01*
X147570Y566125D01*
X147635Y565996D01*
X148022Y565672D01*
X148119Y565576D01*
X148248Y565511D01*
X148765Y564994D01*
X148895Y564929D01*
X149153Y564671D01*
X149282Y564606D01*
X149702Y564186D01*
X149735Y564089D01*
X149864Y564025D01*
X150090Y563799D01*
X150122Y563702D01*
X150252Y563637D01*
X150445Y563314D01*
X150575Y563249D01*
X150865Y562700D01*
X150995Y562377D01*
X151059Y561408D01*
X151221Y561246D01*
X151318Y561537D01*
X151253Y562183D01*
X151189Y562377D01*
X151124Y562894D01*
X150865Y563346D01*
X150736Y563476D01*
X150672Y563605D01*
X150348Y563928D01*
X150284Y564057D01*
X149670Y564671D01*
X149541Y564736D01*
X149024Y565252D01*
X148895Y565317D01*
X148442Y565769D01*
X148313Y565834D01*
X147861Y566286D01*
X147731Y566351D01*
X146988Y567094D01*
X146730Y567546D01*
X146601Y567805D01*
X146762Y568031D01*
X147150Y567966D01*
X147215Y567902D01*
X147538Y568096D01*
X147602Y569130D01*
X147667Y571843D01*
X147731Y572102D01*
X147796Y572490D01*
X147925Y572813D01*
X148216Y573491D01*
X148410Y573814D01*
X148701Y574170D01*
X149024Y574299D01*
X149347Y574105D01*
X149412Y573717D01*
X149444Y573556D01*
X149185Y573104D01*
X149056Y572845D01*
X149153Y572684D01*
X149412Y572748D01*
X149509Y572845D01*
X149767Y573427D01*
X149832Y573944D01*
X150122Y574234D01*
X150575Y574299D01*
X151092Y574234D01*
X151253Y574073D01*
X151318Y573814D01*
X151253Y573427D01*
X150995Y572974D01*
X150801Y572651D01*
X150672Y572328D01*
X150736Y572199D01*
X150833Y572167D01*
X151253Y572587D01*
X151415Y573007D01*
X151738Y573524D01*
X152061Y573653D01*
X152384Y573588D01*
X152610Y573362D01*
X152739Y573039D01*
X152675Y572522D01*
X152481Y572070D01*
X152416Y571876D01*
X152578Y571714D01*
X152707Y571779D01*
X152869Y571940D01*
X152933Y572199D01*
X153062Y572522D01*
X153127Y572974D01*
X153289Y573136D01*
X153547Y573071D01*
X153709Y572910D01*
X153773Y572651D01*
X153709Y572328D01*
X153579Y572005D01*
X153515Y571747D01*
X153353Y570293D01*
X153321Y568903D01*
X153386Y568710D01*
X153450Y567870D01*
X153547Y566997D01*
X153676Y566674D01*
X153741Y566416D01*
X153838Y566189D01*
X154096Y565802D01*
X154161Y565608D01*
X154420Y565156D01*
X154678Y564768D01*
X154743Y564509D01*
X154936Y564316D01*
X155195Y563863D01*
X155324Y563540D01*
X155389Y563411D01*
X155776Y562765D01*
X157133Y559986D01*
X157327Y559663D01*
X157521Y559211D01*
X157844Y558500D01*
X157909Y558371D01*
X158038Y558241D01*
X158232Y557725D01*
X158620Y556884D01*
X158975Y555883D01*
X159104Y555237D01*
X159201Y554881D01*
X159266Y554623D01*
X159201Y553266D01*
X159007Y552814D01*
X158814Y552491D01*
X158523Y552135D01*
X158394Y552070D01*
X157683Y551747D01*
X157424Y551683D01*
X156649Y551553D01*
X156390Y551489D01*
X154710Y551553D01*
X154516Y551618D01*
X153902Y551715D01*
X153644Y551780D01*
X153095Y551941D01*
X152836Y552006D01*
X152481Y552103D01*
X152158Y552232D01*
X151641Y552361D01*
X151286Y552523D01*
X150510Y552717D01*
X149864Y552911D01*
X149444Y553007D01*
X149089Y553104D01*
X148830Y553169D01*
X148184Y553234D01*
X147990Y553298D01*
X147408Y553363D01*
X147247Y553524D01*
X147311Y553912D01*
X147505Y554106D01*
X147602Y554720D01*
X147796Y555237D01*
X147893Y555592D01*
X147990Y556335D01*
X148087Y556626D01*
X148152Y556884D01*
X148087Y557337D01*
X148152Y559017D01*
X148087Y559211D01*
X148313Y559502D01*
X150639Y559437D01*
X150833Y559502D01*
X151027Y559437D01*
X151253Y559340D01*
X151318Y559082D01*
X151253Y558823D01*
X151350Y558015D01*
X151415Y557757D01*
X151479Y557434D01*
X151544Y557175D01*
X151609Y556788D01*
X151738Y556464D01*
X151899Y556044D01*
X151964Y555657D01*
X152093Y555527D01*
X152222Y555204D01*
X152287Y555075D01*
X152416Y554946D01*
X152675Y554494D01*
X152901Y554461D01*
X152933Y554752D01*
X152545Y555398D01*
X152222Y556109D01*
X152061Y556529D01*
X151964Y556884D01*
X151899Y557531D01*
X151738Y557951D01*
X151673Y558274D01*
X151609Y558985D01*
X151512Y559857D01*
X151447Y560826D01*
X151286Y560988D01*
X151189Y560697D01*
X151221Y560083D01*
X151092Y559889D01*
X150962Y559825D01*
X150768Y559760D01*
X149089Y559889D01*
X148442Y559954D01*
X146148Y559986D01*
X145890Y559922D01*
X146407Y559792D01*
X146730Y559728D01*
X147635Y559663D01*
X147861Y559502D01*
X148022Y559146D01*
X147958Y558888D01*
X147893Y557143D01*
X147828Y556949D01*
X147764Y556691D01*
X147699Y556044D01*
X147570Y555721D01*
X147505Y555075D01*
X147311Y554623D01*
X147150Y554203D01*
X147053Y554106D01*
X146827Y553492D01*
X146730Y553395D01*
X146472Y552943D01*
X146342Y552814D01*
X146148Y552491D01*
X145987Y552329D01*
X145728Y552264D01*
X145599Y552329D01*
X145470Y552458D01*
X145147Y552587D01*
X144727Y552749D01*
X144371Y552911D01*
X144242Y552975D01*
X142498Y553815D01*
X141399Y554332D01*
X140591Y554623D01*
X139493Y555011D01*
X139234Y555075D01*
X138911Y555204D01*
X138491Y555366D01*
X138233Y555431D01*
X137651Y555689D01*
X136553Y556271D01*
X136197Y556561D01*
X135971Y556723D01*
X135713Y556981D01*
X135583Y557046D01*
X135454Y557240D01*
X135325Y557304D01*
X135228Y557401D01*
X135163Y557531D01*
X134969Y557725D01*
X134905Y557854D01*
X134452Y558435D01*
X134259Y558629D01*
X134194Y558758D01*
X134000Y558952D01*
X133936Y559082D01*
X133289Y559986D01*
X133225Y560115D01*
X132902Y560568D01*
X132837Y560697D01*
X132579Y561149D01*
X132320Y561537D01*
X132255Y561666D01*
X131965Y562215D01*
X131835Y562280D01*
X131674Y562636D01*
X131609Y562765D01*
X131480Y562894D01*
X131319Y563314D01*
X131157Y563476D01*
X131092Y563605D01*
X130769Y564057D01*
X130705Y564186D01*
X130576Y564316D01*
X130317Y564768D01*
X130188Y564897D01*
X130123Y565026D01*
X129865Y565285D01*
X129800Y565414D01*
X129025Y566189D01*
X128960Y566319D01*
X128701Y566577D01*
X128637Y566706D01*
X128378Y567094D01*
X128443Y567417D01*
X128669Y567579D01*
X128766Y567676D01*
X128831Y567805D01*
X128960Y567934D01*
X129025Y568063D01*
X129218Y568257D01*
X129477Y568710D01*
X129800Y569420D01*
X129929Y569937D01*
X130123Y570390D01*
X130285Y571133D01*
X130349Y571391D01*
X130414Y571779D01*
X130479Y572554D01*
X130511Y574848D01*
X130446Y575042D01*
X130382Y576205D01*
X130317Y576399D01*
X130188Y576916D01*
X130123Y577433D01*
X129994Y577562D01*
X129929Y577821D01*
X129865Y578467D01*
X129800Y578725D01*
X129897Y579081D01*
X130285Y579727D01*
X130446Y579953D01*
X130866Y580567D01*
X131028Y580793D01*
X131157Y580922D01*
X131222Y581052D01*
X131868Y581956D01*
X131932Y582086D01*
X132062Y582215D01*
X132320Y582796D01*
X132514Y583313D01*
X132643Y583636D01*
X132740Y583992D01*
X132902Y584347D01*
X133031Y584670D01*
X133096Y584799D01*
X133289Y585252D01*
X133806Y586221D01*
X134065Y586673D01*
X134194Y586802D01*
X134259Y586932D01*
X134452Y587126D01*
X134517Y587255D01*
X134840Y587578D01*
X134905Y587707D01*
X135389Y588192D01*
X135519Y588257D01*
X135971Y588580D01*
X136100Y588644D01*
X136230Y588773D01*
X136359Y588838D01*
X137263Y589355D01*
X138879Y590130D01*
X140365Y590906D01*
X141528Y591552D01*
X141981Y591810D01*
X142562Y592134D01*
X143402Y592521D01*
X144242Y592844D01*
X144630Y592909D01*
X144824Y592974D01*
X145147Y592780D01*
D02*
G37*
G36*
X172254Y577950D02*
X172222Y577918D01*
X172189Y577950D01*
X172222Y577982D01*
X172254Y577950D01*
D02*
G37*
G36*
X171737Y578015D02*
X171705Y577918D01*
X171156Y577950D01*
X171188Y578047D01*
X171349Y578079D01*
X171382Y578111D01*
X171737Y578015D01*
D02*
G37*
G36*
X115746Y579468D02*
X115875Y579404D01*
X115972Y579307D01*
X116036Y578855D01*
X116101Y578596D01*
X115972Y578273D01*
X115907Y577885D01*
X115810Y577788D01*
X115681Y577724D01*
X115358Y577595D01*
X115035Y577788D01*
X114615Y578725D01*
X114680Y578984D01*
Y579048D01*
X114938Y579307D01*
X115003Y579436D01*
X115164Y579598D01*
X115293Y579662D01*
X115487Y579727D01*
X115746Y579468D01*
D02*
G37*
G36*
X221687Y576270D02*
X221751Y576141D01*
Y576076D01*
X221687Y575947D01*
X221525Y575914D01*
X221428Y576011D01*
X221493Y576205D01*
X221590Y576302D01*
X221687Y576270D01*
D02*
G37*
G36*
X216776Y575817D02*
X216743Y575721D01*
X216485Y575656D01*
X216420D01*
X216388Y575688D01*
X216323Y575817D01*
X216679Y575914D01*
X216776Y575817D01*
D02*
G37*
G36*
X210960Y575494D02*
X210152Y575462D01*
X210120Y575494D01*
X210411Y575527D01*
X210475D01*
X210960Y575494D01*
D02*
G37*
G36*
X204498Y575430D02*
X204207Y575333D01*
X203949Y575397D01*
X203658Y575430D01*
X203691Y575527D01*
X203884D01*
X204337Y575462D01*
X204466Y575527D01*
X204498Y575430D01*
D02*
G37*
G36*
X218876Y575721D02*
X221073Y575656D01*
X221234Y575494D01*
X221202Y575397D01*
X220944Y575462D01*
X220685Y575591D01*
X220104Y575333D01*
X219845Y575397D01*
X219167Y575365D01*
X218876Y575397D01*
X218779Y575301D01*
X218844Y575171D01*
X219070Y575139D01*
X219393Y575268D01*
X219684Y575042D01*
X219716Y574945D01*
X220039Y574816D01*
X220136Y574719D01*
X220071Y574461D01*
X219748Y574137D01*
X219619Y573879D01*
X219716Y573782D01*
X219974Y573717D01*
X220136Y573879D01*
X220200Y574008D01*
X220362Y574170D01*
X220653Y574008D01*
X220588Y573750D01*
X220491Y573653D01*
X220233Y573717D01*
X220071Y573685D01*
X220007Y573427D01*
X220071Y573362D01*
X219974Y573201D01*
X219716Y573136D01*
X219587Y573201D01*
X219457Y573330D01*
X219264Y573265D01*
X219231Y573039D01*
X219328Y572942D01*
X219684Y572845D01*
X219974Y572813D01*
X220136Y572910D01*
X220200Y573039D01*
X220847Y573104D01*
X220879Y573136D01*
X220976Y573039D01*
X220944Y572877D01*
X220427Y572813D01*
X220265Y572651D01*
X220330Y572522D01*
X220685Y572425D01*
X220782Y572393D01*
X220685Y572296D01*
X220039Y572361D01*
X219005Y572425D01*
X218811Y572490D01*
X218391Y572522D01*
X218100Y572490D01*
X217454Y572877D01*
X212705Y572781D01*
X210249Y572716D01*
X208634Y572651D01*
X207858Y572522D01*
X206824Y572457D01*
X204014Y572425D01*
X203723Y572587D01*
X203658Y572845D01*
X203723Y573297D01*
X203755Y573976D01*
X203594Y574202D01*
X203529Y574396D01*
X203594Y574525D01*
X203691Y574622D01*
X203981Y574654D01*
X204272Y574557D01*
X209183Y574622D01*
X209377Y574687D01*
X210863D01*
X213868Y574784D01*
X216905Y574848D01*
X217034Y574913D01*
X217099Y575042D01*
X217422Y575365D01*
X217487Y575688D01*
X218520Y575753D01*
X218682Y575785D01*
X218876Y575721D01*
D02*
G37*
G36*
X209280Y575494D02*
X209183Y575397D01*
X208440Y575430D01*
X208472Y575527D01*
X208731D01*
X209280Y575494D01*
D02*
G37*
G36*
X112902Y580179D02*
X113064Y580018D01*
X112999Y578984D01*
X113064Y577110D01*
X113290Y576819D01*
X113549Y576755D01*
X113872Y576625D01*
X113969Y576528D01*
X114001Y575591D01*
X113872Y575462D01*
X113549Y575397D01*
X113355Y575462D01*
X113032Y575268D01*
X112935Y574977D01*
X112999Y570196D01*
X113032Y570163D01*
X113064Y570131D01*
X113129Y570002D01*
X113225Y569905D01*
X113807Y569840D01*
X114098Y569550D01*
X114163Y569420D01*
X114292Y569291D01*
X114550Y568839D01*
X114680Y568710D01*
X114744Y568451D01*
X114680Y568322D01*
X114324Y568290D01*
X114130Y568354D01*
X111222Y568419D01*
X111029Y568483D01*
X110608Y568580D01*
X110350Y568645D01*
X110027Y568774D01*
X109542Y569065D01*
X109413Y569130D01*
X108993Y569550D01*
X108864Y569873D01*
X108799Y571100D01*
X108735Y573621D01*
X108476Y574202D01*
X108670Y574525D01*
X108799Y574654D01*
X108929Y574977D01*
X108864Y575365D01*
X108799Y575559D01*
X108702Y575914D01*
X108605Y576205D01*
X108993Y577045D01*
X108929Y577304D01*
X108864Y577498D01*
X108799Y577756D01*
X108702Y578176D01*
X108670Y578402D01*
X108993Y578855D01*
X109090Y579210D01*
X109284Y579533D01*
X109413Y579598D01*
X109607Y579791D01*
X110447Y580115D01*
X110705Y580179D01*
X112321Y580244D01*
X112902Y580179D01*
D02*
G37*
G36*
X173029Y575494D02*
Y575430D01*
X172965Y575171D01*
X172933Y575139D01*
X172836Y575236D01*
X172900Y575559D01*
X172933Y575591D01*
X173029Y575494D01*
D02*
G37*
G36*
X197778Y575236D02*
X197810Y575204D01*
X197972Y575171D01*
X197617Y575074D01*
X197487Y575139D01*
X197455Y575171D01*
X197746Y575268D01*
X197778Y575236D01*
D02*
G37*
G36*
X194612Y574848D02*
X194515Y574816D01*
X194450D01*
X194289Y574848D01*
X194580Y574881D01*
X194612Y574848D01*
D02*
G37*
G36*
X195355Y574881D02*
X195646Y574848D01*
X195613Y574816D01*
X195549D01*
X195129Y574784D01*
X194870Y574848D01*
X195129Y574913D01*
X195161Y574945D01*
X195355Y574881D01*
D02*
G37*
G36*
X220782Y574977D02*
X220750Y574881D01*
X220717Y574848D01*
X220685Y574751D01*
X220491Y574816D01*
X220394Y574913D01*
X220459Y575042D01*
X220620Y575074D01*
X220782Y574977D01*
D02*
G37*
G36*
X173353Y574331D02*
X173320Y574299D01*
X173288Y574331D01*
Y574396D01*
X173320Y574557D01*
X173353Y574331D01*
D02*
G37*
G36*
X189249Y574202D02*
X188829Y574170D01*
X188796Y574202D01*
X188893Y574299D01*
X189152D01*
X189249Y574202D01*
D02*
G37*
G36*
X186147Y573944D02*
X186050Y573911D01*
X185985D01*
X185791Y573847D01*
X185598Y573911D01*
X185565Y573944D01*
X186115Y573976D01*
X186147Y573944D01*
D02*
G37*
G36*
X183885Y573362D02*
Y573297D01*
X183853Y573265D01*
X183821Y573362D01*
X183853Y573394D01*
X183885Y573362D01*
D02*
G37*
G36*
X182916Y573621D02*
X182819Y573459D01*
X182690Y573394D01*
X182561Y573265D01*
X182464Y573297D01*
X182593Y573427D01*
X182625Y573524D01*
X182658Y573556D01*
X182690Y573653D01*
X182916Y573621D01*
D02*
G37*
G36*
X189313Y572781D02*
X188958Y572748D01*
X188893D01*
X188861Y572781D01*
X189281Y572813D01*
X189313Y572781D01*
D02*
G37*
G36*
X183498Y572910D02*
X183433Y572781D01*
X183174Y572651D01*
X183110Y572522D01*
X183013Y572425D01*
X182916Y572457D01*
X183239Y572781D01*
X183271Y572813D01*
X183401Y572942D01*
X183498Y572910D01*
D02*
G37*
G36*
X181624Y572522D02*
X181527Y572425D01*
X181494Y572457D01*
X181527Y572490D01*
X181559Y572522D01*
X181591Y572554D01*
X181624Y572522D01*
D02*
G37*
G36*
X193578Y572457D02*
X193610Y572425D01*
X193707Y572393D01*
X193352Y572361D01*
X193319Y572457D01*
X193546Y572490D01*
X193578Y572457D01*
D02*
G37*
G36*
X196486Y572134D02*
X196453Y572102D01*
X196389D01*
X195872Y572167D01*
X195840Y572199D01*
X196195Y572231D01*
X196486Y572134D01*
D02*
G37*
G36*
X181236D02*
X181171Y572005D01*
X181074Y571908D01*
X180913Y571940D01*
X181010Y572167D01*
X181074D01*
X181236Y572134D01*
D02*
G37*
G36*
X211412Y571876D02*
X210540Y571843D01*
X210508Y571876D01*
X211057Y571908D01*
X211122D01*
X211412Y571876D01*
D02*
G37*
G36*
X209926D02*
X209248Y571843D01*
X209183D01*
X208699Y571876D01*
X209894Y571908D01*
X209926Y571876D01*
D02*
G37*
G36*
X182334D02*
X182302Y571843D01*
X182205Y571876D01*
X182302Y571973D01*
X182334Y571876D01*
D02*
G37*
G36*
X146536Y573491D02*
X146342Y573297D01*
X146245Y572942D01*
X146019Y572393D01*
X145955Y571940D01*
X145922Y571908D01*
X145696Y571811D01*
X145761Y572457D01*
X146019Y573039D01*
X146084Y573233D01*
X146181Y573330D01*
X146310Y573394D01*
X146439Y573588D01*
X146536Y573491D01*
D02*
G37*
G36*
X221687Y571876D02*
X221654Y571843D01*
X221622Y571811D01*
X221525Y571779D01*
X221428Y571876D01*
X221493Y572005D01*
X221525Y572037D01*
X221687Y571876D01*
D02*
G37*
G36*
X217454Y571973D02*
X217551Y571876D01*
X217519Y571779D01*
X217293Y571811D01*
Y571876D01*
X217325Y572037D01*
X217454Y571973D01*
D02*
G37*
G36*
X204627Y571553D02*
X204401Y571520D01*
X204369Y571553D01*
X204401Y571585D01*
X204466D01*
X204627Y571553D01*
D02*
G37*
G36*
X206178D02*
X205920Y571488D01*
X205500Y571456D01*
X205209Y571553D01*
X205564Y571650D01*
X205823D01*
X206178Y571553D01*
D02*
G37*
G36*
X181947Y571488D02*
X181850Y571456D01*
X181817Y571488D01*
Y571553D01*
X181914Y571585D01*
X181947Y571488D01*
D02*
G37*
G36*
X173353D02*
X173288Y571294D01*
X173256Y571133D01*
X173223Y571165D01*
Y571230D01*
X173288Y571747D01*
X173320Y571779D01*
X173353Y571488D01*
D02*
G37*
G36*
X172448Y574590D02*
X172577Y574267D01*
X172642Y574008D01*
Y572716D01*
Y572651D01*
X172545Y571908D01*
X172480Y571391D01*
X172319Y571165D01*
X171188Y571133D01*
X170962Y571294D01*
X171026Y571617D01*
X171091Y571811D01*
X171026Y573233D01*
X170962Y573427D01*
X170897Y573879D01*
X170962Y574008D01*
X170768Y574461D01*
X170929Y574687D01*
X171188Y574751D01*
X172254Y574784D01*
X172448Y574590D01*
D02*
G37*
G36*
X145631Y571165D02*
X145567Y571100D01*
Y571036D01*
X145535Y571003D01*
X145438Y571100D01*
X145502Y571553D01*
X145599Y571585D01*
X145631Y571165D01*
D02*
G37*
G36*
X114583Y574364D02*
X114680Y574267D01*
X114486Y573944D01*
X114356Y573814D01*
X114163Y573168D01*
X114227Y572587D01*
X114486Y572199D01*
X114550Y572070D01*
X114712Y571779D01*
X114841Y571714D01*
X115164Y571391D01*
X115423Y571456D01*
X115649Y571682D01*
X115713Y571940D01*
X115843Y572070D01*
X115907Y572328D01*
X115843Y572845D01*
X115746Y572942D01*
X115132Y572910D01*
X115196Y572522D01*
X115584Y572263D01*
X115519Y571940D01*
X115229Y571843D01*
X115003Y571876D01*
X114809Y572199D01*
X114680Y572263D01*
X114486Y572716D01*
X114421Y572974D01*
X114486Y573427D01*
X114680Y573879D01*
X114712Y573976D01*
X115035Y574105D01*
X115358Y574041D01*
X115519Y573944D01*
X115584Y573750D01*
X115616Y573717D01*
X115713Y573427D01*
X115778Y573104D01*
X115875Y573071D01*
X115972Y573168D01*
X115875Y573847D01*
X115649Y574073D01*
X115681Y574364D01*
X116133Y574299D01*
X116230Y574202D01*
X116295Y573750D01*
X116230Y573491D01*
X116295Y571811D01*
X116230Y571617D01*
X116295Y571359D01*
X116101Y571036D01*
X114389Y571003D01*
X114195Y571068D01*
X113872Y571133D01*
X113775Y571488D01*
X113807Y572296D01*
X113775Y574202D01*
X113936Y574428D01*
X114583Y574364D01*
D02*
G37*
G36*
X181430Y571036D02*
X181365Y570971D01*
X181333Y570939D01*
X181300Y571036D01*
X181397Y571133D01*
X181430Y571036D01*
D02*
G37*
G36*
X222010Y569937D02*
X221977Y569905D01*
X221945Y570390D01*
X221977Y570422D01*
X222010Y569937D01*
D02*
G37*
G36*
X217422Y568903D02*
X217390Y568807D01*
X217357Y568903D01*
X217390Y568936D01*
X217422Y568903D01*
D02*
G37*
G36*
X147764Y574137D02*
X147958Y574008D01*
X148022Y573750D01*
X147828Y573297D01*
X147538Y572684D01*
X147505Y572651D01*
X147441Y572328D01*
X147376Y572134D01*
X147215Y571843D01*
X146891Y571650D01*
X146601Y571359D01*
X146407Y570906D01*
X146472Y569614D01*
X146536Y569420D01*
X146568Y568483D01*
X146310Y568419D01*
X145761Y568839D01*
X145728Y569388D01*
X145858Y570551D01*
X145955Y570906D01*
X146019Y571165D01*
X146213Y571617D01*
X146342Y572134D01*
X146472Y572457D01*
X146665Y572910D01*
X146730Y573104D01*
X146924Y573556D01*
X146988Y573814D01*
X147408Y574234D01*
X147764Y574137D01*
D02*
G37*
G36*
X155260Y570971D02*
X155324Y570713D01*
X155260Y569162D01*
X155195Y568968D01*
X155130Y568387D01*
X155066Y568193D01*
X155001Y567934D01*
X154840Y567514D01*
X154678Y567546D01*
X154613Y567999D01*
X154678Y568645D01*
X154743Y569485D01*
X154807Y569679D01*
X154872Y570131D01*
X154936Y570325D01*
X155001Y570583D01*
X155066Y570906D01*
X155163Y571003D01*
X155227D01*
X155260Y570971D01*
D02*
G37*
G36*
X118460Y580696D02*
X118783Y580567D01*
X119106Y580373D01*
X119138Y580276D01*
X119009Y579953D01*
X119106Y579727D01*
X119267Y579759D01*
X119332Y580018D01*
X119397Y580147D01*
X119493Y580244D01*
X120075Y580179D01*
X120269Y580115D01*
X120721Y580050D01*
X122918Y579985D01*
X123241Y579856D01*
X124017Y579791D01*
X124211Y579727D01*
X124631Y579630D01*
X124889Y579565D01*
X125212Y579501D01*
X125471Y579436D01*
X125891Y579275D01*
X126375Y579178D01*
X126601Y579081D01*
X126925Y578952D01*
X127538Y578725D01*
X127829Y578628D01*
X128249Y578467D01*
X128540Y578370D01*
X129509Y578305D01*
X129671Y578144D01*
X129735Y577885D01*
X129865Y577562D01*
X129929Y576464D01*
X129994Y576270D01*
X130188Y575624D01*
X130123Y571488D01*
X129994Y571359D01*
X129865Y570583D01*
X129800Y570066D01*
X129671Y569937D01*
X129445Y569323D01*
X129348Y569227D01*
X129154Y568710D01*
X129025Y568580D01*
X128960Y568451D01*
X128669Y568096D01*
X128508Y567870D01*
X128249Y567611D01*
X128217Y567514D01*
X127765Y567450D01*
X127506Y567514D01*
X126666Y567450D01*
X125115Y567385D01*
X124921Y567320D01*
X123435Y567256D01*
X123241Y567191D01*
X121626Y567126D01*
X120592Y567062D01*
X120334Y566997D01*
X119138Y566900D01*
X119009Y566771D01*
X118944Y566512D01*
X118750Y566319D01*
X118686Y566189D01*
X118395Y565899D01*
X117813Y565640D01*
X117393Y565608D01*
X117297Y565640D01*
X117103Y565576D01*
X116263Y565640D01*
X115681Y565963D01*
X115649Y566319D01*
X115843Y566512D01*
X115907Y566642D01*
X116004Y566739D01*
X116133Y566803D01*
X116489Y567094D01*
X116618Y567417D01*
X116553Y567676D01*
X116295Y567934D01*
X116036Y568387D01*
X115584Y569097D01*
X115519Y569227D01*
X115390Y569356D01*
X115326Y569485D01*
X115196Y569808D01*
X115293Y569905D01*
X116779Y569970D01*
X116876Y570066D01*
X117006Y570390D01*
X117070Y570648D01*
X117006Y572263D01*
X116973Y573007D01*
X117006Y573233D01*
X116941Y573427D01*
X116876Y575236D01*
X116779Y575333D01*
X116521Y575397D01*
X115100Y575462D01*
X114938Y575559D01*
Y575624D01*
X114873Y575817D01*
X114809Y576270D01*
X115003Y576593D01*
X115293Y576690D01*
X116392Y576755D01*
X116779Y576884D01*
X116909Y577013D01*
X117200Y577175D01*
X117264Y577304D01*
X117620Y577659D01*
X117749Y577724D01*
X117846Y577821D01*
X117910Y577950D01*
X118137Y578111D01*
X118266Y578241D01*
X118718Y578305D01*
X118976Y578370D01*
X119009Y578532D01*
X118912Y578628D01*
X118556Y578725D01*
X118298Y578661D01*
X117620Y578176D01*
X117458Y577950D01*
X117297Y577788D01*
X117167Y577853D01*
X117070Y577950D01*
X117135Y578208D01*
X117103Y580308D01*
X117232Y580631D01*
X117555Y580761D01*
X118460Y580696D01*
D02*
G37*
G36*
X216840Y567223D02*
X216743Y567191D01*
X216711Y567353D01*
X216743Y567385D01*
X216808Y567450D01*
X216840Y567223D01*
D02*
G37*
G36*
X222268Y567353D02*
X222236Y567126D01*
X222139Y567223D01*
Y567288D01*
X222171Y567385D01*
X222268Y567353D01*
D02*
G37*
G36*
X154452Y572296D02*
X154646Y572102D01*
X154936Y571940D01*
X155001Y571682D01*
X154936Y571359D01*
X154807Y571230D01*
X154581Y570616D01*
X154484Y570260D01*
X154355Y569937D01*
X154290Y569033D01*
X154226Y568839D01*
X154161Y568387D01*
X154226Y566900D01*
X154290Y566771D01*
X154129Y566609D01*
X153773Y566836D01*
X153709Y567159D01*
X153773Y567353D01*
X153709Y567546D01*
X153644Y568063D01*
Y568128D01*
X153709Y568774D01*
X153644Y568968D01*
X153709Y571423D01*
X153773Y571617D01*
X153870Y571973D01*
X154064Y572296D01*
X154323Y572361D01*
X154452Y572296D01*
D02*
G37*
G36*
X171317Y566674D02*
X171608Y566577D01*
X171575Y566480D01*
X171123Y566416D01*
X171058D01*
X170897Y566577D01*
X170994Y566739D01*
X171317Y566674D01*
D02*
G37*
G36*
X216517Y566706D02*
X216453Y566383D01*
X216420Y566351D01*
X216388Y566706D01*
X216485Y566739D01*
X216517Y566706D01*
D02*
G37*
G36*
X216194Y565802D02*
Y565737D01*
X216162Y565511D01*
X216065Y565543D01*
X216097Y565834D01*
X216194Y565802D01*
D02*
G37*
G36*
X174063Y564962D02*
X174031Y564865D01*
X173837Y564929D01*
X173805Y565026D01*
Y565091D01*
X173902Y565123D01*
X174063Y564962D01*
D02*
G37*
G36*
X172706Y564574D02*
X172674Y564542D01*
X172642Y564574D01*
X172674Y564606D01*
X172706Y564574D01*
D02*
G37*
G36*
X174354Y564606D02*
X174386Y564445D01*
X174354Y564412D01*
X174322Y564380D01*
X174289Y564348D01*
X174193Y564445D01*
X174225Y564671D01*
X174354Y564606D01*
D02*
G37*
G36*
X175743Y563734D02*
X175711Y563637D01*
X175679Y563734D01*
X175711Y563766D01*
X175743Y563734D01*
D02*
G37*
G36*
X207212Y562506D02*
X207115Y562409D01*
X206889Y562506D01*
X206986Y562538D01*
X207051D01*
X207212Y562506D01*
D02*
G37*
G36*
X205015D02*
X204918Y562409D01*
X204660D01*
X204627Y562442D01*
X204660Y562538D01*
X205015Y562506D01*
D02*
G37*
G36*
X203981D02*
X203949Y562409D01*
X203691D01*
X203594Y562442D01*
X203691Y562538D01*
X203981Y562506D01*
D02*
G37*
G36*
X202431Y562442D02*
X202075Y562409D01*
X202010D01*
X201978Y562442D01*
X202398Y562474D01*
X202431Y562442D01*
D02*
G37*
G36*
X195452Y562118D02*
X195096Y562086D01*
X195064Y562118D01*
Y562183D01*
X195420Y562215D01*
X195452Y562118D01*
D02*
G37*
G36*
X171252Y561892D02*
X171285Y561860D01*
X171188Y561763D01*
X170542Y561698D01*
X170348Y561763D01*
X169831Y561698D01*
X169540Y561795D01*
X169605Y561925D01*
X169895Y561957D01*
X170089Y561892D01*
X170800Y561957D01*
X170865D01*
X171252Y561892D01*
D02*
G37*
G36*
X171608Y561860D02*
X171446Y561828D01*
X171414Y561860D01*
X171575Y561892D01*
X171608Y561860D01*
D02*
G37*
G36*
X216259Y561602D02*
X216356Y561246D01*
X216582Y560826D01*
X216647Y560568D01*
X216969Y559857D01*
X217067Y559502D01*
X217228Y559146D01*
X217357Y558823D01*
X217487Y558694D01*
X217874Y557983D01*
X218133Y557725D01*
X218197Y557595D01*
X218359Y557434D01*
X218488Y557369D01*
X218682Y557175D01*
X219102Y557014D01*
X219167Y556884D01*
X219264Y556788D01*
X219716Y556723D01*
X220233Y556594D01*
X220750Y556658D01*
X221073Y556788D01*
X221331Y556852D01*
X221493Y556820D01*
X221461Y556529D01*
X221008Y556464D01*
X220750Y556400D01*
X220717Y556303D01*
X220782Y556238D01*
X220685Y556141D01*
X220556Y556077D01*
X220459Y555980D01*
X220588Y555851D01*
X220620Y555624D01*
X220782Y555592D01*
X220847Y555463D01*
X220911Y555398D01*
X220782Y555334D01*
X220911Y555204D01*
X220717Y555140D01*
X220847Y555075D01*
X220588Y554946D01*
X220620Y554720D01*
X220588Y554623D01*
X220685Y554526D01*
X220944Y554461D01*
X221041Y554364D01*
X221073Y554203D01*
X220782Y553912D01*
X220717Y553589D01*
X220685Y553557D01*
X220556Y553621D01*
X220491Y553040D01*
X220394Y552684D01*
X220427Y552587D01*
X220588Y552555D01*
X220653Y552749D01*
X220717Y553524D01*
X220814Y553686D01*
X220879Y553557D01*
X220976Y553524D01*
X221105Y553072D01*
X221041Y552878D01*
X221008Y552717D01*
X220911Y552684D01*
X220879Y552587D01*
X220782Y552555D01*
X220944Y552393D01*
X221137Y552329D01*
X221299Y552232D01*
X221234Y552103D01*
X221073Y551877D01*
X220976Y551909D01*
X220944Y552006D01*
X220814Y551941D01*
X220750Y552006D01*
X220524Y551844D01*
X220588Y551650D01*
X220782Y551457D01*
X220620Y551295D01*
X220459Y551263D01*
X220524Y550940D01*
X220717Y550746D01*
X220847Y550293D01*
X220782Y549970D01*
X220588Y549777D01*
X220620Y549550D01*
X220782Y549583D01*
X220814Y549680D01*
X220911Y549647D01*
X220976Y548613D01*
X221041Y548355D01*
X220976Y546029D01*
X220911Y545835D01*
X220944Y544704D01*
X220847Y544607D01*
X220911Y544349D01*
X221137Y544252D01*
X221234Y544026D01*
X221170Y543961D01*
X221234Y543767D01*
X221267Y543218D01*
X221234Y543121D01*
X221364Y542798D01*
X221428Y542281D01*
X221557Y542152D01*
X221493Y541828D01*
X221396Y541732D01*
X221267Y541667D01*
X221202Y541408D01*
X221234Y540924D01*
X221170Y540730D01*
X221202Y540633D01*
X221590Y540698D01*
X221654Y540762D01*
X221751Y540665D01*
X221654Y539922D01*
X221525Y539987D01*
X221234Y539761D01*
X221267Y539535D01*
X221202Y539405D01*
X221073Y539341D01*
X220911Y539179D01*
X221008Y539082D01*
X221331Y538888D01*
X221557Y538727D01*
X221622Y538598D01*
X221751Y538274D01*
X221816Y538016D01*
X222074Y537951D01*
X222236Y537725D01*
X222333Y537693D01*
X222397Y537434D01*
X222333Y537176D01*
X222397Y536982D01*
X222462Y536724D01*
X222591Y536594D01*
X222656Y536142D01*
X222753Y535011D01*
X222914Y534591D01*
X222850Y534462D01*
X222979Y534139D01*
X223044Y532717D01*
X222947Y532556D01*
X222817Y532620D01*
X222721Y532911D01*
X222753Y534559D01*
X222688Y534882D01*
X222591Y535238D01*
X222462Y535754D01*
X222397Y536271D01*
X222139Y536853D01*
X222204Y537176D01*
X222268Y537241D01*
X222171Y537338D01*
X222042Y537402D01*
X221751Y537951D01*
X221525Y538113D01*
X221428Y538210D01*
X221364Y538339D01*
X221234Y538468D01*
X221170Y538598D01*
X221008Y538759D01*
X220427Y539018D01*
X219974Y539082D01*
X219005Y538565D01*
X218811Y538372D01*
X218682Y538307D01*
X218553Y538178D01*
X218424Y538113D01*
X217713Y537402D01*
X217583Y537338D01*
X217487Y537241D01*
X217422Y537111D01*
X217228Y536659D01*
X217163Y536013D01*
X217099Y533493D01*
X217034Y533299D01*
X216969Y533041D01*
X216873Y532620D01*
X216679Y532427D01*
X216065Y532459D01*
X215742Y532394D01*
X215322Y532233D01*
X214966Y532136D01*
X214546Y531910D01*
X214191Y531813D01*
X213932Y531748D01*
X213545Y531683D01*
X208731Y531651D01*
X208537Y531716D01*
X205984Y531813D01*
X204886Y531877D01*
X204498Y531942D01*
X204207Y532039D01*
X204014Y531974D01*
X203691Y532039D01*
X203529Y532330D01*
X203464Y532847D01*
X203400Y533041D01*
X203335Y533881D01*
X203594Y534462D01*
X203723Y534914D01*
X203884Y535334D01*
X203917Y536077D01*
X203626Y536433D01*
X203594Y536724D01*
X203852Y536982D01*
X203981Y537305D01*
X203917Y537758D01*
X203852Y537887D01*
X203594Y538145D01*
X203658Y538468D01*
X203852Y538792D01*
X203884Y538824D01*
X203949Y539082D01*
X203981Y539115D01*
X203917Y539308D01*
X203787Y539632D01*
X203658Y540084D01*
X203594Y540407D01*
X203658Y540601D01*
X203594Y541958D01*
X203464Y542087D01*
X203335Y542410D01*
X203400Y542927D01*
X203529Y543250D01*
X203658Y543702D01*
X203691Y544446D01*
X203626Y544769D01*
X203497Y545092D01*
X203432Y545350D01*
X203400Y545835D01*
X203594Y546287D01*
X203529Y546675D01*
X203723Y546998D01*
X203787Y547450D01*
X203723Y547709D01*
X203691Y547999D01*
X203723Y548420D01*
X203594Y548743D01*
X203658Y549001D01*
X203723Y549195D01*
X203787Y549453D01*
X203723Y549906D01*
X203884Y550326D01*
X203981Y550423D01*
X203917Y551004D01*
X203787Y551327D01*
X203852Y551586D01*
X203787Y553266D01*
X203723Y553460D01*
X203787Y555657D01*
X203917Y555980D01*
X203594Y556432D01*
X203400Y556626D01*
X203335Y556884D01*
X203594Y557272D01*
X203658Y557725D01*
X203723Y558112D01*
X203658Y558306D01*
X203691Y558920D01*
X203658Y559405D01*
X203917Y559986D01*
X203626Y560342D01*
X203594Y560632D01*
X203723Y560955D01*
X203787Y561537D01*
X203884Y561634D01*
X204143Y561698D01*
X212705Y561666D01*
X213609Y561731D01*
X215096Y561795D01*
X215257Y561828D01*
X215451Y561763D01*
X216033Y561828D01*
X216259Y561602D01*
D02*
G37*
G36*
X173740Y561795D02*
X173643Y561763D01*
X173611Y561795D01*
X173643Y561828D01*
X173708D01*
X173740Y561795D01*
D02*
G37*
G36*
X169378Y561892D02*
X169475Y561795D01*
X169443Y561763D01*
X169411Y561731D01*
X169314Y561634D01*
X169088Y561666D01*
X169120Y561957D01*
X169378Y561892D01*
D02*
G37*
G36*
X222914Y558888D02*
Y558823D01*
X222882Y558597D01*
X222785Y558629D01*
X222817Y558920D01*
X222914Y558888D01*
D02*
G37*
G36*
X222010Y557143D02*
X221945Y557078D01*
Y557014D01*
X221848Y556917D01*
X221557Y556884D01*
X221622Y557014D01*
X221784Y557175D01*
X222010Y557143D01*
D02*
G37*
G36*
X222753Y555689D02*
X222785Y555592D01*
X222688Y555495D01*
X222591Y555592D01*
Y555657D01*
X222624Y555754D01*
X222753Y555689D01*
D02*
G37*
G36*
X220976Y555334D02*
X220944Y555301D01*
X220911Y555334D01*
X220944Y555366D01*
X220976Y555334D01*
D02*
G37*
G36*
X221105Y554106D02*
X221073Y554074D01*
X221041Y554106D01*
X221073Y554138D01*
X221105Y554106D01*
D02*
G37*
G36*
X222559Y554074D02*
X222171Y553880D01*
X222074Y553977D01*
X222236Y554138D01*
X222365D01*
X222656Y554171D01*
X222559Y554074D01*
D02*
G37*
G36*
X221331D02*
X221428Y553977D01*
X221396Y553880D01*
X221364Y553847D01*
X221331Y553815D01*
X221234Y553912D01*
X221299Y553977D01*
X221267Y554009D01*
X221202Y553944D01*
X221170Y553977D01*
X221234Y554041D01*
X221202Y554074D01*
X221137Y554009D01*
X221105Y554041D01*
X221202Y554138D01*
X221331Y554074D01*
D02*
G37*
G36*
X221493Y553847D02*
Y553783D01*
X221461Y553751D01*
X221428Y553847D01*
X221461Y553880D01*
X221493Y553847D01*
D02*
G37*
G36*
X223173Y553201D02*
X223108Y553072D01*
X223011Y552975D01*
X222785Y553007D01*
Y553137D01*
X222817Y553169D01*
X223011Y553234D01*
X223173Y553201D01*
D02*
G37*
G36*
X221622Y553718D02*
X221654Y553686D01*
X221816Y553524D01*
X221751Y553137D01*
X221881Y552749D01*
X222010Y552620D01*
X222074Y552426D01*
X221977Y552393D01*
X221784Y552587D01*
X221525Y552523D01*
X221428Y552620D01*
X221493Y552814D01*
X221557Y553072D01*
X221525Y553751D01*
X221622Y553718D01*
D02*
G37*
G36*
X222591Y552038D02*
X222494Y552006D01*
X222430D01*
X222301Y552070D01*
X222268Y552103D01*
X222494Y552135D01*
X222591Y552038D01*
D02*
G37*
G36*
X222074Y551715D02*
X222139Y551457D01*
X222042Y551360D01*
X221913Y551424D01*
X221881Y551457D01*
X221913Y551747D01*
X222074Y551715D01*
D02*
G37*
G36*
X221557Y551004D02*
X221525Y550843D01*
X221299Y550875D01*
X221234Y551004D01*
X221105Y551069D01*
X221137Y551230D01*
X221267Y551166D01*
X221299Y551198D01*
X221331Y551230D01*
X221557Y551004D01*
D02*
G37*
G36*
X223237Y551133D02*
X223108Y551004D01*
X223076Y550972D01*
X222882Y550907D01*
X222721Y550940D01*
X222785Y551069D01*
X223076Y551166D01*
X223237Y551133D01*
D02*
G37*
G36*
X222591Y550681D02*
X222527Y550617D01*
X222494Y550584D01*
X222301Y550520D01*
X222268Y550617D01*
X222559Y550713D01*
X222591Y550681D01*
D02*
G37*
G36*
X221719Y550778D02*
X221881Y550617D01*
X221945Y550487D01*
X222074Y550358D01*
X222010Y550100D01*
X221977Y550067D01*
X221881Y550164D01*
X221784Y550390D01*
X221687Y550423D01*
X221654Y550455D01*
X221557Y550746D01*
X221590Y550843D01*
X221719Y550778D01*
D02*
G37*
G36*
X221364Y549841D02*
X221331Y549809D01*
X221299Y549841D01*
X221331Y549873D01*
X221364Y549841D01*
D02*
G37*
G36*
X222591Y549518D02*
X222494Y549486D01*
X222462Y549518D01*
X222494Y549550D01*
X222559D01*
X222591Y549518D01*
D02*
G37*
G36*
X221687Y547321D02*
X221751Y547192D01*
X221881Y547063D01*
Y546998D01*
Y546933D01*
X221719Y546772D01*
X221525Y546836D01*
X221493Y547450D01*
X221525Y547483D01*
X221687Y547321D01*
D02*
G37*
G36*
X221557Y544995D02*
X221525Y544963D01*
X221493Y544995D01*
X221396Y545092D01*
X221202Y545156D01*
X221170Y545253D01*
X221525Y545286D01*
X221557Y544995D01*
D02*
G37*
G36*
X221493Y544866D02*
X221557Y544543D01*
X221687Y544478D01*
X221622Y544349D01*
X221590Y544316D01*
X221525Y544381D01*
X221461D01*
X221234Y544413D01*
X221202Y544704D01*
X221267Y544963D01*
X221493Y544866D01*
D02*
G37*
G36*
X222139Y541570D02*
X222074Y541441D01*
X221913Y541408D01*
X221784Y541473D01*
X221719Y541408D01*
X221687Y541441D01*
Y541505D01*
X221719Y541602D01*
X221784Y541538D01*
X221977Y541602D01*
X222139Y541570D01*
D02*
G37*
G36*
X221913Y539276D02*
X221945Y539244D01*
X221881Y539179D01*
X221945Y539115D01*
X221848Y539018D01*
X221622Y539115D01*
X221687Y539308D01*
X221719Y539341D01*
X221913Y539276D01*
D02*
G37*
G36*
X178554Y535076D02*
X179459Y535011D01*
X180170Y534624D01*
X180331Y534462D01*
X180267Y534204D01*
X179976Y534107D01*
X179071Y534171D01*
X178877Y534236D01*
X178296Y534301D01*
X178102Y534236D01*
X177650Y534301D01*
X177391Y534365D01*
X175970Y534301D01*
X175453Y533977D01*
X175323Y533913D01*
X175291Y533881D01*
X175226Y533687D01*
X175388Y533525D01*
X175711Y533654D01*
X176034Y533848D01*
X176874Y533913D01*
X177520Y533848D01*
X177553Y533687D01*
X177456Y533525D01*
X177003Y533396D01*
X176196Y533299D01*
X175873Y533234D01*
X175614Y533170D01*
X175259Y533073D01*
X174936Y532943D01*
X174839Y532847D01*
X174806Y532750D01*
X174677Y532685D01*
X174516Y532523D01*
X174451Y532394D01*
X174354Y532297D01*
X172933Y532233D01*
X172739Y532168D01*
X171963Y532103D01*
X171640Y531974D01*
X171382Y531910D01*
X170736Y531651D01*
X170348Y531716D01*
X170154Y531780D01*
X169378Y531845D01*
X169217Y532007D01*
X168958Y532459D01*
X168668Y532814D01*
X168538Y532879D01*
X168409Y533008D01*
X168086Y533137D01*
X167634Y533331D01*
X166697Y533428D01*
X167052Y533525D01*
X169831Y533590D01*
X170154Y533719D01*
X171188Y533977D01*
X171834Y534171D01*
X172286Y534301D01*
X172545Y534365D01*
X172868Y534494D01*
X173385Y534559D01*
X173579Y534624D01*
X174257Y534785D01*
X174516Y534850D01*
X175549Y534914D01*
X177165Y535044D01*
X177811Y535108D01*
X178360Y535141D01*
X178554Y535076D01*
D02*
G37*
G36*
X140462Y537822D02*
X140882Y537402D01*
X141011Y537338D01*
X141108Y537241D01*
X141173Y537111D01*
X141399Y536950D01*
X141948Y536401D01*
X141884Y536142D01*
X141690Y535948D01*
X141625Y535819D01*
X141302Y535496D01*
X141237Y535367D01*
X141044Y535173D01*
X140979Y535044D01*
X140785Y534850D01*
X140720Y534721D01*
X140462Y534462D01*
X140397Y534333D01*
X140203Y534139D01*
X140139Y534010D01*
X140010Y533881D01*
X139945Y533751D01*
X139525Y533331D01*
X139267Y533267D01*
X139008Y533331D01*
X138911Y533428D01*
X138976Y533751D01*
X139040Y533945D01*
X139105Y534398D01*
X139170Y534591D01*
X139234Y535044D01*
X139428Y535690D01*
X139493Y536142D01*
X139557Y536401D01*
X139654Y537014D01*
X139751Y537305D01*
Y537370D01*
Y537434D01*
X139816Y537628D01*
X139913Y538048D01*
X140107Y538113D01*
X140462Y537822D01*
D02*
G37*
G36*
X165792Y533299D02*
X165501Y533202D01*
X165049Y533073D01*
X164306Y532976D01*
X163337Y532782D01*
X162949Y532717D01*
X162626Y532588D01*
X162367Y532523D01*
X162044Y532459D01*
X161786Y532394D01*
X161237Y532233D01*
X160978Y532168D01*
X160623Y532071D01*
X160300Y531942D01*
X160041Y531877D01*
X159653Y531813D01*
X159395Y531748D01*
X159040Y531651D01*
X158264Y531457D01*
X157844Y531360D01*
X157586Y531296D01*
X157263Y531231D01*
X156552Y531167D01*
X156164Y531102D01*
X155647Y531037D01*
X154872Y530973D01*
X152384Y530940D01*
X152190Y531005D01*
X151189Y531102D01*
X150316Y531199D01*
X149476Y531263D01*
X149282Y531328D01*
X148636Y531393D01*
X148378Y531457D01*
X146956Y531587D01*
X145470Y531651D01*
X145276Y531587D01*
X144888Y531651D01*
X144727Y532071D01*
X144662Y532459D01*
X144597Y532588D01*
X144759Y532750D01*
X145470Y532685D01*
X145664Y532750D01*
X146698Y532685D01*
X153676Y532620D01*
X153741D01*
X156261Y532685D01*
X156455Y532750D01*
X158006Y532814D01*
X158200Y532879D01*
X158846Y532943D01*
X160364Y533041D01*
X161237Y533137D01*
X161689Y533202D01*
X163014Y533299D01*
X164048Y533364D01*
X165760Y533396D01*
X165792Y533299D01*
D02*
G37*
G36*
X177553Y532653D02*
X177585Y532362D01*
X177391Y532297D01*
X176939Y532362D01*
X176745Y532297D01*
X175582Y532362D01*
X175517D01*
X175129Y532427D01*
X175097Y532523D01*
X175259Y532685D01*
X175517Y532750D01*
X176454Y532847D01*
X176777Y532911D01*
X177133Y532943D01*
X177553Y532653D01*
D02*
G37*
G36*
X178813Y533784D02*
X179362Y533428D01*
Y533364D01*
X179394Y533331D01*
X179750Y532976D01*
X179814Y532847D01*
X180073Y532588D01*
X180008Y532265D01*
X179653Y532233D01*
X179524Y532362D01*
X179394Y532427D01*
X179233Y532588D01*
X179168Y532717D01*
X178910Y532976D01*
X178845Y533105D01*
X178619Y533267D01*
X178199Y533493D01*
X178134Y533751D01*
X178231Y533848D01*
X178813Y533784D01*
D02*
G37*
G36*
X178102Y533137D02*
X178231Y533008D01*
X178360Y532943D01*
X178716Y532653D01*
X178748Y532620D01*
X178845Y532394D01*
X178748Y532233D01*
X178360Y532297D01*
X177682Y532976D01*
X177650Y533202D01*
X177779Y533331D01*
X178102Y533137D01*
D02*
G37*
G36*
X196389Y532362D02*
X197423Y532297D01*
X197617Y532233D01*
X198263Y532168D01*
X198715Y532103D01*
X198974Y532039D01*
X199813Y531974D01*
X200007Y531910D01*
X200266Y531845D01*
X201074Y531748D01*
X201655Y531683D01*
X203077Y531554D01*
X204240Y531490D01*
X205080Y531425D01*
X205855Y531296D01*
X206889Y531231D01*
X208828Y531167D01*
X213577Y531134D01*
X213771Y531199D01*
X214288Y531263D01*
X214869Y531522D01*
X215322Y531716D01*
X216065Y531877D01*
X216356Y531910D01*
X216582Y531748D01*
X216517Y530714D01*
X216614Y530359D01*
X216679Y530036D01*
X216743Y529777D01*
X216873Y529454D01*
X216969Y529163D01*
X217131Y528743D01*
X217293Y528388D01*
X217357Y528259D01*
X217616Y527871D01*
X217810Y527548D01*
X217939Y527225D01*
X218003Y526837D01*
X218133Y526514D01*
X218068Y526062D01*
X217680Y525222D01*
X217616Y524963D01*
X217519Y524737D01*
X217067Y524673D01*
X216033Y524608D01*
X215289Y524511D01*
X214773Y524446D01*
X213222Y524382D01*
X211315Y524285D01*
X211057Y524220D01*
X209862Y524123D01*
X209151Y524059D01*
X207342Y523994D01*
X205984Y523929D01*
X205209Y523865D01*
X204369Y523800D01*
X201623Y523768D01*
X201429Y523832D01*
X199555Y523897D01*
X199361Y523962D01*
X198133Y524026D01*
X195549Y524091D01*
X194030Y523994D01*
X193772Y523929D01*
X193416Y523832D01*
X191898Y523736D01*
X190541Y523671D01*
X190024Y523606D01*
X189313Y523542D01*
X188473Y523477D01*
X183401Y523445D01*
X183207Y523509D01*
X182302Y523574D01*
X181850Y523768D01*
X181494Y523865D01*
X181397Y523962D01*
X180945Y524220D01*
X180816Y524349D01*
X180557Y524414D01*
X180299Y524349D01*
X180267Y524188D01*
X180557Y523897D01*
X180687Y523832D01*
X181268Y523509D01*
X182108Y523122D01*
X186082Y523025D01*
X189249Y523089D01*
X190735Y523154D01*
X191025Y523186D01*
X191219Y523122D01*
X193029Y523057D01*
X193222Y522992D01*
X193998Y522928D01*
X194192Y522863D01*
X194644Y522798D01*
X195678Y522734D01*
X196324Y522669D01*
X196583Y522605D01*
X198230Y522443D01*
X199329Y522378D01*
X200040Y522249D01*
X200621Y522185D01*
X201978Y522120D01*
X202689Y522055D01*
X203594Y521991D01*
X204466Y521894D01*
X206663Y521829D01*
X210540Y521765D01*
X210734Y521700D01*
X211800Y521603D01*
X213286Y521474D01*
X215128Y521442D01*
X215322Y521506D01*
X217454Y521442D01*
X218036Y521118D01*
X218133Y521022D01*
X218068Y520246D01*
X218003Y520052D01*
X217971Y519374D01*
X218003Y518631D01*
X217939Y518437D01*
X217874Y515981D01*
X217810Y515788D01*
X217745Y515529D01*
X217810Y514948D01*
X217939Y514624D01*
X218003Y514366D01*
X217939Y514237D01*
X217842Y514140D01*
X212446Y514043D01*
X211671Y513978D01*
X211154Y513914D01*
X210249Y513849D01*
X207438Y513752D01*
X207245Y513687D01*
X204660Y513623D01*
X196583Y513558D01*
X196389Y513494D01*
X195549Y513429D01*
X195355Y513364D01*
X195000Y513267D01*
X194418Y513203D01*
X194159Y513138D01*
X193836Y513074D01*
X192964Y512977D01*
X191833Y512815D01*
X191284Y512653D01*
X189862Y512589D01*
X187471Y512524D01*
X181010Y512460D01*
X180816Y512395D01*
X179136Y512330D01*
X178942Y512266D01*
X178231Y512201D01*
X178037Y512137D01*
X177230Y512040D01*
X176583Y511975D01*
X175808Y511910D01*
X175291Y511846D01*
X173449Y511813D01*
X173256Y511878D01*
X172157Y512007D01*
X171834Y512137D01*
X171511Y512330D01*
X171414Y512621D01*
X171479Y512815D01*
X171543Y513074D01*
X171608Y513267D01*
X171543Y513461D01*
X171446Y513687D01*
X171188Y513752D01*
X170639Y513784D01*
X169992Y513655D01*
X169766Y513623D01*
X169605Y513784D01*
X169669Y514301D01*
X169766Y514398D01*
X170929Y514334D01*
X171123Y514269D01*
X171640Y514334D01*
X171866Y514560D01*
X172060Y515012D01*
X172125Y515400D01*
X172319Y515852D01*
X172448Y516369D01*
X172545Y516789D01*
X172642Y517144D01*
X172706Y517403D01*
X172868Y518081D01*
X172933Y518340D01*
X172965Y519535D01*
X172674Y519891D01*
X172157Y520020D01*
X171188Y520085D01*
X171091Y520182D01*
X171156Y520440D01*
X171317Y520602D01*
X172157Y520537D01*
X172415Y520472D01*
X172771Y520569D01*
X172965Y520763D01*
X173029Y521215D01*
X172997Y523962D01*
X173029Y524123D01*
X172965Y524317D01*
X172900Y525351D01*
X172836Y525545D01*
X172771Y525997D01*
X172706Y526256D01*
X172609Y526869D01*
X172480Y527386D01*
X172415Y527903D01*
X172286Y528679D01*
X172125Y529099D01*
X171931Y529422D01*
X170929Y529454D01*
X170736Y529390D01*
X170412Y529454D01*
X170380Y529680D01*
X171091Y529745D01*
X171608Y529939D01*
X171737Y530068D01*
X171672Y530327D01*
X171220Y531296D01*
X171285Y531425D01*
X171802Y531554D01*
X172448Y531683D01*
X173223Y531748D01*
X174451Y531813D01*
X174936Y531845D01*
X175129Y531780D01*
X175323Y531845D01*
X176971Y531813D01*
X177133Y531845D01*
X177327Y531780D01*
X178134Y531813D01*
X180364Y531780D01*
X180557Y531845D01*
X181979Y531910D01*
X182173Y531974D01*
X182819Y532039D01*
X183271Y532103D01*
X185178Y532071D01*
X185985Y532103D01*
X186050D01*
X188505Y532168D01*
X188699Y532233D01*
X190864Y532330D01*
X194676Y532394D01*
X196195Y532427D01*
X196389Y532362D01*
D02*
G37*
G36*
X222721Y532265D02*
X222785Y532007D01*
X222721Y531748D01*
X222559Y531587D01*
X222462Y531683D01*
X222527Y532136D01*
Y532200D01*
X222624Y532297D01*
X222721Y532265D01*
D02*
G37*
G36*
X124243Y531813D02*
X124631Y531748D01*
X124954Y531683D01*
X125212Y531619D01*
X125568Y531522D01*
X125826Y531457D01*
X126537Y531263D01*
X127668Y531167D01*
X129639Y531134D01*
X129832Y531199D01*
X130769Y531360D01*
X131254Y531522D01*
X131609Y531231D01*
X131868Y530585D01*
X131997Y530133D01*
X132062Y529099D01*
X132094Y528420D01*
X132029Y527645D01*
X131965Y526934D01*
X131803Y526579D01*
X131706Y526223D01*
X131415Y525545D01*
X131577Y525383D01*
X131868Y525609D01*
X131932Y525739D01*
X132191Y526320D01*
X132320Y526643D01*
X132385Y527031D01*
X132546Y527193D01*
X132999Y527128D01*
X133451Y526805D01*
X133709Y526546D01*
X133839Y526482D01*
X134097Y526223D01*
X134808Y525900D01*
X135066Y525836D01*
X135486Y525416D01*
X135745Y524834D01*
X135810Y523412D01*
X135874Y522120D01*
X135810Y521926D01*
X135713Y521248D01*
X135583Y520925D01*
X135422Y520505D01*
X135357Y520375D01*
X135163Y520182D01*
X135099Y520052D01*
X134614Y519568D01*
X134485Y519503D01*
X133645Y519115D01*
X133193Y519180D01*
X132869Y519309D01*
X132611Y519374D01*
X132159Y519309D01*
X130769Y519277D01*
X128863Y519309D01*
X128669Y519245D01*
X127926Y519083D01*
X127603Y518954D01*
X126537Y518469D01*
X126149Y518728D01*
X125632Y518792D01*
X125212Y519083D01*
X125148Y519212D01*
X125051Y519374D01*
X124857Y519438D01*
X124695Y519342D01*
X124631Y519083D01*
X124534Y518857D01*
X124243Y518695D01*
X124178Y518566D01*
X124081Y518469D01*
X123500Y518211D01*
X122886Y518114D01*
X122207Y518081D01*
X122014Y518146D01*
X121561Y518404D01*
X121335Y518631D01*
X121271Y519083D01*
X121400Y519212D01*
X121464Y519342D01*
X121594Y519471D01*
X121658Y519600D01*
X121917Y519858D01*
X121981Y519988D01*
X122046Y520182D01*
X121303Y520925D01*
X120592Y521248D01*
X120334Y521312D01*
X118976Y521248D01*
X118266Y520925D01*
X118007Y520860D01*
X117555Y520666D01*
X116747Y520763D01*
X116424Y520892D01*
X115778Y521022D01*
X115455Y521151D01*
X114518Y521635D01*
X114421Y521732D01*
X114356Y521862D01*
X114163Y522055D01*
X114098Y522702D01*
X114001Y523445D01*
X113969Y525868D01*
X114033Y526062D01*
X114098Y527871D01*
X114066Y529648D01*
X114227Y529874D01*
X114744Y529939D01*
X115067Y530068D01*
X115487Y530230D01*
X115616Y530294D01*
X115746Y530423D01*
X116004Y530488D01*
X116650Y530747D01*
X117297Y530811D01*
X117652Y530908D01*
X118201Y531199D01*
X118330Y531328D01*
X118460Y531393D01*
X118750Y531554D01*
X118783Y531587D01*
X119106Y531716D01*
X119364Y531780D01*
X120204Y531716D01*
X120527Y531587D01*
X121044Y531457D01*
X121497Y531522D01*
X121949Y531716D01*
X122563Y531813D01*
X123435Y531910D01*
X124243Y531813D01*
D02*
G37*
G36*
X222430Y531393D02*
X222462Y530908D01*
X222365Y530811D01*
X222236Y530876D01*
X222139Y530779D01*
X222171Y530359D01*
X222107Y530294D01*
X221913Y530359D01*
X221816Y530327D01*
X221881Y529874D01*
X222010Y529810D01*
X222074Y529680D01*
X222171Y529583D01*
X222591Y529616D01*
X222527Y529487D01*
X222462Y529422D01*
X222527Y529357D01*
X222397Y529293D01*
X222333Y529163D01*
X222139Y529099D01*
X222204Y528517D01*
X222333Y528388D01*
X222397Y528129D01*
X222333Y527677D01*
X222397Y527613D01*
Y527548D01*
X222365Y526417D01*
X222301Y526482D01*
X222204Y526385D01*
X222139Y525545D01*
X222074Y525222D01*
X221945Y525093D01*
X221751Y524640D01*
X221816Y524382D01*
X221913Y524349D01*
X222107Y524737D01*
X222365Y524673D01*
X222494Y524479D01*
X222721Y524446D01*
X222591Y524382D01*
X222721Y524317D01*
X222688Y524156D01*
X222721Y524123D01*
X222656Y523929D01*
X222591Y522895D01*
X222397Y522702D01*
X222462Y522637D01*
X222397Y522443D01*
X222462Y522314D01*
X222268Y522120D01*
X222365Y522023D01*
X223205Y521958D01*
X223237Y521732D01*
X222559Y521700D01*
X222365Y521765D01*
X220297Y521700D01*
X220104Y521635D01*
X219457Y521571D01*
X219264Y521506D01*
X218908Y521409D01*
X218617Y521312D01*
X218262Y521603D01*
X218165Y521700D01*
X217583Y521958D01*
X216549Y522023D01*
X213189Y521958D01*
X212996Y522023D01*
X212349Y522088D01*
X212156Y522152D01*
X209765Y522217D01*
X206792Y522282D01*
X204466Y522346D01*
X204272Y522411D01*
X203464Y522508D01*
X203335Y522831D01*
X203400Y523089D01*
X203561Y523251D01*
X203820Y523315D01*
X205435Y523380D01*
X205629Y523445D01*
X208085Y523509D01*
X208278Y523574D01*
X210282Y523639D01*
X210928Y523703D01*
X212382Y523800D01*
X213286Y523865D01*
X214062Y523929D01*
X214902Y523994D01*
X216453Y524059D01*
X217325Y524156D01*
X217583Y524220D01*
X219296Y524253D01*
X220944Y524220D01*
X221170Y524446D01*
X221234Y524576D01*
X221428Y524899D01*
X221525Y525254D01*
X221816Y525803D01*
X221881Y526385D01*
X222074Y526837D01*
X222010Y527289D01*
X221945Y528323D01*
X221751Y528776D01*
X221784Y529067D01*
X222042Y529131D01*
X222074Y529551D01*
X221913Y529583D01*
X221816Y529487D01*
X221751Y529228D01*
X221719Y529131D01*
X221590Y529196D01*
X221493Y529293D01*
X221364Y529745D01*
X221461Y530100D01*
X221557Y530327D01*
X221751Y530520D01*
X221881Y530843D01*
X222074Y531037D01*
X222139Y531296D01*
X222301Y531457D01*
X222430Y531393D01*
D02*
G37*
G36*
X222785Y529163D02*
X222753Y529131D01*
X222656Y529228D01*
X222688Y529260D01*
X222753D01*
X222785Y529163D01*
D02*
G37*
G36*
X164241Y525803D02*
X164209Y525513D01*
X164080Y525577D01*
X164048Y525739D01*
X164144Y525836D01*
X164209D01*
X164241Y525803D01*
D02*
G37*
G36*
X158135Y526999D02*
X158232Y526902D01*
X158361Y526385D01*
X158426Y525028D01*
X158329Y524866D01*
X158200Y524931D01*
X158038Y525157D01*
X157877Y525319D01*
X157586Y525286D01*
X157521Y525028D01*
X157715Y524705D01*
X157844Y524446D01*
X157553Y524349D01*
X157360Y524414D01*
X157198Y524576D01*
X157133Y525222D01*
X157198Y525674D01*
X157263Y525997D01*
Y526062D01*
X157327Y526385D01*
X157780Y526966D01*
X157877Y527063D01*
X158135Y526999D01*
D02*
G37*
G36*
X222914Y524705D02*
X222850Y524576D01*
Y524511D01*
X222817Y524479D01*
X222656Y524640D01*
X222688Y524866D01*
X222753Y524802D01*
X222882Y524931D01*
X222914Y524705D01*
D02*
G37*
G36*
X172609Y524220D02*
X172642Y523994D01*
X172480Y523832D01*
X172092Y523897D01*
X171899Y523962D01*
X171349Y523929D01*
X171220Y524059D01*
X171285Y524188D01*
X171543Y524253D01*
X172415Y524285D01*
X172480D01*
X172609Y524220D01*
D02*
G37*
G36*
X172286Y523574D02*
X172415Y523445D01*
X172545Y523380D01*
X172642Y523283D01*
X172577Y521022D01*
X172319Y520957D01*
X172157Y520925D01*
X171963Y520989D01*
X171317Y521054D01*
X171220Y521345D01*
X171285Y521926D01*
X171220Y522120D01*
X171156Y522960D01*
X171091Y523025D01*
Y523089D01*
X171026Y523348D01*
X171188Y523574D01*
X171446Y523639D01*
X171705Y523574D01*
X171899Y523639D01*
X172286Y523574D01*
D02*
G37*
G36*
X157424Y523768D02*
X157618Y523703D01*
X158038Y523736D01*
X158103Y523542D01*
X158070Y523509D01*
X157941Y523186D01*
X157715Y522831D01*
X157618Y522798D01*
X157521Y522895D01*
X157424Y523251D01*
X157263Y523671D01*
X157295Y523832D01*
X157424Y523768D01*
D02*
G37*
G36*
X159944Y527451D02*
X160235Y527160D01*
X160364Y526837D01*
X160300Y526514D01*
X160170Y526385D01*
X160106Y526256D01*
X159912Y526062D01*
X159847Y525933D01*
X159718Y525803D01*
X159460Y525351D01*
X159330Y525028D01*
X159266Y524769D01*
X159072Y524317D01*
Y524253D01*
X159137Y522766D01*
X159266Y522637D01*
X159298Y522346D01*
X159201Y522120D01*
X159104Y522023D01*
X158749Y521991D01*
X158135Y522088D01*
X157973Y522185D01*
X157909Y522378D01*
X158200Y522734D01*
X158361Y523089D01*
X158684Y523929D01*
X158749Y525222D01*
X158814Y525416D01*
X158749Y525868D01*
X158684Y526966D01*
X158620Y527160D01*
X158684Y527354D01*
X159104Y527516D01*
X159944Y527451D01*
D02*
G37*
G36*
X165211Y525933D02*
X165340Y525609D01*
X165404Y525157D01*
X165469Y523929D01*
X165404Y523154D01*
X165275Y522831D01*
X165146Y522314D01*
X165081Y522249D01*
Y522185D01*
X164823Y521732D01*
X164532Y521442D01*
X164274Y521377D01*
X164080Y521442D01*
X163983Y521538D01*
X164048Y521926D01*
X164241Y522120D01*
X164338Y522540D01*
X164500Y522895D01*
X164565Y523154D01*
X164661Y523509D01*
X164726Y524285D01*
X164791Y524866D01*
X164694Y525222D01*
X164629Y525674D01*
X164500Y525997D01*
X164532Y526159D01*
X164791Y526223D01*
X165211Y525933D01*
D02*
G37*
G36*
X223690Y521474D02*
X223754Y521345D01*
X223948Y521151D01*
X224013Y520957D01*
X223981Y520925D01*
X223787Y521118D01*
X223754Y521151D01*
X223625Y521280D01*
X223561Y521409D01*
X223367Y521538D01*
X223593Y521571D01*
X223690Y521474D01*
D02*
G37*
G36*
X224659Y519794D02*
X224562Y519762D01*
X224530Y519794D01*
X224562Y519826D01*
X224627D01*
X224659Y519794D01*
D02*
G37*
G36*
X110544Y517984D02*
X110608Y517855D01*
X110867Y517791D01*
X110932Y517597D01*
X110835Y517500D01*
X110576Y517564D01*
X110447Y517694D01*
X110092Y517597D01*
X109575Y517403D01*
X109510Y517209D01*
X109575Y516951D01*
X109607Y516918D01*
X109768Y517144D01*
X109930Y517177D01*
X110027Y517080D01*
X110092Y516628D01*
X110124Y516595D01*
X110318Y516660D01*
X110899Y516595D01*
X111126Y516369D01*
X111190Y516111D01*
X111319Y516046D01*
X111352Y515755D01*
X111287Y515561D01*
X111093Y515497D01*
X110996Y515788D01*
X110964Y516078D01*
X110705Y516143D01*
X110124Y516466D01*
X109995Y516595D01*
X109898Y516434D01*
X109930Y516401D01*
X109995Y516466D01*
X110027Y516434D01*
X109962Y516369D01*
X110027Y516240D01*
X109768Y515788D01*
X109672Y515691D01*
X109381Y515658D01*
X109445Y515723D01*
X109413Y515755D01*
X109348Y515691D01*
X109251Y515788D01*
X109316Y516240D01*
X109833Y516498D01*
X109607Y516660D01*
X109542Y516854D01*
X109251Y516886D01*
X109122Y517403D01*
X108961Y517500D01*
X108929Y517532D01*
X108864Y517791D01*
X108961Y517888D01*
X109155Y517823D01*
X109413Y517694D01*
X109995Y517952D01*
X110253Y518017D01*
X110544Y517984D01*
D02*
G37*
G36*
X110156Y517468D02*
X110124Y517435D01*
X110092Y517468D01*
X110124Y517500D01*
X110156Y517468D01*
D02*
G37*
G36*
X110285Y517403D02*
X110188Y517371D01*
X110156Y517403D01*
X110188Y517435D01*
X110253D01*
X110285Y517403D01*
D02*
G37*
G36*
X109187Y515271D02*
X109155Y515238D01*
X109122Y515271D01*
X109155Y515303D01*
X109187Y515271D01*
D02*
G37*
G36*
X108638Y515691D02*
X109155Y515626D01*
X109251Y515529D01*
X109187Y515400D01*
X109025Y515238D01*
X108961Y515303D01*
X108767Y515238D01*
X108638Y515368D01*
X108315Y515561D01*
X108282Y515594D01*
X108315Y515626D01*
X108444Y515755D01*
X108638Y515691D01*
D02*
G37*
G36*
X104987Y513720D02*
X104955Y513687D01*
X104922Y513720D01*
X104955Y513946D01*
X104987Y513720D01*
D02*
G37*
G36*
X104599Y513849D02*
X104534Y513784D01*
X104599Y513720D01*
X104567Y513687D01*
X104502D01*
X104437Y513881D01*
X104341Y513914D01*
X104567Y513946D01*
X104599Y513849D01*
D02*
G37*
G36*
X104276Y513914D02*
X104147Y513784D01*
X104114Y513687D01*
X104017Y513720D01*
Y513784D01*
Y513849D01*
X104050Y513946D01*
X104276Y513914D01*
D02*
G37*
G36*
X104405Y513655D02*
X104373Y513623D01*
X104341Y513655D01*
X104373Y513687D01*
X104405Y513655D01*
D02*
G37*
G36*
X103662Y514269D02*
X103953Y513978D01*
X103694Y513720D01*
X103662Y513364D01*
X103404Y513300D01*
X103371Y513720D01*
X103694Y513784D01*
X103662Y514140D01*
X103404Y514075D01*
X103339Y513817D01*
X102951Y513687D01*
X102854Y513461D01*
Y513397D01*
X102693Y513300D01*
X102596Y513590D01*
X102661Y513720D01*
X102758Y513817D01*
X102854Y513849D01*
X102919Y514107D01*
X103210Y514204D01*
X103339Y514269D01*
X103533Y514334D01*
X103662Y514269D01*
D02*
G37*
G36*
X103824Y513267D02*
Y513203D01*
X103759Y513009D01*
X103727Y512977D01*
X103694Y513267D01*
X103791Y513300D01*
X103824Y513267D01*
D02*
G37*
G36*
X102596Y513009D02*
X102434Y512912D01*
X102208Y513009D01*
Y513074D01*
Y513138D01*
X102564Y513300D01*
X102596Y513009D01*
D02*
G37*
G36*
X104147Y513590D02*
Y513526D01*
Y513461D01*
X104276Y513332D01*
X104244Y512589D01*
X104017Y512621D01*
X104082Y512944D01*
X104147Y513138D01*
X104114Y513364D01*
X104017Y513397D01*
X104050Y513623D01*
X104147Y513590D01*
D02*
G37*
G36*
X102111Y512653D02*
X102144Y512427D01*
X102111Y512395D01*
X102079Y512427D01*
X101756Y512557D01*
X101788Y512718D01*
X102111Y512653D01*
D02*
G37*
G36*
X161140Y527677D02*
X161269Y527225D01*
X161334Y526191D01*
X161431Y526094D01*
X161560Y526159D01*
X161721Y526320D01*
X161689Y527322D01*
X161818Y527451D01*
X162206Y527386D01*
X162303Y527289D01*
X162367Y527160D01*
X162432Y526966D01*
X162497Y525416D01*
X162594Y525319D01*
X162723Y525383D01*
X162820Y525480D01*
X162917Y526740D01*
X163369Y526676D01*
X163466Y526579D01*
X163531Y526449D01*
X163660Y526126D01*
X163724Y525416D01*
X163821Y525254D01*
X163983Y525222D01*
X164209Y525254D01*
X164500Y525028D01*
X164435Y524123D01*
X164371Y523929D01*
X164274Y523315D01*
X164144Y522992D01*
X163983Y522637D01*
X163886Y522282D01*
X163337Y521086D01*
X162949Y520117D01*
X162755Y519665D01*
X162658Y519309D01*
X162432Y518566D01*
X162206Y517952D01*
X162141Y517629D01*
X162012Y517112D01*
X161883Y516789D01*
X161754Y516272D01*
X161527Y515529D01*
X161398Y515012D01*
X161204Y514560D01*
X161107Y514140D01*
X160978Y513817D01*
X160881Y513526D01*
X160817Y513267D01*
X160494Y512557D01*
X160364Y512233D01*
X159524Y510618D01*
X159395Y510489D01*
X159137Y510037D01*
X159007Y509907D01*
X158943Y509778D01*
X158846Y509617D01*
X158716Y509552D01*
X158135Y509293D01*
X157360Y509164D01*
X148281Y509132D01*
X147925Y509164D01*
X147731Y509100D01*
X144436Y509164D01*
X144339Y509455D01*
X144274Y509907D01*
X144210Y510101D01*
X144274Y512233D01*
X144339Y512427D01*
X144404Y512815D01*
X144533Y513138D01*
X144791Y513590D01*
X144888Y513687D01*
X145050Y513720D01*
X145373Y513655D01*
X145761Y513590D01*
X146342Y513526D01*
X146439Y513494D01*
X146504D01*
X147828Y513397D01*
X149218Y513300D01*
X149412Y513235D01*
X150058Y513170D01*
X150316Y513106D01*
X151673Y513041D01*
X151867Y512977D01*
X153773Y512815D01*
X154678Y512750D01*
X155324Y512686D01*
X155550Y512589D01*
X155712Y512492D01*
X155776Y512363D01*
X155873Y512266D01*
X156067Y512330D01*
X156132Y512977D01*
X156229Y513267D01*
X156390Y513687D01*
X157004Y514818D01*
X157133Y514948D01*
X157327Y515271D01*
X157941Y516078D01*
X158038Y516175D01*
X158103Y516304D01*
X158394Y516660D01*
X158555Y516886D01*
X158684Y517015D01*
X158749Y517144D01*
X159072Y517597D01*
X159589Y518695D01*
X159653Y518954D01*
X159718Y519342D01*
X159653Y519535D01*
X159330Y520117D01*
X158878Y520569D01*
X158814Y520698D01*
X158555Y521151D01*
X158490Y521345D01*
X158555Y521538D01*
X159072Y521603D01*
X159298Y521765D01*
X159750Y522023D01*
X160106Y522378D01*
X160235Y522702D01*
X160364Y523219D01*
X160494Y523994D01*
X160558Y524253D01*
X160655Y525125D01*
X160720Y526417D01*
X160752Y526643D01*
X160687Y526837D01*
X160591Y527193D01*
X160364Y527613D01*
X160429Y527742D01*
X160655Y527968D01*
X161140Y527677D01*
D02*
G37*
G36*
X97717Y507290D02*
X97750Y507064D01*
X97620Y506935D01*
X97556Y506741D01*
Y506676D01*
X97523Y506579D01*
X97233Y506612D01*
X97362Y507064D01*
X97523Y507355D01*
X97717Y507290D01*
D02*
G37*
G36*
X97653Y504705D02*
X97685Y504479D01*
X97459Y504124D01*
X97362Y504415D01*
X97426Y504738D01*
X97459Y504770D01*
X97653Y504705D01*
D02*
G37*
G36*
X97491Y504027D02*
X97459Y503995D01*
X97426Y504027D01*
X97459Y504059D01*
X97491Y504027D01*
D02*
G37*
G36*
X95359Y496273D02*
X95326Y496241D01*
X95294Y496273D01*
X95326Y496305D01*
X95359Y496273D01*
D02*
G37*
%LPC*%
G36*
X159880Y682082D02*
X159750Y682017D01*
X159621Y681694D01*
X159395Y681468D01*
X159233Y681048D01*
X159169D01*
X158878Y680305D01*
X158814Y679982D01*
X158749Y679788D01*
X158781Y679691D01*
X158910Y679755D01*
X159007Y680240D01*
X159137Y680369D01*
X159201Y680499D01*
X159330Y680822D01*
X159427Y681112D01*
X159524Y681145D01*
X159589Y681274D01*
X159847Y681726D01*
X159977Y681985D01*
X159880Y682082D01*
D02*
G37*
G36*
X175194Y678140D02*
X175162Y677978D01*
X175776Y677106D01*
X175808Y677074D01*
X175873Y676815D01*
X176066Y676686D01*
X176228Y676331D01*
X176390Y676363D01*
X176260Y676686D01*
X175873Y677332D01*
X175614Y677784D01*
X175420Y677978D01*
X175356Y678108D01*
X175194Y678140D01*
D02*
G37*
G36*
X159233Y666573D02*
X159137Y666476D01*
X159201Y666347D01*
X159233Y666315D01*
X159330Y666347D01*
X159266Y666541D01*
X159233Y666573D01*
D02*
G37*
G36*
X159427Y665798D02*
X159395Y665378D01*
X159718Y664796D01*
X160009Y664441D01*
X160041Y664473D01*
X159944Y664829D01*
X159718Y665184D01*
X159589Y665313D01*
X159524Y665701D01*
X159427Y665798D01*
D02*
G37*
G36*
X145535Y691193D02*
X145470Y691128D01*
X145438Y691096D01*
X145470Y690870D01*
X145696Y690902D01*
X145631Y691160D01*
X145535Y691193D01*
D02*
G37*
G36*
X143919Y690547D02*
X143757Y690514D01*
X143790Y690353D01*
X143951Y690385D01*
Y690450D01*
X143919Y690547D01*
D02*
G37*
G36*
X144759Y690417D02*
X144630Y690353D01*
X144533Y690256D01*
X144630Y690030D01*
X144888Y690094D01*
X144921Y690127D01*
Y690191D01*
X144856Y690320D01*
X144759Y690417D01*
D02*
G37*
G36*
X181914Y683245D02*
X181817Y683148D01*
X181624Y682695D01*
X181591Y682663D01*
X181462Y682534D01*
X181333Y682469D01*
X181268Y682211D01*
X181236Y682114D01*
X181333Y681823D01*
X181527Y681758D01*
X181979Y682082D01*
X182334Y682760D01*
X182399Y683019D01*
X182334Y683212D01*
X181914Y683245D01*
D02*
G37*
G36*
X179847Y681694D02*
X179136Y681629D01*
X178942Y681565D01*
X178490Y681500D01*
X178393Y681403D01*
X178360Y681112D01*
X178490Y680919D01*
X178748Y680854D01*
X179491Y680951D01*
X179524Y680983D01*
X179847Y681177D01*
X179944Y681274D01*
X180008Y681532D01*
X179847Y681694D01*
D02*
G37*
G36*
X201461Y681985D02*
X201235Y681888D01*
X201138Y681791D01*
X201235Y681435D01*
X201300Y681306D01*
X201720Y681145D01*
X202010Y680789D01*
X202204Y680595D01*
X202527Y680660D01*
X202560Y681209D01*
X202398Y681371D01*
X202301Y681403D01*
X202269Y681435D01*
X201752Y681952D01*
X201461Y681985D01*
D02*
G37*
G36*
X216162Y676524D02*
X216129Y676428D01*
X216162Y676395D01*
X216226D01*
X216259Y676428D01*
X216162Y676524D01*
D02*
G37*
G36*
X185856Y670386D02*
X185759Y670354D01*
Y670224D01*
X185791Y670192D01*
X185888Y670289D01*
X185856Y670386D01*
D02*
G37*
G36*
X203949Y662761D02*
X203723Y662599D01*
X203497Y662179D01*
X203174Y661985D01*
X203012Y661630D01*
X203077Y661372D01*
X203367Y661339D01*
X203820Y661662D01*
X203949Y661792D01*
X203981Y661824D01*
X204304Y662147D01*
X204369Y662405D01*
X204304Y662729D01*
X203949Y662761D01*
D02*
G37*
G36*
X179071Y662825D02*
X178910Y662664D01*
X178974Y662212D01*
X179427Y661759D01*
X179491Y661565D01*
X179620Y661436D01*
X179685Y661178D01*
X179750Y660984D01*
Y660919D01*
X179944Y660273D01*
X180073Y659756D01*
X180137Y659045D01*
X180234Y658948D01*
X180622Y659013D01*
X180719Y659110D01*
X180783Y659691D01*
X180719Y659885D01*
X180590Y660338D01*
X180525Y660596D01*
X180460Y661049D01*
X179847Y662309D01*
X179717Y662373D01*
X179620Y662470D01*
X179556Y662599D01*
X179459Y662761D01*
X179071Y662825D01*
D02*
G37*
G36*
X126149Y683891D02*
X126052Y683859D01*
X126117Y683535D01*
X126214Y683439D01*
X126343Y683374D01*
X126472Y683245D01*
X126795Y683115D01*
X127054Y683180D01*
X127248Y683374D01*
X127765Y683439D01*
X127797Y683665D01*
X127635Y683826D01*
X127312Y683762D01*
X127248D01*
X126795Y683568D01*
X126601Y683632D01*
X126408Y683826D01*
X126149Y683891D01*
D02*
G37*
G36*
X143338Y680725D02*
X143176Y680628D01*
Y680434D01*
X143338Y680337D01*
X143499Y680434D01*
X143434Y680692D01*
X143338Y680725D01*
D02*
G37*
G36*
X131706Y680143D02*
X131609Y680046D01*
X131642Y679885D01*
X131868Y679917D01*
Y680046D01*
X131835Y680078D01*
X131706Y680143D01*
D02*
G37*
G36*
X129574Y680337D02*
X129251Y680143D01*
X128831Y679982D01*
X128637Y679788D01*
X128701Y679658D01*
X128992Y679626D01*
X129186Y679691D01*
X129606Y679852D01*
X129832Y680014D01*
X129929Y680111D01*
Y680305D01*
X129574Y680337D01*
D02*
G37*
G36*
X122207Y679755D02*
X122046Y679594D01*
X121981Y679335D01*
X122046Y679206D01*
X122143Y679174D01*
X122434Y679465D01*
Y679594D01*
X122369Y679723D01*
X122207Y679755D01*
D02*
G37*
G36*
X128088Y678980D02*
X127700Y678915D01*
X127635Y678786D01*
X127603Y678754D01*
X127668Y678624D01*
X127765Y678528D01*
X128023Y678592D01*
X128120Y678883D01*
X128088Y678980D01*
D02*
G37*
G36*
X126020Y679238D02*
X125761Y679174D01*
X125600Y679012D01*
X125568Y678915D01*
X125535Y678883D01*
X125471Y678754D01*
X125277Y678560D01*
X125341Y678301D01*
X125438Y678269D01*
X125697Y678528D01*
X125794Y678560D01*
X125858Y678689D01*
X126052Y679142D01*
X126020Y679238D01*
D02*
G37*
G36*
X144048Y678075D02*
X144016Y678043D01*
X144048Y678011D01*
X144081Y678043D01*
X144048Y678075D01*
D02*
G37*
G36*
X123823Y679885D02*
X123371Y679562D01*
X123274Y679465D01*
X123209Y679335D01*
X123080Y679206D01*
X123047Y678786D01*
X123112Y678463D01*
X123144Y678431D01*
Y678366D01*
X123338Y678172D01*
X123403Y678043D01*
X123500Y677946D01*
X123758Y677881D01*
X124146Y677817D01*
X124534Y677946D01*
X124760Y678172D01*
X124825Y678301D01*
X124889Y678495D01*
X125018Y678818D01*
X124954Y679142D01*
X124663Y679497D01*
X124469Y679691D01*
X124211Y679755D01*
X123823Y679885D01*
D02*
G37*
G36*
X136682Y679820D02*
X136585Y679723D01*
X136650Y679400D01*
X136779Y679271D01*
X136973Y678818D01*
X137102Y678366D01*
X137167Y677849D01*
X137263Y677752D01*
X137425Y677720D01*
X137554Y677849D01*
X137490Y678237D01*
X137360Y678560D01*
Y678948D01*
X137328Y678980D01*
X136876Y679755D01*
X136682Y679820D01*
D02*
G37*
G36*
X121949Y678915D02*
X121594Y678560D01*
X121529Y678431D01*
Y678366D01*
X121464Y677914D01*
X121335Y677784D01*
X121367Y677623D01*
X121690Y677688D01*
X121852Y677849D01*
X121917Y678108D01*
X121852Y678366D01*
X121949Y678463D01*
X122078Y678528D01*
X122175Y678624D01*
X122110Y678883D01*
X121949Y678915D01*
D02*
G37*
G36*
X143338Y676977D02*
X143144Y676912D01*
X143111Y676815D01*
X143144Y676783D01*
X143338Y676718D01*
X143434Y676815D01*
X143338Y676977D01*
D02*
G37*
G36*
X131577Y676589D02*
X131480Y676492D01*
X131545Y675846D01*
X131577Y675814D01*
X131771Y675749D01*
X131868Y675781D01*
X131932Y676040D01*
X131868Y676234D01*
X131803Y676557D01*
X131577Y676589D01*
D02*
G37*
G36*
X142239Y675426D02*
X142207Y675264D01*
X142239Y675232D01*
X142304D01*
X142336Y675329D01*
X142239Y675426D01*
D02*
G37*
G36*
X128023Y677623D02*
X127861Y677591D01*
X127926Y677138D01*
X127991Y676944D01*
X128055Y676686D01*
X127991Y675652D01*
X127861Y675458D01*
X127829Y675426D01*
X127732Y675329D01*
X127765Y674974D01*
X128023Y675038D01*
X128314Y675588D01*
X128378Y676234D01*
X128314Y677203D01*
X128023Y677623D01*
D02*
G37*
G36*
X143984Y674974D02*
X143951Y674877D01*
X143984Y674844D01*
X144016Y674877D01*
X144048Y674909D01*
X144081Y674941D01*
X143984Y674974D01*
D02*
G37*
G36*
X121690Y674844D02*
X121561Y674780D01*
X121464Y674683D01*
X121561Y674521D01*
X121852Y674360D01*
X121884Y674328D01*
X122078Y674263D01*
X122240Y674295D01*
X122175Y674554D01*
X121949Y674780D01*
X121690Y674844D01*
D02*
G37*
G36*
X142756Y673810D02*
X142724Y673714D01*
X142756Y673681D01*
X142788Y673778D01*
X142756Y673810D01*
D02*
G37*
G36*
X130996Y678334D02*
X130769Y678172D01*
X130672Y677752D01*
X130576Y677655D01*
X130511Y677397D01*
X130349Y676589D01*
X130317Y674941D01*
X130382Y674748D01*
X130608Y674134D01*
X130705Y674037D01*
X130931Y673617D01*
X131222Y673649D01*
X131157Y673972D01*
X130834Y674424D01*
X130672Y675103D01*
X130576Y675394D01*
X130511Y675846D01*
X130672Y676266D01*
X130769Y676621D01*
X130834Y677268D01*
X130898Y677461D01*
X131092Y677914D01*
Y678172D01*
X131028Y678301D01*
X130996Y678334D01*
D02*
G37*
G36*
X121690Y674069D02*
X121626D01*
X121529Y673972D01*
X121594Y673714D01*
X121755Y673617D01*
X121852Y673714D01*
X121787Y674037D01*
X121690Y674069D01*
D02*
G37*
G36*
X127377Y674004D02*
X127086Y673843D01*
X127151Y673649D01*
X127248Y673552D01*
X127506D01*
X127635Y673617D01*
X127668Y673843D01*
X127571Y673940D01*
X127377Y674004D01*
D02*
G37*
G36*
X124081Y673940D02*
X123823Y673875D01*
X123791Y673584D01*
X123888Y673487D01*
X124081D01*
X124114Y673520D01*
X124243Y673649D01*
X124178Y673843D01*
X124081Y673940D01*
D02*
G37*
G36*
X135583Y678851D02*
X135454Y678786D01*
X135422Y678560D01*
X135745Y677849D01*
X135810Y677591D01*
X135874Y677203D01*
X136003Y677074D01*
X136068Y676880D01*
X136003Y676686D01*
X135939Y676040D01*
X135810Y675717D01*
X135745Y675135D01*
X135551Y674683D01*
X135486Y674424D01*
X135228Y673972D01*
X135034Y673520D01*
X135066Y673358D01*
X135422Y673520D01*
X136003Y674748D01*
X136068Y675006D01*
X136165Y675620D01*
X136197Y675846D01*
X136133Y676040D01*
X136262Y676557D01*
X136197Y677009D01*
X136133Y677203D01*
X136197Y677397D01*
X136165Y677494D01*
X136133Y677526D01*
X136036Y678140D01*
X135745Y678689D01*
X135583Y678851D01*
D02*
G37*
G36*
X121755Y673294D02*
X121658Y673261D01*
Y673197D01*
X121626Y673164D01*
X121594Y673132D01*
X121820Y672841D01*
X122110Y672874D01*
X122046Y673197D01*
X121755Y673294D01*
D02*
G37*
G36*
X124081Y674844D02*
X123371Y674780D01*
X123144Y674554D01*
X123015Y674230D01*
X123047Y674004D01*
X123209Y674101D01*
X123403Y674424D01*
X123500Y674521D01*
X123823Y674651D01*
X124178Y674554D01*
X124275Y674457D01*
X124404Y674392D01*
X124631Y674166D01*
X124760Y673843D01*
X124825Y673584D01*
X124598Y673229D01*
X124469Y673164D01*
X124372Y673067D01*
X124308Y672938D01*
X123952Y672777D01*
X123629Y672841D01*
X123500Y672970D01*
X123371Y673035D01*
X123209Y673261D01*
X123015Y673455D01*
X122983Y673940D01*
X122886Y673907D01*
X122821Y673649D01*
X123015Y673197D01*
X123209Y672874D01*
X123500Y672583D01*
X123888Y672389D01*
X124340Y672647D01*
X124695Y673003D01*
X124986Y673552D01*
X125148Y673520D01*
Y673455D01*
X125277Y673132D01*
X125341Y673003D01*
X125438Y672906D01*
X125600Y673003D01*
X125535Y673455D01*
X125374Y673617D01*
X124954Y673843D01*
X124792Y674263D01*
X124534Y674651D01*
X124081Y674844D01*
D02*
G37*
G36*
X137522Y674198D02*
X137360Y674037D01*
X137263Y673423D01*
X137134Y673100D01*
X137037Y673003D01*
X137005Y672841D01*
X136973Y672809D01*
X136908Y672680D01*
X136779Y672550D01*
X136811Y672324D01*
X137134Y672389D01*
X137231Y672486D01*
X137360Y672809D01*
X137425Y672938D01*
X137554Y673261D01*
X137683Y673714D01*
X137748Y673972D01*
X137683Y674166D01*
X137522Y674198D01*
D02*
G37*
G36*
X128411Y673229D02*
X128249Y673132D01*
X128314Y672938D01*
X128540Y672712D01*
X128992Y672453D01*
X129445Y672260D01*
X129703Y672195D01*
X129897Y672260D01*
X129929Y672421D01*
X129832Y672518D01*
X129703D01*
X129251Y672777D01*
X128669Y673100D01*
X128411Y673229D01*
D02*
G37*
G36*
X131319Y672260D02*
X131189Y672195D01*
X131157Y672098D01*
X131222Y672034D01*
X131254Y672001D01*
X131383Y672066D01*
X131415Y672163D01*
X131319Y672260D01*
D02*
G37*
G36*
X144048Y672130D02*
X143984D01*
X143887Y672098D01*
X143951Y671904D01*
X144048Y671872D01*
X144081Y672098D01*
X144048Y672130D01*
D02*
G37*
G36*
X143661Y670386D02*
X143402Y670321D01*
X143370Y670224D01*
X143531Y670063D01*
X143661Y670127D01*
X143693Y670160D01*
Y670224D01*
X143661Y670386D01*
D02*
G37*
G36*
X128023Y667736D02*
X127700Y667672D01*
X127603Y667575D01*
X127571Y667478D01*
X127312Y667413D01*
X126925Y667672D01*
X126666Y667736D01*
X126214Y667672D01*
X126117Y667575D01*
Y667510D01*
X126181Y667316D01*
X126537Y667284D01*
X126731Y667349D01*
X127442Y667026D01*
X127765Y667219D01*
X127894Y667349D01*
X128023Y667413D01*
X128120Y667639D01*
X128023Y667736D01*
D02*
G37*
%LPD*%
G36*
X124211Y679497D02*
X124340Y679368D01*
X124469Y679303D01*
X124695Y679077D01*
X124727Y678980D01*
X124760Y678948D01*
X124695Y678495D01*
X124469Y678204D01*
X124017Y678011D01*
X123758Y678075D01*
X123532Y678301D01*
X123468Y678431D01*
X123338Y678754D01*
X123403Y679142D01*
X123694Y679497D01*
X123952Y679562D01*
X124211Y679497D01*
D02*
G37*
%LPC*%
G36*
X124049Y678948D02*
X123952Y678722D01*
X123984Y678624D01*
X124017Y678592D01*
X124243Y678624D01*
X124211Y678915D01*
X124049Y678948D01*
D02*
G37*
G36*
X214999Y671614D02*
X214966Y671581D01*
X215063Y671549D01*
X215096Y671581D01*
X214999Y671614D01*
D02*
G37*
G36*
Y671484D02*
X214966Y671452D01*
X214999Y671420D01*
X215063D01*
X215096Y671452D01*
X214999Y671484D01*
D02*
G37*
G36*
Y671290D02*
X214837Y671129D01*
X214869Y670774D01*
X215128Y670838D01*
X215225Y671129D01*
X215063Y671161D01*
X215031Y671194D01*
X214999Y671290D01*
D02*
G37*
G36*
X207245Y672970D02*
X206404Y672906D01*
X206243Y672809D01*
X206211Y672647D01*
X206243Y672550D01*
X206049Y672227D01*
X205758Y671937D01*
X205629Y671872D01*
X205532Y671581D01*
X205726Y671258D01*
X205888Y671097D01*
X206404Y671032D01*
X206437Y670870D01*
X206178Y670483D01*
X206243Y670289D01*
X206663Y670257D01*
X207115Y670515D01*
X207245Y670644D01*
X207374Y670709D01*
X207471Y671000D01*
X207374Y671484D01*
X207309Y671614D01*
X206469Y671678D01*
X206437Y671775D01*
X206857Y671937D01*
X206986D01*
X207309Y672066D01*
X207406Y672163D01*
X207342Y672874D01*
X207245Y672970D01*
D02*
G37*
G36*
X112838Y553686D02*
X112805Y553331D01*
X112870Y553137D01*
X112935Y552426D01*
X112999Y552232D01*
X113064Y551715D01*
X113193Y551392D01*
Y551198D01*
X113129Y549389D01*
X112999Y549066D01*
X112902Y548323D01*
X112870Y547644D01*
X112935Y547450D01*
X112870Y547192D01*
X112935Y545512D01*
X112999Y545318D01*
X113064Y544801D01*
X113193Y544478D01*
X113258Y543509D01*
X113355Y543347D01*
X113452Y543379D01*
X113516Y543832D01*
X113452Y544284D01*
X113387Y545189D01*
X113322Y545382D01*
X113193Y545835D01*
X113064Y546739D01*
X113129Y548161D01*
X113193Y548355D01*
X113290Y548710D01*
X113355Y548969D01*
X113419Y549486D01*
X113452Y551586D01*
X113387Y551780D01*
X113322Y552297D01*
X113193Y552620D01*
X113096Y553040D01*
X113032Y553427D01*
X112870Y553589D01*
X112838Y553686D01*
D02*
G37*
G36*
X111158Y562603D02*
X111061Y562248D01*
X111126Y561795D01*
X111190Y560955D01*
X111255Y560309D01*
X111190Y558112D01*
X111126Y557918D01*
X111029Y557175D01*
X110899Y556852D01*
X110673Y556626D01*
X110608Y556367D01*
X110544Y556238D01*
X110415Y556109D01*
X110221Y555786D01*
X109962Y555398D01*
X109898Y555269D01*
X109704Y555075D01*
X109639Y554946D01*
X109445Y554752D01*
X109251Y554429D01*
X108961Y554138D01*
X108832Y554074D01*
X108412Y553654D01*
X108282Y553331D01*
X108347Y552620D01*
X108412Y552426D01*
X108476Y551909D01*
X108735Y551521D01*
X108832Y551166D01*
X109187Y550681D01*
X109219Y550584D01*
X109316Y550552D01*
X109381Y550423D01*
X109833Y549841D01*
X109962Y549712D01*
X110027Y549583D01*
X110253Y549357D01*
X110285Y549324D01*
X110350Y548872D01*
X110415Y548355D01*
X110350Y548161D01*
X110253Y547741D01*
X110027Y547515D01*
X109833Y547192D01*
X108347Y545706D01*
X108282Y545576D01*
X108218Y545382D01*
X108121Y544963D01*
X107895Y544413D01*
X107830Y543767D01*
X107701Y543444D01*
X107636Y542992D01*
X107571Y542733D01*
X107507Y542087D01*
X107313Y541635D01*
X107151Y540504D01*
X107119Y540084D01*
X107151Y540052D01*
X107378Y540278D01*
X107442Y540536D01*
X107539Y541085D01*
X107604Y541667D01*
X107668Y541925D01*
X107733Y542507D01*
X107798Y542766D01*
X107862Y543347D01*
X108088Y543896D01*
X108153Y544155D01*
X108315Y544833D01*
X108444Y545350D01*
X108541Y545447D01*
X108605Y545576D01*
X109413Y546384D01*
X109542Y546449D01*
X109962Y546869D01*
X110027Y546998D01*
X110156Y547127D01*
X110221Y547256D01*
X110350Y547386D01*
X110415Y547644D01*
X110544Y547773D01*
X110608Y548032D01*
X110544Y549389D01*
X110350Y549583D01*
X110156Y549906D01*
X110027Y550035D01*
X109962Y550164D01*
X109510Y550617D01*
X109251Y551069D01*
X109122Y551198D01*
X108864Y551650D01*
X108799Y551844D01*
X108702Y552264D01*
X108605Y552361D01*
X108541Y552491D01*
X108476Y552684D01*
X108541Y553395D01*
X108799Y553654D01*
X108832Y553751D01*
X109155Y553944D01*
X109381Y554171D01*
X109445Y554300D01*
X109768Y554623D01*
X109833Y554752D01*
X110027Y554946D01*
X110092Y555140D01*
X110285Y555334D01*
X110479Y555657D01*
X110738Y556109D01*
X110932Y556303D01*
X111093Y556723D01*
X111190Y557078D01*
X111255Y557531D01*
X111190Y557660D01*
X111449Y558048D01*
X111513Y559469D01*
X111449Y561537D01*
X111319Y561860D01*
X111255Y562312D01*
X111158Y562603D01*
D02*
G37*
G36*
X113516Y542862D02*
X113387Y542345D01*
X113484Y541344D01*
X113549Y537144D01*
X113581Y536982D01*
X113516Y536788D01*
X113452Y535884D01*
X113387Y535690D01*
X113516Y535173D01*
X113549Y535141D01*
X113646Y535238D01*
X113710Y535690D01*
X113775Y537822D01*
Y537887D01*
X113710Y542539D01*
X113516Y542862D01*
D02*
G37*
G36*
X107087Y539922D02*
X106925Y539502D01*
X106861Y539115D01*
X106602Y538856D01*
X106538Y538727D01*
X105859Y538048D01*
X105730Y537984D01*
X105471Y537725D01*
X105342Y537661D01*
X105084Y537402D01*
X104761Y537208D01*
X104631Y537079D01*
X104502Y537014D01*
X104211Y536724D01*
X104147Y536594D01*
X103824Y535884D01*
X103759Y534721D01*
Y534656D01*
X103694Y534462D01*
X103662Y533654D01*
X103791Y533590D01*
X103953Y533687D01*
X104017Y533945D01*
X104082Y535496D01*
X104147Y535690D01*
X104211Y536142D01*
X104470Y536530D01*
X104534Y536659D01*
X104631Y536756D01*
X104955Y536950D01*
X105310Y537241D01*
X105407Y537338D01*
X105536Y537402D01*
X105891Y537693D01*
X106247Y538048D01*
X106376Y538113D01*
X106667Y538404D01*
X106731Y538533D01*
X106990Y538792D01*
X107054Y538985D01*
X107184Y539308D01*
X107119Y539890D01*
X107087Y539922D01*
D02*
G37*
G36*
X110576Y529002D02*
X110479Y528969D01*
X110350Y528647D01*
X110415Y528453D01*
X110447Y528420D01*
X110512Y528356D01*
X110608Y528453D01*
X110576Y529002D01*
D02*
G37*
G36*
X110738Y527419D02*
X110705Y526611D01*
X110770Y526482D01*
X110932Y526643D01*
Y527096D01*
X110738Y527419D01*
D02*
G37*
G36*
X110770Y524349D02*
X110738Y524317D01*
Y524253D01*
X110770Y524220D01*
X110802Y524317D01*
X110770Y524349D01*
D02*
G37*
G36*
X110705Y522734D02*
X110673Y522572D01*
X110738Y522378D01*
X110705Y521506D01*
X110770Y521312D01*
X110867Y521409D01*
Y521474D01*
X110932Y521668D01*
X110996Y522249D01*
X110932Y522443D01*
X110867Y522702D01*
X110705Y522734D01*
D02*
G37*
G36*
X110770Y521118D02*
X110673Y520892D01*
X110867Y520569D01*
X110964Y520472D01*
X110996Y520763D01*
X110802Y521086D01*
X110770Y521118D01*
D02*
G37*
G36*
X111029Y520472D02*
X110996Y520375D01*
X111061Y520311D01*
Y520246D01*
X111126Y519988D01*
X111158Y519955D01*
X111190Y520311D01*
X111029Y520472D01*
D02*
G37*
G36*
X214288Y658431D02*
X214256Y658399D01*
X214288Y658367D01*
X214385Y658399D01*
X214288Y658431D01*
D02*
G37*
G36*
X214934Y658108D02*
X214902Y658076D01*
X214934Y658044D01*
X214966Y658076D01*
X214934Y658108D01*
D02*
G37*
G36*
X215257Y655911D02*
X215160Y655879D01*
X215128Y655588D01*
X215160Y655556D01*
X215096Y655491D01*
X215193Y655394D01*
X215289Y655427D01*
X215322Y655459D01*
X215386Y655718D01*
X215257Y655911D01*
D02*
G37*
G36*
X215516Y654942D02*
X215483Y654651D01*
X215677Y654522D01*
X215839Y654231D01*
X216033D01*
X216065Y654264D01*
X216033Y654554D01*
X215709Y654684D01*
X215613Y654910D01*
X215516Y654942D01*
D02*
G37*
G36*
X215322Y653585D02*
X215257D01*
X215225Y653553D01*
X215257Y653456D01*
X215354Y653488D01*
X215322Y653585D01*
D02*
G37*
G36*
X211057Y643052D02*
X210928Y642988D01*
X210895Y642568D01*
X210960Y642439D01*
X210928Y642406D01*
X210831Y642309D01*
X210766Y642051D01*
X210831Y641857D01*
X211025Y641663D01*
X210960Y641469D01*
X210863Y641372D01*
X210734Y641308D01*
X210572Y641146D01*
X210508Y640888D01*
X210572Y640629D01*
X210669Y640532D01*
X210799Y640468D01*
X210831Y640241D01*
X210508Y639789D01*
X210572Y639401D01*
X210669Y639305D01*
X210895Y639401D01*
X210960Y639531D01*
X211089Y639660D01*
X211154Y639789D01*
X211412Y640048D01*
X211477Y640177D01*
X211962Y640403D01*
X212123Y640565D01*
X212059Y640888D01*
X211962Y640985D01*
X211315Y640920D01*
X211283Y641146D01*
X211671Y641340D01*
X212188Y641663D01*
X212317Y642051D01*
X212220Y642212D01*
X211703Y642277D01*
X211606Y642374D01*
X211542Y642762D01*
X211315Y642988D01*
X211057Y643052D01*
D02*
G37*
G36*
X217002Y633747D02*
X216969Y633715D01*
X217002Y633683D01*
X217034Y633715D01*
X217002Y633747D01*
D02*
G37*
G36*
X123823Y621922D02*
X123144Y621890D01*
X122854Y621922D01*
X122757Y621825D01*
X122854Y621729D01*
X123047D01*
X123080Y621696D01*
X123371Y621664D01*
X123564Y621729D01*
X123791Y621696D01*
X124049Y621761D01*
X124114Y621825D01*
X123823Y621922D01*
D02*
G37*
G36*
X124598Y628578D02*
X124146Y628384D01*
X123823Y628449D01*
X123629Y628513D01*
X123564D01*
X123435Y628449D01*
X123403Y628352D01*
X123629Y628126D01*
X123952Y627996D01*
X124404Y628061D01*
X124598Y628126D01*
X125051Y628190D01*
X125083Y628416D01*
X124986Y628513D01*
X124598Y628578D01*
D02*
G37*
G36*
X130285Y621470D02*
X129897Y621405D01*
X129865Y621244D01*
X129962Y621147D01*
X130414Y621212D01*
X130446Y621309D01*
X130317Y621438D01*
X130285Y621470D01*
D02*
G37*
G36*
X127312Y620048D02*
X127215Y619951D01*
X127183Y619919D01*
X127151Y619693D01*
X127248Y619596D01*
X127506Y619661D01*
X127603Y619758D01*
X127538Y620016D01*
X127312Y620048D01*
D02*
G37*
G36*
X130285Y619725D02*
X130188Y619628D01*
X130091Y619144D01*
X129929Y618788D01*
Y618724D01*
X129865Y617884D01*
X129929Y617431D01*
X130155Y617399D01*
X130252Y617690D01*
X130188Y617884D01*
X130252Y618595D01*
X130382Y618918D01*
X130511Y619370D01*
X130446Y619693D01*
X130285Y619725D01*
D02*
G37*
G36*
X113032Y621341D02*
X112870Y621244D01*
X112902Y620695D01*
X112612Y620533D01*
X112676Y620275D01*
X112838Y620178D01*
X112902D01*
X113225Y619984D01*
X113549Y619855D01*
X113807Y619531D01*
X113904Y619564D01*
X113969Y619822D01*
X113904Y620662D01*
X113839Y620792D01*
X113710Y620921D01*
X113646Y621050D01*
X113549Y621147D01*
X113290Y621212D01*
X113032Y621341D01*
D02*
G37*
G36*
X113161Y619467D02*
X113064Y619370D01*
Y619305D01*
X112999Y619047D01*
X112805Y618853D01*
X112741Y618530D01*
X112547Y618336D01*
X112482Y618078D01*
X112547Y617819D01*
X112709Y617658D01*
X112838Y617593D01*
X112967Y617464D01*
X113096Y617399D01*
X113225Y617270D01*
X113387Y617238D01*
X113355Y617593D01*
X113419Y617787D01*
X113549Y617851D01*
X113710Y618013D01*
X113742Y618498D01*
X113678Y618627D01*
X113322Y618724D01*
X113258Y618918D01*
X113387Y619241D01*
X113322Y619435D01*
X113161Y619467D01*
D02*
G37*
%LPD*%
G36*
X113516Y620727D02*
X113549Y620565D01*
X113355Y620501D01*
X113064Y620662D01*
X113096Y620759D01*
X113161D01*
X113355Y620824D01*
X113516Y620727D01*
D02*
G37*
G36*
X113387Y618207D02*
Y618078D01*
Y618013D01*
X113290Y617981D01*
X113129Y618142D01*
X113161Y618239D01*
X113387Y618207D01*
D02*
G37*
%LPC*%
G36*
X206275Y613457D02*
X206146Y613393D01*
X206114Y613167D01*
X206275Y613005D01*
X206404Y612941D01*
X206695Y612650D01*
X206663Y612424D01*
X206243Y612327D01*
X205984Y612197D01*
X205952Y611648D01*
X205532Y611487D01*
X205468Y611228D01*
X205564Y611067D01*
X205823Y611002D01*
X206598Y610937D01*
X206760Y610776D01*
X206695Y610453D01*
X206566Y610323D01*
X206469Y609968D01*
X206437Y609806D01*
X206404Y609774D01*
X206243Y609419D01*
X206308Y609290D01*
X206404Y609193D01*
X206728Y609386D01*
X207051Y610097D01*
X207115Y610356D01*
X207180Y610744D01*
X207212Y611034D01*
X207018Y611487D01*
X207083Y611745D01*
X207148Y612456D01*
X207212Y612585D01*
X207018Y612908D01*
X206728Y613264D01*
X206598Y613328D01*
X206275Y613457D01*
D02*
G37*
G36*
X217260Y608805D02*
X217228Y608773D01*
X217390Y608740D01*
X217422Y608773D01*
X217260Y608805D01*
D02*
G37*
G36*
X218682Y603765D02*
X218650Y603732D01*
X218682Y603700D01*
X218714Y603732D01*
X218682Y603765D01*
D02*
G37*
G36*
X218424Y601115D02*
X218326Y601018D01*
Y600954D01*
X218359Y600857D01*
X218456Y600889D01*
X218424Y601115D01*
D02*
G37*
G36*
X218488Y600017D02*
X218456Y599920D01*
X218424Y599888D01*
X218391Y599791D01*
X218488Y599758D01*
X218585Y599855D01*
X218520Y599985D01*
X218488Y600017D01*
D02*
G37*
G36*
X218682Y597949D02*
X218585Y597852D01*
X218617Y597820D01*
X218714Y597852D01*
X218682Y597949D01*
D02*
G37*
G36*
X215386Y595429D02*
X215128Y595364D01*
X215096Y594944D01*
X215257Y594718D01*
X215289Y594686D01*
X215419Y594363D01*
X215354Y593975D01*
X215225Y593652D01*
X215289Y593329D01*
X215613Y593006D01*
X215645Y592651D01*
X215903Y592586D01*
X216129Y592747D01*
X216388Y593329D01*
X216323Y593458D01*
X216226Y593555D01*
X216033Y593620D01*
X215936Y593717D01*
X216000Y593911D01*
X216129Y594040D01*
X216065Y594621D01*
X215936Y594751D01*
X215742Y595074D01*
X215386Y595429D01*
D02*
G37*
G36*
X217196Y592263D02*
X217099Y592166D01*
X217131Y592069D01*
X217293Y592101D01*
Y592166D01*
X217196Y592263D01*
D02*
G37*
G36*
X218424Y588773D02*
X218391Y588741D01*
X218424Y588709D01*
X218456Y588741D01*
X218424Y588773D01*
D02*
G37*
G36*
X217131Y585736D02*
X217099Y585639D01*
X217196Y585607D01*
X217228Y585639D01*
Y585704D01*
X217131Y585736D01*
D02*
G37*
G36*
X145276Y586189D02*
X145244Y586156D01*
X145405Y586124D01*
X145438Y586156D01*
X145276Y586189D01*
D02*
G37*
G36*
X144177Y586059D02*
X144113D01*
X143144Y585995D01*
X142756Y585736D01*
X141851Y585672D01*
X141690Y585575D01*
X141787Y585478D01*
X141981Y585542D01*
X142821Y585607D01*
X142950Y585736D01*
X144113Y585801D01*
X144436Y585930D01*
X144565Y585995D01*
X144597Y586027D01*
X144177Y586059D01*
D02*
G37*
G36*
X169702Y568160D02*
X169605Y568063D01*
X169540Y567805D01*
X169572Y567708D01*
X169702Y567773D01*
X169799Y567870D01*
X169863Y568063D01*
Y568128D01*
X169702Y568160D01*
D02*
G37*
G36*
X139977Y561311D02*
X139945Y561214D01*
X140236Y561052D01*
X140623Y560988D01*
X140753Y560858D01*
X140882Y560794D01*
X141076Y560729D01*
X141884Y560632D01*
X142045Y560600D01*
X142077Y560632D01*
X141787Y560794D01*
X141528Y560858D01*
X141464D01*
X140882Y561117D01*
X140268Y561214D01*
X139977Y561311D01*
D02*
G37*
G36*
X142627Y560600D02*
X142562D01*
X142077Y560568D01*
X142433Y560406D01*
X142950Y560342D01*
X143273Y560212D01*
X143887Y560115D01*
X145018Y560083D01*
X145050Y560115D01*
X144630Y560277D01*
X143725Y560342D01*
X143273Y560535D01*
X142627Y560600D01*
D02*
G37*
G36*
X115487Y578887D02*
X115455Y578855D01*
X115326Y578596D01*
X115423Y578435D01*
X115713Y578467D01*
X115649Y578790D01*
X115487Y578887D01*
D02*
G37*
G36*
X219328Y574428D02*
X219296Y574331D01*
Y574267D01*
X219393Y574234D01*
X219425Y574396D01*
X219328Y574428D01*
D02*
G37*
G36*
X110964Y575979D02*
X110867Y575882D01*
X110964Y574945D01*
X111029Y574816D01*
X111222Y574881D01*
X111255Y574913D01*
Y574977D01*
X111126Y575947D01*
X110964Y575979D01*
D02*
G37*
G36*
X111998Y577530D02*
X111836Y577368D01*
X111772Y576916D01*
X111675Y576561D01*
X111642Y576141D01*
Y576076D01*
X111707Y574590D01*
X111836Y574267D01*
X112030Y573944D01*
X112256Y573847D01*
X112353Y573944D01*
X112256Y574299D01*
X111966Y574977D01*
X112030Y576722D01*
X112224Y577175D01*
X112159Y577498D01*
X111998Y577530D01*
D02*
G37*
G36*
X121432Y577982D02*
X121238Y577918D01*
X121141Y577627D01*
X121206Y577368D01*
X121271Y576205D01*
Y576141D01*
X121206Y575171D01*
X121141Y574977D01*
X121238Y574364D01*
X121367Y574170D01*
X121626Y574105D01*
X121723Y574202D01*
X121464Y574784D01*
X121529Y575430D01*
X121594Y575624D01*
X121690Y576044D01*
X121755Y576237D01*
X121949Y576173D01*
X122143Y576237D01*
X122240Y576334D01*
X122175Y576722D01*
X122078Y576819D01*
X121884Y576755D01*
X121787Y576657D01*
X121723Y576270D01*
X121690Y576237D01*
X121529Y576399D01*
X121497Y577659D01*
X121529Y577885D01*
X121432Y577982D01*
D02*
G37*
G36*
X119170Y577465D02*
X119009Y577433D01*
X118976Y577271D01*
X119073Y576399D01*
Y576205D01*
X119009Y575817D01*
X118944Y575624D01*
X119009Y575494D01*
X119235Y575462D01*
X119332Y575559D01*
X119429Y576108D01*
X119461Y576657D01*
X119397Y576851D01*
X119267Y577368D01*
X119170Y577465D01*
D02*
G37*
G36*
X125503Y578305D02*
X125406Y578208D01*
X125471Y577885D01*
Y577821D01*
X125600Y577498D01*
X125664Y577175D01*
X125794Y576851D01*
X125729Y575171D01*
X125664Y574977D01*
X125729Y574719D01*
X125761Y574687D01*
X125923Y574784D01*
X126117Y575559D01*
X126052Y577110D01*
X125988Y577304D01*
X125891Y577724D01*
X125826Y578047D01*
X125761Y578241D01*
X125503Y578305D01*
D02*
G37*
G36*
X118266Y574622D02*
X118169Y574590D01*
X118233Y574331D01*
X118330Y574234D01*
X118524Y574170D01*
X118556Y574137D01*
X118847Y574041D01*
X118944Y574137D01*
X118880Y574396D01*
X118718Y574557D01*
X118266Y574622D01*
D02*
G37*
G36*
X119493Y572490D02*
X119397Y572393D01*
X119461Y571359D01*
Y571230D01*
X119623Y571003D01*
X119817Y571068D01*
X119849Y571553D01*
X119720Y571876D01*
X119655Y572457D01*
X119493Y572490D01*
D02*
G37*
G36*
X124146Y569776D02*
X123888Y569711D01*
X123468Y569291D01*
X123403Y569162D01*
X123306Y569065D01*
X123177Y569000D01*
X122918Y568742D01*
X122337Y568483D01*
X121820Y568354D01*
X121658Y568193D01*
X121723Y567999D01*
X122078Y567966D01*
X122272Y568031D01*
X122692Y568193D01*
X122789Y568290D01*
X123241Y568548D01*
X123629Y568936D01*
X123758Y569000D01*
X123920Y569162D01*
X123984Y569291D01*
X124114Y569420D01*
X124178Y569550D01*
Y569614D01*
X124146Y569776D01*
D02*
G37*
G36*
X116650Y566868D02*
X116295Y566577D01*
X116230Y566319D01*
X116327Y566222D01*
X116586Y566286D01*
X116715Y566416D01*
X117103Y566351D01*
X117426Y566222D01*
X117684Y566157D01*
X118007Y566222D01*
X118298Y566448D01*
Y566577D01*
X118266Y566739D01*
X118007Y566674D01*
X117684Y566545D01*
X117426Y566609D01*
X117103Y566803D01*
X116650Y566868D01*
D02*
G37*
G36*
X220297Y554009D02*
X220265Y553912D01*
X220297Y553880D01*
X220330Y553912D01*
X220297Y554009D01*
D02*
G37*
G36*
X206728Y544316D02*
X206404Y544252D01*
X206308Y543961D01*
X206049Y543315D01*
X206178Y542862D01*
X206243Y542604D01*
X206114Y542152D01*
X206178Y542022D01*
X206469Y541925D01*
X206728Y541990D01*
X206954Y541958D01*
X206986Y541796D01*
X206437Y541247D01*
X206469Y540892D01*
X206502Y540859D01*
X206534Y540762D01*
X207051Y540633D01*
X207277Y540278D01*
X207438Y540245D01*
X207600Y540407D01*
X207665Y540665D01*
X207600Y540924D01*
X207503Y541021D01*
X207245Y541085D01*
X207083Y541247D01*
X207148Y541376D01*
X207729Y541958D01*
X207794Y542216D01*
X207632Y542378D01*
X207374Y542442D01*
X207018Y542410D01*
X206792Y542572D01*
X206502Y543250D01*
X206663Y543541D01*
X207051Y543606D01*
X207148Y543702D01*
X207212Y543896D01*
X207018Y544219D01*
X206728Y544316D01*
D02*
G37*
G36*
X174548Y531134D02*
X174354Y531070D01*
X174257Y530973D01*
X174193Y530068D01*
X174128Y529874D01*
X174063Y529745D01*
X173805Y529293D01*
X173482Y528969D01*
X173514Y528679D01*
X173902Y528743D01*
X174063Y528969D01*
X174193Y529099D01*
X174580Y529874D01*
Y529939D01*
X174645Y530391D01*
X174709Y530650D01*
X174645Y531037D01*
X174548Y531134D01*
D02*
G37*
G36*
X173837Y517888D02*
X173579Y517823D01*
X173546Y517597D01*
X173837Y517241D01*
X173934Y516951D01*
X173966Y516918D01*
X174128Y516757D01*
X174193Y516498D01*
X174516Y515788D01*
X174677Y515368D01*
X174774Y515271D01*
X174871Y514786D01*
X174968Y514560D01*
X175065Y514463D01*
X175356Y514495D01*
X175291Y514883D01*
X175226Y515077D01*
X175129Y515432D01*
X174968Y515788D01*
X174742Y516401D01*
X174645Y516498D01*
X174548Y516854D01*
X174386Y517015D01*
X174063Y517597D01*
X173837Y517888D01*
D02*
G37*
G36*
X119041Y530876D02*
X118944Y530585D01*
X119009Y530003D01*
X119235Y529971D01*
X119332Y530068D01*
Y530456D01*
X119364Y530617D01*
X119267Y530843D01*
X119041Y530876D01*
D02*
G37*
G36*
X120915Y530940D02*
X120592Y530876D01*
X120495Y530779D01*
X120560Y529939D01*
X120786Y529907D01*
X120883Y530003D01*
X120915Y530100D01*
X120947Y530133D01*
X121141Y530456D01*
X121077Y530779D01*
X120915Y530940D01*
D02*
G37*
G36*
X128928Y529390D02*
X128895Y529357D01*
X128863Y529325D01*
X128831Y529034D01*
X128928Y528873D01*
X129122Y528808D01*
X129283Y528969D01*
X129218Y529357D01*
X128928Y529390D01*
D02*
G37*
G36*
X128088D02*
X127991Y529293D01*
X128088Y527968D01*
X128185Y527419D01*
X128475Y527322D01*
X128572Y527419D01*
X128508Y528129D01*
X128443Y528323D01*
X128411Y528485D01*
X128378Y528517D01*
X128314Y529357D01*
X128088Y529390D01*
D02*
G37*
G36*
X124921Y530294D02*
X124404Y530230D01*
X123823Y529971D01*
X123564Y529907D01*
X123435Y529777D01*
X123306Y529713D01*
X122466Y529325D01*
X121884Y529067D01*
X121432Y529002D01*
X121174Y528937D01*
X121044Y528873D01*
X120947Y528776D01*
X121012Y528647D01*
X121109Y528549D01*
X121271Y528517D01*
X122046Y528647D01*
X122369Y528776D01*
X122724Y528937D01*
X122854Y529002D01*
X122918D01*
X123047Y529131D01*
X123177Y529196D01*
X124017Y529583D01*
X124437Y529745D01*
X124792Y529842D01*
X125244Y529777D01*
X125341Y529680D01*
X125406Y529422D01*
X125341Y528453D01*
X125212Y528129D01*
X125148Y527806D01*
X125018Y527677D01*
X124889Y527354D01*
X124954Y527225D01*
X125180Y527193D01*
X125406Y527419D01*
X125600Y527871D01*
X125697Y528291D01*
X125794Y528647D01*
X125858Y529487D01*
X125794Y530003D01*
X125568Y530230D01*
X124921Y530294D01*
D02*
G37*
G36*
X120915Y526740D02*
X120721Y526676D01*
X120624Y526579D01*
X120527Y526159D01*
X120495Y526126D01*
X120560Y525480D01*
X120657Y525383D01*
X120980Y525448D01*
X121077Y525545D01*
X121141Y525674D01*
X121271Y525997D01*
X121206Y526320D01*
X121012Y526643D01*
X120915Y526740D01*
D02*
G37*
G36*
X118976Y526223D02*
X118880Y526126D01*
X119009Y525609D01*
X119073Y525416D01*
Y525351D01*
X119364Y524931D01*
X119590Y524963D01*
X119655Y525222D01*
X119332Y525933D01*
X119235Y526159D01*
X118976Y526223D01*
D02*
G37*
G36*
X127054Y520408D02*
X126698Y520117D01*
X126505Y519923D01*
X126537Y519762D01*
X126731Y519697D01*
X126795D01*
X127118Y519891D01*
X127345Y520117D01*
X127280Y520375D01*
X127054Y520408D01*
D02*
G37*
G36*
X122660Y519826D02*
X122304Y519729D01*
X122175Y519600D01*
X121981Y519148D01*
X122046Y518631D01*
X122272Y518598D01*
X122369Y518695D01*
X122498Y519212D01*
X122595Y519309D01*
X122724Y519245D01*
X122789Y519180D01*
X122821Y519148D01*
X122983Y518986D01*
X123306Y518922D01*
X123532Y519083D01*
X123468Y519342D01*
X123209Y519406D01*
X122854Y519632D01*
X122660Y519826D01*
D02*
G37*
G36*
X222042Y524285D02*
X222010Y524188D01*
X222042Y524156D01*
X222107D01*
X222139Y524188D01*
X222042Y524285D01*
D02*
G37*
%LPD*%
D10*
X205335Y264646D02*
X204744D01*
X205335D01*
X385335Y284646D02*
X384744D01*
X385335D01*
Y458819D02*
X384744D01*
X385335D01*
X205335Y444724D02*
X204744D01*
X205335D01*
D11*
X208976Y90866D02*
Y266614D01*
X234724Y90866D02*
Y266614D01*
X208976D02*
X234724D01*
X208976Y90866D02*
X234724D01*
X388976Y110866D02*
X414724D01*
X388976Y286614D02*
X414724D01*
Y110866D02*
Y286614D01*
X388976Y110866D02*
Y286614D01*
Y285039D02*
X414724D01*
X388976Y460787D02*
X414724D01*
Y285039D02*
Y460787D01*
X388976Y285039D02*
Y460787D01*
X208976Y270945D02*
X234724D01*
X208976Y446693D02*
X234724D01*
Y270945D02*
Y446693D01*
X208976Y270945D02*
Y446693D01*
X196576Y260873D02*
X200575Y254875D01*
Y260873D02*
X196576Y254875D01*
X202574Y259873D02*
X203574Y260873D01*
X205574D01*
X206573Y259873D01*
Y258874D01*
X205574Y257874D01*
X206573Y256874D01*
Y255875D01*
X205574Y254875D01*
X203574D01*
X202574Y255875D01*
Y256874D01*
X203574Y257874D01*
X202574Y258874D01*
Y259873D01*
X203574Y257874D02*
X205574D01*
X375317Y280164D02*
X379315Y274166D01*
Y280164D02*
X375317Y274166D01*
X381315Y275166D02*
X382314Y274166D01*
X384314D01*
X385313Y275166D01*
Y279165D01*
X384314Y280164D01*
X382314D01*
X381315Y279165D01*
Y278165D01*
X382314Y277165D01*
X385313D01*
X383800Y470298D02*
X387799Y464300D01*
Y470298D02*
X383800Y464300D01*
X389798Y470298D02*
X393797D01*
Y469298D01*
X389798Y465300D01*
Y464300D01*
X203800Y456198D02*
X207799Y450200D01*
Y456198D02*
X203800Y450200D01*
X213797D02*
X209798D01*
X213797Y454199D01*
Y455198D01*
X212797Y456198D01*
X210798D01*
X209798Y455198D01*
M02*
