G04*
G04 #@! TF.GenerationSoftware,Altium Limited,Altium Designer,24.4.1 (13)*
G04*
G04 Layer_Color=8388736*
%FSLAX25Y25*%
%MOIN*%
G70*
G04*
G04 #@! TF.SameCoordinates,596A526C-B165-46D2-86D2-354CEF31AD50*
G04*
G04*
G04 #@! TF.FilePolarity,Negative*
G04*
G01*
G75*
%ADD12C,0.07887*%
%ADD13C,0.08477*%
%ADD14C,0.07099*%
%ADD15C,0.05800*%
D12*
X152362Y639685D02*
D03*
Y649685D02*
D03*
Y619685D02*
D03*
Y629685D02*
D03*
Y609685D02*
D03*
Y659685D02*
D03*
X103150Y639685D02*
D03*
Y629685D02*
D03*
Y619685D02*
D03*
Y609685D02*
D03*
Y649685D02*
D03*
Y659685D02*
D03*
D13*
X334646Y393701D02*
D03*
Y413386D02*
D03*
Y433071D02*
D03*
Y452756D02*
D03*
Y472441D02*
D03*
Y492126D02*
D03*
Y511811D02*
D03*
Y531496D02*
D03*
Y551181D02*
D03*
Y570866D02*
D03*
Y590551D02*
D03*
Y610236D02*
D03*
Y629921D02*
D03*
Y649606D02*
D03*
Y669291D02*
D03*
Y688976D02*
D03*
X440945Y342520D02*
D03*
Y322835D02*
D03*
Y303150D02*
D03*
Y283465D02*
D03*
Y263779D02*
D03*
Y244094D02*
D03*
Y224409D02*
D03*
Y204724D02*
D03*
Y185039D02*
D03*
Y165354D02*
D03*
Y145669D02*
D03*
Y125984D02*
D03*
Y106299D02*
D03*
Y86614D02*
D03*
Y66929D02*
D03*
Y47244D02*
D03*
X440945Y688976D02*
D03*
Y669291D02*
D03*
Y649606D02*
D03*
Y629921D02*
D03*
Y610236D02*
D03*
Y590551D02*
D03*
Y570866D02*
D03*
Y551181D02*
D03*
Y531496D02*
D03*
Y511811D02*
D03*
Y492126D02*
D03*
Y472441D02*
D03*
Y452756D02*
D03*
Y433071D02*
D03*
Y413386D02*
D03*
Y393701D02*
D03*
X259842D02*
D03*
Y413386D02*
D03*
Y433071D02*
D03*
Y452756D02*
D03*
Y472441D02*
D03*
Y492126D02*
D03*
Y511811D02*
D03*
Y531496D02*
D03*
Y551181D02*
D03*
Y570866D02*
D03*
Y590551D02*
D03*
Y610236D02*
D03*
Y629921D02*
D03*
Y649606D02*
D03*
Y669291D02*
D03*
Y688976D02*
D03*
X334646Y342520D02*
D03*
Y322835D02*
D03*
Y303150D02*
D03*
Y283465D02*
D03*
Y263779D02*
D03*
Y244094D02*
D03*
Y224409D02*
D03*
Y204724D02*
D03*
Y185039D02*
D03*
Y165354D02*
D03*
Y145669D02*
D03*
Y125984D02*
D03*
Y106299D02*
D03*
Y86614D02*
D03*
Y66929D02*
D03*
Y47244D02*
D03*
X259842Y342520D02*
D03*
Y322835D02*
D03*
Y303150D02*
D03*
Y283465D02*
D03*
Y263779D02*
D03*
Y244094D02*
D03*
Y224409D02*
D03*
Y204724D02*
D03*
Y185039D02*
D03*
Y165354D02*
D03*
Y145669D02*
D03*
Y125984D02*
D03*
Y106299D02*
D03*
Y86614D02*
D03*
Y66929D02*
D03*
Y47244D02*
D03*
X129921Y492126D02*
D03*
Y472441D02*
D03*
Y452756D02*
D03*
Y433071D02*
D03*
Y413386D02*
D03*
Y393701D02*
D03*
Y374016D02*
D03*
Y354331D02*
D03*
Y334646D02*
D03*
Y314961D02*
D03*
Y295276D02*
D03*
Y275591D02*
D03*
Y255906D02*
D03*
Y236220D02*
D03*
Y216535D02*
D03*
Y196850D02*
D03*
D14*
X216850Y128740D02*
D03*
Y138740D02*
D03*
Y148740D02*
D03*
Y158740D02*
D03*
Y178740D02*
D03*
X226850Y118740D02*
D03*
Y178740D02*
D03*
Y168740D02*
D03*
Y158740D02*
D03*
Y148740D02*
D03*
Y138740D02*
D03*
X216850Y168740D02*
D03*
X226850Y128740D02*
D03*
X216850Y258740D02*
D03*
Y248740D02*
D03*
Y238740D02*
D03*
Y228740D02*
D03*
Y218740D02*
D03*
Y208740D02*
D03*
Y198740D02*
D03*
Y188740D02*
D03*
X226850D02*
D03*
Y198740D02*
D03*
Y208740D02*
D03*
Y218740D02*
D03*
Y228740D02*
D03*
Y238740D02*
D03*
Y248740D02*
D03*
Y258740D02*
D03*
X216850Y108740D02*
D03*
X226850Y98740D02*
D03*
X216850D02*
D03*
X226850Y108740D02*
D03*
X216850Y118740D02*
D03*
X406850Y128740D02*
D03*
X396850Y118740D02*
D03*
X406850D02*
D03*
X396850Y128740D02*
D03*
X406850Y278740D02*
D03*
Y268740D02*
D03*
Y258740D02*
D03*
Y248740D02*
D03*
Y238740D02*
D03*
Y228740D02*
D03*
Y218740D02*
D03*
Y208740D02*
D03*
X396850D02*
D03*
Y218740D02*
D03*
Y228740D02*
D03*
Y238740D02*
D03*
Y248740D02*
D03*
Y258740D02*
D03*
Y268740D02*
D03*
Y278740D02*
D03*
X406850Y148740D02*
D03*
X396850Y138740D02*
D03*
Y188740D02*
D03*
X406850Y158740D02*
D03*
Y168740D02*
D03*
Y178740D02*
D03*
Y188740D02*
D03*
Y198740D02*
D03*
Y138740D02*
D03*
X396850Y198740D02*
D03*
Y178740D02*
D03*
Y168740D02*
D03*
Y158740D02*
D03*
Y148740D02*
D03*
X406850Y302913D02*
D03*
X396850Y292913D02*
D03*
X406850D02*
D03*
X396850Y302913D02*
D03*
X406850Y452913D02*
D03*
Y442913D02*
D03*
Y432913D02*
D03*
Y422913D02*
D03*
Y412913D02*
D03*
Y402913D02*
D03*
Y392913D02*
D03*
Y382913D02*
D03*
X396850D02*
D03*
Y392913D02*
D03*
Y402913D02*
D03*
Y412913D02*
D03*
Y422913D02*
D03*
Y432913D02*
D03*
Y442913D02*
D03*
Y452913D02*
D03*
X406850Y322913D02*
D03*
X396850Y312913D02*
D03*
Y362913D02*
D03*
X406850Y332913D02*
D03*
Y342913D02*
D03*
Y352913D02*
D03*
Y362913D02*
D03*
Y372913D02*
D03*
Y312913D02*
D03*
X396850Y372913D02*
D03*
Y352913D02*
D03*
Y342913D02*
D03*
Y332913D02*
D03*
Y322913D02*
D03*
X226850Y288819D02*
D03*
X216850Y278819D02*
D03*
X226850D02*
D03*
X216850Y288819D02*
D03*
X226850Y438819D02*
D03*
Y428819D02*
D03*
Y418819D02*
D03*
Y408819D02*
D03*
Y398819D02*
D03*
Y388819D02*
D03*
Y378819D02*
D03*
Y368819D02*
D03*
X216850D02*
D03*
Y378819D02*
D03*
Y388819D02*
D03*
Y398819D02*
D03*
Y408819D02*
D03*
Y418819D02*
D03*
Y428819D02*
D03*
Y438819D02*
D03*
X226850Y308819D02*
D03*
X216850Y298819D02*
D03*
Y348819D02*
D03*
X226850Y318819D02*
D03*
Y328819D02*
D03*
Y338819D02*
D03*
Y348819D02*
D03*
Y358819D02*
D03*
Y298819D02*
D03*
X216850Y358819D02*
D03*
Y338819D02*
D03*
Y328819D02*
D03*
Y318819D02*
D03*
Y308819D02*
D03*
D15*
X452756Y381890D02*
D03*
M02*
