G04*
G04 #@! TF.GenerationSoftware,Altium Limited,Altium Designer,24.4.1 (13)*
G04*
G04 Layer_Color=65535*
%FSLAX25Y25*%
%MOIN*%
G70*
G04*
G04 #@! TF.SameCoordinates,596A526C-B165-46D2-86D2-354CEF31AD50*
G04*
G04*
G04 #@! TF.FilePolarity,Positive*
G04*
G01*
G75*
%ADD10C,0.03937*%
%ADD11C,0.01000*%
G36*
X81333Y134056D02*
X81140D01*
Y134249D01*
X80947D01*
Y134442D01*
X81333D01*
Y134056D01*
D02*
G37*
G36*
X177188Y134249D02*
X176995D01*
Y134056D01*
X176801D01*
Y133283D01*
X177768D01*
Y130964D01*
X177574D01*
Y130771D01*
X177188D01*
Y130964D01*
X176801D01*
Y131157D01*
X176608D01*
Y131351D01*
X176415D01*
Y131737D01*
X176222D01*
Y131930D01*
X176028D01*
Y132123D01*
Y132317D01*
X175835D01*
Y132510D01*
X175642D01*
Y132896D01*
X175449D01*
Y133476D01*
X175255D01*
Y134249D01*
X175449D01*
Y134056D01*
X175642D01*
Y133863D01*
X176222D01*
Y134056D01*
X176415D01*
Y134249D01*
X176608D01*
Y134442D01*
X176801D01*
Y134636D01*
X177188D01*
Y134249D01*
D02*
G37*
G36*
X85778Y133669D02*
X85971D01*
Y133476D01*
X85778D01*
Y133669D01*
X85585D01*
Y133863D01*
X85778D01*
Y133669D01*
D02*
G37*
G36*
X182985Y133863D02*
X183179D01*
Y133476D01*
X183372D01*
Y133283D01*
X183952D01*
Y133090D01*
X183758D01*
Y132896D01*
X183565D01*
Y132703D01*
X183372D01*
Y132510D01*
X183565D01*
Y132317D01*
X183758D01*
Y132123D01*
X183952D01*
Y131930D01*
X184531D01*
Y132123D01*
X184725D01*
Y131544D01*
X184918D01*
Y131351D01*
X185111D01*
Y131157D01*
X185304D01*
Y131351D01*
X185498D01*
Y131544D01*
X185691D01*
Y131737D01*
X185884D01*
Y131930D01*
X186078D01*
Y131737D01*
X186271D01*
Y131544D01*
X186657D01*
Y131737D01*
X186851D01*
Y131930D01*
X187044D01*
Y131737D01*
X187624D01*
Y131351D01*
X187817D01*
Y131157D01*
X188397D01*
Y129611D01*
X188203D01*
Y128065D01*
X188010D01*
Y125166D01*
X188203D01*
Y123620D01*
X187817D01*
Y123813D01*
X187624D01*
Y124200D01*
X187430D01*
Y124393D01*
X187237D01*
Y124586D01*
X187044D01*
Y124780D01*
X186851D01*
Y124973D01*
X186657D01*
Y125166D01*
X186464D01*
Y125359D01*
X186078D01*
Y125553D01*
X185884D01*
Y125746D01*
X185498D01*
Y125939D01*
X185111D01*
Y126133D01*
X184725D01*
Y126326D01*
X184531D01*
Y126519D01*
X184145D01*
Y126712D01*
X183952D01*
Y126906D01*
X183565D01*
Y127099D01*
X183372D01*
Y127292D01*
X183179D01*
Y127485D01*
X182792D01*
Y127679D01*
X182599D01*
Y127872D01*
X182212D01*
Y128065D01*
X182019D01*
Y128258D01*
X181826D01*
Y128452D01*
X181633D01*
Y128645D01*
X181246D01*
Y128838D01*
X181053D01*
Y129031D01*
X180860D01*
Y129225D01*
X180666D01*
Y129418D01*
X180473D01*
Y129998D01*
X180280D01*
Y130964D01*
X180087D01*
Y132703D01*
X180280D01*
Y132510D01*
X180473D01*
Y132703D01*
X180860D01*
Y133090D01*
X181053D01*
Y133669D01*
X181246D01*
Y133476D01*
X181439D01*
Y133283D01*
X182406D01*
Y133476D01*
X182599D01*
Y133863D01*
X182792D01*
Y134056D01*
X182985D01*
Y133863D01*
D02*
G37*
G36*
X172163Y135216D02*
X172356D01*
Y135022D01*
X172550D01*
Y134636D01*
X172743D01*
Y134056D01*
X172936D01*
Y132896D01*
X172743D01*
Y133090D01*
X172550D01*
Y133283D01*
X172356D01*
Y133476D01*
X171970D01*
Y133669D01*
X171777D01*
Y133863D01*
X171583D01*
Y134056D01*
X171390D01*
Y134249D01*
X171004D01*
Y134442D01*
X170810D01*
Y134636D01*
X170617D01*
Y134829D01*
X170424D01*
Y135022D01*
X170037D01*
Y135216D01*
X169844D01*
Y135409D01*
X172163D01*
Y135216D01*
D02*
G37*
G36*
X84039Y133669D02*
X84425D01*
Y133476D01*
X84232D01*
Y133283D01*
X84425D01*
X84619Y133476D01*
Y133283D01*
X84812D01*
Y133669D01*
X85198D01*
Y133476D01*
X85392D01*
Y133283D01*
X85005D01*
Y133090D01*
X84619D01*
Y132896D01*
X84425D01*
Y133090D01*
X83846D01*
Y133283D01*
X84039D01*
Y133476D01*
X83652D01*
Y133669D01*
X83846D01*
Y133863D01*
X84039D01*
Y133669D01*
D02*
G37*
G36*
X89257Y132703D02*
X89064D01*
Y132896D01*
X89257D01*
Y132703D01*
D02*
G37*
G36*
X85392Y133669D02*
X85585D01*
Y133476D01*
X85778D01*
Y133283D01*
X86165D01*
Y133090D01*
X86358D01*
Y132896D01*
X86551D01*
Y132703D01*
X86358D01*
Y132896D01*
X85971D01*
Y133090D01*
X85778D01*
Y133283D01*
X85585D01*
Y133476D01*
X85392D01*
Y133669D01*
X85198D01*
Y133863D01*
X85392D01*
Y133669D01*
D02*
G37*
G36*
X85971Y132703D02*
X85585D01*
Y132896D01*
X85971D01*
Y132703D01*
D02*
G37*
G36*
X89064Y132317D02*
X88870D01*
Y132703D01*
X89064D01*
Y132317D01*
D02*
G37*
G36*
X90996Y130384D02*
X91189D01*
Y129998D01*
X90996D01*
Y130191D01*
X90610D01*
Y130384D01*
X90803D01*
Y130577D01*
Y130771D01*
X90996D01*
Y130384D01*
D02*
G37*
G36*
X90610Y129998D02*
X90223D01*
Y130191D01*
X90610D01*
Y129998D01*
D02*
G37*
G36*
X89257Y129804D02*
X89064D01*
Y129998D01*
X89257D01*
Y129804D01*
D02*
G37*
G36*
X90996Y129611D02*
X90803D01*
Y129804D01*
X90996D01*
Y129611D01*
D02*
G37*
G36*
X91962Y129418D02*
X91576D01*
Y129611D01*
X91962D01*
Y129418D01*
D02*
G37*
G36*
X89643Y129611D02*
X90030D01*
Y129418D01*
X89643D01*
Y129611D01*
X89450D01*
Y129804D01*
X89643D01*
Y129611D01*
D02*
G37*
G36*
X89450Y129418D02*
X89064D01*
Y129611D01*
X89450D01*
Y129418D01*
D02*
G37*
G36*
Y131351D02*
X89643D01*
Y131157D01*
X89450D01*
Y130577D01*
Y130384D01*
X89643D01*
Y130191D01*
X90030D01*
Y129998D01*
X90223D01*
Y129804D01*
X90610D01*
Y129611D01*
X90803D01*
Y129418D01*
X90610D01*
Y129225D01*
X90416D01*
Y129418D01*
X90223D01*
Y129611D01*
X90030D01*
Y129998D01*
X89643D01*
Y130191D01*
X89450D01*
Y129998D01*
X89257D01*
Y130191D01*
X89064D01*
Y130384D01*
X89257D01*
Y130577D01*
X89064D01*
Y130964D01*
X89257D01*
Y131351D01*
X89064D01*
Y131544D01*
X89450D01*
Y131351D01*
D02*
G37*
G36*
X129067Y125746D02*
X129261D01*
Y125553D01*
X129454D01*
Y125746D01*
X130613D01*
Y125553D01*
X131000D01*
Y125359D01*
X131193D01*
Y124780D01*
X131386D01*
Y123040D01*
X130613D01*
Y123234D01*
X130420D01*
Y123040D01*
X130227D01*
Y123234D01*
X129840D01*
Y123040D01*
X129261D01*
Y122461D01*
X128488D01*
Y123040D01*
X128294D01*
Y123234D01*
X125202D01*
Y123040D01*
X125009D01*
Y122654D01*
X124816D01*
Y122461D01*
X124622D01*
Y122267D01*
X124236D01*
Y122074D01*
X124043D01*
Y124393D01*
Y124586D01*
X124236D01*
Y125166D01*
X124429D01*
Y125359D01*
X124622D01*
Y125553D01*
X124816D01*
Y125746D01*
X127328D01*
Y125939D01*
X127908D01*
Y125746D01*
X128874D01*
Y125939D01*
X129067D01*
Y125746D01*
D02*
G37*
G36*
X91189Y126906D02*
Y126712D01*
X91383D01*
Y126326D01*
X91576D01*
Y126133D01*
X91769D01*
Y125553D01*
X91576D01*
Y125746D01*
X91383D01*
Y126133D01*
X91189D01*
Y126326D01*
X90996D01*
Y126712D01*
X90803D01*
Y127099D01*
X91189D01*
Y126906D01*
D02*
G37*
G36*
X92542Y124973D02*
X92735D01*
Y124586D01*
X92929D01*
Y124393D01*
X93122D01*
Y124007D01*
X92349D01*
Y123813D01*
X92156D01*
Y124200D01*
X91962D01*
Y124780D01*
X92156D01*
Y124200D01*
X92542D01*
Y124393D01*
X92349D01*
Y124780D01*
X92156D01*
Y124973D01*
X92349D01*
Y125359D01*
X91962D01*
Y125553D01*
X92349D01*
Y125746D01*
X92542D01*
Y124973D01*
D02*
G37*
G36*
X156509Y124007D02*
X156123D01*
Y124200D01*
X155736D01*
Y124007D01*
X156123D01*
Y123813D01*
X156896D01*
Y123620D01*
X157089D01*
Y123427D01*
X157283D01*
Y123234D01*
X157476D01*
Y122654D01*
X157283D01*
Y122461D01*
X156896D01*
Y122267D01*
X156509D01*
Y122074D01*
X155736D01*
Y121881D01*
X154577D01*
Y122074D01*
X154384D01*
Y122267D01*
X154191D01*
Y122461D01*
X153997D01*
Y123234D01*
X154191D01*
Y123427D01*
X154384D01*
Y123620D01*
X155543D01*
Y123813D01*
X155157D01*
Y124200D01*
X155350D01*
Y124393D01*
X156316D01*
Y124586D01*
X156509D01*
Y124007D01*
D02*
G37*
G36*
X91962Y123813D02*
X92156D01*
Y123620D01*
X91962D01*
Y123813D01*
X91769D01*
Y124007D01*
Y124200D01*
X91962D01*
Y123813D01*
D02*
G37*
G36*
Y123427D02*
X91769D01*
Y123234D01*
X91576D01*
Y123620D01*
X91962D01*
Y123427D01*
D02*
G37*
G36*
X131386Y122461D02*
X131580D01*
Y121108D01*
X131000D01*
Y121301D01*
X129840D01*
Y121881D01*
X130034D01*
Y122074D01*
X129840D01*
Y122461D01*
X130613D01*
Y122654D01*
X131000D01*
Y122461D01*
X131193D01*
Y122654D01*
X131386D01*
Y122461D01*
D02*
G37*
G36*
X127715D02*
X127908D01*
Y122267D01*
X127715D01*
Y122074D01*
X127521D01*
Y122267D01*
X127135D01*
Y122461D01*
X126748D01*
Y122267D01*
X127135D01*
Y122074D01*
X127521D01*
Y121494D01*
X127715D01*
Y121108D01*
X125782D01*
Y121301D01*
X125589D01*
Y122267D01*
X125782D01*
Y122654D01*
X127715D01*
Y122461D01*
D02*
G37*
G36*
X129067Y121881D02*
X129261D01*
Y120721D01*
X129454D01*
Y120528D01*
X129647D01*
Y120335D01*
X129840D01*
Y120142D01*
X130034D01*
Y119948D01*
X130227D01*
Y119369D01*
X130420D01*
Y119948D01*
X130227D01*
Y120142D01*
X130034D01*
Y120335D01*
X129840D01*
Y120528D01*
X131773D01*
Y119755D01*
X131580D01*
Y119369D01*
X131193D01*
Y119175D01*
X131386D01*
Y117050D01*
X131193D01*
Y116083D01*
X131000D01*
Y115310D01*
X130807D01*
Y114731D01*
X130613D01*
Y114151D01*
X130420D01*
Y113571D01*
X130227D01*
Y112798D01*
X130034D01*
Y112605D01*
X130807D01*
Y112411D01*
X131193D01*
Y112218D01*
X131386D01*
Y112025D01*
X131773D01*
Y111832D01*
X131966D01*
Y111638D01*
X132159D01*
Y111445D01*
X132546D01*
Y111252D01*
X132932D01*
Y111059D01*
X133319D01*
Y110865D01*
X133899D01*
Y110672D01*
X134285D01*
Y110479D01*
X134672D01*
Y110286D01*
X135058D01*
Y110092D01*
X135445D01*
Y109899D01*
X135638D01*
Y109706D01*
X135831D01*
Y109513D01*
X136218D01*
Y109319D01*
X136411D01*
Y108933D01*
X136604D01*
Y108740D01*
X136797D01*
Y108353D01*
X136991D01*
Y107967D01*
X137184D01*
Y107580D01*
X137377D01*
Y107194D01*
X137571D01*
Y106807D01*
X137764D01*
Y106421D01*
X137957D01*
Y106034D01*
X138150D01*
Y105648D01*
X138344D01*
Y105454D01*
X138537D01*
Y105068D01*
X138730D01*
Y104681D01*
X138923D01*
Y104295D01*
X139117D01*
Y103908D01*
X139310D01*
Y103135D01*
X138730D01*
Y102942D01*
X137957D01*
Y102749D01*
D01*
D01*
X138923D01*
Y102169D01*
X139117D01*
Y101589D01*
X139310D01*
Y100816D01*
X139503D01*
Y100236D01*
X139696D01*
Y98690D01*
X139890D01*
Y97531D01*
X139696D01*
Y96178D01*
X139503D01*
Y95598D01*
Y95405D01*
Y95212D01*
X139310D01*
Y94439D01*
X139117D01*
Y93859D01*
X138923D01*
Y93472D01*
X138730D01*
Y92893D01*
X138537D01*
Y92506D01*
X138344D01*
Y92120D01*
X138150D01*
Y91733D01*
X137957D01*
Y91540D01*
X137764D01*
Y91153D01*
X137571D01*
Y90767D01*
X137377D01*
Y90574D01*
X137184D01*
Y90187D01*
X136991D01*
Y89801D01*
X136797D01*
Y89607D01*
X136604D01*
Y89221D01*
X136411D01*
Y89028D01*
X136218D01*
Y88834D01*
X135638D01*
Y88641D01*
X135831D01*
Y88448D01*
X136024D01*
Y87868D01*
X135831D01*
Y87675D01*
X135445D01*
Y87868D01*
X135251D01*
Y88255D01*
X135445D01*
Y88448D01*
X135638D01*
Y88641D01*
X135251D01*
Y88834D01*
X134672D01*
Y89028D01*
X134285D01*
Y89801D01*
X134478D01*
Y90574D01*
X134285D01*
Y89994D01*
X134092D01*
Y89414D01*
X133899D01*
Y89221D01*
X133512D01*
Y89028D01*
X133319D01*
Y88834D01*
X132932D01*
Y88641D01*
X132739D01*
Y88448D01*
X132353D01*
Y88255D01*
X131580D01*
Y88061D01*
X130420D01*
Y88255D01*
X130034D01*
Y88061D01*
X129840D01*
Y87868D01*
X129454D01*
Y87675D01*
X128874D01*
Y87482D01*
X128294D01*
Y87288D01*
X127328D01*
Y87095D01*
X127908D01*
Y86709D01*
X128101D01*
Y86129D01*
X127715D01*
Y85935D01*
X126169D01*
Y86129D01*
X125782D01*
Y87288D01*
X124816D01*
Y87482D01*
X124236D01*
Y87675D01*
X124043D01*
Y87482D01*
X123656D01*
Y87288D01*
X122883D01*
Y87482D01*
X121917D01*
Y87675D01*
X121530D01*
Y87868D01*
X121144D01*
Y88061D01*
X120757D01*
Y88255D01*
X120564D01*
Y88448D01*
X120371D01*
Y88641D01*
X119984D01*
Y88448D01*
X119791D01*
Y88641D01*
X119211D01*
Y88834D01*
X118825D01*
Y89028D01*
X118632D01*
Y89221D01*
X118438D01*
Y89414D01*
X118245D01*
Y89607D01*
X118052D01*
Y89801D01*
X117859D01*
Y90187D01*
X117665D01*
Y90767D01*
X117472D01*
Y91733D01*
X117279D01*
Y92893D01*
X117472D01*
Y94052D01*
X117665D01*
Y94825D01*
X117859D01*
Y95019D01*
X117279D01*
Y94825D01*
X116892D01*
Y94632D01*
X116313D01*
Y94439D01*
X115733D01*
Y94245D01*
X114573D01*
Y94439D01*
X114187D01*
Y94632D01*
X113994D01*
Y94825D01*
X113800D01*
Y95212D01*
X113607D01*
Y97917D01*
X113800D01*
Y98497D01*
X113994D01*
Y99077D01*
X114187D01*
Y99850D01*
X114380D01*
Y100430D01*
X114573D01*
Y101589D01*
X114767D01*
Y101782D01*
X115153D01*
Y101589D01*
X115733D01*
Y101396D01*
X116313D01*
Y101589D01*
X115733D01*
Y101782D01*
X115153D01*
Y101976D01*
X114767D01*
Y102169D01*
X114380D01*
Y102362D01*
X114187D01*
Y102556D01*
X113994D01*
Y102942D01*
X114187D01*
Y103329D01*
X114380D01*
Y103715D01*
X114573D01*
Y104102D01*
X114767D01*
Y104488D01*
X114960D01*
Y104875D01*
X115153D01*
Y105454D01*
X115346D01*
Y105841D01*
X115540D01*
Y106421D01*
X115733D01*
Y107000D01*
X115926D01*
Y107580D01*
X116119D01*
Y107967D01*
X116313D01*
Y108353D01*
X116506D01*
Y108546D01*
X116699D01*
Y108933D01*
X116892D01*
Y109126D01*
X117086D01*
Y109319D01*
X117472D01*
Y109513D01*
X117665D01*
Y109706D01*
X117859D01*
Y109899D01*
X118052D01*
Y110092D01*
X118438D01*
Y110286D01*
X118632D01*
Y110479D01*
X119018D01*
Y110672D01*
X119211D01*
Y110865D01*
X119598D01*
Y111059D01*
X119984D01*
Y111252D01*
X120178D01*
Y111445D01*
X120564D01*
Y111638D01*
X120951D01*
Y111832D01*
X121144D01*
Y112025D01*
X121530D01*
Y112218D01*
X121724D01*
Y112411D01*
X121917D01*
Y112605D01*
X122303D01*
Y112798D01*
X122497D01*
Y112991D01*
X122690D01*
Y113184D01*
X122883D01*
Y113378D01*
X123076D01*
Y113571D01*
X123463D01*
Y113378D01*
X123656D01*
Y113184D01*
X123849D01*
Y112991D01*
X124236D01*
Y112798D01*
X124622D01*
Y112605D01*
X125009D01*
Y112798D01*
X124622D01*
Y112991D01*
X124236D01*
Y113184D01*
X123849D01*
Y113378D01*
X123656D01*
Y113571D01*
X123463D01*
Y115697D01*
X123270D01*
Y118596D01*
X123076D01*
Y119369D01*
X122883D01*
Y119562D01*
X122497D01*
Y119948D01*
X122303D01*
Y121301D01*
X122497D01*
Y121494D01*
X122883D01*
Y121301D01*
X123076D01*
Y120915D01*
X123656D01*
Y121108D01*
X124043D01*
Y121301D01*
X124236D01*
Y121494D01*
X124622D01*
Y121688D01*
X125009D01*
Y120721D01*
X125396D01*
Y120528D01*
X126362D01*
Y120721D01*
X128294D01*
Y120915D01*
X128488D01*
Y121881D01*
X128681D01*
Y122074D01*
X129067D01*
Y121881D01*
D02*
G37*
G36*
X159988Y118209D02*
X159795D01*
Y117243D01*
X159988D01*
Y117050D01*
X159795D01*
Y116856D01*
X158635D01*
Y117050D01*
X158249D01*
Y117243D01*
X157669D01*
Y117436D01*
X157089D01*
Y117629D01*
X156509D01*
Y117436D01*
X157089D01*
Y117243D01*
X157283D01*
Y116856D01*
X157476D01*
Y117243D01*
X157669D01*
Y117050D01*
X158056D01*
Y116856D01*
X158249D01*
Y116663D01*
X158056D01*
Y115697D01*
X158249D01*
Y116083D01*
X158442D01*
Y116663D01*
X160568D01*
Y116470D01*
X160954D01*
Y116856D01*
X161148D01*
Y117050D01*
X161534D01*
Y117243D01*
X161727D01*
Y117050D01*
X161921D01*
Y115890D01*
X161727D01*
Y115310D01*
X161534D01*
Y115117D01*
X161341D01*
Y114924D01*
X161148D01*
Y114731D01*
X160954D01*
Y114151D01*
X160761D01*
Y113571D01*
X160568D01*
Y113184D01*
X160375D01*
Y112798D01*
X160181D01*
Y112411D01*
X159988D01*
Y112218D01*
X159795D01*
Y111638D01*
X159602D01*
Y110672D01*
X159795D01*
Y110092D01*
X159602D01*
Y109319D01*
X159408D01*
Y108933D01*
X159215D01*
Y108740D01*
X159022D01*
Y108546D01*
X158829D01*
Y108353D01*
X158442D01*
Y108160D01*
X156703D01*
Y108546D01*
X156509D01*
Y109126D01*
X156316D01*
Y109319D01*
X156123D01*
Y109706D01*
X155930D01*
Y109899D01*
X156509D01*
Y110092D01*
X154770D01*
Y110286D01*
X154191D01*
Y110865D01*
X153997D01*
Y111445D01*
X153804D01*
Y112411D01*
X153611D01*
Y112991D01*
X153418D01*
Y113571D01*
X153224D01*
Y113958D01*
X153031D01*
Y114344D01*
X152838D01*
Y114924D01*
X153031D01*
Y115504D01*
X154191D01*
Y115697D01*
X153224D01*
Y115890D01*
X153031D01*
Y116083D01*
X152838D01*
Y117243D01*
X153031D01*
Y117436D01*
X154191D01*
Y117243D01*
X154384D01*
Y116083D01*
X154191D01*
Y115697D01*
X154384D01*
Y115890D01*
X154577D01*
Y114731D01*
X154770D01*
Y115697D01*
X154964D01*
Y115890D01*
X154577D01*
Y116277D01*
X154770D01*
Y117050D01*
X155736D01*
Y115890D01*
X155930D01*
Y115504D01*
X156123D01*
Y115310D01*
X156509D01*
Y115504D01*
X156316D01*
Y115890D01*
X156123D01*
Y117050D01*
X156316D01*
Y117243D01*
X156509D01*
Y117436D01*
X155930D01*
Y117243D01*
X154577D01*
Y117436D01*
X154191D01*
Y117629D01*
X152838D01*
Y119369D01*
X153031D01*
Y119755D01*
X154770D01*
Y119562D01*
X155350D01*
Y119369D01*
X155930D01*
Y119175D01*
X156509D01*
Y118982D01*
X158056D01*
Y119175D01*
X158635D01*
Y119369D01*
X159215D01*
Y119562D01*
X159602D01*
Y119755D01*
X159988D01*
Y118209D01*
D02*
G37*
G36*
X153224Y135216D02*
X153031D01*
Y135022D01*
X152838D01*
Y134636D01*
X153031D01*
Y134249D01*
X153224D01*
Y133863D01*
X153611D01*
Y134056D01*
X153804D01*
Y134249D01*
X154384D01*
Y134056D01*
X154577D01*
Y133863D01*
X154770D01*
Y133283D01*
X154577D01*
Y132317D01*
X155543D01*
Y132703D01*
X155736D01*
Y132896D01*
X155930D01*
Y132317D01*
X156123D01*
Y131930D01*
X156703D01*
Y132123D01*
X156896D01*
Y132317D01*
X157089D01*
Y132703D01*
X157283D01*
Y132896D01*
X157476D01*
Y132703D01*
X157669D01*
Y132317D01*
X158249D01*
Y132510D01*
X158442D01*
Y132703D01*
X158635D01*
Y132896D01*
X158829D01*
Y132703D01*
X159795D01*
Y131930D01*
X159988D01*
Y131737D01*
X160181D01*
Y131544D01*
X160568D01*
Y131737D01*
X160954D01*
Y131930D01*
X161148D01*
Y132317D01*
X161341D01*
Y132123D01*
X161534D01*
Y131930D01*
X162114D01*
Y132123D01*
X162307D01*
Y132317D01*
X162501D01*
Y132510D01*
X162694D01*
Y132703D01*
X162887D01*
Y132896D01*
X163080D01*
Y133283D01*
X163274D01*
Y133476D01*
X163853D01*
Y133283D01*
X164047D01*
Y133476D01*
X164240D01*
Y133863D01*
X165013D01*
Y133476D01*
X165206D01*
Y133283D01*
X165979D01*
Y133669D01*
X166366D01*
Y133476D01*
X166945D01*
Y133863D01*
X167139D01*
Y134442D01*
X167525D01*
Y134636D01*
X168105D01*
Y134442D01*
X168298D01*
Y134249D01*
X168685D01*
Y134056D01*
X168878D01*
Y133863D01*
X169264D01*
Y133669D01*
X169458D01*
Y133476D01*
X169651D01*
Y133283D01*
X170037D01*
Y133090D01*
X170231D01*
Y132896D01*
X170424D01*
Y132703D01*
X170617D01*
Y132510D01*
X170810D01*
Y132317D01*
X171004D01*
Y132123D01*
X171197D01*
Y131737D01*
X171390D01*
Y131544D01*
X171583D01*
Y131351D01*
X171777D01*
Y131157D01*
X171970D01*
Y130964D01*
X172163D01*
Y130771D01*
X172356D01*
Y130577D01*
X172550D01*
Y130384D01*
X172743D01*
Y130191D01*
X172936D01*
Y129998D01*
X173129D01*
Y129804D01*
X173323D01*
Y129611D01*
X173516D01*
Y129418D01*
X173709D01*
Y129225D01*
X173902D01*
Y129031D01*
X174289D01*
Y128838D01*
X174869D01*
Y128645D01*
X175255D01*
Y128452D01*
X175642D01*
Y128258D01*
X176028D01*
Y128065D01*
X176415D01*
Y127872D01*
X176801D01*
Y127679D01*
X177188D01*
Y127485D01*
X177381D01*
Y127292D01*
X177574D01*
Y127099D01*
X177768D01*
Y126712D01*
X177961D01*
Y126519D01*
X178154D01*
Y126326D01*
X178347D01*
Y126133D01*
X178734D01*
Y125939D01*
X179314D01*
Y125746D01*
X179700D01*
Y125553D01*
X179893D01*
Y125359D01*
X180087D01*
Y125166D01*
X180280D01*
Y124973D01*
X180473D01*
Y124586D01*
X180666D01*
Y124393D01*
X180860D01*
Y124007D01*
X181053D01*
Y123813D01*
X181246D01*
Y123620D01*
X181439D01*
Y123427D01*
X181826D01*
Y123234D01*
X182212D01*
Y123040D01*
X182406D01*
Y122847D01*
X182599D01*
Y122654D01*
X182792D01*
Y122461D01*
X182985D01*
Y122267D01*
X183179D01*
Y122074D01*
X183372D01*
Y121688D01*
X183565D01*
Y121494D01*
X183758D01*
Y121301D01*
X183952D01*
Y120915D01*
X184145D01*
Y120721D01*
X184338D01*
Y120528D01*
X184531D01*
Y120142D01*
X184725D01*
Y119755D01*
X184918D01*
Y119562D01*
X185111D01*
Y119369D01*
X185498D01*
Y118982D01*
X185691D01*
Y118789D01*
X185498D01*
Y118209D01*
X185304D01*
Y117436D01*
X184725D01*
Y117629D01*
X184338D01*
Y117823D01*
X183952D01*
Y118016D01*
X183565D01*
Y118402D01*
X183372D01*
Y118596D01*
X183179D01*
Y118789D01*
X182985D01*
Y118982D01*
X182792D01*
Y119175D01*
X182985D01*
Y119369D01*
X183565D01*
Y119562D01*
X183372D01*
Y119755D01*
X182985D01*
Y119948D01*
X182792D01*
Y120142D01*
X182599D01*
Y120335D01*
X182406D01*
Y120528D01*
X182212D01*
Y120721D01*
X182019D01*
Y121108D01*
X181826D01*
Y121881D01*
X181633D01*
Y122267D01*
X181439D01*
Y121494D01*
X181246D01*
Y121108D01*
X181053D01*
Y120915D01*
X180860D01*
Y120528D01*
X180666D01*
Y120335D01*
X180473D01*
Y120142D01*
X180280D01*
Y119948D01*
X180087D01*
Y119755D01*
X179893D01*
Y119369D01*
X180087D01*
Y119562D01*
X181053D01*
Y119369D01*
X180860D01*
Y118982D01*
X180473D01*
Y118789D01*
X180280D01*
Y118596D01*
X180087D01*
Y118402D01*
X179893D01*
Y118209D01*
X179700D01*
Y118016D01*
X179314D01*
Y117823D01*
X178927D01*
Y117629D01*
X179120D01*
Y117436D01*
X180473D01*
Y117050D01*
X180280D01*
Y116856D01*
X177961D01*
Y117050D01*
X177768D01*
Y117629D01*
X176995D01*
Y117823D01*
X176801D01*
Y118209D01*
X177188D01*
Y118596D01*
X176995D01*
Y118982D01*
X176801D01*
Y119175D01*
X176995D01*
Y119562D01*
X174869D01*
Y119755D01*
X174676D01*
Y119948D01*
X174482D01*
Y120335D01*
X174676D01*
Y120915D01*
X174482D01*
Y121108D01*
X174289D01*
Y121301D01*
X174096D01*
Y121494D01*
X173516D01*
Y122074D01*
X173129D01*
Y122267D01*
X172743D01*
Y122461D01*
X170810D01*
Y122654D01*
X171004D01*
Y122847D01*
X171197D01*
Y123427D01*
X171004D01*
Y123620D01*
X170810D01*
Y123813D01*
X170617D01*
Y124007D01*
X170424D01*
Y124200D01*
X170231D01*
Y124393D01*
X167912D01*
Y124586D01*
X167332D01*
Y124393D01*
X167139D01*
Y124200D01*
X166752D01*
Y124393D01*
X166559D01*
Y123813D01*
X165786D01*
Y124007D01*
X165206D01*
Y123813D01*
X164240D01*
Y124200D01*
X164047D01*
Y124393D01*
X163467D01*
Y124586D01*
X163274D01*
Y124973D01*
X162887D01*
Y124780D01*
X162694D01*
Y124586D01*
X162307D01*
Y124393D01*
X161921D01*
Y124586D01*
X161727D01*
Y125939D01*
X161534D01*
Y126133D01*
X161148D01*
Y126326D01*
X160954D01*
Y126519D01*
X160568D01*
Y126326D01*
X159408D01*
Y126519D01*
X159215D01*
Y126712D01*
X158249D01*
Y126519D01*
X157862D01*
Y126712D01*
X157476D01*
Y126906D01*
X156703D01*
Y126712D01*
X156123D01*
Y126519D01*
X155736D01*
Y126326D01*
X155350D01*
Y125939D01*
X154770D01*
Y126133D01*
X153611D01*
Y125553D01*
X152838D01*
Y125166D01*
X152645D01*
Y124200D01*
X152065D01*
Y124007D01*
X151485D01*
Y123813D01*
X151292D01*
Y123234D01*
X151098D01*
Y123040D01*
X150712D01*
Y122847D01*
X150325D01*
Y122654D01*
X150132D01*
Y122461D01*
X149746D01*
Y122074D01*
X149552D01*
Y121881D01*
X149746D01*
Y121688D01*
X149939D01*
Y121494D01*
X150132D01*
Y121301D01*
X149746D01*
Y121108D01*
X149166D01*
Y121301D01*
X148779D01*
Y121494D01*
X148586D01*
Y121301D01*
X148393D01*
Y121108D01*
X147813D01*
Y120915D01*
X147620D01*
Y120528D01*
X147427D01*
Y120335D01*
X146653D01*
Y120528D01*
X145880D01*
Y120721D01*
X145687D01*
Y120915D01*
X145494D01*
Y121108D01*
X145301D01*
Y121494D01*
X144914D01*
Y121688D01*
X144721D01*
Y121881D01*
X143368D01*
Y122074D01*
X142788D01*
Y122267D01*
X142595D01*
Y122654D01*
X142402D01*
Y122847D01*
X142209D01*
Y123234D01*
X142402D01*
Y123427D01*
X142209D01*
Y123620D01*
X142015D01*
Y123813D01*
X141242D01*
Y124007D01*
X140856D01*
Y124200D01*
X140663D01*
Y124007D01*
X140276D01*
Y123813D01*
X139890D01*
Y123620D01*
X139696D01*
Y123427D01*
X139503D01*
Y123234D01*
X139310D01*
Y123040D01*
X139117D01*
Y122847D01*
X138730D01*
Y122461D01*
X138344D01*
Y122074D01*
X138150D01*
Y121881D01*
X137571D01*
Y121688D01*
X136991D01*
Y121881D01*
X136797D01*
Y122074D01*
X136218D01*
Y121301D01*
X136024D01*
Y121108D01*
X135831D01*
Y120915D01*
X135251D01*
Y121108D01*
X134865D01*
Y120915D01*
X134672D01*
Y120721D01*
X134478D01*
Y120335D01*
X134285D01*
Y120142D01*
X133512D01*
Y120335D01*
X133126D01*
Y120528D01*
X132159D01*
Y120335D01*
X131966D01*
Y120721D01*
X132159D01*
Y123040D01*
X131580D01*
Y125166D01*
X131386D01*
Y125359D01*
X131193D01*
Y125939D01*
X131386D01*
Y127099D01*
X131193D01*
Y127292D01*
X131000D01*
Y127485D01*
X130420D01*
Y127679D01*
X130034D01*
Y127872D01*
X129454D01*
Y128065D01*
X128488D01*
Y128258D01*
X127521D01*
Y128065D01*
X127328D01*
Y128258D01*
X126748D01*
Y128065D01*
X125782D01*
Y127872D01*
X125009D01*
Y127679D01*
X124622D01*
Y127485D01*
X124236D01*
Y127292D01*
X123849D01*
Y127099D01*
X123656D01*
Y126906D01*
X123463D01*
Y126712D01*
X123270D01*
Y126519D01*
X123076D01*
Y126326D01*
X122883D01*
Y126133D01*
X122690D01*
Y125746D01*
X122497D01*
Y125359D01*
X122303D01*
Y124586D01*
X122110D01*
Y124393D01*
X120757D01*
Y124200D01*
X122110D01*
Y123620D01*
X121144D01*
Y123427D01*
D01*
D01*
X121917D01*
Y121881D01*
X122110D01*
Y120721D01*
X121917D01*
Y120528D01*
X122110D01*
Y119755D01*
X122303D01*
Y119562D01*
X122497D01*
Y119369D01*
X122690D01*
Y119175D01*
X122883D01*
Y118789D01*
X101432D01*
Y119562D01*
X101239D01*
Y119948D01*
X101045D01*
Y120335D01*
X100852D01*
Y121301D01*
X100659D01*
Y121494D01*
X100466D01*
Y122074D01*
X100272D01*
Y122654D01*
X95248D01*
Y122461D01*
X100079D01*
Y121881D01*
X100272D01*
Y121494D01*
X100466D01*
Y120915D01*
X100659D01*
Y120142D01*
X100852D01*
Y119755D01*
X101045D01*
Y119369D01*
X101239D01*
Y118596D01*
X101045D01*
Y117629D01*
X101239D01*
Y115504D01*
X101045D01*
Y114924D01*
X100852D01*
Y112218D01*
X101045D01*
Y111638D01*
X100852D01*
Y111445D01*
X100466D01*
Y111252D01*
X98147D01*
Y111445D01*
X97567D01*
Y111638D01*
X97180D01*
Y111445D01*
X97373D01*
Y111252D01*
X97953D01*
Y111059D01*
X98340D01*
Y110479D01*
X98147D01*
Y110286D01*
X97953D01*
Y110092D01*
X97760D01*
Y109706D01*
X97567D01*
Y109319D01*
X97373D01*
Y109126D01*
X96987D01*
Y108933D01*
X94475D01*
Y109126D01*
X94088D01*
Y109319D01*
X93895D01*
Y109513D01*
X93702D01*
Y109706D01*
X93508D01*
Y110092D01*
X93315D01*
Y110672D01*
X93508D01*
Y113378D01*
X93315D01*
Y113958D01*
X93122D01*
Y114537D01*
X92929D01*
Y114924D01*
X92542D01*
Y115117D01*
X92349D01*
Y115504D01*
X92156D01*
Y116083D01*
X91962D01*
Y117050D01*
X91769D01*
Y118402D01*
X91576D01*
Y122267D01*
X91769D01*
Y122847D01*
X91962D01*
Y123040D01*
X92156D01*
Y123427D01*
X92349D01*
Y123620D01*
X92735D01*
Y123813D01*
X93315D01*
Y124007D01*
X93702D01*
Y124200D01*
X93508D01*
Y124393D01*
X93315D01*
Y124586D01*
X93122D01*
Y124780D01*
X92929D01*
Y125939D01*
X92735D01*
Y126133D01*
X92542D01*
Y125939D01*
X91962D01*
Y126326D01*
X91769D01*
Y126712D01*
X91576D01*
Y127099D01*
X92156D01*
Y127485D01*
X92349D01*
Y128645D01*
X92542D01*
Y129611D01*
X92156D01*
Y129804D01*
X91769D01*
Y129998D01*
X91576D01*
Y130191D01*
X91383D01*
Y130577D01*
X91189D01*
Y130964D01*
X90610D01*
Y130771D01*
X90416D01*
Y130577D01*
X90223D01*
Y130384D01*
X89837D01*
Y131157D01*
X90030D01*
Y131351D01*
X89837D01*
Y131544D01*
X89643D01*
Y131737D01*
X89450D01*
Y131930D01*
X89257D01*
Y132317D01*
X89450D01*
Y133090D01*
X89257D01*
Y133283D01*
X89064D01*
Y133090D01*
X88870D01*
Y132896D01*
X88677D01*
Y132703D01*
X88484D01*
Y132510D01*
X88097D01*
Y132703D01*
X87131D01*
Y132510D01*
X86744D01*
Y132703D01*
X86938D01*
Y132896D01*
X86744D01*
Y133090D01*
X86551D01*
Y133283D01*
X86358D01*
Y133863D01*
X85971D01*
Y134056D01*
X85778D01*
Y134249D01*
X85005D01*
Y134056D01*
X84812D01*
Y133863D01*
X84425D01*
Y134056D01*
X84232D01*
Y134249D01*
X83652D01*
Y134056D01*
X83459D01*
Y133863D01*
X83266D01*
Y134056D01*
X82686D01*
Y134249D01*
X81720D01*
Y134442D01*
X81913D01*
Y134829D01*
X81140D01*
Y135409D01*
X153224D01*
Y135216D01*
D02*
G37*
G36*
X160375Y117243D02*
X160181D01*
Y117436D01*
X160375D01*
Y117243D01*
D02*
G37*
G36*
X160954Y117050D02*
X160761D01*
Y117243D01*
X160954D01*
Y117050D01*
D02*
G37*
G36*
X185304Y115697D02*
X185111D01*
Y115890D01*
X184918D01*
Y116083D01*
X184145D01*
Y116277D01*
X183952D01*
Y116663D01*
X184531D01*
Y116856D01*
X184918D01*
Y117050D01*
X185304D01*
Y115697D01*
D02*
G37*
G36*
X192069Y121688D02*
X192841D01*
Y121494D01*
X193228D01*
Y121301D01*
X193614D01*
Y121108D01*
X193808D01*
Y120915D01*
X194001D01*
Y120721D01*
X194387D01*
Y120528D01*
X194581D01*
Y120335D01*
X194774D01*
Y120142D01*
X194967D01*
Y119948D01*
X195160D01*
Y119755D01*
X195354D01*
Y119562D01*
X195160D01*
Y118982D01*
X194967D01*
Y118789D01*
X194774D01*
Y118402D01*
X194581D01*
Y117050D01*
X194774D01*
Y116083D01*
X194967D01*
Y115504D01*
X195160D01*
Y115117D01*
X195740D01*
Y115310D01*
X196320D01*
Y114537D01*
X196127D01*
Y113764D01*
X195934D01*
Y113378D01*
X195740D01*
Y113184D01*
X195547D01*
Y112991D01*
X195354D01*
Y112605D01*
X195160D01*
Y111638D01*
X194967D01*
Y110092D01*
X194774D01*
Y107580D01*
X194967D01*
Y107194D01*
X195160D01*
Y107000D01*
X195354D01*
Y106421D01*
X195160D01*
Y105068D01*
X195354D01*
Y106034D01*
X195547D01*
Y107000D01*
X196513D01*
Y106807D01*
X196900D01*
Y106614D01*
X197093D01*
Y106421D01*
X197286D01*
Y106227D01*
X197480D01*
Y106034D01*
X197673D01*
Y105841D01*
D01*
D01*
X197866D01*
Y106034D01*
X198446D01*
Y105841D01*
X198832D01*
Y105648D01*
X199219D01*
Y105454D01*
X199412D01*
Y105261D01*
X199799D01*
Y105068D01*
X199992D01*
Y104875D01*
X200185D01*
Y104488D01*
X200378D01*
Y104295D01*
X200572D01*
Y104102D01*
X200765D01*
Y103715D01*
X200958D01*
Y103522D01*
X201151D01*
Y103135D01*
X201345D01*
Y102556D01*
X201538D01*
Y101976D01*
X201731D01*
Y100430D01*
X201924D01*
Y98690D01*
X202118D01*
Y97338D01*
X202311D01*
Y95985D01*
X202504D01*
Y94825D01*
X202697D01*
Y93666D01*
X202891D01*
Y92506D01*
X202697D01*
Y91347D01*
X202504D01*
Y90574D01*
X202311D01*
Y89994D01*
X202118D01*
Y89414D01*
X201924D01*
Y88834D01*
X201731D01*
Y88448D01*
X201538D01*
Y88061D01*
X201345D01*
Y87675D01*
X201151D01*
Y87095D01*
X200958D01*
Y86709D01*
X200765D01*
Y86322D01*
X200572D01*
Y86129D01*
X200378D01*
Y85742D01*
X200185D01*
Y85356D01*
X199992D01*
Y84969D01*
X199799D01*
Y84776D01*
X199605D01*
Y84969D01*
X199412D01*
Y85163D01*
X199219D01*
Y85356D01*
X198832D01*
Y85549D01*
X198253D01*
Y85742D01*
X197866D01*
Y85935D01*
X197673D01*
Y86129D01*
X197480D01*
Y86515D01*
X197673D01*
Y87482D01*
X197480D01*
Y86709D01*
X197286D01*
Y86129D01*
X197093D01*
Y85742D01*
X196900D01*
Y85549D01*
X196707D01*
Y85356D01*
X196513D01*
Y85163D01*
X196900D01*
Y84969D01*
X197286D01*
Y84776D01*
X197480D01*
Y84583D01*
X197866D01*
Y84390D01*
X198059D01*
Y84196D01*
X198446D01*
Y84003D01*
X198832D01*
Y83423D01*
X198639D01*
Y82457D01*
X198446D01*
Y81877D01*
X197673D01*
Y82070D01*
X196900D01*
Y82264D01*
X196320D01*
Y82457D01*
X195934D01*
Y82650D01*
X195740D01*
Y82843D01*
X195547D01*
Y83423D01*
X195354D01*
Y83617D01*
X194774D01*
Y83423D01*
X194194D01*
Y83617D01*
X194001D01*
Y83810D01*
X194194D01*
Y84003D01*
X194581D01*
Y84196D01*
X195160D01*
Y84390D01*
X195354D01*
Y84583D01*
X195547D01*
Y84776D01*
X195160D01*
Y84583D01*
X194581D01*
Y84390D01*
X194194D01*
Y84196D01*
X193808D01*
Y84003D01*
X193228D01*
Y83810D01*
X192648D01*
Y83617D01*
X191875D01*
Y83423D01*
X191295D01*
Y83617D01*
X190909D01*
Y83423D01*
X190329D01*
Y83230D01*
X189749D01*
Y83037D01*
X188203D01*
Y82843D01*
X189170D01*
Y82070D01*
X187044D01*
Y82264D01*
X186851D01*
Y82843D01*
X187044D01*
Y82650D01*
X187237D01*
Y82843D01*
X187044D01*
Y83037D01*
X186464D01*
Y83230D01*
X185884D01*
Y83423D01*
X185498D01*
Y83617D01*
X185304D01*
Y83810D01*
X185111D01*
Y84003D01*
X184918D01*
Y84196D01*
X184725D01*
Y84390D01*
X184531D01*
Y84196D01*
X184725D01*
Y84003D01*
X184918D01*
Y83617D01*
X184531D01*
Y83810D01*
X183179D01*
Y84003D01*
X182406D01*
Y84196D01*
X182019D01*
Y84390D01*
X181633D01*
Y84583D01*
X181246D01*
Y84776D01*
X181053D01*
Y84969D01*
X180860D01*
Y85163D01*
X180666D01*
Y85356D01*
X180473D01*
Y85549D01*
X180280D01*
Y85935D01*
X180087D01*
Y86322D01*
X179893D01*
Y86129D01*
X179700D01*
Y86322D01*
X179507D01*
Y86515D01*
X179314D01*
Y86709D01*
X179120D01*
Y86902D01*
X178927D01*
Y88641D01*
X179120D01*
Y89221D01*
X179314D01*
Y89607D01*
X179893D01*
Y89414D01*
X180280D01*
Y89221D01*
X180666D01*
Y89028D01*
X181053D01*
Y88834D01*
X181439D01*
Y88641D01*
X181826D01*
Y88834D01*
X181439D01*
Y89028D01*
X181053D01*
Y89221D01*
X180666D01*
Y89414D01*
X180280D01*
Y89607D01*
X179893D01*
Y89801D01*
X179507D01*
Y89994D01*
X179314D01*
Y90187D01*
X178927D01*
Y90380D01*
X178734D01*
Y90574D01*
X178347D01*
Y90767D01*
X178154D01*
Y90960D01*
X177961D01*
Y91347D01*
X177768D01*
Y91540D01*
X177574D01*
Y91733D01*
X177381D01*
Y92120D01*
X177188D01*
Y92699D01*
X176995D01*
Y95212D01*
X177188D01*
Y95985D01*
X177381D01*
Y96565D01*
X177574D01*
Y97144D01*
X177768D01*
Y97724D01*
X177961D01*
Y98304D01*
X178154D01*
Y98884D01*
X178347D01*
Y99463D01*
X178541D01*
Y100236D01*
X178734D01*
Y101396D01*
X178927D01*
Y102749D01*
X179120D01*
Y103135D01*
X179314D01*
Y103522D01*
X179507D01*
Y103908D01*
X179700D01*
Y104102D01*
X179893D01*
Y104295D01*
X180087D01*
Y104488D01*
X180280D01*
Y104681D01*
X180473D01*
Y104875D01*
X180666D01*
Y105068D01*
X180860D01*
Y105261D01*
X181053D01*
Y105454D01*
X181246D01*
Y105648D01*
X181633D01*
Y105841D01*
X181826D01*
Y106034D01*
X182212D01*
Y106227D01*
X182792D01*
Y106421D01*
X183565D01*
Y104102D01*
X183758D01*
Y106614D01*
X184338D01*
Y106807D01*
X184725D01*
Y107000D01*
X185304D01*
Y107194D01*
X185884D01*
Y106034D01*
X186078D01*
Y105261D01*
X186271D01*
Y104681D01*
X186464D01*
Y104295D01*
X186657D01*
Y104102D01*
X186851D01*
Y103908D01*
X187044D01*
Y103715D01*
X187237D01*
Y103522D01*
X187430D01*
Y103329D01*
X187624D01*
Y103135D01*
X187817D01*
Y102942D01*
X188010D01*
Y102749D01*
X188397D01*
Y102556D01*
X188976D01*
Y102362D01*
X192069D01*
Y102556D01*
X188976D01*
Y102749D01*
X188397D01*
Y102942D01*
X188203D01*
Y103135D01*
X187817D01*
Y103329D01*
X187624D01*
Y103522D01*
X187430D01*
Y103715D01*
X187237D01*
Y103908D01*
X187044D01*
Y104102D01*
X186851D01*
Y104488D01*
X186657D01*
Y104875D01*
X186464D01*
Y105261D01*
X186271D01*
Y106034D01*
X186078D01*
Y107387D01*
X186271D01*
Y107580D01*
X186464D01*
Y107967D01*
X186657D01*
Y110479D01*
X186464D01*
Y111638D01*
X186271D01*
Y112798D01*
X186078D01*
Y112991D01*
X185884D01*
Y113184D01*
X185691D01*
Y113571D01*
X185498D01*
Y113764D01*
X185304D01*
Y114344D01*
X185111D01*
Y115117D01*
X185304D01*
Y115310D01*
X185691D01*
Y115117D01*
X185884D01*
Y114924D01*
D01*
D01*
X186464D01*
Y115117D01*
X186657D01*
Y115697D01*
X186851D01*
Y116856D01*
X187044D01*
Y117629D01*
X186851D01*
Y118402D01*
X187044D01*
Y119175D01*
X186851D01*
Y119755D01*
X186657D01*
Y119948D01*
X186851D01*
Y120142D01*
X187044D01*
Y120335D01*
X187430D01*
Y120528D01*
X187624D01*
Y120721D01*
X187817D01*
Y120915D01*
X188203D01*
Y121108D01*
X188590D01*
Y121301D01*
X188976D01*
Y121494D01*
X189556D01*
Y121688D01*
X190329D01*
Y121881D01*
X192069D01*
Y121688D01*
D02*
G37*
G36*
X158056Y107773D02*
X157862D01*
Y107580D01*
X157669D01*
Y107194D01*
X157476D01*
Y107000D01*
X157283D01*
Y106614D01*
X157089D01*
Y106227D01*
X156896D01*
Y105841D01*
X156703D01*
Y105454D01*
X156509D01*
Y105068D01*
X156316D01*
Y106421D01*
X156509D01*
Y107773D01*
X156703D01*
Y107967D01*
X158056D01*
Y107773D01*
D02*
G37*
G36*
X102398Y106807D02*
X103558D01*
Y106614D01*
X104524D01*
Y106421D01*
X105104D01*
Y106034D01*
X104911D01*
Y105841D01*
X104717D01*
Y105648D01*
X104524D01*
Y105454D01*
X104331D01*
Y105261D01*
X104138D01*
Y105068D01*
X103944D01*
Y105261D01*
X103751D01*
Y105454D01*
X103364D01*
Y105648D01*
X103171D01*
Y105841D01*
X102978D01*
Y106034D01*
X102785D01*
Y106227D01*
X102398D01*
Y106421D01*
X102205D01*
Y107000D01*
X102398D01*
Y106807D01*
D02*
G37*
G36*
X96214Y95019D02*
X95828D01*
Y95212D01*
X95634D01*
Y95405D01*
X96021D01*
Y95598D01*
X96214D01*
Y95019D01*
D02*
G37*
G36*
X97760Y95405D02*
X98147D01*
Y95212D01*
X98340D01*
Y95019D01*
X98147D01*
Y94825D01*
X96987D01*
Y95019D01*
X97180D01*
Y95405D01*
X96794D01*
Y95212D01*
X96601D01*
Y95598D01*
X97760D01*
Y95405D01*
D02*
G37*
G36*
X95441Y95019D02*
X95634D01*
Y94825D01*
X96214D01*
Y94632D01*
X98533D01*
Y93859D01*
X98340D01*
Y93666D01*
X97760D01*
Y93859D01*
X97567D01*
Y94052D01*
X97180D01*
Y94245D01*
X96794D01*
Y94439D01*
X95634D01*
Y94245D01*
X95248D01*
Y94439D01*
X95055D01*
Y94632D01*
X95248D01*
Y95212D01*
X95441D01*
Y95019D01*
D02*
G37*
G36*
X154964Y91540D02*
X155350D01*
Y91347D01*
X154770D01*
Y91540D01*
X154384D01*
Y91733D01*
X154577D01*
Y91926D01*
X154964D01*
Y91540D01*
D02*
G37*
G36*
X97567Y91153D02*
X97373D01*
Y91347D01*
X97567D01*
Y91153D01*
D02*
G37*
G36*
X156896Y91926D02*
X157283D01*
Y91540D01*
X157089D01*
Y91347D01*
X157476D01*
Y90574D01*
X157669D01*
Y91153D01*
X158249D01*
Y90960D01*
X158635D01*
Y90767D01*
X159022D01*
Y90380D01*
X159215D01*
Y90187D01*
X159408D01*
Y89801D01*
X159602D01*
Y89414D01*
X159795D01*
Y89028D01*
X159602D01*
Y88834D01*
X159408D01*
Y88641D01*
X159215D01*
Y88448D01*
X158829D01*
Y88255D01*
X158635D01*
Y88061D01*
X158442D01*
Y87868D01*
X158056D01*
Y87675D01*
X157669D01*
Y87482D01*
X157283D01*
Y87288D01*
X157476D01*
Y87095D01*
X157283D01*
Y86902D01*
X154964D01*
Y87095D01*
X154384D01*
Y87288D01*
X154191D01*
Y88061D01*
X154577D01*
Y87675D01*
X154770D01*
Y87482D01*
X155157D01*
Y87288D01*
X155930D01*
Y87095D01*
X157089D01*
Y87288D01*
X155930D01*
Y87482D01*
X155157D01*
Y87675D01*
X154770D01*
Y88061D01*
X155157D01*
Y87868D01*
X157089D01*
Y88061D01*
X155350D01*
Y88255D01*
X154577D01*
Y88641D01*
X155157D01*
Y88448D01*
X156896D01*
Y88641D01*
X155350D01*
Y88834D01*
X154770D01*
Y89028D01*
X156703D01*
Y89221D01*
X156896D01*
Y89414D01*
X157089D01*
Y89607D01*
X156896D01*
Y89801D01*
X154770D01*
Y89994D01*
X154577D01*
Y90187D01*
X156896D01*
Y90380D01*
X156703D01*
Y90574D01*
X156316D01*
Y90767D01*
X155543D01*
Y90574D01*
X154964D01*
Y90380D01*
X154191D01*
Y91347D01*
X154384D01*
Y91153D01*
X155543D01*
Y90960D01*
X156509D01*
Y91153D01*
X157089D01*
Y91347D01*
X155930D01*
Y91540D01*
X156123D01*
Y91926D01*
X155930D01*
Y91733D01*
X155350D01*
Y91926D01*
X155543D01*
Y92120D01*
X156896D01*
Y91926D01*
D02*
G37*
G36*
X89064Y103522D02*
X89837D01*
Y103329D01*
X90030D01*
Y102942D01*
X89837D01*
Y100816D01*
X89643D01*
Y99077D01*
X89450D01*
Y96951D01*
X89257D01*
Y96565D01*
X89064D01*
Y96178D01*
X89257D01*
Y96371D01*
X89450D01*
Y96178D01*
X90030D01*
Y95985D01*
X90416D01*
Y95792D01*
X90610D01*
Y95598D01*
X90996D01*
Y95405D01*
X91189D01*
Y95212D01*
X91383D01*
Y95019D01*
X91769D01*
Y94825D01*
X91962D01*
Y94632D01*
X92156D01*
Y94439D01*
X92542D01*
Y94245D01*
X92929D01*
Y94052D01*
X93702D01*
Y94245D01*
X94088D01*
Y94439D01*
X94281D01*
Y94632D01*
X94668D01*
Y94825D01*
X94861D01*
Y94245D01*
X95055D01*
Y94052D01*
X95248D01*
Y93859D01*
X95441D01*
Y93666D01*
X96214D01*
Y93472D01*
X98533D01*
Y93666D01*
X98726D01*
Y93472D01*
X98920D01*
Y93279D01*
X98726D01*
Y93086D01*
X97760D01*
Y92699D01*
X98533D01*
Y92506D01*
X98340D01*
Y92313D01*
X97180D01*
Y92120D01*
X98147D01*
Y91733D01*
X97953D01*
Y91540D01*
X97180D01*
Y91153D01*
X96987D01*
Y90960D01*
X97760D01*
Y90767D01*
X97567D01*
Y90574D01*
X97180D01*
Y90380D01*
X95828D01*
Y90574D01*
X95248D01*
Y90767D01*
X94861D01*
Y91153D01*
X94668D01*
Y91347D01*
X95055D01*
Y91153D01*
X95634D01*
Y90960D01*
X96794D01*
Y90767D01*
X96987D01*
Y90960D01*
X96794D01*
Y91153D01*
X95828D01*
Y91347D01*
X95248D01*
Y91540D01*
X94861D01*
Y91733D01*
X94475D01*
Y91926D01*
X93895D01*
Y92120D01*
X93315D01*
Y92313D01*
X92735D01*
Y92506D01*
X91962D01*
Y92699D01*
X91383D01*
Y92893D01*
X90803D01*
Y93086D01*
X90030D01*
Y93279D01*
X89643D01*
Y93472D01*
X89064D01*
Y93666D01*
X88677D01*
Y93859D01*
X88291D01*
Y94052D01*
X88097D01*
Y94245D01*
X87711D01*
Y94439D01*
X87517D01*
Y94632D01*
X87324D01*
Y95019D01*
X87131D01*
Y103522D01*
X87517D01*
Y103715D01*
X89064D01*
Y103522D01*
D02*
G37*
G36*
X101818Y95019D02*
X102012D01*
Y92699D01*
X102205D01*
Y90380D01*
X102012D01*
Y91540D01*
X101818D01*
Y92313D01*
X101625D01*
Y93086D01*
X101432D01*
Y93666D01*
X101239D01*
Y94439D01*
X101045D01*
Y95212D01*
X100852D01*
Y96758D01*
X100659D01*
Y98884D01*
X100852D01*
Y100623D01*
X101045D01*
Y103135D01*
X101239D01*
Y103329D01*
X101818D01*
Y95019D01*
D02*
G37*
G36*
X165786Y99850D02*
X165979D01*
Y98884D01*
X166172D01*
Y96951D01*
X166366D01*
Y94245D01*
Y94052D01*
Y93666D01*
X166172D01*
Y93472D01*
X165979D01*
Y93279D01*
X165786D01*
Y93086D01*
X165593D01*
Y92893D01*
X165206D01*
Y92699D01*
X165013D01*
Y92506D01*
X164820D01*
Y92313D01*
X164433D01*
Y92120D01*
X164047D01*
Y91926D01*
X163853D01*
Y91733D01*
X163467D01*
Y91540D01*
X163274D01*
Y91347D01*
X162887D01*
Y91153D01*
X162501D01*
Y90960D01*
X162307D01*
Y90767D01*
X161921D01*
Y90574D01*
X161727D01*
Y90380D01*
X161341D01*
Y90187D01*
X161148D01*
Y89994D01*
X160761D01*
Y90187D01*
X160568D01*
Y90380D01*
X160375D01*
Y90767D01*
X160181D01*
Y90960D01*
X159988D01*
Y91347D01*
X160181D01*
Y91540D01*
X160375D01*
Y91733D01*
X160568D01*
Y91926D01*
X160761D01*
Y92120D01*
X160954D01*
Y92506D01*
X161148D01*
Y92699D01*
X161341D01*
Y92893D01*
X161534D01*
Y93086D01*
X161727D01*
Y93279D01*
X161921D01*
Y93472D01*
X162114D01*
Y93666D01*
X162307D01*
Y93859D01*
X162501D01*
Y94052D01*
X162694D01*
Y94245D01*
X162887D01*
Y94632D01*
X163080D01*
Y94825D01*
X163274D01*
Y95019D01*
X163467D01*
Y95212D01*
X163853D01*
Y95405D01*
X164047D01*
Y95598D01*
X163853D01*
Y95985D01*
X163660D01*
Y96565D01*
X163467D01*
Y98690D01*
X163274D01*
Y100043D01*
X163467D01*
Y100236D01*
X164433D01*
Y100430D01*
X165786D01*
Y99850D01*
D02*
G37*
G36*
X159795Y90767D02*
X159988D01*
Y90574D01*
X160181D01*
Y90380D01*
X159988D01*
Y90187D01*
X160568D01*
Y89994D01*
X160761D01*
Y89607D01*
X160568D01*
Y89414D01*
X160181D01*
Y89221D01*
X159988D01*
Y89414D01*
X159795D01*
Y89994D01*
X159988D01*
Y90187D01*
X159602D01*
Y90380D01*
X159408D01*
Y90574D01*
X159215D01*
Y90960D01*
X159795D01*
Y90767D01*
D02*
G37*
G36*
X119984Y88061D02*
X119791D01*
Y88255D01*
X119984D01*
Y88061D01*
D02*
G37*
G36*
Y87482D02*
X119791D01*
Y87675D01*
X119984D01*
Y87482D01*
D02*
G37*
G36*
Y87095D02*
X119791D01*
Y87288D01*
X119984D01*
Y87095D01*
D02*
G37*
G36*
X123076Y86902D02*
X122883D01*
Y87095D01*
X123076D01*
Y86902D01*
D02*
G37*
G36*
X96214Y86322D02*
X96407D01*
Y86709D01*
X96601D01*
Y86129D01*
Y85935D01*
X96214D01*
Y86129D01*
X96021D01*
Y85935D01*
X94475D01*
Y86709D01*
X94668D01*
Y86902D01*
X96214D01*
Y86322D01*
D02*
G37*
G36*
X132159Y85742D02*
X131966D01*
Y85935D01*
X132159D01*
Y85742D01*
D02*
G37*
G36*
X128488D02*
X128294D01*
Y85935D01*
X128488D01*
Y85742D01*
D02*
G37*
G36*
X155157Y85935D02*
X157089D01*
Y85356D01*
X156509D01*
Y85163D01*
X155736D01*
Y85356D01*
X155157D01*
Y85549D01*
X154964D01*
Y86129D01*
X155157D01*
Y85935D01*
D02*
G37*
G36*
X134092Y88255D02*
X134478D01*
Y88061D01*
X134865D01*
Y87868D01*
X135058D01*
Y87675D01*
X135251D01*
Y87482D01*
X135638D01*
Y85549D01*
X135445D01*
Y85163D01*
X135251D01*
Y85356D01*
X134865D01*
Y85549D01*
X134478D01*
Y85742D01*
X134092D01*
Y85935D01*
X133899D01*
Y86129D01*
X133705D01*
Y86322D01*
X133512D01*
Y86515D01*
X133319D01*
Y86709D01*
X133126D01*
Y86902D01*
X132932D01*
Y87675D01*
X133126D01*
Y87868D01*
X133319D01*
Y88061D01*
X133512D01*
Y88255D01*
X133705D01*
Y88448D01*
X134092D01*
Y88255D01*
D02*
G37*
G36*
X134285Y85163D02*
X134092D01*
Y85356D01*
X134285D01*
Y85163D01*
D02*
G37*
G36*
X134672Y84969D02*
X134478D01*
Y85163D01*
X134672D01*
Y84969D01*
D02*
G37*
G36*
X199219D02*
X199412D01*
Y84583D01*
X199219D01*
Y84390D01*
X199026D01*
Y84196D01*
X198446D01*
Y84390D01*
X198059D01*
Y84583D01*
Y84969D01*
X198253D01*
Y85163D01*
X199219D01*
Y84969D01*
D02*
G37*
G36*
X133512Y83037D02*
X133319D01*
Y83230D01*
X133512D01*
Y83037D01*
D02*
G37*
G36*
X133319Y82457D02*
X133126D01*
Y82650D01*
X133319D01*
Y82457D01*
D02*
G37*
G36*
X152645Y100043D02*
X152838D01*
Y99657D01*
X153031D01*
Y97917D01*
X153224D01*
Y96565D01*
X153031D01*
Y91540D01*
X152838D01*
Y90960D01*
X152645D01*
Y90187D01*
X152451D01*
Y87675D01*
X152645D01*
Y86902D01*
X152838D01*
Y85742D01*
X152645D01*
Y85356D01*
X152451D01*
Y84390D01*
X152258D01*
Y84003D01*
X152065D01*
Y83617D01*
X151871D01*
Y82843D01*
X152065D01*
Y83230D01*
X152258D01*
Y81297D01*
X151871D01*
Y81684D01*
X151678D01*
Y82070D01*
X151485D01*
Y82457D01*
X151871D01*
Y82843D01*
X151678D01*
Y82650D01*
X151292D01*
Y83037D01*
X151485D01*
Y84196D01*
X151292D01*
Y83230D01*
X151098D01*
Y82457D01*
X151292D01*
Y81877D01*
X151485D01*
Y81491D01*
X151678D01*
Y80138D01*
X151098D01*
Y80524D01*
X150905D01*
Y81104D01*
X150712D01*
Y84003D01*
Y84196D01*
X150905D01*
Y84969D01*
X151098D01*
Y85549D01*
X151292D01*
Y86129D01*
X151485D01*
Y86709D01*
X151678D01*
Y88448D01*
X151485D01*
Y92893D01*
X151678D01*
Y95212D01*
X151871D01*
Y100236D01*
X152645D01*
Y100043D01*
D02*
G37*
G36*
X101818Y83423D02*
X102012D01*
Y83037D01*
X101818D01*
Y82843D01*
X102205D01*
Y82650D01*
X102012D01*
Y82264D01*
X102205D01*
Y82457D01*
X102591D01*
Y82264D01*
X102398D01*
Y81877D01*
X102205D01*
Y81684D01*
X102012D01*
Y81491D01*
X101818D01*
Y81297D01*
X101432D01*
Y81684D01*
X101625D01*
Y81877D01*
X101818D01*
Y82070D01*
X101432D01*
Y82264D01*
X101625D01*
Y82650D01*
X101818D01*
Y82843D01*
X101625D01*
Y84390D01*
X101818D01*
Y83423D01*
D02*
G37*
G36*
X102398Y87288D02*
X102591D01*
Y86515D01*
X102785D01*
Y85935D01*
X102978D01*
Y84969D01*
X103171D01*
Y83037D01*
X103364D01*
Y81877D01*
X103171D01*
Y81297D01*
X102978D01*
Y81104D01*
X102785D01*
Y81297D01*
X102591D01*
Y81491D01*
X102785D01*
Y84003D01*
X102591D01*
Y84390D01*
X102398D01*
Y84003D01*
X102591D01*
Y82843D01*
X102398D01*
Y83037D01*
X102205D01*
Y84003D01*
X102012D01*
Y84583D01*
X101818D01*
Y84776D01*
X101625D01*
Y85549D01*
X101432D01*
Y86515D01*
Y86709D01*
X101239D01*
Y88061D01*
X101432D01*
Y88255D01*
X101818D01*
Y88448D01*
X102012D01*
Y88834D01*
X102205D01*
Y89607D01*
X102398D01*
Y87288D01*
D02*
G37*
G36*
X127328Y79558D02*
X127135D01*
Y79751D01*
X127328D01*
Y79558D01*
D02*
G37*
G36*
X126748Y79365D02*
X126942D01*
Y79172D01*
X126748D01*
Y79365D01*
X126555D01*
Y79558D01*
X126748D01*
Y79365D01*
D02*
G37*
G36*
X178154Y66803D02*
X178347D01*
Y66610D01*
X178541D01*
Y66417D01*
X180473D01*
Y63518D01*
X180666D01*
Y60233D01*
X180473D01*
Y59653D01*
X180280D01*
Y59460D01*
X180087D01*
Y59266D01*
X178541D01*
Y59460D01*
X178347D01*
Y59266D01*
X178541D01*
Y59073D01*
X177961D01*
Y59266D01*
X177768D01*
Y59073D01*
X177961D01*
Y58880D01*
X177768D01*
Y59073D01*
X177574D01*
Y58880D01*
X177768D01*
Y58687D01*
X177574D01*
Y58880D01*
X177188D01*
Y58687D01*
X177381D01*
Y58493D01*
Y58300D01*
X177188D01*
Y58687D01*
X176222D01*
Y58493D01*
X172550D01*
Y58687D01*
X172356D01*
Y58493D01*
X171970D01*
Y58687D01*
X171583D01*
Y58493D01*
X171197D01*
Y58300D01*
X169264D01*
Y58493D01*
X168491D01*
Y58300D01*
X167525D01*
Y58493D01*
X166945D01*
Y58300D01*
X166559D01*
Y58107D01*
X166366D01*
Y57914D01*
X166172D01*
Y58107D01*
X165206D01*
Y57914D01*
X164626D01*
Y57720D01*
X164433D01*
Y58107D01*
X164047D01*
Y58300D01*
X163660D01*
Y58493D01*
X163467D01*
Y57914D01*
X163274D01*
Y63131D01*
X163080D01*
Y66417D01*
X163274D01*
Y66610D01*
X163660D01*
Y66803D01*
X163853D01*
Y66610D01*
X164047D01*
Y66417D01*
X164240D01*
Y66224D01*
X164433D01*
Y66417D01*
X164626D01*
Y66610D01*
X164820D01*
Y66224D01*
X165013D01*
Y66417D01*
X165206D01*
Y66610D01*
X165399D01*
Y66224D01*
X165786D01*
Y66030D01*
X166172D01*
Y66224D01*
X166366D01*
Y66417D01*
X168105D01*
Y66610D01*
X169264D01*
Y66803D01*
X169458D01*
Y66997D01*
X169651D01*
Y66803D01*
X169844D01*
Y66610D01*
X170037D01*
Y66417D01*
X171197D01*
Y66610D01*
X171970D01*
Y66417D01*
X173323D01*
Y66610D01*
X173709D01*
Y66803D01*
X174096D01*
Y66610D01*
X174289D01*
Y66417D01*
X174482D01*
Y66610D01*
X174676D01*
Y66803D01*
X174869D01*
Y66610D01*
X175062D01*
Y66417D01*
X176415D01*
Y66610D01*
X176608D01*
Y66417D01*
X176995D01*
Y66610D01*
X177188D01*
Y66997D01*
X177381D01*
Y66803D01*
X177574D01*
Y66610D01*
X177768D01*
Y66803D01*
X177961D01*
Y66997D01*
X178154D01*
Y66803D01*
D02*
G37*
G36*
X117086Y66610D02*
X118632D01*
Y66417D01*
X118825D01*
Y66610D01*
X119791D01*
Y60426D01*
X119984D01*
Y58880D01*
X119791D01*
Y58687D01*
X119405D01*
Y58493D01*
X118825D01*
Y58300D01*
X118438D01*
Y58107D01*
X118052D01*
Y57914D01*
X117665D01*
Y57720D01*
X117472D01*
Y57527D01*
X117279D01*
Y57334D01*
X117086D01*
Y57140D01*
X116892D01*
Y56754D01*
X116699D01*
Y55788D01*
X116892D01*
Y55594D01*
X116699D01*
Y55788D01*
X116506D01*
Y55981D01*
X116119D01*
Y55788D01*
X115733D01*
Y55981D01*
X115346D01*
Y55788D01*
X115153D01*
Y55981D01*
X114767D01*
Y56174D01*
X114187D01*
Y55981D01*
X114767D01*
Y55788D01*
X113994D01*
Y55594D01*
X113800D01*
Y56174D01*
X113607D01*
Y55788D01*
X113414D01*
Y56174D01*
X113220D01*
Y55981D01*
X112447D01*
Y55788D01*
X109742D01*
Y55401D01*
X108969D01*
Y55594D01*
X107809D01*
Y55401D01*
X107423D01*
Y55594D01*
X106843D01*
Y55401D01*
X106263D01*
Y55594D01*
X105877D01*
Y55788D01*
X105684D01*
Y56754D01*
X105490D01*
Y57140D01*
X105297D01*
Y57334D01*
X105104D01*
Y57527D01*
X104911D01*
Y57720D01*
X104717D01*
Y57914D01*
X104524D01*
Y58107D01*
X103944D01*
Y58300D01*
X101818D01*
Y58493D01*
X101625D01*
Y59266D01*
X101432D01*
Y59846D01*
X101239D01*
Y61199D01*
X101045D01*
Y62745D01*
X101239D01*
Y66030D01*
X101432D01*
Y66610D01*
X101625D01*
Y66803D01*
X102785D01*
Y66610D01*
X103364D01*
Y66417D01*
X103944D01*
Y66610D01*
X104524D01*
Y66417D01*
X105104D01*
Y66610D01*
X105684D01*
Y66417D01*
X106070D01*
Y66610D01*
X107616D01*
Y66803D01*
X108389D01*
Y66610D01*
X109549D01*
Y66803D01*
X110128D01*
Y66610D01*
X112834D01*
Y66417D01*
X113220D01*
Y66610D01*
X113607D01*
Y66417D01*
X114187D01*
Y66610D01*
X116119D01*
Y66417D01*
X116313D01*
Y66610D01*
X116699D01*
Y66803D01*
X117086D01*
Y66610D01*
D02*
G37*
G36*
X165979Y66224D02*
X165786D01*
Y66610D01*
X165979D01*
Y66224D01*
D02*
G37*
G36*
X152838Y64291D02*
X152645D01*
Y60812D01*
X152451D01*
Y58880D01*
X152065D01*
Y58687D01*
X150519D01*
Y58493D01*
X149939D01*
Y58300D01*
X149552D01*
Y57914D01*
X149359D01*
Y57527D01*
X148973D01*
Y57334D01*
X148200D01*
Y57527D01*
X148006D01*
Y57334D01*
X147813D01*
Y57140D01*
X147620D01*
Y57334D01*
X147040D01*
Y57140D01*
X144721D01*
Y57334D01*
X144528D01*
Y57140D01*
X143368D01*
Y57334D01*
X142788D01*
Y57140D01*
X142209D01*
Y56947D01*
X141436D01*
Y56754D01*
X141242D01*
Y56947D01*
X140276D01*
Y56754D01*
X139890D01*
Y57140D01*
X139503D01*
Y56947D01*
X137764D01*
Y56754D01*
X137571D01*
Y56947D01*
X136604D01*
Y57140D01*
X136218D01*
Y57334D01*
X135831D01*
Y57527D01*
X135445D01*
Y57720D01*
X135058D01*
Y57914D01*
X134672D01*
Y58107D01*
D01*
D01*
X134478D01*
Y58493D01*
X134672D01*
Y59266D01*
X134478D01*
Y64098D01*
X134285D01*
Y66610D01*
X135058D01*
Y66417D01*
X138150D01*
Y66224D01*
X138730D01*
Y66417D01*
X138923D01*
Y66610D01*
X139310D01*
Y66417D01*
X140469D01*
Y66610D01*
X140663D01*
Y66417D01*
X140856D01*
Y66610D01*
X141629D01*
Y66417D01*
X142209D01*
Y66610D01*
X142402D01*
Y66417D01*
X142595D01*
Y66224D01*
X142788D01*
Y66417D01*
X143175D01*
Y66224D01*
X143368D01*
Y66417D01*
X143561D01*
Y66610D01*
X144141D01*
Y66417D01*
X144334D01*
Y66224D01*
X144721D01*
Y66417D01*
X145494D01*
Y66610D01*
X146267D01*
Y66417D01*
X147233D01*
Y66610D01*
X147427D01*
Y66417D01*
X149359D01*
Y66610D01*
X149746D01*
Y66417D01*
X150519D01*
Y66610D01*
X150712D01*
Y66417D01*
X150905D01*
Y66224D01*
X151098D01*
Y66417D01*
X152258D01*
Y66610D01*
X152838D01*
Y64291D01*
D02*
G37*
G36*
X133899Y66224D02*
X133705D01*
Y66417D01*
X133899D01*
Y66224D01*
D02*
G37*
G36*
X128488D02*
X128294D01*
Y66417D01*
X128488D01*
Y66224D01*
D02*
G37*
G36*
X180087Y84196D02*
X180280D01*
Y84003D01*
X180473D01*
Y83810D01*
X180860D01*
Y83617D01*
X181246D01*
Y83423D01*
X181826D01*
Y83230D01*
X182406D01*
Y83037D01*
X182985D01*
Y82843D01*
X183372D01*
Y83617D01*
X183565D01*
Y82650D01*
X183952D01*
Y82457D01*
X184531D01*
Y82264D01*
X185304D01*
Y82070D01*
X186851D01*
Y81877D01*
X187237D01*
Y81684D01*
X189170D01*
Y81877D01*
X191295D01*
Y82070D01*
X191875D01*
Y82264D01*
X192069D01*
Y83230D01*
X192262D01*
Y82457D01*
X193421D01*
Y82650D01*
X193808D01*
Y82843D01*
X194387D01*
Y83037D01*
X194581D01*
Y83230D01*
X195354D01*
Y83037D01*
X194967D01*
Y82843D01*
X195160D01*
Y82650D01*
X195354D01*
Y82457D01*
X195740D01*
Y82264D01*
X196127D01*
Y82070D01*
X196513D01*
Y81877D01*
X197093D01*
Y81684D01*
X198253D01*
Y80911D01*
X198059D01*
Y80524D01*
X197866D01*
Y80331D01*
X197673D01*
Y79945D01*
X197480D01*
Y79751D01*
X197286D01*
Y79365D01*
X197093D01*
Y78978D01*
X196900D01*
Y78592D01*
X196707D01*
Y78205D01*
X196513D01*
Y77626D01*
X196320D01*
Y76853D01*
X196127D01*
Y75500D01*
X195934D01*
Y75113D01*
X196127D01*
Y74920D01*
X195934D01*
Y72601D01*
X195740D01*
Y66610D01*
X195547D01*
Y62745D01*
X195740D01*
Y60426D01*
X195934D01*
Y59846D01*
X195740D01*
Y60039D01*
X193614D01*
Y59846D01*
X193228D01*
Y59653D01*
X192841D01*
Y59460D01*
X192455D01*
Y59266D01*
X192069D01*
Y59073D01*
X191875D01*
Y58880D01*
X191682D01*
Y58687D01*
X191489D01*
Y58493D01*
X191295D01*
Y58300D01*
X191102D01*
Y58107D01*
X190716D01*
Y57914D01*
X190522D01*
Y58107D01*
X190329D01*
Y60233D01*
X190136D01*
Y62552D01*
X189943D01*
Y65451D01*
X189749D01*
Y66803D01*
X189556D01*
Y68349D01*
X189363D01*
Y70089D01*
X189170D01*
Y72601D01*
X188976D01*
Y73760D01*
X188783D01*
Y74340D01*
X188590D01*
Y75693D01*
X188397D01*
Y76079D01*
X188203D01*
Y76466D01*
X188010D01*
Y76853D01*
X187817D01*
Y77239D01*
X187624D01*
Y77432D01*
X187237D01*
Y77046D01*
X187430D01*
Y76853D01*
X187624D01*
Y76466D01*
X187817D01*
Y76079D01*
X188010D01*
Y75306D01*
X187817D01*
Y74533D01*
X187624D01*
Y73954D01*
X187430D01*
Y73567D01*
X187237D01*
Y72988D01*
X187044D01*
Y72214D01*
X186851D01*
Y67770D01*
X187044D01*
Y65837D01*
X186851D01*
Y63325D01*
X186657D01*
Y60619D01*
X186464D01*
Y58687D01*
X184918D01*
Y58880D01*
X184531D01*
Y59073D01*
X184145D01*
Y59266D01*
X183758D01*
Y59460D01*
X183179D01*
Y59653D01*
X182599D01*
Y59846D01*
X181053D01*
Y59653D01*
X180860D01*
Y60233D01*
X181053D01*
Y63325D01*
X180860D01*
Y66610D01*
X180666D01*
Y67963D01*
X180473D01*
Y71055D01*
X180280D01*
Y72794D01*
Y72988D01*
Y73374D01*
X180087D01*
Y73567D01*
X180280D01*
Y73760D01*
X180087D01*
Y76659D01*
X179893D01*
Y79945D01*
X179700D01*
Y81104D01*
X179507D01*
Y81877D01*
X179314D01*
Y83037D01*
X179120D01*
Y83810D01*
X179314D01*
Y84583D01*
X180087D01*
Y84196D01*
D02*
G37*
G36*
X198253Y59460D02*
X197866D01*
Y59653D01*
X198253D01*
Y59460D01*
D02*
G37*
G36*
X197093D02*
X196707D01*
Y59653D01*
X197093D01*
Y59460D01*
D02*
G37*
G36*
X198253Y59073D02*
X198059D01*
Y59266D01*
X198253D01*
Y59073D01*
D02*
G37*
G36*
X197673D02*
X197480D01*
Y59266D01*
X197673D01*
Y59073D01*
D02*
G37*
G36*
X188783Y66610D02*
X189363D01*
Y65257D01*
X189556D01*
Y62552D01*
X189749D01*
Y60812D01*
Y60619D01*
Y59653D01*
X189943D01*
Y59073D01*
X189749D01*
Y59266D01*
X189556D01*
Y59073D01*
X189363D01*
Y59266D01*
X188783D01*
Y59073D01*
X187624D01*
Y58880D01*
X187430D01*
Y58687D01*
X187237D01*
Y59073D01*
X187044D01*
Y58880D01*
X186851D01*
Y60039D01*
X187044D01*
Y63518D01*
X187237D01*
Y66030D01*
X187430D01*
Y66417D01*
X187624D01*
Y66610D01*
X188203D01*
Y66803D01*
X188783D01*
Y66610D01*
D02*
G37*
G36*
X198253Y58687D02*
X198059D01*
Y58880D01*
X198253D01*
Y58687D01*
D02*
G37*
G36*
X187237Y58493D02*
X186851D01*
Y58687D01*
X187237D01*
Y58493D01*
D02*
G37*
G36*
X128681D02*
X128488D01*
Y58687D01*
X128681D01*
Y58493D01*
D02*
G37*
G36*
X90416Y86515D02*
X90610D01*
Y86322D01*
X91189D01*
Y86129D01*
X91769D01*
Y85935D01*
X92542D01*
Y85742D01*
X93702D01*
Y85935D01*
X93895D01*
Y86902D01*
X94281D01*
Y85742D01*
X97373D01*
Y85935D01*
X98340D01*
Y86129D01*
X99306D01*
Y86322D01*
X99693D01*
Y86515D01*
X99886D01*
Y86709D01*
X99693D01*
Y87288D01*
X99886D01*
Y86902D01*
X100079D01*
Y86515D01*
X100466D01*
Y86709D01*
X100852D01*
Y86902D01*
X101045D01*
Y86129D01*
X101239D01*
Y80138D01*
X101432D01*
Y75500D01*
X101625D01*
Y70475D01*
X101432D01*
Y69122D01*
X101239D01*
Y67576D01*
X101045D01*
Y65451D01*
X100852D01*
Y60039D01*
X101045D01*
Y59460D01*
X101239D01*
Y58493D01*
X101045D01*
Y58687D01*
X100466D01*
Y58493D01*
X99886D01*
Y58300D01*
X99306D01*
Y58107D01*
X98920D01*
Y57914D01*
X98533D01*
Y57720D01*
X97953D01*
Y57527D01*
X97760D01*
Y57720D01*
X97373D01*
Y57914D01*
X96794D01*
Y59460D01*
X96601D01*
Y62358D01*
X96407D01*
Y65451D01*
X96214D01*
Y68929D01*
X96407D01*
Y72794D01*
X96214D01*
Y75306D01*
X96021D01*
Y79751D01*
X96214D01*
Y80524D01*
X96407D01*
Y80718D01*
X96601D01*
Y81104D01*
X96407D01*
Y80911D01*
X96214D01*
Y80718D01*
X96021D01*
Y80331D01*
X95828D01*
Y79558D01*
Y79365D01*
Y72794D01*
X95634D01*
Y71055D01*
X95441D01*
Y69122D01*
X95248D01*
Y66997D01*
X95055D01*
Y62165D01*
X94861D01*
Y57914D01*
X94668D01*
Y57720D01*
X94475D01*
Y57527D01*
X94281D01*
Y57720D01*
X91189D01*
Y57914D01*
X90803D01*
Y57720D01*
X90223D01*
Y61779D01*
X90030D01*
Y65064D01*
X89837D01*
Y71828D01*
X89643D01*
Y72988D01*
X89450D01*
Y74147D01*
X89257D01*
Y80911D01*
X89064D01*
Y82843D01*
X88870D01*
Y86322D01*
X89064D01*
Y86709D01*
X90030D01*
Y87868D01*
X90416D01*
Y86515D01*
D02*
G37*
G36*
X177188Y57914D02*
X176995D01*
Y58107D01*
X177188D01*
Y57914D01*
D02*
G37*
G36*
X126362D02*
X126169D01*
Y58107D01*
X126362D01*
Y57914D01*
D02*
G37*
G36*
X163080Y57720D02*
Y57527D01*
X162887D01*
Y57914D01*
X163080D01*
Y57720D01*
D02*
G37*
G36*
X149359Y57140D02*
X149166D01*
Y57334D01*
X149359D01*
Y57140D01*
D02*
G37*
G36*
Y56561D02*
X149166D01*
Y56754D01*
X149359D01*
Y56561D01*
D02*
G37*
G36*
X139117Y56367D02*
X138923D01*
Y56561D01*
X139117D01*
Y56367D01*
D02*
G37*
G36*
X127908Y61006D02*
X128101D01*
Y60039D01*
Y59846D01*
Y58300D01*
X128294D01*
Y58107D01*
X128488D01*
Y57914D01*
X128681D01*
Y56174D01*
X128294D01*
Y56561D01*
D01*
D01*
X128101D01*
Y56367D01*
X127715D01*
Y56561D01*
X127328D01*
Y56367D01*
X127715D01*
Y56174D01*
X127521D01*
Y55981D01*
X127328D01*
Y56367D01*
X126942D01*
Y56754D01*
X126748D01*
Y56367D01*
X126942D01*
Y55788D01*
X126748D01*
Y56174D01*
X126555D01*
Y57720D01*
X126748D01*
Y58107D01*
X126942D01*
Y58493D01*
X126748D01*
Y63711D01*
X126555D01*
Y66610D01*
X127715D01*
Y66803D01*
X127908D01*
Y61006D01*
D02*
G37*
G36*
X137571Y55981D02*
X137377D01*
Y56174D01*
X137571D01*
Y55981D01*
D02*
G37*
G36*
X128294D02*
X127908D01*
Y56174D01*
X128294D01*
Y55981D01*
D02*
G37*
G36*
X128488Y55594D02*
X128294D01*
Y55788D01*
X128488D01*
Y55594D01*
D02*
G37*
G36*
X115153D02*
X114960D01*
Y55788D01*
X115153D01*
Y55594D01*
D02*
G37*
G36*
X113414D02*
X113220D01*
Y55788D01*
X113414D01*
Y55594D01*
D02*
G37*
G36*
X128874Y55401D02*
X128681D01*
Y55594D01*
X128874D01*
Y55401D01*
D02*
G37*
G36*
X126362D02*
X126169D01*
Y55594D01*
X126362D01*
Y55401D01*
D02*
G37*
G36*
X114960D02*
X114767D01*
Y55594D01*
X114960D01*
Y55401D01*
D02*
G37*
G36*
X113220D02*
X113027D01*
Y55594D01*
X113220D01*
Y55401D01*
D02*
G37*
G36*
X117086Y55208D02*
X116892D01*
Y55401D01*
X117086D01*
Y55208D01*
D02*
G37*
G36*
X114380D02*
X114187D01*
Y55401D01*
Y55594D01*
X114380D01*
Y55208D01*
D02*
G37*
G36*
X113027D02*
X112834D01*
Y55401D01*
X113027D01*
Y55208D01*
D02*
G37*
G36*
X111095Y55401D02*
X110901D01*
Y55208D01*
X110515D01*
Y55594D01*
X111095D01*
Y55401D01*
D02*
G37*
G36*
X105684D02*
X105877D01*
Y55208D01*
X105684D01*
Y55401D01*
X105104D01*
Y55594D01*
X105490D01*
Y55788D01*
X105684D01*
Y55401D01*
D02*
G37*
G36*
X115153Y55015D02*
X114960D01*
Y55208D01*
X115153D01*
Y55015D01*
D02*
G37*
G36*
X113607D02*
X113414D01*
Y55208D01*
X113607D01*
Y55015D01*
D02*
G37*
G36*
X107423D02*
X107229D01*
Y55401D01*
X107423D01*
Y55015D01*
D02*
G37*
G36*
X105104D02*
X104717D01*
Y55208D01*
X104911D01*
Y55401D01*
X105104D01*
Y55015D01*
D02*
G37*
G36*
X104524D02*
X104331D01*
Y55208D01*
X104524D01*
Y55015D01*
D02*
G37*
G36*
X113994Y54821D02*
X113800D01*
Y55015D01*
X113994D01*
Y54821D01*
D02*
G37*
G36*
X113027D02*
X112834D01*
Y55015D01*
X113027D01*
Y54821D01*
D02*
G37*
G36*
X104331D02*
X103751D01*
Y55015D01*
X104331D01*
Y54821D01*
D02*
G37*
G36*
X95828Y66610D02*
X96021D01*
Y63518D01*
X96214D01*
Y60426D01*
X96407D01*
Y58107D01*
X96601D01*
Y55788D01*
X96794D01*
Y55594D01*
X97180D01*
Y55401D01*
X97760D01*
Y55208D01*
X99113D01*
Y55401D01*
X99499D01*
Y55208D01*
X99693D01*
Y55594D01*
X100272D01*
Y55401D01*
X100659D01*
Y55208D01*
X100852D01*
Y55015D01*
X101045D01*
Y54821D01*
X100659D01*
Y55015D01*
X100272D01*
Y55401D01*
X100079D01*
Y55208D01*
X99886D01*
Y54821D01*
X99693D01*
Y55015D01*
X99499D01*
Y55208D01*
X99306D01*
Y55015D01*
X97567D01*
Y55208D01*
X97373D01*
Y55015D01*
X97180D01*
Y55208D01*
X96794D01*
Y55401D01*
X96601D01*
Y55208D01*
X96794D01*
Y54821D01*
X96987D01*
Y54628D01*
X96601D01*
Y54821D01*
X95055D01*
Y55981D01*
X94861D01*
Y56174D01*
Y56367D01*
Y57140D01*
X94668D01*
Y57334D01*
X94861D01*
Y57527D01*
X95055D01*
Y58300D01*
X95248D01*
Y59266D01*
X95055D01*
Y60812D01*
X95248D01*
Y65644D01*
X95441D01*
Y66803D01*
X95828D01*
Y66610D01*
D02*
G37*
G36*
X103364Y54628D02*
X101818D01*
Y54821D01*
X103364D01*
Y54628D01*
D02*
G37*
G36*
X101432D02*
X101239D01*
Y54821D01*
X101432D01*
Y54628D01*
D02*
G37*
G36*
X99693D02*
X99499D01*
Y54821D01*
X99693D01*
Y54628D01*
D02*
G37*
G36*
X114573Y54435D02*
X114380D01*
Y54628D01*
X114573D01*
Y54435D01*
D02*
G37*
G36*
X95055D02*
X94861D01*
Y54821D01*
X95055D01*
Y54435D01*
D02*
G37*
G36*
X89450D02*
X89257D01*
Y54628D01*
X89450D01*
Y54435D01*
D02*
G37*
G36*
X89257Y54242D02*
X89064D01*
Y54435D01*
X89257D01*
Y54242D01*
D02*
G37*
G36*
X94861Y54049D02*
X94668D01*
Y54242D01*
X94861D01*
Y54049D01*
D02*
G37*
G36*
X89064D02*
X88870D01*
Y54242D01*
X89064D01*
Y54049D01*
D02*
G37*
%LPC*%
G36*
X128681Y124393D02*
X128101D01*
Y124200D01*
X128681D01*
Y124393D01*
D02*
G37*
G36*
X129261Y124007D02*
X127908D01*
Y123813D01*
X127521D01*
Y123620D01*
X127908D01*
X128101Y123813D01*
X129261D01*
Y123620D01*
X129647D01*
Y123813D01*
X129261D01*
Y124007D01*
D02*
G37*
G36*
X92735Y124586D02*
X92542D01*
Y124393D01*
X92735D01*
Y124586D01*
D02*
G37*
G36*
X155736Y124007D02*
X155543D01*
Y123813D01*
X155736D01*
Y124007D01*
D02*
G37*
G36*
X155157Y123427D02*
X154770D01*
Y123234D01*
X154577D01*
Y122847D01*
X154964D01*
Y122654D01*
X155350D01*
Y122847D01*
X155930D01*
Y123040D01*
X155543D01*
Y123234D01*
X155157D01*
Y123427D01*
D02*
G37*
G36*
X156509D02*
X156316D01*
Y123040D01*
X156123D01*
Y122654D01*
X155930D01*
Y122461D01*
X156509D01*
Y122654D01*
X156896D01*
Y123040D01*
X157089D01*
Y123234D01*
X156509D01*
Y123427D01*
D02*
G37*
%LPD*%
G36*
X155157Y122847D02*
X154964D01*
Y123040D01*
X155157D01*
Y122847D01*
D02*
G37*
G36*
X156703D02*
X156509D01*
Y123040D01*
X156703D01*
Y122847D01*
D02*
G37*
%LPC*%
G36*
X130420Y122267D02*
X130227D01*
Y122074D01*
X130420D01*
Y122267D01*
D02*
G37*
G36*
X130807D02*
X130613D01*
Y122074D01*
X130807D01*
Y121881D01*
X131000D01*
Y121688D01*
X131193D01*
Y122074D01*
X130807D01*
Y122267D01*
D02*
G37*
G36*
X130613Y121688D02*
X130227D01*
Y121494D01*
X130613D01*
Y121688D01*
D02*
G37*
G36*
X131193Y121494D02*
X131000D01*
Y121301D01*
X131193D01*
Y121494D01*
D02*
G37*
G36*
X126748Y122267D02*
X126362D01*
Y122074D01*
X126748D01*
Y122267D01*
D02*
G37*
G36*
X126362Y122074D02*
X126169D01*
Y121881D01*
X126362D01*
Y122074D01*
D02*
G37*
G36*
X126169Y121881D02*
X125975D01*
Y121494D01*
X126169D01*
Y121881D01*
D02*
G37*
G36*
X126942D02*
X126748D01*
Y121688D01*
X126555D01*
Y121494D01*
X126362D01*
Y121301D01*
X127521D01*
Y121494D01*
X126942D01*
Y121881D01*
D02*
G37*
G36*
X122883Y121108D02*
X122690D01*
Y120915D01*
X122883D01*
Y120721D01*
X122690D01*
Y119948D01*
X122883D01*
Y119755D01*
X123076D01*
Y119948D01*
X122883D01*
Y120528D01*
X123076D01*
Y120915D01*
X122883D01*
Y121108D01*
D02*
G37*
G36*
X127908Y119948D02*
X127715D01*
Y119755D01*
X127521D01*
Y119562D01*
Y119369D01*
X127715D01*
Y119562D01*
X127908D01*
Y119948D01*
D02*
G37*
G36*
X129647Y119369D02*
X128488D01*
Y119175D01*
X129647D01*
Y119369D01*
D02*
G37*
G36*
X126555Y119175D02*
X125782D01*
Y118789D01*
X125975D01*
Y118982D01*
X126555D01*
Y119175D01*
D02*
G37*
G36*
X130034Y118016D02*
X127715D01*
Y117823D01*
X128681D01*
Y117629D01*
X128874D01*
Y117436D01*
X129261D01*
Y117629D01*
X128874D01*
Y117823D01*
X130034D01*
Y118016D01*
D02*
G37*
G36*
X124043Y117629D02*
X123849D01*
Y117050D01*
X124043D01*
Y116663D01*
X124236D01*
Y116470D01*
X124429D01*
Y116277D01*
X124816D01*
Y116470D01*
X124622D01*
Y116663D01*
X124429D01*
Y116856D01*
X124236D01*
Y117243D01*
X124043D01*
Y117629D01*
D02*
G37*
G36*
X130227Y115310D02*
X129454D01*
Y115117D01*
X130227D01*
Y115310D01*
D02*
G37*
G36*
X128294D02*
X128101D01*
Y115117D01*
X128294D01*
Y114924D01*
X129454D01*
Y115117D01*
X128294D01*
Y115310D01*
D02*
G37*
G36*
X129647Y112605D02*
X128874D01*
Y112411D01*
X129647D01*
Y112605D01*
D02*
G37*
G36*
X125975D02*
X125202D01*
Y112411D01*
X125975D01*
Y112218D01*
X128874D01*
Y112411D01*
X125975D01*
Y112605D01*
D02*
G37*
G36*
X119598Y106227D02*
X119405D01*
Y105841D01*
X119598D01*
Y106227D01*
D02*
G37*
G36*
X119405Y105841D02*
X119211D01*
Y105454D01*
Y105261D01*
X119405D01*
Y105841D01*
D02*
G37*
G36*
X119211Y104875D02*
X119018D01*
Y104102D01*
X119211D01*
Y104875D01*
D02*
G37*
G36*
X134865Y105261D02*
X134672D01*
Y104488D01*
X134865D01*
Y103522D01*
X135058D01*
Y104488D01*
X134865D01*
Y104681D01*
Y105261D01*
D02*
G37*
G36*
X119018Y104102D02*
X118825D01*
Y103135D01*
X119018D01*
Y103715D01*
Y103908D01*
Y104102D01*
D02*
G37*
G36*
X137957Y102749D02*
X137184D01*
Y102556D01*
X137957D01*
Y102749D01*
D01*
D01*
D02*
G37*
G36*
X124236D02*
X124043D01*
Y102556D01*
X124236D01*
Y102749D01*
D02*
G37*
G36*
X137184Y102556D02*
X136604D01*
Y102362D01*
X137184D01*
Y102556D01*
D02*
G37*
G36*
X136604Y102362D02*
X136024D01*
Y102169D01*
X135638D01*
Y101976D01*
X136218D01*
Y102169D01*
X136604D01*
Y102362D01*
D02*
G37*
G36*
X123463Y102169D02*
X123076D01*
Y101976D01*
X123463D01*
Y102169D01*
D02*
G37*
G36*
X126362Y103135D02*
X124429D01*
Y102942D01*
X124236D01*
Y102749D01*
X125396D01*
Y102556D01*
X125975D01*
Y102362D01*
X126555D01*
Y102169D01*
X127135D01*
Y101976D01*
X127521D01*
Y101782D01*
X127715D01*
Y102362D01*
X127521D01*
Y102556D01*
X127328D01*
Y102749D01*
X126942D01*
Y102942D01*
X126362D01*
Y103135D01*
D02*
G37*
G36*
X123076Y101976D02*
X122883D01*
Y101782D01*
X123076D01*
Y101976D01*
D02*
G37*
G36*
X122883Y101782D02*
X122690D01*
Y101589D01*
X122883D01*
Y101782D01*
D02*
G37*
G36*
X122690Y101589D02*
X122497D01*
Y101396D01*
X122303D01*
Y101203D01*
X122110D01*
Y101009D01*
X121917D01*
Y100623D01*
X122110D01*
Y100816D01*
X122303D01*
Y101009D01*
X122497D01*
Y101203D01*
X122690D01*
Y101589D01*
D02*
G37*
G36*
X124043Y102556D02*
X123849D01*
Y102362D01*
X123463D01*
Y102169D01*
X123849D01*
Y101589D01*
X126362D01*
Y101396D01*
X126942D01*
Y101203D01*
X127328D01*
Y101009D01*
X127715D01*
Y100430D01*
X127908D01*
Y101009D01*
X127715D01*
Y101396D01*
X126942D01*
Y101589D01*
X126555D01*
Y101782D01*
X126169D01*
Y101976D01*
X125975D01*
Y102169D01*
X125782D01*
Y102362D01*
X124816D01*
Y102169D01*
X124043D01*
Y102556D01*
D02*
G37*
G36*
X121917Y100623D02*
X121724D01*
Y100430D01*
X121917D01*
Y100623D01*
D02*
G37*
G36*
X121724Y100430D02*
X121530D01*
Y100236D01*
X121724D01*
Y100430D01*
D02*
G37*
G36*
X121530Y100236D02*
X121337D01*
Y100043D01*
X121530D01*
Y100236D01*
D02*
G37*
G36*
X121337Y100043D02*
X121144D01*
Y99850D01*
X120951D01*
Y99657D01*
X121144D01*
X121337Y99850D01*
Y100043D01*
D02*
G37*
G36*
X120951Y99657D02*
X120564D01*
Y99463D01*
X120951D01*
Y99657D01*
D02*
G37*
G36*
X127135Y100623D02*
X126748D01*
Y100430D01*
X126942D01*
Y100236D01*
X127521D01*
Y100043D01*
X127715D01*
Y99270D01*
X127908D01*
Y100043D01*
X127715D01*
Y100430D01*
X127135D01*
Y100623D01*
D02*
G37*
G36*
X120564Y99463D02*
X119598D01*
Y99270D01*
X120564D01*
Y99463D01*
D02*
G37*
G36*
X118825Y102556D02*
X118632D01*
Y101396D01*
X116506D01*
Y101203D01*
X118438D01*
Y99270D01*
X117279D01*
Y99077D01*
X116699D01*
Y98884D01*
X117472D01*
Y99077D01*
X119211D01*
Y99270D01*
X118825D01*
Y99463D01*
X118632D01*
Y100236D01*
X118825D01*
Y100430D01*
Y102556D01*
D02*
G37*
G36*
X116699Y98884D02*
X116119D01*
Y98690D01*
X116699D01*
Y98884D01*
D02*
G37*
G36*
X126748Y99657D02*
X126362D01*
Y99463D01*
X126555D01*
Y99270D01*
X126942D01*
Y99077D01*
X127328D01*
Y98497D01*
X127521D01*
Y99077D01*
X127715D01*
Y99270D01*
X127135D01*
Y99463D01*
X126748D01*
Y99657D01*
D02*
G37*
G36*
X116119Y98690D02*
X115733D01*
Y98497D01*
X116119D01*
Y98690D01*
D02*
G37*
G36*
X127328Y98497D02*
X127135D01*
Y98304D01*
X127328D01*
Y98497D01*
D02*
G37*
G36*
X115733D02*
X115346D01*
Y98304D01*
X115733D01*
Y98497D01*
D02*
G37*
G36*
X126748D02*
X126169D01*
Y98304D01*
X126362D01*
Y98111D01*
X126942D01*
Y97724D01*
X127135D01*
Y97917D01*
X127328D01*
Y98111D01*
X127135D01*
Y98304D01*
X126748D01*
Y98497D01*
D02*
G37*
G36*
X122303Y97338D02*
X121917D01*
Y97144D01*
X122303D01*
Y97338D01*
D02*
G37*
G36*
X135251Y102749D02*
X135058D01*
Y101009D01*
X135251D01*
Y100623D01*
X135445D01*
Y100043D01*
X135638D01*
Y99657D01*
X135831D01*
Y99077D01*
X136024D01*
Y98497D01*
X136218D01*
Y96951D01*
X136411D01*
Y97144D01*
X136604D01*
Y97531D01*
X136411D01*
Y98497D01*
X136218D01*
Y99270D01*
X136024D01*
Y99657D01*
X135831D01*
Y100043D01*
X135638D01*
Y100623D01*
X135445D01*
Y101203D01*
X135251D01*
Y101782D01*
X135638D01*
Y101976D01*
X135251D01*
Y102749D01*
D02*
G37*
G36*
X126362Y97917D02*
X123076D01*
Y97724D01*
X122690D01*
Y97531D01*
X122303D01*
Y97338D01*
X122690D01*
Y97144D01*
X123076D01*
Y96951D01*
X123270D01*
Y96758D01*
X124043D01*
Y96565D01*
X125975D01*
Y96758D01*
X126362D01*
Y96951D01*
X125782D01*
Y97144D01*
X125396D01*
Y97338D01*
X124236D01*
Y97531D01*
X123076D01*
Y97724D01*
X126362D01*
Y97531D01*
X126555D01*
Y97338D01*
X126362D01*
Y96951D01*
X126555D01*
Y97338D01*
X126748D01*
Y97531D01*
X126942D01*
Y97724D01*
X126362D01*
Y97917D01*
D02*
G37*
G36*
X121917Y97144D02*
X121530D01*
Y96951D01*
X121917D01*
Y97144D01*
D02*
G37*
G36*
X136218Y96951D02*
X136024D01*
Y96758D01*
X136218D01*
Y96951D01*
D02*
G37*
G36*
X121530D02*
X121337D01*
Y96758D01*
X121530D01*
Y96951D01*
D02*
G37*
G36*
X121144Y96758D02*
X120951D01*
Y96565D01*
X121144D01*
Y96758D01*
D02*
G37*
G36*
X136024D02*
X135831D01*
Y96371D01*
X136024D01*
Y96758D01*
D02*
G37*
G36*
X120951Y96565D02*
X120564D01*
Y96371D01*
X120951D01*
Y96565D01*
D02*
G37*
G36*
X120564Y96371D02*
X120178D01*
Y96178D01*
X120564D01*
Y96371D01*
D02*
G37*
G36*
X120178Y96178D02*
X119791D01*
Y95985D01*
X120178D01*
Y96178D01*
D02*
G37*
G36*
X119791Y95985D02*
X119405D01*
Y95792D01*
X119791D01*
Y95985D01*
D02*
G37*
G36*
X119405Y95792D02*
X119018D01*
Y95598D01*
X119405D01*
Y95792D01*
D02*
G37*
G36*
X119018Y95598D02*
X118632D01*
Y95405D01*
X119018D01*
Y95598D01*
D02*
G37*
G36*
X118632Y95405D02*
X118245D01*
Y95212D01*
X118632D01*
Y95405D01*
D02*
G37*
G36*
X118245Y95212D02*
X117859D01*
Y95019D01*
X118245D01*
Y95212D01*
D02*
G37*
G36*
X135831Y96371D02*
X135638D01*
Y95792D01*
X135445D01*
Y94825D01*
X135638D01*
Y95598D01*
X135831D01*
Y96371D01*
D02*
G37*
G36*
X135445Y94825D02*
X135251D01*
Y94245D01*
X135058D01*
Y93279D01*
X135251D01*
Y94052D01*
X135445D01*
Y94825D01*
D02*
G37*
G36*
X135058Y93086D02*
X134865D01*
Y92120D01*
X135058D01*
Y93086D01*
D02*
G37*
G36*
X134865Y92120D02*
X134672D01*
Y91347D01*
X134865D01*
Y92120D01*
D02*
G37*
G36*
X134672Y91347D02*
X134478D01*
Y90574D01*
X134672D01*
Y91347D01*
D02*
G37*
G36*
X130613Y88448D02*
X130420D01*
Y88255D01*
X130613D01*
Y88448D01*
D02*
G37*
G36*
X123849Y87868D02*
X123656D01*
Y87675D01*
X123849D01*
Y87868D01*
D02*
G37*
G36*
X127135Y87095D02*
X125975D01*
Y86902D01*
X127135D01*
Y87095D01*
D02*
G37*
%LPD*%
G36*
X125975Y102749D02*
X125589D01*
Y102942D01*
X125975D01*
Y102749D01*
D02*
G37*
G36*
X126748Y102556D02*
X127135D01*
Y102362D01*
X127328D01*
Y102169D01*
X127135D01*
Y102362D01*
X126748D01*
Y102556D01*
X126169D01*
Y102749D01*
X126748D01*
Y102556D01*
D02*
G37*
G36*
X123076Y97338D02*
X122883D01*
Y97531D01*
X123076D01*
Y97338D01*
D02*
G37*
G36*
X125009Y96951D02*
X125589D01*
Y96758D01*
X124236D01*
Y96951D01*
X123463D01*
Y97144D01*
X125009D01*
Y96951D01*
D02*
G37*
%LPC*%
G36*
X157476Y116663D02*
X157283D01*
Y116470D01*
X157476D01*
Y116663D01*
D02*
G37*
G36*
X161534D02*
X161341D01*
Y116470D01*
X161148D01*
Y116083D01*
X161341Y115890D01*
Y115697D01*
X161534D01*
Y116083D01*
X161341D01*
Y116277D01*
X161534D01*
Y116663D01*
D02*
G37*
G36*
X158056Y115697D02*
X157669D01*
Y115504D01*
X158056D01*
Y115697D01*
D02*
G37*
G36*
X157669Y115504D02*
X157089D01*
Y115310D01*
X156703D01*
Y115117D01*
X157283D01*
Y115310D01*
X157669D01*
Y115504D01*
D02*
G37*
G36*
X156123Y114344D02*
X155930D01*
Y114151D01*
Y113958D01*
X156123D01*
Y114344D01*
D02*
G37*
G36*
X154577Y114731D02*
X154384D01*
Y114151D01*
X153997D01*
Y113764D01*
X154191D01*
Y113378D01*
X154577D01*
Y113571D01*
X154964D01*
Y113764D01*
X154384D01*
Y113958D01*
X154577D01*
Y114731D01*
D02*
G37*
G36*
X157089Y112605D02*
X156896D01*
Y112218D01*
X157089D01*
Y112605D01*
D02*
G37*
G36*
X155543D02*
X154577D01*
Y112411D01*
X155543D01*
Y112218D01*
X156123D01*
Y112411D01*
X155543D01*
Y112605D01*
D02*
G37*
G36*
X157862Y110865D02*
X157669D01*
Y110672D01*
X157476D01*
Y110479D01*
X157862D01*
Y110865D01*
D02*
G37*
G36*
X157476Y110479D02*
X157089D01*
Y110286D01*
X156509D01*
Y110092D01*
X157283D01*
Y110286D01*
X157476D01*
Y110479D01*
D02*
G37*
G36*
X97373Y131544D02*
X96987D01*
Y131351D01*
X97373D01*
Y131544D01*
D02*
G37*
G36*
X96987Y131351D02*
X96601D01*
Y131157D01*
X96987D01*
Y131351D01*
D02*
G37*
G36*
X96601Y131157D02*
X96407D01*
Y130964D01*
X96601D01*
Y131157D01*
D02*
G37*
G36*
X96407Y130964D02*
X96021D01*
Y130771D01*
X96407D01*
Y130964D01*
D02*
G37*
G36*
X95828D02*
X94475D01*
Y130577D01*
X94668D01*
Y130771D01*
X95634D01*
Y130577D01*
X96021D01*
Y130771D01*
X95828D01*
Y130964D01*
D02*
G37*
G36*
X89064Y134249D02*
X87131D01*
Y134056D01*
X86358D01*
Y133863D01*
X87517D01*
Y134056D01*
X88677D01*
Y133863D01*
X90030D01*
Y133669D01*
X90610D01*
Y133476D01*
X91189D01*
Y133283D01*
X91576D01*
Y133090D01*
X91962D01*
Y132896D01*
X92156D01*
Y132703D01*
X92349D01*
Y132510D01*
X92542D01*
Y132317D01*
X92735D01*
Y131157D01*
X92929D01*
Y130771D01*
X93122D01*
Y130577D01*
X93508D01*
Y130384D01*
X94475D01*
Y130577D01*
X93508D01*
Y130771D01*
X93315D01*
Y130964D01*
X93122D01*
Y131351D01*
X92929D01*
Y132317D01*
X92735D01*
Y132703D01*
X92542D01*
Y132896D01*
X92349D01*
Y133090D01*
X91962D01*
Y133283D01*
X91769D01*
Y133476D01*
X91189D01*
Y133669D01*
X90803D01*
Y133863D01*
X90030D01*
Y134056D01*
X89064D01*
Y134249D01*
D02*
G37*
G36*
X98147Y131737D02*
X97373D01*
Y131544D01*
X98147D01*
Y131351D01*
X98533D01*
Y131157D01*
X99113D01*
Y130964D01*
X99499D01*
Y130771D01*
X99886D01*
Y130577D01*
X100272D01*
Y130384D01*
X100466D01*
Y130191D01*
X100852D01*
Y129998D01*
X101045D01*
Y129804D01*
X101239D01*
Y129611D01*
X101432D01*
Y129418D01*
X101625D01*
Y129031D01*
X101818D01*
Y128838D01*
X102205D01*
Y129031D01*
X102012D01*
Y129225D01*
X101818D01*
Y129418D01*
X101625D01*
Y129611D01*
X101432D01*
Y129804D01*
X101239D01*
Y129998D01*
X101045D01*
Y130191D01*
X100852D01*
Y130384D01*
X100466D01*
Y130577D01*
X100272D01*
Y130771D01*
X99886D01*
Y130964D01*
X99499D01*
Y131157D01*
X99113D01*
Y131351D01*
X98533D01*
Y131544D01*
X98147D01*
Y131737D01*
D02*
G37*
G36*
X102591Y129031D02*
X102398D01*
Y128645D01*
X103944D01*
Y128452D01*
X104331D01*
Y128258D01*
X104524D01*
Y127872D01*
X104717D01*
Y127679D01*
X104911D01*
Y127485D01*
X105104D01*
Y127292D01*
X105297D01*
Y127099D01*
X105490D01*
Y126906D01*
X105684D01*
Y126712D01*
X106263D01*
Y126906D01*
X105684D01*
Y127099D01*
X105490D01*
Y127292D01*
X105297D01*
Y127485D01*
X105104D01*
Y127679D01*
X104911D01*
Y128065D01*
X104717D01*
Y128258D01*
X104524D01*
Y128452D01*
X104331D01*
Y128645D01*
X103944D01*
Y128838D01*
X102591D01*
Y129031D01*
D02*
G37*
G36*
X107616Y126712D02*
X106650D01*
Y126519D01*
X107616D01*
Y126712D01*
D02*
G37*
G36*
X113994Y125939D02*
X113607D01*
Y125746D01*
X113994D01*
Y125939D01*
D02*
G37*
G36*
X113607Y125746D02*
X113220D01*
Y125553D01*
X113607D01*
Y125746D01*
D02*
G37*
G36*
X113220Y125553D02*
X113027D01*
Y125359D01*
X113220D01*
Y125553D01*
D02*
G37*
G36*
X113027Y125359D02*
X112641D01*
Y125166D01*
X112447D01*
Y124973D01*
X112834D01*
Y125166D01*
X113027D01*
Y125359D01*
D02*
G37*
G36*
X112447Y124973D02*
X112254D01*
Y124780D01*
X112447D01*
Y124973D01*
D02*
G37*
G36*
X108582Y126519D02*
X107809D01*
Y126326D01*
X108582D01*
Y126133D01*
X109355D01*
Y125939D01*
X109935D01*
Y125746D01*
X110128D01*
Y125359D01*
X110322D01*
Y125166D01*
X110515D01*
Y124973D01*
X110901D01*
Y124780D01*
X111095D01*
Y124586D01*
X112254D01*
Y124780D01*
X111095D01*
Y124973D01*
X110901D01*
Y125166D01*
X110708D01*
Y125359D01*
X110515D01*
Y125553D01*
X110322D01*
Y125746D01*
X110128D01*
Y125939D01*
X109935D01*
Y126133D01*
X109355D01*
Y126326D01*
X108582D01*
Y126519D01*
D02*
G37*
G36*
X99499Y124780D02*
X99113D01*
Y124586D01*
X99499D01*
Y124780D01*
D02*
G37*
G36*
X114767Y126133D02*
X114187D01*
Y125939D01*
X114767D01*
Y125746D01*
X114960D01*
Y125553D01*
X115153D01*
Y125359D01*
X115346D01*
Y125166D01*
X115540D01*
Y124973D01*
X115926D01*
Y124780D01*
X116119D01*
Y124586D01*
X116506D01*
Y124393D01*
X116699D01*
Y124586D01*
X116506D01*
Y124780D01*
X116119D01*
Y124973D01*
X115926D01*
Y125166D01*
X115540D01*
Y125359D01*
X115346D01*
Y125553D01*
X115153D01*
Y125746D01*
X114960D01*
Y125939D01*
X114767Y126133D01*
D02*
G37*
G36*
X98533Y124586D02*
X97953D01*
Y124393D01*
X98533D01*
Y124586D01*
D02*
G37*
G36*
X95634D02*
X94281D01*
Y124393D01*
X95634D01*
Y124586D01*
D02*
G37*
G36*
X120371Y124393D02*
X119984D01*
Y124200D01*
X120371D01*
Y124393D01*
D02*
G37*
G36*
X117279D02*
X116892D01*
Y124200D01*
X117279D01*
Y124393D01*
D02*
G37*
G36*
X94088D02*
X93895D01*
Y124200D01*
X94088D01*
Y124393D01*
D02*
G37*
G36*
X119791Y124200D02*
X117665D01*
Y124007D01*
X119791D01*
Y124200D01*
D02*
G37*
G36*
X100466Y124586D02*
X100272D01*
Y124393D01*
X100466D01*
Y124200D01*
X100659D01*
Y123427D01*
X100852D01*
Y124200D01*
X100659D01*
Y124393D01*
X100466D01*
Y124586D01*
D02*
G37*
G36*
X121144Y123427D02*
X114960D01*
Y123234D01*
X121144D01*
Y123427D01*
D01*
D01*
D02*
G37*
G36*
X114767Y123234D02*
X113994D01*
Y123040D01*
X114767D01*
Y123234D01*
D02*
G37*
G36*
X111868D02*
X109742D01*
Y123040D01*
X111868D01*
Y122847D01*
X113994D01*
Y123040D01*
X111868D01*
Y123234D01*
D02*
G37*
G36*
X109742Y123040D02*
X108582D01*
Y122847D01*
X109742D01*
Y123040D01*
D02*
G37*
G36*
X100659Y123234D02*
X100466D01*
Y122847D01*
X102978D01*
Y123040D01*
X100659D01*
Y123234D01*
D02*
G37*
G36*
X108003Y122847D02*
X103364D01*
Y122654D01*
X108003D01*
Y122847D01*
D02*
G37*
G36*
X100466D02*
X100272D01*
Y122654D01*
X100466D01*
Y122847D01*
D02*
G37*
G36*
X95055Y122461D02*
X94861D01*
Y122267D01*
X95055D01*
Y122461D01*
D02*
G37*
G36*
X94861Y122267D02*
X94668D01*
Y122074D01*
X94475D01*
Y121494D01*
X94668D01*
Y121881D01*
X94861D01*
Y122267D01*
D02*
G37*
G36*
X100659Y119369D02*
X100079D01*
Y119175D01*
X100659D01*
Y119369D01*
D02*
G37*
G36*
X97760D02*
X97180D01*
Y119175D01*
X96987D01*
Y118982D01*
X97373D01*
Y119175D01*
X97760D01*
Y119369D01*
D02*
G37*
G36*
X94475Y121494D02*
X94281D01*
Y121108D01*
X94088D01*
Y119948D01*
X94281D01*
Y119562D01*
X94475D01*
Y118209D01*
X94668D01*
Y119562D01*
X94475D01*
Y120142D01*
X94281D01*
Y120915D01*
X94475D01*
Y121494D01*
D02*
G37*
G36*
X100659Y118402D02*
X100079D01*
Y118209D01*
X100272D01*
Y118016D01*
X100659D01*
Y118402D01*
D02*
G37*
G36*
X98147D02*
X97180D01*
Y118209D01*
X97373D01*
Y118016D01*
X97953D01*
Y118209D01*
X98147D01*
Y118402D01*
D02*
G37*
G36*
X94475Y118209D02*
X94281D01*
Y118016D01*
X94088D01*
Y117823D01*
X93702D01*
Y118016D01*
X93508D01*
Y118209D01*
X92929D01*
Y118016D01*
X92735D01*
Y117823D01*
X92542D01*
Y117243D01*
X92349D01*
Y117050D01*
X92542D01*
Y116277D01*
X92735D01*
Y116083D01*
X92929D01*
Y115890D01*
X93122D01*
Y115504D01*
X92929D01*
Y114924D01*
X93122D01*
Y115310D01*
X93315D01*
Y115504D01*
X93508D01*
Y115890D01*
X93122D01*
Y116083D01*
X92929D01*
Y116470D01*
X92735D01*
Y117629D01*
X92929D01*
Y117823D01*
X93122D01*
Y118016D01*
X93315D01*
Y117823D01*
X93702D01*
Y117629D01*
X93895D01*
Y117436D01*
X94088D01*
Y117629D01*
X94281D01*
Y117823D01*
X94475D01*
Y118209D01*
D02*
G37*
G36*
X93315Y117629D02*
X93122D01*
Y117243D01*
X93508D01*
Y117050D01*
X93315D01*
Y116663D01*
Y116470D01*
X93508D01*
Y116856D01*
X93702D01*
Y117436D01*
X93315D01*
Y117629D01*
D02*
G37*
G36*
X99499Y118209D02*
X99306D01*
Y118016D01*
X99113D01*
Y117823D01*
X99306D01*
Y117243D01*
X99499D01*
Y117050D01*
Y116856D01*
X99693D01*
Y116470D01*
X99886D01*
Y115890D01*
X100079D01*
Y115504D01*
X99499D01*
Y115310D01*
X99306D01*
Y115504D01*
X98726D01*
Y115697D01*
X98340D01*
Y115504D01*
X98533D01*
Y115310D01*
X99113D01*
Y115117D01*
X100272D01*
Y116083D01*
X100079D01*
Y116663D01*
X99886D01*
Y117050D01*
X99693D01*
Y117436D01*
X99499D01*
Y118209D01*
D02*
G37*
G36*
X93895Y114731D02*
X93702D01*
Y114537D01*
Y114344D01*
X93895D01*
Y114151D01*
X94088D01*
Y114537D01*
X93895D01*
Y114731D01*
D02*
G37*
G36*
X99693Y113764D02*
X98533D01*
Y113378D01*
X98920D01*
Y113571D01*
X99693D01*
Y113764D01*
D02*
G37*
G36*
Y113184D02*
X99306D01*
Y112991D01*
X99693D01*
Y113184D01*
D02*
G37*
G36*
X190329Y117823D02*
X190136D01*
Y117629D01*
X189943D01*
Y117823D01*
X189556D01*
Y117629D01*
X189943D01*
Y117436D01*
X190329D01*
Y117823D01*
D02*
G37*
G36*
X192262Y118016D02*
X192069D01*
Y117629D01*
X192648D01*
Y117436D01*
X192841D01*
Y117629D01*
X192648D01*
Y117823D01*
X192262D01*
Y118016D01*
D02*
G37*
G36*
X189363Y117823D02*
X189170D01*
Y117436D01*
X189363D01*
Y117823D01*
D02*
G37*
G36*
X193421Y117436D02*
X193228D01*
Y117243D01*
X193421D01*
Y117436D01*
D02*
G37*
G36*
X189749Y117050D02*
X189556D01*
Y116856D01*
X189749D01*
Y117050D01*
D02*
G37*
G36*
X189363Y116856D02*
X189170D01*
Y116663D01*
X189363D01*
Y116856D01*
D02*
G37*
G36*
X192455Y116663D02*
X192262D01*
Y116470D01*
X192455D01*
Y116663D01*
D02*
G37*
G36*
X190136Y116856D02*
X189943D01*
Y116663D01*
X190136D01*
Y116470D01*
X190329D01*
Y116663D01*
X190136D01*
Y116856D01*
D02*
G37*
G36*
X189170Y116663D02*
X188976D01*
Y116470D01*
X189170D01*
Y116663D01*
D02*
G37*
G36*
X192841Y116277D02*
X192648D01*
Y116083D01*
X192841D01*
Y116277D01*
D02*
G37*
G36*
X189749Y116470D02*
X189556D01*
Y116083D01*
X189749D01*
Y116277D01*
Y116470D01*
D02*
G37*
G36*
X193228Y116856D02*
X192455D01*
Y116663D01*
X193228D01*
Y116277D01*
Y116083D01*
Y115890D01*
X193421D01*
Y116663D01*
X193228D01*
Y116856D01*
D02*
G37*
G36*
X190329Y116277D02*
X190136D01*
Y115890D01*
X190329D01*
Y116277D01*
D02*
G37*
G36*
X192455D02*
X192262D01*
Y115890D01*
X192455D01*
Y115697D01*
X193228D01*
Y115890D01*
X192455D01*
Y116277D01*
D02*
G37*
G36*
X189943Y115890D02*
X189749D01*
Y115697D01*
X189943D01*
Y115890D01*
D02*
G37*
G36*
X188976Y116470D02*
X188783D01*
Y116277D01*
X188976D01*
Y115890D01*
X189363D01*
Y115697D01*
X189556D01*
Y115504D01*
X189749D01*
Y115697D01*
X189556D01*
Y115890D01*
X189363Y116083D01*
X189170D01*
Y116277D01*
X188976D01*
Y116470D01*
D02*
G37*
G36*
X189556Y115504D02*
X189170D01*
Y115310D01*
X189556D01*
Y115504D01*
D02*
G37*
G36*
X192841D02*
X192455D01*
Y115310D01*
X192648D01*
Y115117D01*
X193035D01*
Y115310D01*
X192841D01*
Y115504D01*
D02*
G37*
G36*
X195934Y114924D02*
X195740D01*
Y114731D01*
X195934D01*
Y114924D01*
D02*
G37*
G36*
X185884D02*
X185691D01*
Y114344D01*
X185884D01*
Y114924D01*
D01*
D01*
D02*
G37*
G36*
X195740Y114731D02*
X195547D01*
Y114537D01*
Y114344D01*
X195740D01*
Y113958D01*
X195934D01*
Y114344D01*
X195740D01*
Y114731D01*
D02*
G37*
G36*
X189749Y114344D02*
X189556D01*
Y113958D01*
X189749D01*
Y114344D01*
D02*
G37*
G36*
X193035Y113958D02*
X192648D01*
Y113764D01*
X193035D01*
Y113958D01*
D02*
G37*
G36*
X192069D02*
X191875D01*
Y113764D01*
X190716D01*
Y113958D01*
X190522D01*
Y113764D01*
X190716Y113571D01*
X192069D01*
Y113958D01*
D02*
G37*
G36*
X185691Y114344D02*
X185498D01*
Y113958D01*
X185691D01*
Y113764D01*
X185884D01*
Y113958D01*
X185691D01*
Y114344D01*
D02*
G37*
G36*
X189363Y113571D02*
X189170D01*
Y113378D01*
X189363D01*
Y113571D01*
D02*
G37*
G36*
X193614Y113378D02*
X193421D01*
Y113184D01*
Y112798D01*
X193614D01*
Y112605D01*
X193808D01*
Y112991D01*
X193614D01*
Y113378D01*
D02*
G37*
G36*
X189170D02*
X188976D01*
Y113184D01*
X188783D01*
Y112991D01*
Y112605D01*
X188976D01*
Y112991D01*
X189170D01*
Y113378D01*
D02*
G37*
G36*
X190522Y112218D02*
X189943D01*
Y112025D01*
X190522D01*
Y112218D01*
D02*
G37*
G36*
X191489Y112411D02*
X190522D01*
Y112218D01*
X191295D01*
Y112025D01*
X192069D01*
Y111832D01*
X192455D01*
Y112025D01*
X192262D01*
Y112218D01*
X191489D01*
Y112411D01*
D02*
G37*
G36*
X189943Y112025D02*
X189556D01*
Y111832D01*
X189943D01*
Y112025D01*
D02*
G37*
G36*
X188783Y111832D02*
X188590D01*
Y111638D01*
X188783D01*
Y111832D01*
D02*
G37*
G36*
X191489Y111638D02*
X190909D01*
Y111445D01*
X191489D01*
Y111638D01*
D02*
G37*
G36*
X192841Y109126D02*
X192455D01*
Y108933D01*
X191875D01*
Y108740D01*
X192648D01*
Y108933D01*
X192841D01*
Y109126D01*
D02*
G37*
G36*
X189943Y109319D02*
X189556D01*
Y109126D01*
X189749D01*
Y108933D01*
X190136D01*
Y108740D01*
X191102D01*
Y108933D01*
X190329D01*
Y109126D01*
X189943D01*
Y109319D01*
D02*
G37*
G36*
X191489Y108740D02*
X191295D01*
Y108546D01*
X191489D01*
Y108740D01*
D02*
G37*
G36*
X193421Y108353D02*
X193035D01*
Y108160D01*
X193421D01*
Y108353D01*
D02*
G37*
G36*
X193035Y108160D02*
X192262D01*
Y107773D01*
X192455D01*
Y107967D01*
X193035D01*
Y108160D01*
D02*
G37*
G36*
X188976Y108353D02*
X188783D01*
Y107967D01*
X189170D01*
Y107773D01*
X189943D01*
Y107967D01*
X189363D01*
Y108160D01*
X188976D01*
Y108353D01*
D02*
G37*
G36*
X195160Y105068D02*
X194967D01*
Y104681D01*
X194774D01*
Y104295D01*
X194967D01*
Y104488D01*
X195160D01*
Y105068D01*
D02*
G37*
G36*
X194001Y104295D02*
X193808D01*
Y104102D01*
X194001D01*
Y104295D01*
D02*
G37*
G36*
X191682D02*
X191489D01*
Y104102D01*
X191682D01*
Y104295D01*
D02*
G37*
G36*
X187624Y104102D02*
X187430D01*
Y103908D01*
X187624D01*
Y104102D01*
D02*
G37*
G36*
X194774Y104295D02*
X194581D01*
Y104102D01*
X194387D01*
Y103715D01*
X194581D01*
Y103908D01*
X194774D01*
Y104295D01*
D02*
G37*
G36*
X190522Y103908D02*
X190329D01*
Y103715D01*
X190522D01*
Y103908D01*
D02*
G37*
G36*
X188783D02*
X188590D01*
Y103715D01*
X188783D01*
Y103908D01*
D02*
G37*
G36*
X194387Y103715D02*
X194194D01*
Y103522D01*
X194387D01*
Y103715D01*
D02*
G37*
G36*
X199992Y103522D02*
X199799D01*
Y103329D01*
X199992D01*
Y103522D01*
D02*
G37*
G36*
X194194D02*
X194001D01*
Y103329D01*
X194194D01*
Y103522D01*
D02*
G37*
G36*
X194001Y103329D02*
X193614D01*
Y103135D01*
X194001D01*
Y103329D01*
D02*
G37*
G36*
X193614Y103135D02*
X193228D01*
Y102942D01*
X193614D01*
Y103135D01*
D02*
G37*
G36*
X200572Y102942D02*
X200378D01*
Y102749D01*
X200572D01*
Y102942D01*
D02*
G37*
G36*
X193228D02*
X192841D01*
Y102749D01*
X193228D01*
Y102942D01*
D02*
G37*
G36*
X183565Y103908D02*
X183372D01*
Y102749D01*
X183565D01*
Y103908D01*
D02*
G37*
G36*
X192648Y102749D02*
X192069D01*
Y102556D01*
X192648D01*
Y102749D01*
D02*
G37*
G36*
X183372D02*
X183179D01*
Y101976D01*
X183372D01*
Y102749D01*
D02*
G37*
G36*
X183179Y101976D02*
X182985D01*
Y101396D01*
X183179D01*
Y101976D01*
D02*
G37*
G36*
X182985Y101396D02*
X182792D01*
Y101009D01*
X182985D01*
Y101396D01*
D02*
G37*
G36*
X182792Y101009D02*
X182599D01*
Y100623D01*
X182792D01*
Y101009D01*
D02*
G37*
G36*
X197673Y105841D02*
X197480D01*
Y104875D01*
X197286D01*
Y102942D01*
X197480D01*
Y101396D01*
X197673D01*
Y99850D01*
X197866D01*
Y98690D01*
X198059D01*
Y100043D01*
X197866D01*
Y101396D01*
X197673D01*
Y105841D01*
D01*
D01*
D02*
G37*
G36*
X182599Y100623D02*
X182406D01*
Y100430D01*
X182212D01*
Y99657D01*
X182019D01*
Y98497D01*
X182212D01*
Y99463D01*
X182406D01*
Y100236D01*
X182599D01*
Y100623D01*
D02*
G37*
G36*
X182019Y98304D02*
X181826D01*
Y97338D01*
X182019D01*
Y98304D01*
D02*
G37*
G36*
X181826Y97338D02*
X181633D01*
Y96565D01*
X181826D01*
Y97338D01*
D02*
G37*
G36*
X181633Y96565D02*
X181439D01*
Y95792D01*
X181633D01*
Y96565D01*
D02*
G37*
G36*
X181439Y95792D02*
X181246D01*
Y95212D01*
X181439D01*
Y95792D01*
D02*
G37*
G36*
X181246Y95212D02*
X181053D01*
Y94632D01*
X181246D01*
Y95212D01*
D02*
G37*
G36*
X193614Y94632D02*
X193421D01*
Y94439D01*
X193614D01*
Y94632D01*
D02*
G37*
G36*
X194194Y94439D02*
X193808D01*
Y94245D01*
X194194D01*
Y94439D01*
D02*
G37*
G36*
X184725Y94245D02*
X184338D01*
Y94052D01*
X184725D01*
Y94245D01*
D02*
G37*
G36*
X194581D02*
X194387D01*
Y94052D01*
X194581D01*
Y93859D01*
X194774D01*
Y94052D01*
X194581D01*
Y94245D01*
D02*
G37*
G36*
X184338Y94052D02*
X183952D01*
Y93859D01*
X184338D01*
Y94052D01*
D02*
G37*
G36*
X181053Y94632D02*
X180860D01*
Y94245D01*
X180666D01*
Y93859D01*
X180473D01*
Y94052D01*
X180087D01*
Y94245D01*
X179893D01*
Y94052D01*
X180087D01*
Y93859D01*
X180280D01*
Y93666D01*
X180666D01*
Y93472D01*
X180860D01*
Y93279D01*
X181053D01*
Y93086D01*
X181439D01*
Y92893D01*
X181633D01*
Y92699D01*
X181826D01*
Y92506D01*
X182212D01*
Y92313D01*
X182406D01*
Y92120D01*
X182599D01*
Y91926D01*
X182985D01*
Y91733D01*
X183179D01*
Y91540D01*
X183372D01*
Y91347D01*
X183565D01*
Y91153D01*
X183952D01*
Y90960D01*
X184145D01*
Y90767D01*
X184338D01*
Y90574D01*
X184725D01*
Y90767D01*
X184531D01*
Y90960D01*
X184145D01*
Y91153D01*
X183952D01*
Y91347D01*
X183758D01*
Y91540D01*
X183372D01*
Y91733D01*
X183179D01*
Y91926D01*
X182985D01*
Y92120D01*
X182792D01*
Y92313D01*
X182406D01*
Y92506D01*
X182212D01*
Y92699D01*
X182019D01*
Y92893D01*
X181633D01*
Y93086D01*
X181439D01*
Y93279D01*
X181246D01*
Y93472D01*
X180860D01*
Y94052D01*
X181053D01*
Y94632D01*
D02*
G37*
G36*
X198253Y98497D02*
X198059D01*
Y97338D01*
X198253D01*
Y95985D01*
X198446D01*
Y94052D01*
Y93859D01*
Y92506D01*
X198639D01*
Y93086D01*
X198832D01*
Y93472D01*
X199026D01*
Y93666D01*
X199219D01*
Y93859D01*
X198832D01*
Y93666D01*
X198639D01*
Y95985D01*
X198446D01*
Y97531D01*
X198253D01*
Y98497D01*
D02*
G37*
G36*
X198446Y92506D02*
X198253D01*
Y91733D01*
X198446D01*
Y92506D01*
D02*
G37*
G36*
X185691Y91347D02*
X185304D01*
Y91153D01*
X185111D01*
Y90960D01*
X185498D01*
Y91153D01*
X185691D01*
Y91347D01*
D02*
G37*
G36*
X198253Y91733D02*
X198059D01*
Y90767D01*
X198253D01*
Y91733D01*
D02*
G37*
G36*
X185111Y90960D02*
X184725D01*
Y90767D01*
X185111D01*
Y90960D01*
D02*
G37*
G36*
X188397Y92893D02*
X187624D01*
Y92699D01*
X187044D01*
Y92506D01*
X186657D01*
Y92313D01*
X186464D01*
Y91926D01*
X186271D01*
Y91733D01*
X185884D01*
Y91540D01*
X185691D01*
Y91347D01*
X186078D01*
Y91540D01*
X186271D01*
Y90767D01*
X186657D01*
Y90574D01*
X187044D01*
Y90380D01*
X189556D01*
Y90574D01*
X190136D01*
Y89801D01*
X190329D01*
Y90574D01*
X190136D01*
Y90767D01*
X189943D01*
Y92120D01*
X189749D01*
Y92313D01*
X189556D01*
Y92506D01*
X189170D01*
Y92699D01*
X188397D01*
Y92893D01*
D02*
G37*
G36*
X190136Y89801D02*
X189363D01*
Y89607D01*
X188976D01*
Y89414D01*
X189556D01*
Y89607D01*
X190136D01*
Y89801D01*
D02*
G37*
G36*
X190329Y89414D02*
X190136D01*
Y89221D01*
X190329D01*
Y89414D01*
D02*
G37*
G36*
X189556Y88834D02*
X188783D01*
Y88641D01*
X189556D01*
Y88834D01*
D02*
G37*
G36*
X182406Y88641D02*
X182019D01*
Y88448D01*
X182406D01*
Y88255D01*
X182792D01*
Y88448D01*
X182599D01*
X182406Y88641D01*
D02*
G37*
G36*
X183565Y88255D02*
X182985D01*
Y88061D01*
X183372D01*
Y87868D01*
X183952D01*
Y88061D01*
X183565D01*
Y88255D01*
D02*
G37*
G36*
X184725Y87868D02*
X184145D01*
Y87675D01*
X184725D01*
Y87868D01*
D02*
G37*
G36*
X198059Y90574D02*
X197866D01*
Y89028D01*
X197673D01*
Y87482D01*
X197866D01*
Y88834D01*
X198059D01*
Y90574D01*
D02*
G37*
G36*
X190136Y89221D02*
X189943D01*
Y89028D01*
X189556D01*
Y88834D01*
X189943D01*
Y88448D01*
X189749D01*
Y88255D01*
X189556D01*
Y88061D01*
X189170D01*
Y87868D01*
X189363D01*
Y87482D01*
X188783D01*
Y87288D01*
X189556D01*
Y87675D01*
X189749D01*
Y88061D01*
X189943D01*
Y88255D01*
X190136D01*
Y89221D01*
D02*
G37*
G36*
X185691Y87675D02*
X184918D01*
Y87482D01*
X185691D01*
Y87288D01*
X185884D01*
Y86709D01*
X186078D01*
Y86515D01*
X186464D01*
Y86322D01*
X186851D01*
Y86129D01*
X187624D01*
Y85935D01*
X188397D01*
Y86129D01*
X188976D01*
Y86322D01*
X189363D01*
Y86515D01*
X189556D01*
Y87095D01*
X189363D01*
Y86902D01*
X189170D01*
Y86709D01*
X188203D01*
Y86515D01*
X187430D01*
Y86709D01*
X186657D01*
Y86902D01*
X186271D01*
Y87095D01*
X186078D01*
Y87288D01*
X187044D01*
Y87095D01*
X188783D01*
Y87288D01*
X187044D01*
Y87482D01*
X185691D01*
Y87675D01*
D02*
G37*
G36*
X196513Y85163D02*
X195934D01*
Y84969D01*
X196513D01*
Y85163D01*
D02*
G37*
G36*
X195934Y84969D02*
X195547D01*
Y84776D01*
X195934D01*
Y84969D01*
D02*
G37*
G36*
X192455Y84390D02*
X192262D01*
Y84196D01*
X192455D01*
Y84390D01*
D02*
G37*
G36*
X192262Y84196D02*
X191875D01*
Y84003D01*
X192262D01*
Y84196D01*
D02*
G37*
G36*
X191875Y84003D02*
X191489D01*
Y83810D01*
X191875D01*
Y84003D01*
D02*
G37*
G36*
X191489Y83810D02*
X191295D01*
Y83617D01*
X191489D01*
Y83810D01*
D02*
G37*
G36*
X188010Y83037D02*
X187817D01*
Y82843D01*
X188010D01*
Y83037D01*
D02*
G37*
%LPD*%
G36*
X187817Y92120D02*
X187430D01*
Y92313D01*
X187817D01*
Y92120D01*
D02*
G37*
G36*
X188976Y92313D02*
X189363D01*
Y92120D01*
X189170D01*
Y91926D01*
X188203D01*
Y92313D01*
X187817D01*
Y92506D01*
X188976D01*
Y92313D01*
D02*
G37*
G36*
X187044Y92120D02*
X187237D01*
Y91926D01*
X187044D01*
Y92120D01*
X186851D01*
Y92313D01*
X187044D01*
Y92120D01*
D02*
G37*
G36*
X189749Y90767D02*
X189363D01*
Y90574D01*
X188397D01*
Y90767D01*
X188010D01*
Y90960D01*
X187817D01*
Y91153D01*
X187430D01*
Y91347D01*
X186851D01*
Y91153D01*
X186657D01*
Y90960D01*
X186464D01*
Y91347D01*
X186657D01*
Y91540D01*
Y91733D01*
Y91926D01*
X186851D01*
Y91733D01*
X189556D01*
Y91926D01*
X189749D01*
Y90767D01*
D02*
G37*
%LPC*%
G36*
X157476Y90574D02*
X157089D01*
Y90380D01*
X157476D01*
Y90574D01*
D02*
G37*
G36*
X102012Y82264D02*
X101818D01*
Y82070D01*
X102012D01*
Y82264D01*
D02*
G37*
G36*
X169458Y62358D02*
X169071D01*
Y62165D01*
X168685D01*
Y62358D01*
X168298D01*
Y61972D01*
X168685D01*
Y61779D01*
X168878D01*
Y61392D01*
X169264D01*
Y61779D01*
X169458D01*
Y61585D01*
X169651D01*
Y61199D01*
X170037D01*
Y61585D01*
X170231D01*
Y61779D01*
X170424D01*
Y61972D01*
X170617D01*
Y62165D01*
X169458D01*
Y62358D01*
D02*
G37*
G36*
X177188Y59460D02*
X176995D01*
Y59266D01*
X177188D01*
Y59460D01*
D02*
G37*
G36*
X108776Y65064D02*
X107616D01*
Y64484D01*
X107423D01*
Y64678D01*
X107229D01*
Y64871D01*
X106843D01*
Y64484D01*
X106456D01*
Y64291D01*
X106650D01*
Y64098D01*
X107036D01*
Y64484D01*
X107229D01*
Y64291D01*
X107423D01*
Y64098D01*
X107809D01*
Y64678D01*
X108196D01*
Y64871D01*
X108582D01*
Y64484D01*
X108969D01*
Y64871D01*
X108776D01*
Y65064D01*
D02*
G37*
G36*
X150905Y65451D02*
X150519D01*
Y64678D01*
X150132D01*
Y64871D01*
X149746D01*
Y65064D01*
X149552D01*
Y64678D01*
X149939D01*
Y64484D01*
X151871D01*
Y64678D01*
X152065D01*
Y65064D01*
X151871D01*
Y64871D01*
X151678D01*
Y64678D01*
X151485D01*
Y65064D01*
X151292D01*
Y65257D01*
X150905D01*
Y65451D01*
D02*
G37*
G36*
X140856Y59460D02*
X140469D01*
Y59266D01*
X139890D01*
Y59460D01*
X139503D01*
Y59266D01*
X139117D01*
Y58880D01*
X139310D01*
Y58687D01*
X139696D01*
Y58880D01*
X140469D01*
Y59073D01*
X140663D01*
Y59266D01*
X140856D01*
Y59460D01*
D02*
G37*
G36*
X138923Y58300D02*
X138730D01*
Y58107D01*
X138923D01*
Y58300D01*
D02*
G37*
G36*
X134865D02*
X134672D01*
Y58107D01*
D01*
D01*
X134865D01*
Y58300D01*
D02*
G37*
G36*
X194387Y82457D02*
X194194D01*
Y82264D01*
Y82070D01*
Y81491D01*
X194387D01*
Y81297D01*
X194581D01*
Y82264D01*
X194387D01*
Y82457D01*
D02*
G37*
G36*
X182792Y82070D02*
X182406D01*
Y81877D01*
X182212D01*
Y81684D01*
X182019D01*
Y81491D01*
X181246D01*
Y81297D01*
X180473D01*
Y81104D01*
Y80911D01*
X181246D01*
Y81104D01*
X182019D01*
Y81297D01*
X182406D01*
Y81491D01*
X182599D01*
Y81684D01*
X182792D01*
Y82070D01*
D02*
G37*
G36*
X195160Y80524D02*
X194774D01*
Y80138D01*
X195160D01*
Y79945D01*
X195547D01*
Y80331D01*
X195160D01*
Y80524D01*
D02*
G37*
G36*
X187624Y77819D02*
X187430D01*
Y77626D01*
X187624D01*
Y77819D01*
D02*
G37*
G36*
X194774Y68156D02*
X194387D01*
Y67770D01*
X194001D01*
Y67383D01*
X194387D01*
Y67576D01*
X194581D01*
Y67770D01*
X194774D01*
Y67963D01*
Y68156D01*
D02*
G37*
G36*
X182406Y66997D02*
X182019D01*
Y66610D01*
X182212D01*
Y66417D01*
X182406D01*
Y66224D01*
X182792D01*
Y66417D01*
Y66610D01*
X182599D01*
Y66803D01*
X182406D01*
Y66997D01*
D02*
G37*
G36*
X188590Y65451D02*
X188203D01*
Y65257D01*
X188010D01*
Y64871D01*
X187817D01*
Y65064D01*
X187430D01*
Y64678D01*
X187624D01*
Y64484D01*
X187817D01*
Y64291D01*
X188397D01*
Y64871D01*
X188590D01*
Y64291D01*
X189170D01*
Y64871D01*
Y65064D01*
X188783D01*
Y65257D01*
X188590D01*
Y65451D01*
D02*
G37*
G36*
X189749Y59653D02*
X189556D01*
Y59460D01*
X189749D01*
Y59653D01*
D02*
G37*
G36*
X188010D02*
X187817D01*
Y59460D01*
X188010D01*
Y59653D01*
D02*
G37*
G36*
X187624D02*
X187430D01*
Y59460D01*
X187624D01*
Y59653D01*
D02*
G37*
G36*
X187237D02*
X187044D01*
Y59266D01*
X187237D01*
Y59073D01*
X187430D01*
Y59460D01*
X187237D01*
Y59653D01*
D02*
G37*
G36*
X92542Y85356D02*
X92156D01*
Y85163D01*
X91962D01*
Y84969D01*
X92349D01*
Y85163D01*
X92542D01*
Y85356D01*
D02*
G37*
G36*
X99693D02*
X99306D01*
Y85163D01*
X99499D01*
Y84969D01*
X99886D01*
Y84776D01*
X100466D01*
Y84583D01*
X100659D01*
Y84776D01*
X100852D01*
Y84969D01*
X99886D01*
Y85163D01*
X99693D01*
Y85356D01*
D02*
G37*
G36*
X91962Y84969D02*
X91576D01*
Y84776D01*
X90996D01*
Y84583D01*
X90416D01*
Y84196D01*
X90610D01*
Y84390D01*
X91189D01*
Y84583D01*
X91769D01*
Y84776D01*
X91962D01*
Y84969D01*
D02*
G37*
G36*
X128488Y57140D02*
X128294D01*
Y56947D01*
X128488D01*
Y57140D01*
D02*
G37*
G36*
X127135Y56947D02*
X126942D01*
Y56754D01*
X127135D01*
Y56947D01*
D02*
G37*
G36*
X128488Y56754D02*
X128294D01*
Y56561D01*
D01*
D01*
X128488D01*
Y56754D01*
D02*
G37*
%LPD*%
D10*
X205335Y264646D02*
X204744D01*
X205335D01*
X385335Y284646D02*
X384744D01*
X385335D01*
Y458819D02*
X384744D01*
X385335D01*
X205335Y444724D02*
X204744D01*
X205335D01*
D11*
X208976Y90866D02*
Y266614D01*
X234724Y90866D02*
Y266614D01*
X208976D02*
X234724D01*
X208976Y90866D02*
X234724D01*
X388976Y110866D02*
X414724D01*
X388976Y286614D02*
X414724D01*
Y110866D02*
Y286614D01*
X388976Y110866D02*
Y286614D01*
Y285039D02*
X414724D01*
X388976Y460787D02*
X414724D01*
Y285039D02*
Y460787D01*
X388976Y285039D02*
Y460787D01*
X208976Y270945D02*
X234724D01*
X208976Y446693D02*
X234724D01*
Y270945D02*
Y446693D01*
X208976Y270945D02*
Y446693D01*
X375317Y280164D02*
X379315Y274166D01*
Y280164D02*
X375317Y274166D01*
X381315Y275166D02*
X382314Y274166D01*
X384314D01*
X385313Y275166D01*
Y279165D01*
X384314Y280164D01*
X382314D01*
X381315Y279165D01*
Y278165D01*
X382314Y277165D01*
X385313D01*
X196576Y260873D02*
X200575Y254875D01*
Y260873D02*
X196576Y254875D01*
X202574Y259873D02*
X203574Y260873D01*
X205574D01*
X206573Y259873D01*
Y258874D01*
X205574Y257874D01*
X206573Y256874D01*
Y255875D01*
X205574Y254875D01*
X203574D01*
X202574Y255875D01*
Y256874D01*
X203574Y257874D01*
X202574Y258874D01*
Y259873D01*
X203574Y257874D02*
X205574D01*
X383800Y470298D02*
X387799Y464300D01*
Y470298D02*
X383800Y464300D01*
X389798Y470298D02*
X393797D01*
Y469298D01*
X389798Y465300D01*
Y464300D01*
X203800Y456198D02*
X207799Y450200D01*
Y456198D02*
X203800Y450200D01*
X213797D02*
X209798D01*
X213797Y454199D01*
Y455198D01*
X212797Y456198D01*
X210798D01*
X209798Y455198D01*
M02*
